<?xml version="1.0" encoding="UTF-8"?>
<svg version="1.1" xmlns="http://www.w3.org/2000/svg" width="108" height="107">
<path d="M0 0 C35.64 0 71.28 0 108 0 C108 35.31 108 70.62 108 107 C72.36 107 36.72 107 0 107 C0 71.69 0 36.38 0 0 Z " fill="#5E6BAC" transform="translate(0,0)"/>
<path d="M0 0 C35.64 0 71.28 0 108 0 C108 35.31 108 70.62 108 107 C72.36 107 36.72 107 0 107 C0 71.69 0 36.38 0 0 Z M50 6 C47.79898096 8.83411844 47.79898096 8.83411844 47.5625 12.0625 C47.2840625 13.5165625 47.2840625 13.5165625 47 15 C46.01 15.66 45.02 16.32 44 17 C44 17.66 44 18.32 44 19 C43.34 19 42.68 19 42 19 C40.31002677 20.64302953 38.64783606 22.31471312 37 24 C35.92687098 24.90803225 34.84358954 25.80421614 33.75 26.6875 C30.98257806 28.7042322 30.98257806 28.7042322 30 31 C29.27941406 31.42925781 28.55882813 31.85851562 27.81640625 32.30078125 C19.8126024 37.1297059 12.2235979 44.13510578 9 53 C9 53.66 9 54.32 9 55 C8.34 55 7.68 55 7 55 C4.31348063 64.06700288 3.45751489 73.32628357 8 82 C8.99 82.66 9.98 83.32 11 84 C11.94428105 85.69970588 12.88805209 87.40169211 13.7421875 89.1484375 C15.44291412 91.6519916 17.61055193 93.15570008 20 95 C20.69738281 95.69480469 21.39476563 96.38960938 22.11328125 97.10546875 C28.71487374 103.355289 34.59704695 104.13060379 43.34277344 104.02197266 C46.49328365 103.99592103 49.63892876 104.05112612 52.7890625 104.10546875 C55.21351013 104.13547873 57.63799234 104.16281151 60.0625 104.1875 C61.22837646 104.20103516 62.39425293 104.21457031 63.59545898 104.22851562 C71.35970956 104.2330059 77.88016121 104.1968549 84.125 99.0625 C86.39765455 97.24526066 88.47212075 95.72459623 91 94.25 C91.66 93.8375 92.32 93.425 93 93 C93 92.34 93 91.68 93 91 C93.66 91 94.32 91 95 91 C100.11992495 81.4279664 100.66765068 69.16036675 97.9375 58.625 C94.11778697 48.08118384 85.9060193 40.56611083 78 33 C77.49339844 32.46375 76.98679687 31.9275 76.46484375 31.375 C74.57716721 29.60310096 72.49330485 28.33088709 70.3125 26.9375 C62.67308981 21.65469149 57.05931101 14.79551914 54 6 C52.68 6 51.36 6 50 6 Z " fill="#D8EBEB" transform="translate(0,0)"/>
<path d="M0 0 C26.11875 0 26.11875 0 36.6875 0.375 C38.43256836 0.42140625 38.43256836 0.42140625 40.21289062 0.46875 C41.32212891 0.50742188 42.43136719 0.54609375 43.57421875 0.5859375 C44.54963623 0.6173584 45.52505371 0.6487793 46.5300293 0.68115234 C49 1 49 1 52 3 C51 5 51 5 49.04296875 5.84765625 C46.3725072 7.35393953 46.13701669 8.53501061 45.3125 11.4375 C45.08175781 12.21996094 44.85101563 13.00242187 44.61328125 13.80859375 C44.41089844 14.53175781 44.20851562 15.25492188 44 16 C42.12113643 21.6365907 38.40806709 24.65151966 33.5859375 27.7890625 C31.7068569 29.08797234 31.7068569 29.08797234 30 32 C28.34418722 33.01787121 26.67573207 34.01526664 25 35 C17.66914704 40.74039492 12.37105446 46.24643317 9 55 C8.34 55 7.68 55 7 55 C5.73905027 63.51141067 4.30102456 73.90412922 8 82 C9.31569453 82.7008353 10.64994048 83.36789121 12 84 C12.89277944 85.68636117 13.78492257 87.3730668 14.671875 89.0625 C17.29701365 92.89211403 21.28122445 95.30968851 25 98 C25.66870117 98.67748291 26.33740234 99.35496582 27.02636719 100.05297852 C31.25213142 102.81984796 34.93668776 102.70291467 39.89453125 102.828125 C40.84188644 102.8668573 41.78924164 102.9055896 42.76530457 102.94549561 C45.78067416 103.06471668 48.79619814 103.15770102 51.8125 103.25 C53.86139338 103.32639448 55.91022373 103.40450001 57.95898438 103.484375 C62.97214211 103.67608632 67.9856005 103.8442792 73 104 C73 104.33 73 104.66 73 105 C63.43 105.33 53.86 105.66 44 106 C44 106.33 44 106.66 44 107 C29.48 107 14.96 107 0 107 C0 71.69 0 36.38 0 0 Z " fill="#D7E9ED" transform="translate(0,0)"/>
<path d="M0 0 C0 0.99 0 1.98 0 3 C1.65 2.34 3.3 1.68 5 1 C5.495 2.98 5.495 2.98 6 5 C6.61875 5.04125 7.2375 5.0825 7.875 5.125 C8.57625 5.41375 9.2775 5.7025 10 6 C11.25 9.0625 11.25 9.0625 12 12 C9.42483378 14.63746863 7.45668604 15.21887499 3.890625 15.29296875 C2.34347769 15.27313353 0.79646604 15.2375101 -0.75 15.1875 C-1.54277344 15.17396484 -2.33554687 15.16042969 -3.15234375 15.14648438 C-5.10185564 15.11125223 -7.05101626 15.05744821 -9 15 C-9 16.32 -9 17.64 -9 19 C-7.741875 18.95875 -6.48375 18.9175 -5.1875 18.875 C8.21114592 18.89623399 8.21114592 18.89623399 12.796875 22.35546875 C14.83713323 25.14426327 14.35532205 27.68366089 14 31 C12.90625 32.703125 12.90625 32.703125 11 34 C7.8203125 34.328125 7.8203125 34.328125 4.125 34.25 C2.30355469 34.22679688 2.30355469 34.22679688 0.4453125 34.203125 C-2.48478214 34.03037566 -5.15014474 33.671829 -8 33 C-8 36.3 -8 39.6 -8 43 C-9.98 43.495 -9.98 43.495 -12 44 C-11.505 44.7425 -11.505 44.7425 -11 45.5 C-9.56363642 49.09090894 -9.87148538 52.14456127 -10 56 C-25.33522999 54.96309833 -25.33522999 54.96309833 -30 50 C-30 50.61488281 -30 51.22976562 -30 51.86328125 C-30 55.90885417 -30 59.95442708 -30 64 C-34.455 64.495 -34.455 64.495 -39 65 C-39 64.34 -39 63.68 -39 63 C-39.66 63 -40.32 63 -41 63 C-41.54325344 52.59367859 -41.59909278 45.10949577 -36 36 C-35.28228718 34.01774554 -34.5861979 32.02504728 -34 30 C-33.01 30 -32.02 30 -31 30 C-31.33 28.68 -31.66 27.36 -32 26 C-30.40112446 24.51511559 -28.79571095 23.03726855 -27.1875 21.5625 C-25.84751953 20.32693359 -25.84751953 20.32693359 -24.48046875 19.06640625 C-22 17 -22 17 -19 16 C-17.31066078 14.3563186 -15.64740076 12.6857124 -14 11 C-12.9266748 10.09219965 -11.84334304 9.19608898 -10.75 8.3125 C-7.98257806 6.2957678 -7.98257806 6.2957678 -7 4 C-6.34 4 -5.68 4 -5 4 C-4.67 3.01 -4.34 2.02 -4 1 C-2 0 -2 0 0 0 Z " fill="#4F67B4" transform="translate(49,15)"/>
<path d="M0 0 C4.02044681 -0.14607549 8.04020497 -0.23433213 12.0625 -0.3125 C13.7630957 -0.3753418 13.7630957 -0.3753418 15.49804688 -0.43945312 C22.75337293 -0.5452159 26.63163186 -0.00645568 32 5 C34.38125302 8.00244946 34.4129405 11.24282439 34.328125 15.03125 C33.80947233 18.14316604 32.21445226 19.85067869 30 22 C27.65061112 23.17469444 26.04926795 23.20034889 23.4296875 23.31640625 C22.53378906 23.35830078 21.63789062 23.40019531 20.71484375 23.44335938 C19.30912109 23.50233398 19.30912109 23.50233398 17.875 23.5625 C16.93011719 23.60568359 15.98523437 23.64886719 15.01171875 23.69335938 C12.67462908 23.79959072 10.3374317 23.90163176 8 24 C7.566875 25.4540625 7.566875 25.4540625 7.125 26.9375 C6 30 6 30 4 31 C3.53248212 33.35599235 3.53248212 33.35599235 3.375 36.0625 C3.25125 37.691875 3.1275 39.32125 3 41 C8.28 40.01 13.56 39.02 19 38 C20.50796445 33.39184047 20.50796445 33.39184047 18.9375 31.25 C16.36492987 29.59027733 14.0128598 29.3347622 11 29 C11 28.34 11 27.68 11 27 C21.75100043 26.31132382 21.75100043 26.31132382 25.625 28.875 C28.90282866 31.80779406 28.96398103 32.4327013 29.25 36.9375 C29.34045875 39.35727156 29.25619186 40.59563747 27.953125 42.65234375 C25.05464811 44.65229281 21.90630479 45.05403844 18.5 45.625 C13.19026041 46.55697392 13.19026041 46.55697392 8 48 C7.67 50.64 7.34 53.28 7 56 C10.20700089 57.0690003 12.56992069 57.13332529 15.9375 57.125 C16.97777344 57.12757812 18.01804688 57.13015625 19.08984375 57.1328125 C21.57665971 57.01932023 23.63092407 56.71928571 26 56 C26 54.35 26 52.7 26 51 C27.98 51 29.96 51 32 51 C31.39252336 57.43925234 31.39252336 57.43925234 29.6875 59.875 C25.93893789 62.37404141 21.88638878 62.13506052 17.5 62.125 C16.3759375 62.12757812 15.251875 62.13015625 14.09375 62.1328125 C11.5279301 62.02266367 9.43733573 61.75270662 7 61 C7 62.98 7 64.96 7 67 C4.69 67 2.38 67 0 67 C0 65.02 0 63.04 0 61 C-0.639375 61.165 -1.27875 61.33 -1.9375 61.5 C-9.02506038 62.65715272 -14.63954441 62.50474083 -21 59 C-23.29013653 55.5647952 -23.17842973 54.014669 -23 50 C-19.61852341 51.44920425 -17.54262915 53.37261655 -15 56 C-10.40456709 58.29771645 -3.82752346 57.24581251 1 56 C1 53.36 1 50.72 1 48 C0.29875 47.89042969 -0.4025 47.78085938 -1.125 47.66796875 C-7.09096094 46.67093995 -12.41342368 45.31895621 -18 43 C-18 42.34 -18 41.68 -18 41 C-19.32 40.34 -20.64 39.68 -22 39 C-22 36.69 -22 34.38 -22 32 C-21.67 32.66 -21.34 33.32 -21 34 C-20.01 34.33 -19.02 34.66 -18 35 C-18 35.66 -18 36.32 -18 37 C-17.236875 37.12375 -16.47375 37.2475 -15.6875 37.375 C-10.78338778 38.20620546 -5.89286908 39.10496297 -1 40 C-1.66 36.04 -2.32 32.08 -3 28 C-2.01 27.67 -1.02 27.34 0 27 C0.33 23.7 0.66 20.4 1 17 C2.34835938 17.02320312 3.69671875 17.04640625 5.0859375 17.0703125 C6.84895281 17.08906798 8.61197409 17.10726842 10.375 17.125 C11.70917969 17.15013672 11.70917969 17.15013672 13.0703125 17.17578125 C13.92109375 17.18222656 14.771875 17.18867187 15.6484375 17.1953125 C16.43395996 17.20578613 17.21948242 17.21625977 18.02880859 17.22705078 C20.234465 17.17990127 20.234465 17.17990127 22 15 C22.58342353 11.54230809 22.58342353 11.54230809 22 8 C17.84896018 4.5380656 13.36553557 4.28559797 8.1875 3.8125 C7.39923828 3.73064453 6.61097656 3.64878906 5.79882812 3.56445312 C3.86697624 3.36541384 1.93360587 3.18120893 0 3 C0 2.01 0 1.02 0 0 Z " fill="#DBE8F7" transform="translate(40,31)"/>
<path d="M0 0 C1.32 0 2.64 0 4 0 C4.515625 1.134375 5.03125 2.26875 5.5625 3.4375 C9.72129156 11.63915862 14.78995101 17.37511278 22.5703125 22.296875 C25.38815098 24.27208011 27.60695577 26.52952291 30 29 C30.88558594 29.82757813 31.77117187 30.65515625 32.68359375 31.5078125 C41.64522121 40.02453646 48.3110049 49.14149163 49.30078125 61.8671875 C49.31937536 63.20300131 49.32296441 64.53909777 49.3125 65.875 C49.31048584 66.57318848 49.30847168 67.27137695 49.30639648 67.99072266 C49.18278777 74.36656367 47.84655182 79.30689636 45 85 C44.34 85 43.68 85 43 85 C42.773125 85.598125 42.54625 86.19625 42.3125 86.8125 C40.64390958 89.59348403 38.8716168 90.5641916 36 92 C35.34 92 34.68 92 34 92 C35.0975223 89.00675737 35.67682892 88.15389099 38.625 86.75 C39.40875 86.5025 40.1925 86.255 41 86 C41.33 82.7 41.66 79.4 42 76 C40.515 76.103125 39.03 76.20625 37.5 76.3125 C31.98214277 76.32819803 28.06029138 74.76345546 24 71 C22.3379135 66.0137405 22.47359526 61.59719711 24.3125 56.6875 C25.81858283 53.83532116 26.62608119 53.13073708 29.71484375 52.05078125 C32.48425832 51.54822339 35.19311976 51.19357795 38 51 C38 48.36 38 45.72 38 43 C37.01 42.67 36.02 42.34 35 42 C33.35179805 39.39757586 33 38.13751221 33 35 C30.69 34.67 28.38 34.34 26 34 C25.67 36.64 25.34 39.28 25 42 C24.67 42 24.34 42 24 42 C23.90203125 41.15695313 23.8040625 40.31390625 23.703125 39.4453125 C23.55359375 38.34960938 23.4040625 37.25390625 23.25 36.125 C23.11078125 35.03445312 22.9715625 33.94390625 22.828125 32.8203125 C22.30125036 29.90822001 22.30125036 29.90822001 20.109375 28.7421875 C19.41328125 28.49726562 18.7171875 28.25234375 18 28 C17.01 27.34 16.02 26.68 15 26 C12.28924456 25.63201307 12.28924456 25.63201307 9.23828125 25.5859375 C8.12001953 25.54726563 7.00175781 25.50859375 5.84960938 25.46875 C4.68236328 25.4378125 3.51511719 25.406875 2.3125 25.375 C1.13365234 25.33632813 -0.04519531 25.29765625 -1.25976562 25.2578125 C-4.17301977 25.16345609 -7.08626607 25.07786839 -10 25 C-10 24.67 -10 24.34 -10 24 C-5.05 23.67 -0.1 23.34 5 23 C5 22.67 5 22.34 5 22 C6.65 21.67 8.3 21.34 10 21 C9.22520264 18.00847418 9.22520264 18.00847418 8 15 C7.01 14.67 6.02 14.34 5 14 C4.3125 11.9375 4.3125 11.9375 4 10 C2.35 10.66 0.7 11.32 -1 12 C-1.2226746 10.56465159 -1.42761906 9.12654475 -1.625 7.6875 C-1.74101563 6.88699219 -1.85703125 6.08648437 -1.9765625 5.26171875 C-2 3 -2 3 0 0 Z " fill="#6A81B4" transform="translate(50,6)"/>
<path d="M0 0 C0.33 0.66 0.66 1.32 1 2 C1.66 2.33 2.32 2.66 3 3 C2.38125 3.04125 1.7625 3.0825 1.125 3.125 C0.42375 3.41375 -0.2775 3.7025 -1 4 C-2.10202887 6.63178728 -2.10202887 6.63178728 -3 10 C-3.68666051 11.27128713 -4.3742493 12.54207307 -5.0625 13.8125 C-8.25210489 20.68971501 -7.82905107 28.55517417 -8 36 C-7.34 36 -6.68 36 -6 36 C-6 36.66 -6 37.32 -6 38 C-1.545 37.505 -1.545 37.505 3 37 C3 36.34 3 35.68 3 35 C2.34 34.67 1.68 34.34 1 34 C1.495 31.03 1.495 31.03 2 28 C3.32 28.66 4.64 29.32 6 30 C6 30.66 6 31.32 6 32 C7.27230469 32.18369141 7.27230469 32.18369141 8.5703125 32.37109375 C12.12035158 33.02206903 15.43525424 33.97441716 18.875 35.0625 C20.02742188 35.42472656 21.17984375 35.78695312 22.3671875 36.16015625 C23.23601563 36.43730469 24.10484375 36.71445313 25 37 C25 39.64 25 42.28 25 45 C20.44644324 47.35022284 16.01556725 47.72663695 11 47 C7.02033605 44.89753603 4.05240393 42.28720424 1 39 C1.66 41.97 2.32 44.94 3 48 C9.88002171 50.62096065 16.72176039 50.18170362 24 50 C24 51.98 24 53.96 24 56 C26.31 56 28.62 56 31 56 C31 54.02 31 52.04 31 50 C32.75376953 50.03480469 32.75376953 50.03480469 34.54296875 50.0703125 C36.09113942 50.08907821 37.63931703 50.10727755 39.1875 50.125 C39.95642578 50.14175781 40.72535156 50.15851563 41.51757812 50.17578125 C45.82145797 50.21272442 49.07869108 49.99388589 53 48 C53.66 47.67 54.32 47.34 55 47 C53.97141289 49.98290263 53.12916671 50.92311505 50.375 52.5625 C46.72382086 54.11763186 43.55630979 54.70535823 39.625 55.1875 C37.75714844 55.42533203 37.75714844 55.42533203 35.8515625 55.66796875 C34.91054688 55.77753906 33.96953125 55.88710937 33 56 C32.67 56.99 32.34 57.98 32 59 C46.27531061 59.68037555 46.27531061 59.68037555 60.078125 56.66796875 C62.74417815 55.74135272 65.21036874 55.77976595 68 56 C64.40476097 60.12395065 62.39114092 61.41180054 57 62 C55.02489907 62.0879519 53.04736946 62.13057782 51.0703125 62.1328125 C49.95261475 62.13539062 48.83491699 62.13796875 47.68334961 62.140625 C42.87768854 62.11952295 38.07246773 62.08504818 33.26708984 62.02832031 C30.51601705 62.00447302 27.77027396 62.02109241 25.01953125 62.0546875 C15.61920337 62.02116511 10.63311946 59.60859776 4 53 C3.14148437 52.34 2.28296875 51.68 1.3984375 51 C-0.94709042 49.04412004 -2.20013074 47.44628012 -3.6875 44.8125 C-5.28177756 41.82956113 -5.28177756 41.82956113 -8 40 C-12.39097422 31.15762531 -11.72551973 22.19862908 -9 13 C-8.34 13 -7.68 13 -7 13 C-6.731875 12.29875 -6.46375 11.5975 -6.1875 10.875 C-2.88888889 2.88888889 -2.88888889 2.88888889 0 0 Z " fill="#5B6FB2" transform="translate(16,42)"/>
<path d="M0 0 C0.66 0 1.32 0 2 0 C1.97679687 1.26714844 1.95359375 2.53429688 1.9296875 3.83984375 C1.91091167 5.53905655 1.89271343 7.2382758 1.875 8.9375 C1.85824219 9.76830078 1.84148438 10.59910156 1.82421875 11.45507812 C1.74020405 19.93073842 1.74020405 19.93073842 4 28 C5.31569011 28.7008436 6.64994445 29.36788273 8 30 C8.89277944 31.68636117 9.78492257 33.3730668 10.671875 35.0625 C13.29701365 38.89211403 17.28122445 41.30968851 21 44 C21.66870117 44.67748291 22.33740234 45.35496582 23.02636719 46.05297852 C27.25213142 48.81984796 30.93668776 48.70291467 35.89453125 48.828125 C36.84188644 48.8668573 37.78924164 48.9055896 38.76530457 48.94549561 C41.78067416 49.06471668 44.79619814 49.15770102 47.8125 49.25 C49.86139338 49.32639448 51.91022373 49.40450001 53.95898438 49.484375 C58.97214211 49.67608632 63.9856005 49.8442792 69 50 C69 50.33 69 50.66 69 51 C59.43 51.33 49.86 51.66 40 52 C40 52.33 40 52.66 40 53 C25.48 53 10.96 53 -4 53 C-4 37.49 -4 21.98 -4 6 C-3.01 6 -2.02 6 -1 6 C-0.67 4.02 -0.34 2.04 0 0 Z " fill="#E2EBE9" transform="translate(4,54)"/>
<path d="M0 0 C0.99 0.33 1.98 0.66 3 1 C3.08132187 3.56314499 3.14064175 6.12368418 3.1875 8.6875 C3.21263672 9.40873047 3.23777344 10.12996094 3.26367188 10.87304688 C3.32556454 15.39121115 3.22110827 18.67498501 0 22 C-3.35546875 22.48828125 -3.35546875 22.48828125 -7.1875 22.3125 C-8.45980469 22.26738281 -9.73210938 22.22226562 -11.04296875 22.17578125 C-12.01878906 22.11777344 -12.99460937 22.05976562 -14 22 C-14.144375 22.804375 -14.28875 23.60875 -14.4375 24.4375 C-15 27 -15 27 -16 28 C-16.16092167 32.18396331 -15.90600889 35.92296 -15 40 C-15 41.66666667 -15 43.33333333 -15 45 C-19.455 45.495 -19.455 45.495 -24 46 C-24 45.34 -24 44.68 -24 44 C-24.66 44 -25.32 44 -26 44 C-27.37791458 27.67553978 -27.37791458 27.67553978 -22.375 20.875 C-20.94728383 19.22303522 -19.49124968 17.59484655 -18 16 C-17.51144531 15.35933594 -17.02289063 14.71867187 -16.51953125 14.05859375 C-12.3127426 8.544123 -6.63348183 4.93479992 -1 1 C-0.67 0.67 -0.34 0.34 0 0 Z " fill="#4452DD" transform="translate(34,34)"/>
<path d="M0 0 C1 2 1 2 0.0625 5.125 C-0.4634375 6.548125 -0.4634375 6.548125 -1 8 C-1.66 8 -2.32 8 -3 8 C-2.835 8.51304688 -2.67 9.02609375 -2.5 9.5546875 C-1.83988703 12.78305247 -1.94501676 15.83287831 -2 19.125 C-2.26438564 23.72725335 -2.26438564 23.72725335 -1 28 C-4.74303963 29.87151982 -9.30860325 29.00751314 -13.421875 28.9375 C-16.73217938 28.99532191 -19.75715807 29.36336846 -23 30 C-23 32.64 -23 35.28 -23 38 C-23.66 38 -24.32 38 -25 38 C-25 35.36 -25 32.72 -25 30 C-18.33643582 26.50956162 -11.40349509 25.87281149 -4 25 C-4 21.04 -4 17.08 -4 13 C-5.32 12.34 -6.64 11.68 -8 11 C-8.66 10.67 -9.32 10.34 -10 10 C-11.87056791 9.7724985 -13.74685958 9.59037189 -15.625 9.4375 C-16.62789062 9.35371094 -17.63078125 9.26992188 -18.6640625 9.18359375 C-19.82035156 9.09271484 -19.82035156 9.09271484 -21 9 C-21 9.66 -21 10.32 -21 11 C-20.0925 10.9175 -19.185 10.835 -18.25 10.75 C-15 11 -15 11 -12.5625 12.6875 C-11 15 -11 15 -11 17.625 C-12 20 -12 20 -13.640625 21.109375 C-16.7004604 22.2644122 -19.49005053 22.42940303 -22.75 22.625 C-23.92046875 22.69976562 -25.0909375 22.77453125 -26.296875 22.8515625 C-27.18890625 22.90054688 -28.0809375 22.94953125 -29 23 C-29.08090971 21.37581255 -29.13914995 19.75048255 -29.1875 18.125 C-29.22230469 17.22007813 -29.25710937 16.31515625 -29.29296875 15.3828125 C-29.19628906 14.59648438 -29.09960938 13.81015625 -29 13 C-28.01 12.34 -27.02 11.68 -26 11 C-24.78715124 7.94570927 -24.78715124 7.94570927 -24 5 C-23.41508789 4.9906543 -22.83017578 4.98130859 -22.22753906 4.97167969 C-19.5675142 4.91786721 -16.90922778 4.83424551 -14.25 4.75 C-12.86941406 4.72873047 -12.86941406 4.72873047 -11.4609375 4.70703125 C-6.00181875 4.58295132 -6.00181875 4.58295132 -1.359375 1.953125 C-0.68648437 0.98632812 -0.68648437 0.98632812 0 0 Z " fill="#6875B7" transform="translate(72,49)"/>
<path d="M0 0 C2.16874252 0.50603992 3.99967627 0.99983813 6 2 C7.70363822 2.22622081 9.41328701 2.40888473 11.125 2.5625 C12.49011719 2.68818359 12.49011719 2.68818359 13.8828125 2.81640625 C14.58148438 2.87699219 15.28015625 2.93757813 16 3 C16 4.65 16 6.3 16 8 C15.01 8.33 14.02 8.66 13 9 C12.31513275 10.32407669 11.65129797 11.65909241 11 13 C6.07989379 18.72704846 -0.98376351 20.59571885 -8.33251953 21.18798828 C-22.50134892 21.74932554 -22.50134892 21.74932554 -26 20 C-25.67 18.68 -25.34 17.36 -25 16 C-23.81921875 15.81824219 -22.6384375 15.63648437 -21.421875 15.44921875 C-19.86448627 15.19590854 -18.30719977 14.94196923 -16.75 14.6875 C-15.97269531 14.56955078 -15.19539063 14.45160156 -14.39453125 14.33007812 C-8.61409578 13.41279468 -8.61409578 13.41279468 -4 10 C-2.67479241 7.52807696 -2.67479241 7.52807696 -1.75 4.8125 C-1.24726562 3.46091797 -1.24726562 3.46091797 -0.734375 2.08203125 C-0.49203125 1.39496094 -0.2496875 0.70789063 0 0 Z " fill="#4D54D2" transform="translate(74,81)"/>
<path d="M0 0 C4.33955391 -0.43395539 6.54849386 -0.25919797 10.375 1.9375 C13.44494704 4.82637777 13.97712865 7.73075246 14.17578125 11.84765625 C13.92610541 14.90479823 12.97054881 16.67756747 11 19 C6.5363201 21.9757866 2.23458514 21.61978683 -3 21 C-5.63121211 19.96685482 -6.87124994 18.96069084 -9 17 C-10.52702528 12.41892416 -10.69300329 8.59390757 -8.75 4.125 C-6.84080893 1.80669656 -5.93752254 1.30388164 -3 1 C-3.33 2.32 -3.66 3.64 -4 5 C-2.02 5 -0.04 5 2 5 C2.33 5.99 2.66 6.98 3 8 C3.99 8 4.98 8 6 8 C6 8.66 6 9.32 6 10 C7.65 9.67 9.3 9.34 11 9 C9.76360481 5.29081444 8.13537518 4.73767749 4.7890625 2.96484375 C3 2 3 2 0 0 Z " fill="#98C1CC" transform="translate(83,60)"/>
<path d="M0 0 C0.99 0.66 1.98 1.32 3 2 C3 2.99 3 3.98 3 5 C3.66 5 4.32 5 5 5 C5.99 6.485 5.99 6.485 7 8 C7.99 8.66 8.98 9.32 10 10 C14.33447345 18.31220011 14.32030913 29.94258177 12.35546875 38.95703125 C11.44171971 41.74329064 10.31118794 44.37762412 9 47 C8.34 47 7.68 47 7 47 C6.773125 47.598125 6.54625 48.19625 6.3125 48.8125 C4.64390958 51.59348403 2.8716168 52.5641916 0 54 C-0.66 54 -1.32 54 -2 54 C-0.9024777 51.00675737 -0.32317108 50.15389099 2.625 48.75 C3.40875 48.5025 4.1925 48.255 5 48 C5.33 44.7 5.66 41.4 6 38 C2.7 38 -0.6 38 -4 38 C-4 37.67 -4 37.34 -4 37 C-3.09507813 36.94392578 -3.09507813 36.94392578 -2.171875 36.88671875 C1.28192528 36.60261582 4.29550248 36.29941145 7.5 34.9375 C9.83323582 31.92373707 10.06506777 28.69440358 10 25 C9.22705685 21.83795986 8.45575895 20.44056699 6.125 18.1875 C3.82375314 16.67478576 3.82375314 16.67478576 0 17 C1.7015625 17.86625 1.7015625 17.86625 3.4375 18.75 C6.86983743 20.68760984 6.86983743 20.68760984 7.9375 23.25 C7.958125 23.8275 7.97875 24.405 8 25 C6.35 25.33 4.7 25.66 3 26 C3 25.34 3 24.68 3 24 C2.01 24 1.02 24 0 24 C-0.33 23.34 -0.66 22.68 -1 22 C-4.02934491 21.34227572 -4.02934491 21.34227572 -7 21 C-6.67 19.68 -6.34 18.36 -6 17 C-6.99 17 -7.98 17 -9 17 C-9 16.34 -9 15.68 -9 15 C-3.555 14.01 -3.555 14.01 2 13 C2.23509196 8.18061476 1.45184478 4.53701494 0 0 Z " fill="#55709A" transform="translate(86,44)"/>
<path d="M0 0 C0.33 0 0.66 0 1 0 C1.103125 0.94875 1.20625 1.8975 1.3125 2.875 C1.68539295 6.29107501 1.68539295 6.29107501 5 8 C7.83784221 8.28034392 7.83784221 8.28034392 10.9375 8.1875 C11.97777344 8.18105469 13.01804688 8.17460938 14.08984375 8.16796875 C16.56066692 8.02535748 18.64177041 7.71031012 21 7 C21 5.35 21 3.7 21 2 C22.98 2 24.96 2 27 2 C26.39252336 8.43925234 26.39252336 8.43925234 24.6875 10.875 C20.93893789 13.37404141 16.88638878 13.13506052 12.5 13.125 C11.3759375 13.12757812 10.251875 13.13015625 9.09375 13.1328125 C6.5279301 13.02266367 4.43733573 12.75270662 2 12 C2 13.98 2 15.96 2 18 C-0.31 18 -2.62 18 -5 18 C-5 16.02 -5 14.04 -5 12 C-5.639375 12.165 -6.27875 12.33 -6.9375 12.5 C-14.02506038 13.65715272 -19.63954441 13.50474083 -26 10 C-28.29013653 6.5647952 -28.17842973 5.014669 -28 1 C-24.61852341 2.44920425 -22.54262915 4.37261655 -20 7 C-15.3352363 9.33238185 -8.91140847 8.15562552 -4 7 C-3.01 7 -2.02 7 -1 7 C-0.67 4.69 -0.34 2.38 0 0 Z " fill="#DCEDF6" transform="translate(45,80)"/>
<path d="M0 0 C2.96458379 0.82619548 5.35682623 1.49485938 8 3 C9.8125 6.5 9.8125 6.5 11 10 C11.556875 10.515625 12.11375 11.03125 12.6875 11.5625 C14 13 14 13 14.1875 16.1875 C14.0946875 17.5796875 14.0946875 17.5796875 14 19 C9.82262526 20.59138085 6.46839215 21.21278058 2 21 C1.67 22.32 1.34 23.64 1 25 C-1.31 24.34 -3.62 23.68 -6 23 C-6 21.68 -6 20.36 -6 19 C-5.34 18.67 -4.68 18.34 -4 18 C-3.31527335 16.11235097 -3.31527335 16.11235097 -2.875 13.9375 C-2.70742187 13.20402344 -2.53984375 12.47054687 -2.3671875 11.71484375 C-2.24601562 11.14894531 -2.12484375 10.58304688 -2 10 C-1.34 10 -0.68 10 0 10 C0 6.7 0 3.4 0 0 Z " fill="#485EBA" transform="translate(75,38)"/>
<path d="M0 0 C0.33 0.99 0.66 1.98 1 3 C-1 5 -1 5 -4.2578125 5.1953125 C-5.53398437 5.17210937 -6.81015625 5.14890625 -8.125 5.125 C-10.04699219 5.09792969 -10.04699219 5.09792969 -12.0078125 5.0703125 C-13.48894531 5.03550781 -13.48894531 5.03550781 -15 5 C-15.144375 5.804375 -15.28875 6.60875 -15.4375 7.4375 C-16 10 -16 10 -17 11 C-17.16092167 15.18396331 -16.90600889 18.92296 -16 23 C-16 24.66666667 -16 26.33333333 -16 28 C-18.97 28.33 -21.94 28.66 -25 29 C-25 28.34 -25 27.68 -25 27 C-25.66 27 -26.32 27 -27 27 C-27.10812003 24.24894578 -27.18734945 21.50214913 -27.25 18.75 C-27.28351562 17.97269531 -27.31703125 17.19539063 -27.3515625 16.39453125 C-27.45112665 10.57002825 -27.45112665 10.57002825 -24.984375 7.453125 C-24.32953125 6.97359375 -23.6746875 6.4940625 -23 6 C-22.67 6.66 -22.34 7.32 -22 8 C-19.47570615 6.91815978 -18.07463321 6.09121837 -16.3125 3.9375 C-13.08633255 1.23449484 -10.89158519 1.59660796 -6.75 1.75 C-5.48671875 1.78609375 -4.2234375 1.8221875 -2.921875 1.859375 C-1.47554687 1.92898437 -1.47554687 1.92898437 0 2 C0 1.34 0 0.68 0 0 Z " fill="#4554C6" transform="translate(35,51)"/>
<path d="M0 0 C3.96669103 1.27500783 4.81927012 3.52714006 6.66796875 7.0625 C8.81008887 10.17831109 11.73537545 12.13890807 14.78125 14.32421875 C17 16 17 16 21 20 C12.09 20 3.18 20 -6 20 C-6 17.36 -6 14.72 -6 12 C-2.6828589 10.5783681 0.44219804 9.60990891 4 9 C4 8.34 4 7.68 4 7 C2.68 7.33 1.36 7.66 0 8 C0 5.36 0 2.72 0 0 Z " fill="#B6DEE4" transform="translate(8,82)"/>
<path d="M0 0 C0 3 0 3 -1.453125 4.58203125 C-5.07482474 6.59840703 -8.68436816 7.07057577 -12.75 7.6875 C-13.54277344 7.81705078 -14.33554687 7.94660156 -15.15234375 8.08007812 C-17.09994074 8.39685595 -19.04977861 8.69980217 -21 9 C-21.33 9.99 -21.66 10.98 -22 12 C-7.72468939 12.68037555 -7.72468939 12.68037555 6.078125 9.66796875 C8.74417815 8.74135272 11.21036874 8.77976595 14 9 C10.40476097 13.12395065 8.39114092 14.41180054 3 15 C1.02489907 15.0879519 -0.95263054 15.13057782 -2.9296875 15.1328125 C-4.60744263 15.13571289 -4.60744263 15.13571289 -6.3190918 15.13867188 C-7.4925415 15.13416016 -8.66599121 15.12964844 -9.875 15.125 C-11.07487549 15.12306641 -12.27475098 15.12113281 -13.51098633 15.11914062 C-22.3754043 15.07616452 -31.16762374 14.75744727 -40 14 C-40 13.67 -40 13.34 -40 13 C-39.22914062 12.93941406 -38.45828125 12.87882812 -37.6640625 12.81640625 C-36.66117188 12.73261719 -35.65828125 12.64882812 -34.625 12.5625 C-33.62726562 12.48128906 -32.62953125 12.40007812 -31.6015625 12.31640625 C-29.02072387 12.15034374 -29.02072387 12.15034374 -27 11 C-27.66 10.34 -28.32 9.68 -29 9 C-27.02 9 -25.04 9 -23 9 C-23 7.02 -23 5.04 -23 3 C-21.83082031 3.02320312 -20.66164063 3.04640625 -19.45703125 3.0703125 C-17.90886058 3.08907821 -16.36068297 3.10727755 -14.8125 3.125 C-14.04357422 3.14175781 -13.27464844 3.15851563 -12.48242188 3.17578125 C-8.19965944 3.21254316 -4.88619469 3.03742246 -1 1 C-0.67 0.67 -0.34 0.34 0 0 Z " fill="#6065BE" transform="translate(70,89)"/>
<path d="M0 0 C1.794375 0.7425 1.794375 0.7425 3.625 1.5 C9.97816223 3.66515769 16.37049662 3.2546182 23 3 C23.33 4.98 23.66 6.96 24 9 C26.475 9.495 26.475 9.495 29 10 C23.45443479 13.69704347 18.59453799 14.10699679 12 13 C6.25416911 9.86036827 2.05771149 6.31695302 0 0 Z " fill="#5B6AB2" transform="translate(17,89)"/>
<path d="M0 0 C1.32 0 2.64 0 4 0 C4.8353125 1.7634375 4.8353125 1.7634375 5.6875 3.5625 C7.11430644 6.45165611 8.64785671 8.95963488 10.625 11.5 C13.36323455 15.14260559 14.02684583 18.58337724 15 23 C15.66 23.66 16.32 24.32 17 25 C8.09 25 -0.82 25 -10 25 C-10 24.67 -10 24.34 -10 24 C-5.05 23.67 -0.1 23.34 5 23 C5 22.67 5 22.34 5 22 C6.65 21.67 8.3 21.34 10 21 C9.22520264 18.00847418 9.22520264 18.00847418 8 15 C7.01 14.67 6.02 14.34 5 14 C4.3125 11.9375 4.3125 11.9375 4 10 C2.35 10.66 0.7 11.32 -1 12 C-1.2226746 10.56465159 -1.42761906 9.12654475 -1.625 7.6875 C-1.74101563 6.88699219 -1.85703125 6.08648437 -1.9765625 5.26171875 C-2 3 -2 3 0 0 Z " fill="#5A6EB5" transform="translate(50,6)"/>
<path d="M0 0 C0.85464844 -0.00515625 1.70929687 -0.0103125 2.58984375 -0.015625 C5.21923987 0.26683777 6.83912569 0.83738635 9.0625 2.25 C10.66975635 5.46451269 10.11998185 8.68612536 10.0625 12.25 C-1.45914009 11.47095672 -1.45914009 11.47095672 -6.9375 9.25 C-7.2675 6.94 -7.5975 4.63 -7.9375 2.25 C-4.71002945 0.09835297 -3.73244361 -0.02245079 0 0 Z " fill="#4A56B9" transform="translate(28.9375,58.75)"/>
<path d="M0 0 C1.65 0 3.3 0 5 0 C4.835 0.680625 4.67 1.36125 4.5 2.0625 C3.79161941 6.22423598 3.48491568 10.14569646 4.625 14.25 C7.24740879 17.58761119 10.4881076 18.76531819 14.6171875 19.40625 C17.07788355 19.65719917 19.53078366 19.85848365 22 20 C23.25482902 24.26641867 22.9591409 26.99266635 21 31 C18.5 32.1875 18.5 32.1875 16 33 C15.34 33.99 14.68 34.98 14 36 C13.01 35.67 12.02 35.34 11 35 C11.95421808 33.85073734 12.91352045 32.70569459 13.875 31.5625 C14.40867187 30.92441406 14.94234375 30.28632812 15.4921875 29.62890625 C17 28 17 28 19 27 C19 25.68 19 24.36 19 23 C18.41992188 22.96261719 17.83984375 22.92523438 17.2421875 22.88671875 C12.18321136 22.46096333 8.45720842 21.62861009 4 19 C3.34 21.31 2.68 23.62 2 26 C0.75453595 23.50907189 1.2232422 22.58919267 2 20 C0.68 19.34 -0.64 18.68 -2 18 C-1.84660156 17.31550781 -1.69320312 16.63101563 -1.53515625 15.92578125 C-0.94066589 12.67561131 -0.67050324 9.48283155 -0.4375 6.1875 C-0.35371094 5.02605469 -0.26992187 3.86460938 -0.18359375 2.66796875 C-0.12300781 1.78753906 -0.06242187 0.90710937 0 0 Z " fill="#475EB2" transform="translate(70,62)"/>
<path d="M0 0 C1 2 1 2 0.0625 5.125 C-0.4634375 6.548125 -0.4634375 6.548125 -1 8 C-1.66 8 -2.32 8 -3 8 C-2.835 8.51304688 -2.67 9.02609375 -2.5 9.5546875 C-1.83988703 12.78305247 -1.94501676 15.83287831 -2 19.125 C-2.26438564 23.72725335 -2.26438564 23.72725335 -1 28 C-4.74303963 29.87151982 -9.30860325 29.00751314 -13.421875 28.9375 C-16.73217938 28.99532191 -19.75715807 29.36336846 -23 30 C-23 32.64 -23 35.28 -23 38 C-23.66 38 -24.32 38 -25 38 C-25 35.36 -25 32.72 -25 30 C-18.33643582 26.50956162 -11.40349509 25.87281149 -4 25 C-4 21.04 -4 17.08 -4 13 C-5.32 12.34 -6.64 11.68 -8 11 C-8.66 10.67 -9.32 10.34 -10 10 C-11.70363822 9.77377919 -13.41328701 9.59111527 -15.125 9.4375 C-16.03507812 9.35371094 -16.94515625 9.26992188 -17.8828125 9.18359375 C-18.93082031 9.09271484 -18.93082031 9.09271484 -20 9 C-20 8.67 -20 8.34 -20 8 C-14.06 7.505 -14.06 7.505 -8 7 C-13.28 6.67 -18.56 6.34 -24 6 C-24 5.67 -24 5.34 -24 5 C-23.41508789 4.9906543 -22.83017578 4.98130859 -22.22753906 4.97167969 C-19.5675142 4.91786721 -16.90922778 4.83424551 -14.25 4.75 C-12.86941406 4.72873047 -12.86941406 4.72873047 -11.4609375 4.70703125 C-6.00181875 4.58295132 -6.00181875 4.58295132 -1.359375 1.953125 C-0.68648437 0.98632812 -0.68648437 0.98632812 0 0 Z " fill="#798EBC" transform="translate(72,49)"/>
<path d="M0 0 C0.33 1.32 0.66 2.64 1 4 C1.61875 4.04125 2.2375 4.0825 2.875 4.125 C3.57625 4.41375 4.2775 4.7025 5 5 C6.25 8.0625 6.25 8.0625 7 11 C1.60539047 13.27141454 -3.26157749 13.20413361 -9 13 C-9.8125 10.875 -9.8125 10.875 -10 8 C-4.35294118 0 -4.35294118 0 0 0 Z " fill="#4A59C5" transform="translate(54,16)"/>
<path d="M0 0 C14.01408056 -0.21126755 28.0002519 0.42640239 42 1 C42 1.33 42 1.66 42 2 C32.43 2.33 22.86 2.66 13 3 C13 3.33 13 3.66 13 4 C-1.52 4 -16.04 4 -31 4 C-31 3.34 -31 2.68 -31 2 C-15.655 1.505 -15.655 1.505 0 1 C0 0.67 0 0.34 0 0 Z " fill="#B3B3C5" transform="translate(31,103)"/>
<path d="M0 0 C0.33 0.99 0.66 1.98 1 3 C3.97 3 6.94 3 10 3 C10 3.33 10 3.66 10 4 C7.36 4 4.72 4 2 4 C2.12568359 5.23363281 2.12568359 5.23363281 2.25390625 6.4921875 C3.66962719 22.01135632 3.66962719 22.01135632 2 27 C-1.27772537 29.53456568 -4.62214955 29.17544725 -8.625 29.0625 C-12.97294483 28.78150949 -12.97294483 28.78150949 -17 30 C-17.65213292 32.02463255 -17.65213292 32.02463255 -18 34 C-18.66 34 -19.32 34 -20 34 C-20.66 35.32 -21.32 36.64 -22 38 C-22.40706205 33.8479671 -22.52105859 31.71955709 -20.03125 28.28125 C-15.95029349 25.21001469 -13.1266216 25.42048214 -8.1875 25.6875 C-4.1346875 25.8421875 -4.1346875 25.8421875 0 26 C0 17.42 0 8.84 0 0 Z " fill="#829CD9" transform="translate(39,31)"/>
<path d="M0 0 C0.20625 0.61875 0.4125 1.2375 0.625 1.875 C2.54775888 4.84653645 4.66594527 5.13024659 8 6 C6.02 6.99 6.02 6.99 4 8 C4 11.96 4 15.92 4 20 C2.68 20.33 1.36 20.66 0 21 C0 17.7 0 14.4 0 11 C-1.4025 10.54625 -2.805 10.0925 -4.25 9.625 C-7.31875358 8.63216796 -10.14589666 7.50560497 -13 6 C-13 5.01 -13 4.02 -13 3 C-8.71 3.33 -4.42 3.66 0 4 C0 2.68 0 1.36 0 0 Z " fill="#E5EDF9" transform="translate(41,68)"/>
<path d="M0 0 C1.98 0 3.96 0 6 0 C5.39252336 6.43925234 5.39252336 6.43925234 3.6875 8.875 C-0.05978702 11.37319135 -4.175749 11.16254692 -8.5625 11.1875 C-9.69816406 11.20167969 -10.83382812 11.21585938 -12.00390625 11.23046875 C-15 11 -15 11 -18 9 C-17.67 7.68 -17.34 6.36 -17 5 C-16.67 5.33 -16.34 5.66 -16 6 C-14.06461065 6.09955104 -12.12544231 6.12968668 -10.1875 6.125 C-9.12917969 6.12757812 -8.07085937 6.13015625 -6.98046875 6.1328125 C-4.46310983 6.02063661 -2.39576745 5.7309121 0 5 C0 3.35 0 1.7 0 0 Z " fill="#CADEF6" transform="translate(66,82)"/>
<path d="M0 0 C2.5 1 2.5 1 5 3 C5.46837899 5.79374292 5.23424505 8.14221036 5 11 C3.25008666 11.02715383 1.50005055 11.04646551 -0.25 11.0625 C-1.71179687 11.07990234 -1.71179687 11.07990234 -3.203125 11.09765625 C-5.65758678 11.01195577 -7.66168914 10.70706066 -10 10 C-10 10.99 -10 11.98 -10 13 C-8.2984375 13.433125 -8.2984375 13.433125 -6.5625 13.875 C-5.386875 14.24625 -4.21125 14.6175 -3 15 C-2.67 15.66 -2.34 16.32 -2 17 C-6.7539867 15.85248597 -11.37892907 14.61737483 -16 13 C-16 12.34 -16 11.68 -16 11 C-17.32 10.34 -18.64 9.68 -20 9 C-20 6.69 -20 4.38 -20 2 C-19.67 2.66 -19.34 3.32 -19 4 C-18.01 4.33 -17.02 4.66 -16 5 C-16 5.66 -16 6.32 -16 7 C-14.8553125 7.185625 -14.8553125 7.185625 -13.6875 7.375 C-8.78358776 8.20617157 -3.89230526 9.10336754 1 10 C0.505 5.05 0.505 5.05 0 0 Z " fill="#BDCEE8" transform="translate(38,61)"/>
<path d="M0 0 C1.5 1.375 1.5 1.375 3 3 C3 3.66 3 4.32 3 5 C4.32 5.66 5.64 6.32 7 7 C7 8.32 7 9.64 7 11 C6.32453125 11.32613281 5.6490625 11.65226562 4.953125 11.98828125 C3.61507812 12.64376953 3.61507812 12.64376953 2.25 13.3125 C1.36828125 13.74175781 0.4865625 14.17101563 -0.421875 14.61328125 C-3.01660815 15.92366072 -3.01660815 15.92366072 -5.203125 17.66796875 C-7 19 -7 19 -9 19 C-8.40789978 15.94635952 -7.50343057 14.10070448 -5.5625 11.6875 C-2.96165229 8.21720464 -2.0062042 5.19251751 -1 1 C-0.67 0.67 -0.34 0.34 0 0 Z " fill="#4856D0" transform="translate(80,42)"/>
<path d="M0 0 C0.33 0 0.66 0 1 0 C1 1.65 1 3.3 1 5 C2.32 5 3.64 5 5 5 C6.75 6.5 6.75 6.5 8 8 C8 6.68 8 5.36 8 4 C8.99 4 9.98 4 11 4 C11.103125 4.639375 11.20625 5.27875 11.3125 5.9375 C11.6528125 6.9584375 11.6528125 6.9584375 12 8 C12.99 8.33 13.98 8.66 15 9 C15.33 7.68 15.66 6.36 16 5 C16.66 5 17.32 5 18 5 C17.65040195 7.5870256 17.34899627 9.51324205 15.8125 11.65625 C13.26561125 13.54446062 11.44196351 13.29795165 8.3125 13.1875 C7.31863281 13.16042969 6.32476562 13.13335937 5.30078125 13.10546875 C4.54152344 13.07066406 3.78226562 13.03585938 3 13 C3 12.34 3 11.68 3 11 C2.01 10.67 1.02 10.34 0 10 C-1.49106457 7.01787087 -1.11941467 4.28390342 -1 1 C-0.67 0.67 -0.34 0.34 0 0 Z " fill="#4D6F9C" transform="translate(77,66)"/>
<path d="M0 0 C4.0830942 -0.11614929 8.16576377 -0.18723457 12.25 -0.25 C13.40886719 -0.28351562 14.56773438 -0.31703125 15.76171875 -0.3515625 C16.87675781 -0.36445313 17.99179687 -0.37734375 19.140625 -0.390625 C20.16704102 -0.41157227 21.19345703 -0.43251953 22.25097656 -0.45410156 C25.67322977 0.11120847 26.82758037 1.37309927 29 4 C26.03 3.505 26.03 3.505 23 3 C23.24556641 3.84304687 23.24556641 3.84304687 23.49609375 4.703125 C24.02864997 7.13059056 24.09898681 9.26889681 24.0625 11.75 C24.05347656 12.54921875 24.04445313 13.3484375 24.03515625 14.171875 C24.02355469 14.77515625 24.01195313 15.3784375 24 16 C23.01 16 22.02 16 21 16 C21.33 15.67 21.66 15.34 22 15 C22.50031206 11.58428147 22.50031206 11.58428147 22 8 C17.85944353 4.53177152 13.36024339 4.28511444 8.1875 3.8125 C7.39923828 3.73064453 6.61097656 3.64878906 5.79882812 3.56445312 C3.86697624 3.36541384 1.93360587 3.18120893 0 3 C0 2.01 0 1.02 0 0 Z " fill="#AAC0E0" transform="translate(40,31)"/>
<path d="M0 0 C1.33617352 0.97528737 2.6688751 1.95533319 4 2.9375 C5.11375 3.75541016 5.11375 3.75541016 6.25 4.58984375 C6.8275 5.05519531 7.405 5.52054687 8 6 C8 6.33 8 6.66 8 7 C-0.25 7 -8.5 7 -17 7 C-17.33 5.68 -17.66 4.36 -18 3 C-16.68 3 -15.36 3 -14 3 C-14 2.34 -14 1.68 -14 1 C-12.741875 0.95875 -11.48375 0.9175 -10.1875 0.875 C-9.47980469 0.85179688 -8.77210937 0.82859375 -8.04296875 0.8046875 C-6 1 -6 1 -3 3 C-1.68 3 -0.36 3 1 3 C0.67 2.01 0.34 1.02 0 0 Z " fill="#93B9AB" transform="translate(21,95)"/>
<path d="M0 0 C0.33 0 0.66 0 1 0 C2.33333333 8.66666667 3.66666667 17.33333333 5 26 C5.99 26 6.98 26 8 26 C8 26.66 8 27.32 8 28 C5.02009661 29.24162641 2.1385057 30.25561083 -1 31 C-0.91621094 30.28972656 -0.83242188 29.57945313 -0.74609375 28.84765625 C-0.64425781 27.92855469 -0.54242188 27.00945312 -0.4375 26.0625 C-0.28087891 24.68771484 -0.28087891 24.68771484 -0.12109375 23.28515625 C-0.06115234 22.15400391 -0.06115234 22.15400391 0 21 C-0.33 20.67 -0.66 20.34 -1 20 C-1.23427778 17.98405418 -1.41336124 15.961526 -1.5625 13.9375 C-1.64628906 12.83277344 -1.73007812 11.72804688 -1.81640625 10.58984375 C-1.90728516 9.30787109 -1.90728516 9.30787109 -2 8 C-1.34 8 -0.68 8 0 8 C0 5.36 0 2.72 0 0 Z " fill="#BEDFE1" transform="translate(4,63)"/>
<path d="M0 0 C6.93 0 13.86 0 21 0 C16.30310911 2.34844545 12.74454521 2.40655162 7.58203125 2.65625 C6.30392578 2.82640625 6.30392578 2.82640625 5 3 C4.67 3.66 4.34 4.32 4 5 C4.9075 4.9175 5.815 4.835 6.75 4.75 C10 5 10 5 12.4375 6.6875 C14 9 14 9 14 11.625 C13 14 13 14 11.1875 15.375 C8.69465714 16.08724082 7.41283832 15.86172797 5 15 C6.98 14.34 8.96 13.68 11 13 C10.67 11.02 10.34 9.04 10 7 C6.37 6.67 2.74 6.34 -1 6 C-0.67 4.02 -0.34 2.04 0 0 Z " fill="#717CA6" transform="translate(47,55)"/>
<path d="M0 0 C0.33 0.66 0.66 1.32 1 2 C1.66 2.33 2.32 2.66 3 3 C2.38125 3.04125 1.7625 3.0825 1.125 3.125 C0.42375 3.41375 -0.2775 3.7025 -1 4 C-2.10202887 6.63178728 -2.10202887 6.63178728 -3 10 C-3.68500923 11.29298932 -4.3727639 12.584526 -5.0625 13.875 C-8.1212762 20.48150176 -7.82444994 27.84633513 -8 35 C-10 34 -10 34 -11 31 C-11.4849751 24.65020979 -10.80294001 19.08492254 -9 13 C-8.34 13 -7.68 13 -7 13 C-6.731875 12.29875 -6.46375 11.5975 -6.1875 10.875 C-2.88888889 2.88888889 -2.88888889 2.88888889 0 0 Z " fill="#657EB8" transform="translate(16,42)"/>
<path d="M0 0 C1.85772162 0.08984301 3.71247985 0.24611861 5.5625 0.4375 C7.08037109 0.59025391 7.08037109 0.59025391 8.62890625 0.74609375 C9.80259766 0.87177734 9.80259766 0.87177734 11 1 C11.625 2.8125 11.625 2.8125 12 5 C11.01 6.485 11.01 6.485 10 8 C7.72265625 8.36328125 7.72265625 8.36328125 5.0625 8.3125 C4.18722656 8.30863281 3.31195313 8.30476563 2.41015625 8.30078125 C0 8 0 8 -3 6 C-1.125 1.125 -1.125 1.125 0 0 Z " fill="#4958C5" transform="translate(47,38)"/>
<path d="M0 0 C0.66 0.33 1.32 0.66 2 1 C1.67 1.66 1.34 2.32 1 3 C0.59746664 8.28910111 0.44688083 13.21290155 3 18 C4.32 18 5.64 18 7 18 C6.90460937 17.28714844 6.80921875 16.57429688 6.7109375 15.83984375 C6.02880751 9.94655793 5.89641228 5.56832045 8 0 C8.66 0 9.32 0 10 0 C9.67 0.99 9.34 1.98 9 3 C8.84481308 7.19004671 9.09262217 10.91679978 10 15 C10 16.66666667 10 18.33333333 10 20 C7.03 20.33 4.06 20.66 1 21 C1 20.34 1 19.68 1 19 C0.34 19 -0.32 19 -1 19 C-1.02690104 16.20826945 -1.04679053 13.41679652 -1.0625 10.625 C-1.07087891 9.8309375 -1.07925781 9.036875 -1.08789062 8.21875 C-1.11328125 2.2265625 -1.11328125 2.2265625 0 0 Z " fill="#4A5FB6" transform="translate(9,59)"/>
<path d="M0 0 C5.38422078 -0.27377394 8.54453408 -0.37535297 13 3 C14 4 14 4 14.25 7.375 C14 11 14 11 12.91796875 12.70703125 C10.00844215 14.66844328 7.52722216 14.35976274 4.0625 14.3125 C2.22365234 14.30669922 2.22365234 14.30669922 0.34765625 14.30078125 C-3 14 -3 14 -7 12 C0.92 11.505 0.92 11.505 9 11 C10.09805807 6.35954625 10.09805807 6.35954625 10 3 C6.7 2.34 3.4 1.68 0 1 C0 0.67 0 0.34 0 0 Z " fill="#7583B9" transform="translate(49,35)"/>
<path d="M0 0 C2.31 0.66 4.62 1.32 7 2 C6.01 2.495 6.01 2.495 5 3 C5.11859375 3.60328125 5.2371875 4.2065625 5.359375 4.828125 C5.75202515 7.26255593 6.03835196 9.53269027 6 12 C4.1875 14.4375 4.1875 14.4375 2 16 C1.34 16.66 0.68 17.32 0 18 C-0.28875 17.360625 -0.5775 16.72125 -0.875 16.0625 C-1.82823451 13.84793921 -1.82823451 13.84793921 -4 13 C-4 12.34 -4 11.68 -4 11 C-3.01 10.67 -2.02 10.34 -1 10 C-0.67 6.7 -0.34 3.4 0 0 Z " fill="#E2EEFB" transform="translate(41,48)"/>
<path d="M0 0 C0.33 0 0.66 0 1 0 C1 8.25 1 16.5 1 25 C-7.375 25.4375 -7.375 25.4375 -10.00927734 25.56811523 C-14.13733776 25.70995942 -14.13733776 25.70995942 -18 27 C-18 26.01 -18 25.02 -18 24 C-17.01257813 23.97421875 -16.02515625 23.9484375 -15.0078125 23.921875 C-13.72648437 23.86515625 -12.44515625 23.8084375 -11.125 23.75 C-9.84882813 23.70359375 -8.57265625 23.6571875 -7.2578125 23.609375 C-4.04007095 23.33476948 -4.04007095 23.33476948 -2.5546875 21.4921875 C-1.72626961 17.77014091 -1.87260832 14.17127205 -2 10.375 C-2.09353737 7.55952508 -2.09345878 4.82128699 -2 2 C-1.34 1.34 -0.68 0.68 0 0 Z " fill="#455BBB" transform="translate(38,32)"/>
<path d="M0 0 C-0.55728913 3.34373475 -1.35173889 6.03312999 -3 9 C-3.66 9 -4.32 9 -5 9 C-5.226875 9.598125 -5.45375 10.19625 -5.6875 10.8125 C-7.35609042 13.59348403 -9.1283832 14.5641916 -12 16 C-12.66 16 -13.32 16 -14 16 C-12.9024777 13.00675737 -12.32317108 12.15389099 -9.375 10.75 C-8.59125 10.5025 -7.8075 10.255 -7 10 C-6.67 6.7 -6.34 3.4 -6 0 C-9.3 0 -12.6 0 -16 0 C-16 -0.33 -16 -0.66 -16 -1 C-10.03654233 -2.0006709 -5.71271093 -2.0662997 0 0 Z " fill="#7083B1" transform="translate(98,82)"/>
<path d="M0 0 C0.66 0.33 1.32 0.66 2 1 C-8 9 -8 9 -10.59375 10.9375 C-13.19100014 13.1637144 -14.91015463 15.41513239 -16.8125 18.25 C-17.41707031 19.14203125 -18.02164062 20.0340625 -18.64453125 20.953125 C-19.09183594 21.62859375 -19.53914063 22.3040625 -20 23 C-20.33 22.01 -20.66 21.02 -21 20 C-20.01 18.515 -20.01 18.515 -19 17 C-18.29835358 15.01200182 -17.62627128 13.01301483 -17 11 C-16.01 11 -15.02 11 -14 11 C-14.33 10.01 -14.66 9.02 -15 8 C-14.16855469 7.59007812 -13.33710938 7.18015625 -12.48046875 6.7578125 C-11.39378906 6.21898437 -10.30710937 5.68015625 -9.1875 5.125 C-8.10855469 4.59132813 -7.02960937 4.05765625 -5.91796875 3.5078125 C-2.92161735 2.02778861 -2.92161735 2.02778861 0 0 Z " fill="#4E62BB" transform="translate(32,34)"/>
<path d="M0 0 C0.90492187 0.02320312 1.80984375 0.04640625 2.7421875 0.0703125 C4.10730469 0.09738281 4.10730469 0.09738281 5.5 0.125 C6.19867188 0.14820312 6.89734375 0.17140625 7.6171875 0.1953125 C7.2871875 2.1753125 6.9571875 4.1553125 6.6171875 6.1953125 C3.14393569 7.3530631 0.25651302 7.26397902 -3.3828125 7.1953125 C-4.0078125 4.8203125 -4.0078125 4.8203125 -4.3828125 2.1953125 C-2.3828125 0.1953125 -2.3828125 0.1953125 0 0 Z " fill="#5258C6" transform="translate(55.3828125,79.8046875)"/>
<path d="M0 0 C3.01439927 3.02629039 3.9570512 4.60479227 4.42578125 8.91796875 C4.40866148 10.34154375 4.37042982 11.76500114 4.3125 13.1875 C4.30283203 13.91130859 4.29316406 14.63511719 4.28320312 15.38085938 C4.17026543 20.65946914 4.17026543 20.65946914 3 23 C1.35 23 -0.3 23 -2 23 C-1.53433433 20.82689354 -1.0454815 19.08035065 0.0546875 17.13671875 C2.0390508 12.65140171 0.48709342 7.40397516 -1.0625 2.9375 C-1.5265625 1.9784375 -1.5265625 1.9784375 -2 1 C-1.34 0.67 -0.68 0.34 0 0 Z " fill="#6D8E96" transform="translate(95,59)"/>
<path d="M0 0 C0.33 0.66 0.66 1.32 1 2 C2.98 2 4.96 2 7 2 C7.33 2.99 7.66 3.98 8 5 C8.99 5 9.98 5 11 5 C11 5.66 11 6.32 11 7 C11.99 7.33 12.98 7.66 14 8 C13.01 8 12.02 8 11 8 C10.67 8.99 10.34 9.98 10 11 C10 9.68 10 8.36 10 7 C9.01 7 8.02 7 7 7 C7 8.32 7 9.64 7 11 C6.01 10.67 5.02 10.34 4 10 C4 9.34 4 8.68 4 8 C2.68 8 1.36 8 0 8 C-0.66 6.02 -1.32 4.04 -2 2 C-1.34 1.34 -0.68 0.68 0 0 Z " fill="#6E94B5" transform="translate(78,63)"/>
<path d="M0 0 C1.98 0 3.96 0 6 0 C6 0.66 6 1.32 6 2 C6.66 2 7.32 2 8 2 C8.33 2.99 8.66 3.98 9 5 C6.525 6.485 6.525 6.485 4 8 C4 7.34 4 6.68 4 6 C3.01 6.495 3.01 6.495 2 7 C1.67 15.58 1.34 24.16 1 33 C0.67 33 0.34 33 0 33 C0 22.11 0 11.22 0 0 Z " fill="#D1D4D7" transform="translate(0,0)"/>
<path d="M0 0 C3.375 0.3125 3.375 0.3125 7 1 C9.67927341 5.01891012 9.15601248 7.24161923 9 12 C-2.52164009 11.22095672 -2.52164009 11.22095672 -8 9 C-8 8.67 -8 8.34 -8 8 C-3.48382401 7.92345464 0.59085217 7.89771304 5 9 C3.90213575 3.59212615 3.90213575 3.59212615 0 0 Z " fill="#6270AC" transform="translate(30,59)"/>
<path d="M0 0 C1.98 0 3.96 0 6 0 C6 0.66 6 1.32 6 2 C7.65 2.33 9.3 2.66 11 3 C10.125 6.875 10.125 6.875 9 8 C5.33468329 8.40725741 3.60228126 8.43240706 0.5625 6.25 C-1 4 -1 4 -0.75 1.75 C-0.5025 1.1725 -0.255 0.595 0 0 Z " fill="#4E58C3" transform="translate(24,78)"/>
<path d="M0 0 C0.99 0 1.98 0 3 0 C3 0.66 3 1.32 3 2 C2.01 2.66 1.02 3.32 0 4 C-0.47722472 6.09842369 -0.47722472 6.09842369 -0.375 8.4375 C-0.38273437 9.21996094 -0.39046875 10.00242187 -0.3984375 10.80859375 C0.08453652 13.46495085 1.04291096 14.22412291 3 16 C3 16.66 3 17.32 3 18 C5.97 18 8.94 18 12 18 C12 18.33 12 18.66 12 19 C7.13532941 19.99455488 4.05512044 20.52756022 -0.5 18.25 C-3.67048067 15.39656739 -3.93824553 13.8336853 -4.25 9.625 C-3.96684683 5.51927904 -2.92659328 2.92659328 0 0 Z " fill="#83A5D6" transform="translate(77,61)"/>
<path d="M0 0 C0 3 0 3 -1.45703125 4.58203125 C-5.06050297 6.59134037 -8.6412275 7.0699288 -12.6875 7.6875 C-13.47189453 7.81705078 -14.25628906 7.94660156 -15.06445312 8.08007812 C-20.69593254 9 -20.69593254 9 -22 9 C-22 7.35 -22 5.7 -22 4 C-20.35451172 3.92652344 -20.35451172 3.92652344 -18.67578125 3.8515625 C-17.22133075 3.77649409 -15.76690484 3.70094803 -14.3125 3.625 C-13.2306543 3.57859375 -13.2306543 3.57859375 -12.12695312 3.53125 C-5.53942613 3.24767785 -5.53942613 3.24767785 0 0 Z " fill="#5164A1" transform="translate(70,89)"/>
<path d="M0 0 C0.33 0.66 0.66 1.32 1 2 C-2.70526077 12.18946713 -12.90007616 16.48085046 -22 21 C-18.375 16.125 -18.375 16.125 -15 15 C-13.31066078 13.3563186 -11.64740076 11.6857124 -10 10 C-8.9266748 9.09219965 -7.84334304 8.19608898 -6.75 7.3125 C-3.98257806 5.2957678 -3.98257806 5.2957678 -3 3 C-2.34 3 -1.68 3 -1 3 C-0.67 2.01 -0.34 1.02 0 0 Z " fill="#6986B7" transform="translate(45,16)"/>
<path d="M0 0 C2.31 0.33 4.62 0.66 7 1 C7 3.64 7 6.28 7 9 C2.52621297 11.30905137 -2.05482616 11.66065191 -7 11 C-7.66 10.34 -8.32 9.68 -9 9 C-6.03 9 -3.06 9 0 9 C0.66 6.69 1.32 4.38 2 2 C1.34 2 0.68 2 0 2 C0 1.34 0 0.68 0 0 Z " fill="#7880B3" transform="translate(34,78)"/>
<path d="M0 0 C1.32 0.33 2.64 0.66 4 1 C3.01 1 2.02 1 1 1 C1 3.64 1 6.28 1 9 C1.66 9 2.32 9 3 9 C3 9.66 3 10.32 3 11 C5.97 11 8.94 11 12 11 C12 11.33 12 11.66 12 12 C2.28385823 12.14973506 -7.31629705 11.69613269 -17 11 C-17 10.67 -17 10.34 -17 10 C-16.22914062 9.93941406 -15.45828125 9.87882812 -14.6640625 9.81640625 C-13.66117188 9.73261719 -12.65828125 9.64882812 -11.625 9.5625 C-10.62726562 9.48128906 -9.62953125 9.40007812 -8.6015625 9.31640625 C-6.02072387 9.15034374 -6.02072387 9.15034374 -4 8 C-4.66 7.34 -5.32 6.68 -6 6 C-4.02 6 -2.04 6 0 6 C0 4.02 0 2.04 0 0 Z " fill="#717FC1" transform="translate(47,92)"/>
<path d="M0 0 C0.495 1.98 0.495 1.98 1 4 C-3.35438777 3.86034706 -7.70844619 3.71217758 -12.0625 3.5625 C-13.29162109 3.52318359 -14.52074219 3.48386719 -15.78710938 3.44335938 C-21.59234494 3.23994142 -27.2753207 3.01223898 -33 2 C-33 1.67 -33 1.34 -33 1 C-22.11 0.67 -11.22 0.34 0 0 Z " fill="#DBDBDE" transform="translate(107,0)"/>
<path d="M0 0 C4.6603705 -0.36551926 7.95142865 -0.62058305 12.0625 1.8125 C14 4 14 4 14 7 C12.35 7.33 10.7 7.66 9 8 C9 7.34 9 6.68 9 6 C8.01 6 7.02 6 6 6 C5.67 5.34 5.34 4.68 5 4 C1.97065509 3.34227572 1.97065509 3.34227572 -1 3 C-0.67 2.01 -0.34 1.02 0 0 Z " fill="#3F687B" transform="translate(80,62)"/>
<path d="M0 0 C3.37898381 1.44813592 5.49631932 3.32940727 8 6 C8.66 6.66 9.32 7.32 10 8 C9.34 8 8.68 8 8 8 C8 8.66 8 9.32 8 10 C11.3 10.33 14.6 10.66 18 11 C18 11.33 18 11.66 18 12 C11.84052049 12.37711099 7.45310373 12.00477144 2 9 C-0.29013653 5.5647952 -0.17842973 4.014669 0 0 Z " fill="#B1CDE3" transform="translate(17,81)"/>
<path d="M0 0 C2.16874252 0.50603992 3.99967627 0.99983813 6 2 C7.53668865 2.22467831 9.07968054 2.40796805 10.625 2.5625 C11.44226563 2.64628906 12.25953125 2.73007813 13.1015625 2.81640625 C13.72804688 2.87699219 14.35453125 2.93757813 15 3 C15 3.33 15 3.66 15 4 C11.37 4 7.74 4 4 4 C3.34 5.32 2.68 6.64 2 8 C0.5 10.75 0.5 10.75 -1 13 C-1.66 13 -2.32 13 -3 13 C-3.38281159 7.76824163 -2.21854707 4.62197306 0 0 Z " fill="#4453BF" transform="translate(74,81)"/>
<path d="M0 0 C2.93774463 -0.05390357 5.87450232 -0.0936255 8.8125 -0.125 C10.06256836 -0.15013672 10.06256836 -0.15013672 11.33789062 -0.17578125 C12.14033203 -0.18222656 12.94277344 -0.18867188 13.76953125 -0.1953125 C14.50792236 -0.20578613 15.24631348 -0.21625977 16.00708008 -0.22705078 C18 0 18 0 21 2 C20.67 2.66 20.34 3.32 20 4 C18.046875 3.73958333 16.09375 3.47916667 14.140625 3.21875 C11.69541605 2.93222643 11.69541605 2.93222643 8 3 C8 3.66 8 4.32 8 5 C7.01 4.67 6.02 4.34 5 4 C5 3.34 5 2.68 5 2 C3.35 2.33 1.7 2.66 0 3 C0 2.01 0 1.02 0 0 Z " fill="#E5ECF0" transform="translate(31,1)"/>
<path d="M0 0 C13.53 0 27.06 0 41 0 C41 0.33 41 0.66 41 1 C32.42 1.33 23.84 1.66 15 2 C15 2.33 15 2.66 15 3 C9.87416389 3.10251672 5.05002222 3.03590199 0 2 C0 1.34 0 0.68 0 0 Z " fill="#E5E5E8" transform="translate(66,0)"/>
<path d="M0 0 C1.8253125 0.7115625 1.8253125 0.7115625 3.6875 1.4375 C9.67570019 3.46545278 15.72374026 3.71868388 22 4 C22 4.66 22 5.32 22 6 C18.89614789 6.11613204 15.79285338 6.18722029 12.6875 6.25 C11.36588867 6.30027344 11.36588867 6.30027344 10.01757812 6.3515625 C3.50187213 6.45066069 3.50187213 6.45066069 0.89453125 4.109375 C0 2 0 2 0 0 Z " fill="#506B8E" transform="translate(17,89)"/>
<path d="M0 0 C3.70792809 -0.28328822 7.30204313 -0.45269973 11 0 C13.26297338 2.45694253 14 3.6796254 14 7 C13.34 7 12.68 7 12 7 C11.34 8.65 10.68 10.3 10 12 C9.34 11.67 8.68 11.34 8 11 C8.226875 10.236875 8.45375 9.47375 8.6875 8.6875 C9.27343587 6.04652149 9.27343587 6.04652149 7.9375 4.25 C5.36492987 2.59027733 3.0128598 2.3347622 0 2 C0 1.34 0 0.68 0 0 Z " fill="#C9DAF2" transform="translate(51,58)"/>
<path d="M0 0 C1.93742341 -0.02703381 3.87495479 -0.04641125 5.8125 -0.0625 C6.89144531 -0.07410156 7.97039062 -0.08570313 9.08203125 -0.09765625 C12 0 12 0 15 1 C14.67 2.32 14.34 3.64 14 5 C13.401875 4.814375 12.80375 4.62875 12.1875 4.4375 C9.83591238 3.77906313 9.83591238 3.77906313 7 5 C5.65737935 4.70630173 4.32303717 4.3721042 3 4 C2.01 4 1.02 4 0 4 C0 2.68 0 1.36 0 0 Z " fill="#E2EAEC" transform="translate(93,3)"/>
<path d="M0 0 C0.66 0.33 1.32 0.66 2 1 C-5.31245443 7.89098731 -5.31245443 7.89098731 -10 8 C-13.34735225 7.76237932 -16.67087556 7.42018075 -20 7 C-20 7.99 -20 8.98 -20 10 C-20.66 10 -21.32 10 -22 10 C-21.67 8.68 -21.34 7.36 -21 6 C-19.81921875 5.81824219 -18.6384375 5.63648437 -17.421875 5.44921875 C-15.86448627 5.19590854 -14.30719977 4.94196923 -12.75 4.6875 C-11.58404297 4.51057617 -11.58404297 4.51057617 -10.39453125 4.33007812 C-6.20450256 3.63174001 -3.1750079 3.04698339 0 0 Z " fill="#515EC1" transform="translate(70,91)"/>
<path d="M0 0 C0.66 0 1.32 0 2 0 C2.33 2.31 2.66 4.62 3 7 C3.99 7 4.98 7 6 7 C6 7.66 6 8.32 6 9 C3.02009661 10.24162641 0.1385057 11.25561083 -3 12 C-2.88541307 10.56163249 -2.75790884 9.12429034 -2.625 7.6875 C-2.55539063 6.88699219 -2.48578125 6.08648437 -2.4140625 5.26171875 C-2 3 -2 3 0 0 Z " fill="#C8EBDF" transform="translate(6,82)"/>
<path d="M0 0 C1.48285242 0.95262034 2.96118201 1.91228405 4.4375 2.875 C5.67306641 3.67550781 5.67306641 3.67550781 6.93359375 4.4921875 C9 6 9 6 10 8 C9.01 8.99 8.02 9.98 7 11 C7.99 12.485 7.99 12.485 9 14 C6.10887762 12.70397962 4.13540862 11.33878087 2 9 C1.67 8.67 1.34 8.34 1 8 C0.54540142 5.34536879 0.29756762 2.67810862 0 0 Z " fill="#758BB4" transform="translate(63,22)"/>
<path d="M0 0 C1.19496094 0.13148437 1.19496094 0.13148437 2.4140625 0.265625 C3.06117187 0.42546875 3.70828125 0.5853125 4.375 0.75 C4.705 1.41 5.035 2.07 5.375 2.75 C2.405 2.75 -0.565 2.75 -3.625 2.75 C-3.295 4.4 -2.965 6.05 -2.625 7.75 C-4.275 7.42 -5.925 7.09 -7.625 6.75 C-7.8125 4.375 -7.8125 4.375 -7.625 1.75 C-4.3237992 -0.45080053 -3.73398842 -0.46218749 0 0 Z " fill="#4862A5" transform="translate(28.625,59.25)"/>
<path d="M0 0 C1.32 0 2.64 0 4 0 C6.25 1.9375 6.25 1.9375 8 4 C8 4.33 8 4.66 8 5 C1.125 4.125 1.125 4.125 0 3 C-1.34747084 2.76924918 -2.70377565 2.58846937 -4.0625 2.4375 C-5.361875 2.293125 -6.66125 2.14875 -8 2 C-8 2.66 -8 3.32 -8 4 C-9.32 4 -10.64 4 -12 4 C-12 3.01 -12 2.02 -12 1 C-8.03819462 -0.32060179 -4.11772297 -0.07238185 0 0 Z " fill="#A3D6CE" transform="translate(15,94)"/>
<path d="M0 0 C1.60407328 -0.02708567 3.2082785 -0.04643483 4.8125 -0.0625 C5.70582031 -0.07410156 6.59914063 -0.08570312 7.51953125 -0.09765625 C10 0 10 0 13 1 C12.67 1.99 12.34 2.98 12 4 C8.04 4 4.08 4 0 4 C0 2.68 0 1.36 0 0 Z " fill="#565DD6" transform="translate(50,98)"/>
<path d="M0 0 C0.66 0 1.32 0 2 0 C1.34 5.61 0.68 11.22 0 17 C-0.99 17 -1.98 17 -3 17 C-3 13.37 -3 9.74 -3 6 C-2.34 6 -1.68 6 -1 6 C-0.67 4.02 -0.34 2.04 0 0 Z " fill="#DFEFF8" transform="translate(4,54)"/>
<path d="M0 0 C6.27 0 12.54 0 19 0 C18.67 0.99 18.34 1.98 18 3 C11.56744599 3.12086218 5.38226945 2.82351864 -1 2 C-0.67 1.34 -0.34 0.68 0 0 Z " fill="#B2D0F6" transform="translate(41,32)"/>
<path d="M0 0 C2.875 0 2.875 0 6 1 C8.375 4.0625 8.375 4.0625 10 7 C4.25 7.125 4.25 7.125 2 6 C1.67 6.66 1.34 7.32 1 8 C0.01 6.02 -0.98 4.04 -2 2 C-1.34 1.34 -0.68 0.68 0 0 Z " fill="#6986AE" transform="translate(71,30)"/>
<path d="M0 0 C1.65 0 3.3 0 5 0 C4.835 0.66 4.67 1.32 4.5 2 C3.87816701 5.73099794 3.93591074 9.21873378 4 13 C2.68 13 1.36 13 0 13 C0 8.71 0 4.42 0 0 Z " fill="#496998" transform="translate(70,62)"/>
<path d="M0 0 C5.19209404 -0.21192221 9.126739 0.4087311 14 2 C13.67 2.66 13.34 3.32 13 4 C11.1128125 3.9071875 11.1128125 3.9071875 9.1875 3.8125 C5.83041021 3.76367078 5.83041021 3.76367078 3 5.5 C2.505 6.2425 2.505 6.2425 2 7 C0.5393715 4.35261084 0 3.10551666 0 0 Z " fill="#4B61B9" transform="translate(42,35)"/>
<path d="M0 0 C0.99 0.33 1.98 0.66 3 1 C3 1.66 3 2.32 3 3 C4.2065625 2.7215625 4.2065625 2.7215625 5.4375 2.4375 C6.7059375 2.2209375 6.7059375 2.2209375 8 2 C9 3 9 3 9.09765625 4.84765625 C9.04882812 7.92382812 9.04882812 7.92382812 9 11 C5.62169447 9.55215477 3.35038972 7.83667724 1 5 C0.25 2.25 0.25 2.25 0 0 Z " fill="#5D7DB2" transform="translate(7,77)"/>
<path d="M0 0 C0.97582031 0.00902344 1.95164062 0.01804687 2.95703125 0.02734375 C3.69308594 0.03894531 4.42914063 0.05054687 5.1875 0.0625 C5.5175 1.3825 5.8475 2.7025 6.1875 4.0625 C4.5375 4.0625 2.8875 4.0625 1.1875 4.0625 C1.1875 4.7225 1.1875 5.3825 1.1875 6.0625 C0.1975 6.3925 -0.7925 6.7225 -1.8125 7.0625 C-1.4825 5.4125 -1.1525 3.7625 -0.8125 2.0625 C-4.1125 2.0625 -7.4125 2.0625 -10.8125 2.0625 C-10.8125 1.7325 -10.8125 1.4025 -10.8125 1.0625 C-7.13862505 0.20951624 -3.7677607 -0.04539471 0 0 Z " fill="#5A68BC" transform="translate(63.8125,77.9375)"/>
<path d="M0 0 C0.66 0.66 1.32 1.32 2 2 C-5.59 2 -13.18 2 -21 2 C-21 1.67 -21 1.34 -21 1 C-13.83958396 -1.02878454 -7.35774168 -1.42333848 0 0 Z " fill="#EBF0F7" transform="translate(85,105)"/>
<path d="M0 0 C0.99 0 1.98 0 3 0 C4.05607181 2.74578671 3.96271597 4.18642013 3.375 7.125 C2 10 2 10 -0.5 11.1875 C-1.325 11.455625 -2.15 11.72375 -3 12 C-3.99 13.485 -3.99 13.485 -5 15 C-5.99 14.67 -6.98 14.34 -8 14 C-7.04578192 12.85073734 -6.08647955 11.70569459 -5.125 10.5625 C-4.59132813 9.92441406 -4.05765625 9.28632812 -3.5078125 8.62890625 C-2 7 -2 7 0 6 C0 4.02 0 2.04 0 0 Z " fill="#5464B8" transform="translate(89,83)"/>
<path d="M0 0 C1.98 0 3.96 0 6 0 C5.38461538 6.52307692 5.38461538 6.52307692 3.4375 8.9375 C2.963125 9.288125 2.48875 9.63875 2 10 C1.34 9.67 0.68 9.34 0 9 C0.66 7.68 1.32 6.36 2 5 C0.02 5.66 -1.96 6.32 -4 7 C-3.67 6.34 -3.34 5.68 -3 5 C-2.01 5 -1.02 5 0 5 C0 3.35 0 1.7 0 0 Z " fill="#A4B7E5" transform="translate(66,82)"/>
<path d="M0 0 C1.4540625 0.0309375 1.4540625 0.0309375 2.9375 0.0625 C1.6175 0.3925 0.2975 0.7225 -1.0625 1.0625 C-1.14886719 1.66578125 -1.23523437 2.2690625 -1.32421875 2.890625 C-2.48617067 9.4998928 -2.48617067 9.4998928 -5.6875 12.625 C-6.47125 13.099375 -7.255 13.57375 -8.0625 14.0625 C-8.3925 12.7425 -8.7225 11.4225 -9.0625 10.0625 C-8.4025 9.7325 -7.7425 9.4025 -7.0625 9.0625 C-6.19484482 7.21235526 -6.19484482 7.21235526 -5.5 5.0625 C-3.78184525 0.07718052 -3.78184525 0.07718052 0 0 Z " fill="#B7D6E7" transform="translate(51.0625,4.9375)"/>
<path d="M0 0 C0.66 0.33 1.32 0.66 2 1 C2.08071788 3.79224073 2.14035408 6.58216566 2.1875 9.375 C2.21263672 10.1690625 2.23777344 10.963125 2.26367188 11.78125 C2.29004405 13.85586148 2.15486462 15.93100865 2 18 C1.01 18.66 0.02 19.32 -1 20 C-0.67 13.4 -0.34 6.8 0 0 Z " fill="#B7D0D1" transform="translate(99,64)"/>
<path d="M0 0 C6.6 0 13.2 0 20 0 C15.73670449 2.13164775 12.38798276 2.42833642 7.75 2.625 C7.00492188 2.66367187 6.25984375 2.70234375 5.4921875 2.7421875 C3.6618476 2.83605108 1.83095857 2.91909718 0 3 C0 2.01 0 1.02 0 0 Z " fill="#5C6F8E" transform="translate(48,55)"/>
<path d="M0 0 C0.33 0.66 0.66 1.32 1 2 C0.01 2.495 0.01 2.495 -1 3 C-0.34 3.66 0.32 4.32 1 5 C-1.12493141 5.02693575 -3.24995912 5.04636628 -5.375 5.0625 C-6.55835938 5.07410156 -7.74171875 5.08570312 -8.9609375 5.09765625 C-12 5 -12 5 -14 4 C-14 3.34 -14 2.68 -14 2 C-13.24074219 1.93941406 -12.48148438 1.87882812 -11.69921875 1.81640625 C-10.70535156 1.73261719 -9.71148437 1.64882812 -8.6875 1.5625 C-7.70136719 1.48128906 -6.71523438 1.40007812 -5.69921875 1.31640625 C-2.90624401 1.08187441 -2.90624401 1.08187441 0 0 Z " fill="#C6D7F1" transform="translate(39,87)"/>
<path d="M0 0 C0.66 0.33 1.32 0.66 2 1 C2 4 2 4 0 7 C-3.63 6.67 -7.26 6.34 -11 6 C-11 5.67 -11 5.34 -11 5 C-9.9275 4.731875 -8.855 4.46375 -7.75 4.1875 C-4.43491072 3.13772173 -2.56122354 2.25387672 0 0 Z " fill="#D1E0ED" transform="translate(84,98)"/>
<path d="M0 0 C1.98 0 3.96 0 6 0 C4.35293322 2.37909647 3.45003661 3.53772519 1 5 C-3.32749391 5.74395174 -7.6141261 5.92936367 -12 6 C-12 5.67 -12 5.34 -12 5 C-7.545 4.505 -7.545 4.505 -3 4 C-3 3.34 -3 2.68 -3 2 C-2.01 2 -1.02 2 0 2 C0 1.34 0 0.68 0 0 Z " fill="#7A86BC" transform="translate(78,98)"/>
<path d="M0 0 C0 3 0 3 -2.0625 5.625 C-5.47997699 8.3880665 -7.67403972 8.74553175 -12 9 C-9.44325365 6.01712925 -6.47561059 4.7378053 -3 3 C-1.18445841 1.43897509 -1.18445841 1.43897509 0 0 Z M-15 8 C-14.01 8.66 -13.02 9.32 -12 10 C-13.65 10.33 -15.3 10.66 -17 11 C-17 10.34 -17 9.68 -17 9 C-16.34 8.67 -15.68 8.34 -15 8 Z " fill="#5059C4" transform="translate(86,90)"/>
<path d="M0 0 C7.50769231 -0.36923077 7.50769231 -0.36923077 10 1.5 C10.495 2.2425 10.495 2.2425 11 3 C5.96266834 4.5111995 1.11828973 3.64599773 -4 3 C-2.68 2.67 -1.36 2.34 0 2 C0 1.34 0 0.68 0 0 Z " fill="#99CCAD" transform="translate(7,96)"/>
<path d="M0 0 C2.7753295 3.31415677 3.56985112 5.60185324 3.4375 10.02734375 C2.70585433 13.32628182 0.55059787 14.95952171 -2 17 C-1.125 12.125 -1.125 12.125 0 11 C0.07226502 9.14712498 0.0838122 7.29166122 0.0625 5.4375 C0.05347656 4.42558594 0.04445313 3.41367187 0.03515625 2.37109375 C0.02355469 1.58863281 0.01195313 0.80617187 0 0 Z " fill="#BBD8F5" transform="translate(71,36)"/>
<path d="M0 0 C6 0 6 0 8 1 C8.625 3.0625 8.625 3.0625 9 5 C6.03 4.505 6.03 4.505 3 4 C2.67 6.64 2.34 9.28 2 12 C1.67 12 1.34 12 1 12 C0.67 8.04 0.34 4.08 0 0 Z " fill="#5C78B3" transform="translate(73,36)"/>
<path d="M0 0 C1.2684375 0.12375 1.2684375 0.12375 2.5625 0.25 C3.2225 1.24 3.8825 2.23 4.5625 3.25 C-1.3775 3.745 -1.3775 3.745 -7.4375 4.25 C-7.1075 6.56 -6.7775 8.87 -6.4375 11.25 C-7.0975 11.25 -7.7575 11.25 -8.4375 11.25 C-8.4375 8.61 -8.4375 5.97 -8.4375 3.25 C-7.633125 2.940625 -6.82875 2.63125 -6 2.3125 C-0.5617485 0.05761523 -0.5617485 0.05761523 0 0 Z " fill="#B7E0CC" transform="translate(10.4375,90.75)"/>
<path d="M0 0 C0.66 0 1.32 0 2 0 C1.7716978 3.95723818 1.54977482 6.32996194 -1 9.4375 C-5.07374696 11.55924321 -8.49827091 11.35307679 -13 11 C-13 10.67 -13 10.34 -13 10 C-12.38511719 9.90203125 -11.77023438 9.8040625 -11.13671875 9.703125 C-6.12003138 8.87009106 -6.12003138 8.87009106 -2 6.125 C-1.03630135 4.07714036 -0.3974875 2.22593001 0 0 Z " fill="#99BFDD" transform="translate(95,70)"/>
<path d="M0 0 C1.43655854 -0.08131463 2.8744483 -0.13933559 4.3125 -0.1875 C5.51326172 -0.23970703 5.51326172 -0.23970703 6.73828125 -0.29296875 C9 0 9 0 10.79296875 1.26171875 C12 3 12 3 12 7 C11.34 7 10.68 7 10 7 C9.67 5.68 9.34 4.36 9 3 C7.72125 2.979375 6.4425 2.95875 5.125 2.9375 C4.40570313 2.92589844 3.68640625 2.91429687 2.9453125 2.90234375 C0.91814596 2.87350758 0.91814596 2.87350758 -1 4 C-0.67 2.68 -0.34 1.36 0 0 Z " fill="#5767A8" transform="translate(46,61)"/>
<path d="M0 0 C1.65 0.33 3.3 0.66 5 1 C4.67 1.66 4.34 2.32 4 3 C3.01 2.34 2.02 1.68 1 1 C1.66 3.64 2.32 6.28 3 9 C2.34 9 1.68 9 1 9 C1.66 10.65 2.32 12.3 3 14 C0.35247996 11.42215154 -1.94432065 9.08351902 -4 6 C-3.01 6.33 -2.02 6.66 -1 7 C-0.67 4.69 -0.34 2.38 0 0 Z " fill="#7FA0BA" transform="translate(16,80)"/>
<path d="M0 0 C0 1.32 0 2.64 0 4 C-1.80597656 4.09087891 -1.80597656 4.09087891 -3.6484375 4.18359375 C-5.22397077 4.26799732 -6.79949096 4.35264541 -8.375 4.4375 C-9.1690625 4.47681641 -9.963125 4.51613281 -10.78125 4.55664062 C-15.02601221 4.68893404 -15.02601221 4.68893404 -19 6 C-19 5.01 -19 4.02 -19 3 C-18.02417969 2.95101562 -17.04835938 2.90203125 -16.04296875 2.8515625 C-14.77066406 2.77679688 -13.49835937 2.70203125 -12.1875 2.625 C-10.29064453 2.52058594 -10.29064453 2.52058594 -8.35546875 2.4140625 C-5.0078897 2.00097358 -3.18073831 0 0 0 Z " fill="#5064B3" transform="translate(39,53)"/>
<path d="M0 0 C-0.33 0.99 -0.66 1.98 -1 3 C-6.75 3.125 -6.75 3.125 -9 2 C-8.67 1.01 -8.34 0.02 -8 -1 C-4.37673261 -2.2077558 -3.35853631 -1.54311128 0 0 Z " fill="#555FC5" transform="translate(40,98)"/>
<path d="M0 0 C0.33 1.32 0.66 2.64 1 4 C1.66 4 2.32 4 3 4 C3.66 2.68 4.32 1.36 5 0 C5.66 0 6.32 0 7 0 C7 1.98 7 3.96 7 6 C4.69 6 2.38 6 0 6 C0 4.02 0 2.04 0 0 Z " fill="#AFCBE7" transform="translate(40,92)"/>
<path d="M0 0 C0.66 0 1.32 0 2 0 C2.125 2.875 2.125 2.875 2 6 C0 8 0 8 -2.09375 8.1171875 C-2.8878125 8.03726563 -3.681875 7.95734375 -4.5 7.875 C-5.2940625 7.81054688 -6.088125 7.74609375 -6.90625 7.6796875 C-9 7 -9 7 -10.28125 4.9453125 C-10.5184375 4.30335937 -10.755625 3.66140625 -11 3 C-10.195625 3.495 -10.195625 3.495 -9.375 4 C-6.4608939 5.22699204 -4.13132292 5.14233286 -1 5 C-0.67 3.35 -0.34 1.7 0 0 Z " fill="#5560AF" transform="translate(34,80)"/>
<path d="M0 0 C3.93846154 4.30769231 3.93846154 4.30769231 4.25 7.8125 C4.1675 8.534375 4.085 9.25625 4 10 C3.01 10 2.02 10 1 10 C0.01 7.03 -0.98 4.06 -2 1 C-1.34 0.67 -0.68 0.34 0 0 Z " fill="#608285" transform="translate(95,59)"/>
<path d="M0 0 C-1.5885342 4.28904235 -4.43127368 6.32345526 -8 9 C-8.66 9 -9.32 9 -10 9 C-10 8.01 -10 7.02 -10 6 C-9.34 6 -8.68 6 -8 6 C-7.67 5.01 -7.34 4.02 -7 3 C-2.66666667 0 -2.66666667 0 0 0 Z " fill="#BFDDF1" transform="translate(42,19)"/>
<path d="M0 0 C3.3 0 6.6 0 10 0 C9.01 0.33 8.02 0.66 7 1 C7.33 2.65 7.66 4.3 8 6 C3.67574907 4.59754024 2.927027 3.90270266 0 0 Z " fill="#5570A6" transform="translate(22,95)"/>
<path d="M0 0 C0.99 0.495 0.99 0.495 2 1 C4.0374763 1.22858114 6.08040303 1.41024278 8.125 1.5625 C9.76855469 1.68818359 9.76855469 1.68818359 11.4453125 1.81640625 C12.28835937 1.87699219 13.13140625 1.93757813 14 2 C11.31907309 4.68092691 9.60832637 4.38670257 5.875 4.625 C4.77929688 4.69976562 3.68359375 4.77453125 2.5546875 4.8515625 C1.71164063 4.90054688 0.86859375 4.94953125 0 5 C0 3.35 0 1.7 0 0 Z " fill="#B4C7E8" transform="translate(48,87)"/>
<path d="M0 0 C5.2295082 2.3442623 5.2295082 2.3442623 7 5 C7.37366715 7.79962924 7.22702926 10.13943129 7 13 C6.34 13.66 5.68 14.32 5 15 C5.0825 13.948125 5.165 12.89625 5.25 11.8125 C4.9604783 7.39729403 3.9185439 6.18386607 1 3 C0.67 2.01 0.34 1.02 0 0 Z " fill="#D0E5F9" transform="translate(62,59)"/>
<path d="M0 0 C2.475 0.495 2.475 0.495 5 1 C5.86516528 5.49885947 6.30903272 8.01647791 4 12 C3.79503906 11.30132812 3.59007813 10.60265625 3.37890625 9.8828125 C3.10949219 8.97273438 2.84007813 8.06265625 2.5625 7.125 C2.16224609 5.76761719 2.16224609 5.76761719 1.75390625 4.3828125 C1.07386174 2.01724619 1.07386174 2.01724619 0 0 Z " fill="#C7DEDC" transform="translate(94,52)"/>
<path d="M0 0 C1.32 0 2.64 0 4 0 C6 3 6 3 5.625 5.1875 C5.41875 5.785625 5.2125 6.38375 5 7 C5 6.01 5 5.02 5 4 C4.38125 4.185625 3.7625 4.37125 3.125 4.5625 C1 5 1 5 -1 4 C-1.33 4.99 -1.66 5.98 -2 7 C-1.125 2.25 -1.125 2.25 0 0 Z " fill="#7690A9" transform="translate(50,6)"/>
<path d="M0 0 C0.33 0 0.66 0 1 0 C1 1.65 1 3.3 1 5 C2.32 5.33 3.64 5.66 5 6 C4.34 6 3.68 6 3 6 C2.67 7.65 2.34 9.3 2 11 C0.5 9.9375 0.5 9.9375 -1 8 C-1.25 4.375 -1.25 4.375 -1 1 C-0.67 0.67 -0.34 0.34 0 0 Z " fill="#597FA3" transform="translate(77,66)"/>
<path d="M0 0 C0 3 0 3 -1.578125 4.70703125 C-4.86799307 6.4633963 -7.07392868 6.09186785 -10.75 5.6875 C-12.50570312 5.50767578 -12.50570312 5.50767578 -14.296875 5.32421875 C-15.18890625 5.21722656 -16.0809375 5.11023438 -17 5 C-17 4.67 -17 4.34 -17 4 C-15.94039062 3.87882812 -14.88078125 3.75765625 -13.7890625 3.6328125 C-12.40098676 3.46399248 -11.01296881 3.29469692 -9.625 3.125 C-8.92632812 3.04636719 -8.22765625 2.96773438 -7.5078125 2.88671875 C-3.30927841 2.44779555 -3.30927841 2.44779555 0 0 Z " fill="#6071AB" transform="translate(70,89)"/>
<path d="M0 0 C1.58294782 -0.05437607 3.16644256 -0.09296271 4.75 -0.125 C5.63171875 -0.14820313 6.5134375 -0.17140625 7.421875 -0.1953125 C10.1135858 0.00860498 11.69904974 0.63448279 14 2 C8.77254141 3.2063366 4.23471686 2.75612577 -1 2 C-0.67 1.34 -0.34 0.68 0 0 Z " fill="#8FA7E6" transform="translate(26,57)"/>
<path d="M0 0 C0.33 1.32 0.66 2.64 1 4 C-1.64 6.31 -4.28 8.62 -7 11 C-7 7.22089522 -6.00296038 6.53893899 -3.5 3.8125 C-2.8503125 3.09707031 -2.200625 2.38164063 -1.53125 1.64453125 C-1.0259375 1.10183594 -0.520625 0.55914062 0 0 Z " fill="#4B57D1" transform="translate(22,43)"/>
<path d="M0 0 C0 3 0 3 -2 6 C-4.9375 7.75 -4.9375 7.75 -8 9 C-8.99 8.67 -9.98 8.34 -11 8 C-7.8002138 5.34874858 -4.58720833 3.09253819 -1 1 C-0.67 0.67 -0.34 0.34 0 0 Z " fill="#5D75B6" transform="translate(28,33)"/>
<path d="M0 0 C2.96404505 2.80804268 5.44499019 5.18315774 7 9 C4.625 8.6875 4.625 8.6875 2 8 C-0.1519437 4.77208445 -0.20086443 3.71599191 0 0 Z " fill="#7186B6" transform="translate(56,13)"/>
<path d="M0 0 C0.33 0.66 0.66 1.32 1 2 C1.99 2.33 2.98 2.66 4 3 C4 3.66 4 4.32 4 5 C5.32 5.33 6.64 5.66 8 6 C6.35 6.33 4.7 6.66 3 7 C3.33 7.66 3.66 8.32 4 9 C2.68 8.34 1.36 7.68 0 7 C0 4.69 0 2.38 0 0 Z " fill="#BCD9F7" transform="translate(18,63)"/>
<path d="M0 0 C2 1 2 1 2.6328125 2.84765625 C2.79523438 3.57855469 2.95765625 4.30945312 3.125 5.0625 C3.29257813 5.79597656 3.46015625 6.52945313 3.6328125 7.28515625 C3.75398438 7.85105469 3.87515625 8.41695312 4 9 C3.01 8.34 2.02 7.68 1 7 C0.01 8.485 0.01 8.485 -1 10 C-1.99 9.01 -2.98 8.02 -4 7 C-3.01 6.34 -2.02 5.68 -1 5 C-0.27034634 2.43717258 -0.27034634 2.43717258 0 0 Z " fill="#728FA0" transform="translate(94,53)"/>
<path d="M0 0 C0 1.98 0 3.96 0 6 C-1.98 6.99 -3.96 7.98 -6 9 C-5.37315423 6.07471973 -4.51695295 3.58774327 -3 1 C-1 0 -1 0 0 0 Z " fill="#E6F0F5" transform="translate(66,64)"/>
<path d="M0 0 C1.485 0.99 1.485 0.99 3 2 C3 2.99 3 3.98 3 5 C3.66 5 4.32 5 5 5 C5.125 7.875 5.125 7.875 5 11 C4.34 11.66 3.68 12.32 3 13 C1.692524 10.385048 1.45247156 7.88450619 1 5 C0.67364302 3.33195323 0.34274406 1.66475686 0 0 Z " fill="#5B6EB0" transform="translate(86,44)"/>
<path d="M0 0 C0.29296875 6.0546875 0.29296875 6.0546875 0 8 C-0.99 8.66 -1.98 9.32 -3 10 C-3 7.03 -3 4.06 -3 1 C-1 0 -1 0 0 0 Z " fill="#E9E9EB" transform="translate(3,45)"/>
<path d="M0 0 C0 0.33 0 0.66 0 1 C-2.31 1 -4.62 1 -7 1 C-7 1.66 -7 2.32 -7 3 C-8.32 3 -9.64 3 -11 3 C-11 2.01 -11 1.02 -11 0 C-7.18243176 -1.37432457 -3.92744671 -0.67975039 0 0 Z " fill="#A6D8BA" transform="translate(14,95)"/>
<path d="M0 0 C-0.33 1.65 -0.66 3.3 -1 5 C-1.66 5 -2.32 5 -3 5 C-3 3.68 -3 2.36 -3 1 C-6.3 1 -9.6 1 -13 1 C-13 0.67 -13 0.34 -13 0 C-11.58456585 -0.19658808 -10.16755969 -0.38187546 -8.75 -0.5625 C-7.96109375 -0.66691406 -7.1721875 -0.77132812 -6.359375 -0.87890625 C-3.99467126 -1.00027349 -2.2488963 -0.69633257 0 0 Z " fill="#627DBD" transform="translate(95,81)"/>
<path d="M0 0 C1.98 0 3.96 0 6 0 C4.68 0.33 3.36 0.66 2 1 C2 1.66 2 2.32 2 3 C3.32 3 4.64 3 6 3 C6 3.99 6 4.98 6 6 C3.03 5.505 3.03 5.505 0 5 C0 3.35 0 1.7 0 0 Z " fill="#93BAD7" transform="translate(78,66)"/>
<path d="M0 0 C3.63 0 7.26 0 11 0 C6.577168 3.317124 5.28089024 3.30466674 0 3 C0 2.01 0 1.02 0 0 Z " fill="#6168AC" transform="translate(45,68)"/>
<path d="M0 0 C3.96 0 7.92 0 12 0 C9 3 9 3 6.73828125 3.07421875 C5.93777344 2.94660156 5.13726562 2.81898437 4.3125 2.6875 C3.10013672 2.50767578 3.10013672 2.50767578 1.86328125 2.32421875 C1.24839844 2.21722656 0.63351563 2.11023437 0 2 C0 1.34 0 0.68 0 0 Z " fill="#628AB7" transform="translate(77,59)"/>
<path d="M0 0 C0.66 0.33 1.32 0.66 2 1 C-1.3 3.64 -4.6 6.28 -8 9 C-8 8.01 -8 7.02 -8 6 C-6.25 4.39453125 -6.25 4.39453125 -4 2.8125 C-3.2575 2.28269531 -2.515 1.75289062 -1.75 1.20703125 C-1.1725 0.80871094 -0.595 0.41039062 0 0 Z " fill="#495FCE" transform="translate(32,34)"/>
<path d="M0 0 C1.65 0 3.3 0 5 0 C5.33 0.99 5.66 1.98 6 3 C4.02 3.66 2.04 4.32 0 5 C0 3.35 0 1.7 0 0 Z " fill="#525BBF" transform="translate(48,64)"/>
<path d="M0 0 C2.31 0.66 4.62 1.32 7 2 C7 2.66 7 3.32 7 4 C6.34 4 5.68 4 5 4 C4.34 5.65 3.68 7.3 3 9 C2.34 8.67 1.68 8.34 1 8 C1.20625 7.236875 1.4125 6.47375 1.625 5.6875 C2.33391203 2.78114056 2.33391203 2.78114056 0 0 Z " fill="#BECBDA" transform="translate(58,61)"/>
<path d="M0 0 C0 0.66 0 1.32 0 2 C-0.9590625 2.86625 -0.9590625 2.86625 -1.9375 3.75 C-4.44350418 6.48382274 -4.66980509 8.36785602 -5 12 C-5.33 12 -5.66 12 -6 12 C-6.08131463 10.56344146 -6.13933559 9.1255517 -6.1875 7.6875 C-6.22230469 6.88699219 -6.25710937 6.08648437 -6.29296875 5.26171875 C-6 3 -6 3 -4.67578125 1.20703125 C-3 0 -3 0 0 0 Z " fill="#90B5E2" transform="translate(80,61)"/>
<path d="M0 0 C3.96 0 7.92 0 12 0 C11.67 0.99 11.34 1.98 11 3 C9.54077307 2.88590407 8.08259402 2.75834456 6.625 2.625 C5.40683594 2.52058594 5.40683594 2.52058594 4.1640625 2.4140625 C2 2 2 2 0 0 Z " fill="#C5E1FE" transform="translate(48,32)"/>
<path d="M0 0 C1.98 0 3.96 0 6 0 C6.33 1.65 6.66 3.3 7 5 C5 5 5 5 3.375 3.5 C2.92125 3.005 2.4675 2.51 2 2 C1.67 2.99 1.34 3.98 1 5 C0.34 5 -0.32 5 -1 5 C-0.67 3.35 -0.34 1.7 0 0 Z " fill="#5770A2" transform="translate(49,10)"/>
<path d="M0 0 C1.9375 0.8125 1.9375 0.8125 4 2 C4.33 2.99 4.66 3.98 5 5 C4.34 5.66 3.68 6.32 3 7 C2.01 6.67 1.02 6.34 0 6 C0 4.02 0 2.04 0 0 Z " fill="#C4E3F7" transform="translate(17,81)"/>
<path d="M0 0 C1.32 0 2.64 0 4 0 C4.33 2.31 4.66 4.62 5 7 C3.0625 6.3125 3.0625 6.3125 1 5 C0.25 2.375 0.25 2.375 0 0 Z " fill="#4B6A95" transform="translate(11,81)"/>
<path d="M0 0 C0.33 0 0.66 0 1 0 C1.144375 1.11375 1.28875 2.2275 1.4375 3.375 C1.78372035 6.82142047 1.78372035 6.82142047 3 9 C2.66015625 11.1640625 2.66015625 11.1640625 2.0625 13.625 C1.86785156 14.44226563 1.67320312 15.25953125 1.47265625 16.1015625 C1.31667969 16.72804688 1.16070312 17.35453125 1 18 C0.67 18 0.34 18 0 18 C0 12.06 0 6.12 0 0 Z " fill="#D8ECE2" transform="translate(2,76)"/>
<path d="M0 0 C0.99 0.33 1.98 0.66 3 1 C3.33 2.65 3.66 4.3 4 6 C2.35 5.67 0.7 5.34 -1 5 C-0.67 3.35 -0.34 1.7 0 0 Z " fill="#456494" transform="translate(80,72)"/>
<path d="M0 0 C0.33 0 0.66 0 1 0 C1 4.62 1 9.24 1 14 C0.01 13.67 -0.98 13.34 -2 13 C-2 11.35 -2 9.7 -2 8 C-1.34 8 -0.68 8 0 8 C0 5.36 0 2.72 0 0 Z " fill="#CAE3F0" transform="translate(4,63)"/>
<path d="M0 0 C1.65 0 3.3 0 5 0 C4.67 1.65 4.34 3.3 4 5 C3.67 4.34 3.34 3.68 3 3 C2.34 3 1.68 3 1 3 C1 4.98 1 6.96 1 9 C0.67 9 0.34 9 0 9 C0 6.03 0 3.06 0 0 Z " fill="#5873AD" transform="translate(70,62)"/>
<path d="M0 0 C1.4800841 0.11362262 2.95910074 0.24122908 4.4375 0.375 C5.26121094 0.44460937 6.08492187 0.51421875 6.93359375 0.5859375 C7.95646484 0.79089844 7.95646484 0.79089844 9 1 C9.33 1.66 9.66 2.32 10 3 C7.03 3 4.06 3 1 3 C0.67 2.01 0.34 1.02 0 0 Z " fill="#445AAB" transform="translate(24,59)"/>
<path d="M0 0 C0.33 0.99 0.66 1.98 1 3 C1.99 3 2.98 3 4 3 C4 3.66 4 4.32 4 5 C5.98 5 7.96 5 10 5 C10 5.33 10 5.66 10 6 C6.37 6 2.74 6 -1 6 C-0.67 4.02 -0.34 2.04 0 0 Z " fill="#869BC4" transform="translate(47,55)"/>
<path d="M0 0 C0 1.32 0 2.64 0 4 C-2.31 4 -4.62 4 -7 4 C-7 3.34 -7 2.68 -7 2 C-4.35261084 0.5393715 -3.10551666 0 0 0 Z " fill="#CBE4C8" transform="translate(108,49)"/>
<path d="M0 0 C0.33 0.99 0.66 1.98 1 3 C-0.3125 4.5 -0.3125 4.5 -2 6 C-2.99 6 -3.98 6 -5 6 C-5.33 5.01 -5.66 4.02 -6 3 C-4.02 2.01 -2.04 1.02 0 0 Z " fill="#D2E5FC" transform="translate(68,86)"/>
<path d="M0 0 C4.75 0.75 4.75 0.75 7 3 C6.01 4.32 5.02 5.64 4 7 C3.566875 6.0409375 3.566875 6.0409375 3.125 5.0625 C2.17176549 2.84793921 2.17176549 2.84793921 0 2 C0 1.34 0 0.68 0 0 Z " fill="#D5E6F8" transform="translate(37,59)"/>
<path d="M0 0 C2.78388975 1.70625501 3.85384206 2.47626739 4.75 5.6875 C4.8325 6.450625 4.915 7.21375 5 8 C2.69 6.02 0.38 4.04 -2 2 C-1.34 1.34 -0.68 0.68 0 0 Z " fill="#BDDAEF" transform="translate(82,34)"/>
<path d="M0 0 C0.33 0 0.66 0 1 0 C1 2.31 1 4.62 1 7 C-0.65 7 -2.3 7 -4 7 C-3.67 5.68 -3.34 4.36 -3 3 C-2.01 3 -1.02 3 0 3 C0 2.01 0 1.02 0 0 Z " fill="#567598" transform="translate(97,75)"/>
<path d="M0 0 C0.66 0 1.32 0 2 0 C1.50168276 3.68754757 0.89932357 5.60490662 -2 8 C-2.66 7.67 -3.32 7.34 -4 7 C-3.67 6.01 -3.34 5.02 -3 4 C-2.34 4 -1.68 4 -1 4 C-0.67 2.68 -0.34 1.36 0 0 Z " fill="#729BB0" transform="translate(93,71)"/>
<path d="M0 0 C0.66 0.33 1.32 0.66 2 1 C2 1.99 2 2.98 2 4 C0.35 4.33 -1.3 4.66 -3 5 C-3 4.34 -3 3.68 -3 3 C-3.99 2.67 -4.98 2.34 -6 2 C-2.25 0.875 -2.25 0.875 0 2 C0 1.34 0 0.68 0 0 Z " fill="#537C89" transform="translate(92,65)"/>
<path d="M0 0 C0 0.66 0 1.32 0 2 C2.31 2 4.62 2 7 2 C7 2.33 7 2.66 7 3 C2.545 3.495 2.545 3.495 -2 4 C-2 3.34 -2 2.68 -2 2 C-2.99 1.67 -3.98 1.34 -5 1 C-2 0 -2 0 0 0 Z " fill="#D2E9D6" transform="translate(101,51)"/>
<path d="M0 0 C2.875 0.625 2.875 0.625 6 2 C7.375 5.125 7.375 5.125 8 8 C7.34 8 6.68 8 6 8 C5.34 6.35 4.68 4.7 4 3 C2.68 3 1.36 3 0 3 C0 2.01 0 1.02 0 0 Z " fill="#5365C0" transform="translate(77,39)"/>
<path d="M0 0 C1.485 0.99 1.485 0.99 3 2 C3.1875 5.625 3.1875 5.625 3 9 C2.01 9.495 2.01 9.495 1 10 C0.67 6.7 0.34 3.4 0 0 Z " fill="#6B7BA2" transform="translate(60,37)"/>
<path d="M0 0 C2.14418558 3.21627837 2.67582137 5.19090105 3 9 C2.34 9.66 1.68 10.32 1 11 C-0.17571451 7.32589215 -0.07366746 3.83070817 0 0 Z " fill="#5370BF" transform="translate(41,35)"/>
<path d="M0 0 C1.68496298 0.96885372 3.35178756 1.96986723 5 3 C5 3.33 5 3.66 5 4 C2.36 4 -0.28 4 -3 4 C-3 3.34 -3 2.68 -3 2 C-2.01 2 -1.02 2 0 2 C0 1.34 0 0.68 0 0 Z " fill="#8CABBC" transform="translate(24,98)"/>
<path d="M0 0 C3.375 -0.125 3.375 -0.125 7 0 C7.66 0.66 8.32 1.32 9 2 C4.545 2.495 4.545 2.495 0 3 C0 2.01 0 1.02 0 0 Z " fill="#46619E" transform="translate(42,35)"/>
<path d="M0 0 C1.65 0 3.3 0 5 0 C5.33 1.32 5.66 2.64 6 4 C5.01 4.33 4.02 4.66 3 5 C2.67 4.01 2.34 3.02 2 2 C1.34 1.34 0.68 0.68 0 0 Z " fill="#4B5CC8" transform="translate(84,85)"/>
<path d="M0 0 C1.32 0.33 2.64 0.66 4 1 C4 2.98 4 4.96 4 7 C1.49962266 4.82575883 0.56371414 3.26954202 0 0 Z " fill="#6F739E" transform="translate(36,78)"/>
<path d="M0 0 C2.64 0 5.28 0 8 0 C8.33 0.99 8.66 1.98 9 3 C4.545 2.01 4.545 2.01 0 1 C0 0.67 0 0.34 0 0 Z " fill="#526FA5" transform="translate(49,35)"/>
<path d="M0 0 C1 2 1 2 0.375 4 C-1.39265071 6.57112831 -3.07589059 7.07659703 -6 8 C-4.625 5.5 -4.625 5.5 -3 3 C-2.34 3 -1.68 3 -1 3 C-0.67 2.01 -0.34 1.02 0 0 Z " fill="#6D8EBC" transform="translate(45,16)"/>
</svg>
