<?xml version="1.0" encoding="UTF-8"?>
<svg version="1.1" xmlns="http://www.w3.org/2000/svg" width="142" height="127">
<path d="M0 0 C46.86 0 93.72 0 142 0 C142 41.91 142 83.82 142 127 C95.14 127 48.28 127 0 127 C0 85.09 0 43.18 0 0 Z " fill="#FDFEFC" transform="translate(0,0)"/>
<path d="M0 0 C0.36630156 3.93774177 0.30233203 5.56539771 -2 8.875 C-2.66 9.57625 -3.32 10.2775 -4 11 C-2.68 11.66 -1.36 12.32 0 13 C-3.85623679 19.62790698 -3.85623679 19.62790698 -7.11328125 20.6875 C-9.3125 20.9375 -9.3125 20.9375 -13 21 C-13 21.33 -13 21.66 -13 22 C-12.01 22 -11.02 22 -10 22 C-10 22.66 -10 23.32 -10 24 C-9.34 24 -8.68 24 -8 24 C-8.28482368 25.41805831 -8.57818144 26.83440379 -8.875 28.25 C-9.03742187 29.03890625 -9.19984375 29.8278125 -9.3671875 30.640625 C-10 33 -10 33 -11.0703125 35.046875 C-12.28652892 37.24143429 -12.28652892 37.24143429 -12 41 C-10.515 40.505 -10.515 40.505 -9 40 C-8.77956567 45.51085827 -9.0822355 49.75811038 -11 55 C-10.67 55.66 -10.34 56.32 -10 57 C-9.67 56.34 -9.34 55.68 -9 55 C-8.34 55 -7.68 55 -7 55 C-5.35 58.63 -3.7 62.26 -2 66 C-1.34 66 -0.68 66 0 66 C0.33 62.04 0.66 58.08 1 54 C-1.475 54.495 -1.475 54.495 -4 55 C-3.67 54.01 -3.34 53.02 -3 52 C-1.02 52 0.96 52 3 52 C2.938125 51.0925 2.87625 50.185 2.8125 49.25 C3.01686856 45.70761168 3.52653696 44.47346304 6 42 C6.66 42 7.32 42 8 42 C8 40.35 8 38.7 8 37 C7.34 37 6.68 37 6 37 C4.68373308 33.38026598 4 30.90432869 4 27 C4.7425 26.71125 5.485 26.4225 6.25 26.125 C8.56739797 25.17697356 10.77917115 24.15154089 13 23 C12.855625 22.29875 12.71125 21.5975 12.5625 20.875 C11.98521625 17.92443859 11.48304859 14.96729849 11 12 C11.66 12 12.32 12 13 12 C13 11.34 13 10.68 13 10 C15.475 10.495 15.475 10.495 18 11 C18.66 13.31 19.32 15.62 20 18 C21.32 18 22.64 18 24 18 C24.66 19.32 25.32 20.64 26 22 C27.65 22 29.3 22 31 22 C31.020625 20.9275 31.04125 19.855 31.0625 18.75 C32 15 32 15 33.5546875 13.64453125 C38.15636282 11 38.15636282 11 41 11 C42.21875 12.57421875 42.21875 12.57421875 43.5 14.6875 C43.9228125 15.37199219 44.345625 16.05648437 44.78125 16.76171875 C47.4391662 21.64308408 48.23810777 25.21366556 48.125 30.8125 C48.10695313 31.97394531 48.08890625 33.13539062 48.0703125 34.33203125 C48.04710938 35.21246094 48.02390625 36.09289063 48 37 C46.02 37.33 44.04 37.66 42 38 C41.67 38.99 41.34 39.98 41 41 C40.34 41 39.68 41 39 41 C39 42.32 39 43.64 39 45 C39.48210937 44.6390625 39.96421875 44.278125 40.4609375 43.90625 C41.09257813 43.4421875 41.72421875 42.978125 42.375 42.5 C43.00148438 42.0359375 43.62796875 41.571875 44.2734375 41.09375 C46 40 46 40 48 40 C49.85961414 35.7494534 50.93204565 31.50066475 52 27 C51.34 26.67 50.68 26.34 50 26 C49.7265625 24.21484375 49.7265625 24.21484375 49.625 21.9375 C49.19348084 16.85697251 47.48971552 13.41723721 45 9 C48.3 9 51.6 9 55 9 C55 6.36 55 3.72 55 1 C58.21043882 2.38188453 60.04936365 3.92421903 62.25 6.625 C63.03117187 7.57246094 63.03117187 7.57246094 63.828125 8.5390625 C64.40820312 9.26222656 64.40820312 9.26222656 65 10 C65.66 7.69 66.32 5.38 67 3 C70.875 4.875 70.875 4.875 72 6 C72.07179964 7.51928038 72.08392007 9.04167482 72.0625 10.5625 C72.05347656 11.38878906 72.04445313 12.21507812 72.03515625 13.06640625 C72.02355469 13.70449219 72.01195313 14.34257813 72 15 C73.32 15 74.64 15 76 15 C76 16.98 76 18.96 76 21 C77.32 20.67 78.64 20.34 80 20 C79.88487847 21.72985242 79.75744323 23.45888751 79.625 25.1875 C79.55539063 26.15042969 79.48578125 27.11335938 79.4140625 28.10546875 C78.99784147 31.01508938 78.20125904 33.32890774 77 36 C76.34 36 75.68 36 75 36 C75 36.99 75 37.98 75 39 C75.99 38.01 75.99 38.01 77 37 C79.625 36.875 79.625 36.875 82 37 C81.34 38.32 80.68 39.64 80 41 C80.66 41 81.32 41 82 41 C81.54059385 46.32911133 80.9581605 50.39841701 78 55 C75.36821203 56.80935423 74.2388234 57 71 57 C71 57.66 71 58.32 71 59 C74.465 58.505 74.465 58.505 78 58 C76.84826645 60.46800047 75.95216435 62.04783565 74 64 C75.485 64.495 75.485 64.495 77 65 C75.65120387 70.56378406 71.71799467 74.073936 67 77 C64.05789422 77.85681006 61.26301623 78.35128006 58.22265625 78.7109375 C56.03041458 78.76624926 56.03041458 78.76624926 55 80 C56.6396875 80.4640625 56.6396875 80.4640625 58.3125 80.9375 C60.55407994 81.58337897 62.7869351 82.2623117 65 83 C65 83.66 65 84.32 65 85 C59.18077475 88.77172007 55.00466114 90.96616016 48 90 C46.3125 88.4375 46.3125 88.4375 45 87 C42.34533951 87.23043864 42.34533951 87.23043864 40 88 C40 88.99 40 89.98 40 91 C27.13 90.505 27.13 90.505 14 90 C14 89.01 14 88.02 14 87 C9.39257135 88.21044132 9.39257135 88.21044132 5 90 C-0.12248715 90.3866028 -2.77357901 89.85568986 -7 87 C-9.19130534 86.30420546 -9.19130534 86.30420546 -11 86 C-10 83 -10 83 -7 81 C-5.0103005 80.60986284 -3.00980131 80.26797351 -1 80 C-4.18264484 78.50813523 -6.17356929 78 -9.75 78 C-15.22467465 77.48805523 -17.94355058 73.30275734 -21.3125 69.34765625 C-23 67 -23 67 -23 65 C-21.515 64.505 -21.515 64.505 -20 64 C-20.66 63.38125 -21.32 62.7625 -22 62.125 C-24 60 -24 60 -24 58 C-21.69 58.33 -19.38 58.66 -17 59 C-17 58.34 -17 57.68 -17 57 C-17.9075 56.95875 -18.815 56.9175 -19.75 56.875 C-23 56 -23 56 -25.3125 53.5 C-27.34683172 49.28064533 -27.79413929 45.63186588 -28 41 C-27.01 40.505 -27.01 40.505 -26 40 C-26.495 38.515 -26.495 38.515 -27 37 C-25.35 37.33 -23.7 37.66 -22 38 C-21.83384296 35.80833243 -21.83384296 35.80833243 -23.4375 33.5 C-25.43968576 29.01510391 -25.72147746 24.85973806 -26 20 C-24.68 20.33 -23.36 20.66 -22 21 C-22 19.02 -22 17.04 -22 15 C-20.68 15 -19.36 15 -18 15 C-18.061875 13.948125 -18.12375 12.89625 -18.1875 11.8125 C-17.992078 7.83891936 -17.4326186 6.08755437 -15 3 C-14.34 3 -13.68 3 -13 3 C-12.34 5.64 -11.68 8.28 -11 11 C-10.62875 10.29875 -10.2575 9.5975 -9.875 8.875 C-4.08695652 0 -4.08695652 0 0 0 Z " fill="#AFDBCA" transform="translate(42,22)"/>
<path d="M0 0 C0.36630156 3.93774177 0.30233203 5.56539771 -2 8.875 C-2.66 9.57625 -3.32 10.2775 -4 11 C-2.68 11.66 -1.36 12.32 0 13 C-3.85623679 19.62790698 -3.85623679 19.62790698 -7.11328125 20.6875 C-9.3125 20.9375 -9.3125 20.9375 -13 21 C-13 21.33 -13 21.66 -13 22 C-12.01 22 -11.02 22 -10 22 C-10 22.66 -10 23.32 -10 24 C-9.34 24 -8.68 24 -8 24 C-8.28482368 25.41805831 -8.57818144 26.83440379 -8.875 28.25 C-9.03742187 29.03890625 -9.19984375 29.8278125 -9.3671875 30.640625 C-10 33 -10 33 -11.0703125 35.046875 C-12.28652892 37.24143429 -12.28652892 37.24143429 -12 41 C-10.515 40.505 -10.515 40.505 -9 40 C-8.77956567 45.51085827 -9.0822355 49.75811038 -11 55 C-10.67 55.66 -10.34 56.32 -10 57 C-9.67 56.34 -9.34 55.68 -9 55 C-8.34 55 -7.68 55 -7 55 C-4.31780178 60.36439644 -3.6847405 64.01006953 -4 70 C-2.68 70.33 -1.36 70.66 0 71 C0.33 73.97 0.66 76.94 1 80 C3.17607301 80.71402396 5.35257715 81.42676111 7.53125 82.1328125 C10 83 10 83 13.5 84.6875 C25.2196408 89.05318293 38.08935577 85.92546183 49 81 C49.77214844 80.67 50.54429688 80.34 51.33984375 80 C53.30102182 79.07581052 53.30102182 79.07581052 53.75 76.375 C53.8325 75.59125 53.915 74.8075 54 74 C54.33 74.66 54.66 75.32 55 76 C55.99 76 56.98 76 58 76 C58.33 73.69 58.66 71.38 59 69 C59.99 69 60.98 69 62 69 C62.495 64.05 62.495 64.05 63 59 C63.33 59 63.66 59 64 59 C64.495 62.465 64.495 62.465 65 66 C65.02701408 63.89590361 65.04640223 61.79170822 65.0625 59.6875 C65.07410156 58.51574219 65.08570312 57.34398437 65.09765625 56.13671875 C65.14899898 52.96940805 65.14899898 52.96940805 64 50 C63.93197033 48.27204648 63.91504355 46.54164635 63.9375 44.8125 C63.94652344 43.91144531 63.95554687 43.01039062 63.96484375 42.08203125 C63.97644531 41.39496094 63.98804687 40.70789062 64 40 C65.485 40.495 65.485 40.495 67 41 C67.33 39.68 67.66 38.36 68 37 C67.34 37 66.68 37 66 37 C65.49242138 35.58603098 64.99425075 34.16868271 64.5 32.75 C64.2215625 31.96109375 63.943125 31.1721875 63.65625 30.359375 C63 28 63 28 63 24 C63.66 24 64.32 24 65 24 C65 23.34 65 22.68 65 22 C66.98 22.495 66.98 22.495 69 23 C68.505 22.01 68.505 22.01 68 21 C67.0925 21.04125 66.185 21.0825 65.25 21.125 C62.02059432 21.00079209 60.57907141 20.86760343 58 19 C55 14.71428571 55 14.71428571 55 12 C55.99 11.67 56.98 11.34 58 11 C57.01 10.505 57.01 10.505 56 10 C55.5859375 7.93359375 55.5859375 7.93359375 55.375 5.4375 C55.26285156 4.19806641 55.26285156 4.19806641 55.1484375 2.93359375 C55.09945312 2.29550781 55.05046875 1.65742188 55 1 C58.21043882 2.38188453 60.04936365 3.92421903 62.25 6.625 C63.03117187 7.57246094 63.03117187 7.57246094 63.828125 8.5390625 C64.40820312 9.26222656 64.40820312 9.26222656 65 10 C65.66 7.69 66.32 5.38 67 3 C70.875 4.875 70.875 4.875 72 6 C72.07179964 7.51928038 72.08392007 9.04167482 72.0625 10.5625 C72.05347656 11.38878906 72.04445313 12.21507812 72.03515625 13.06640625 C72.02355469 13.70449219 72.01195313 14.34257813 72 15 C73.32 15 74.64 15 76 15 C76 16.98 76 18.96 76 21 C77.32 20.67 78.64 20.34 80 20 C79.88487847 21.72985242 79.75744323 23.45888751 79.625 25.1875 C79.55539063 26.15042969 79.48578125 27.11335938 79.4140625 28.10546875 C78.99784147 31.01508938 78.20125904 33.32890774 77 36 C76.34 36 75.68 36 75 36 C75 36.99 75 37.98 75 39 C75.99 38.01 75.99 38.01 77 37 C79.625 36.875 79.625 36.875 82 37 C81.34 38.32 80.68 39.64 80 41 C80.66 41 81.32 41 82 41 C81.54059385 46.32911133 80.9581605 50.39841701 78 55 C75.36821203 56.80935423 74.2388234 57 71 57 C71 57.66 71 58.32 71 59 C74.465 58.505 74.465 58.505 78 58 C76.84826645 60.46800047 75.95216435 62.04783565 74 64 C75.485 64.495 75.485 64.495 77 65 C75.65120387 70.56378406 71.71799467 74.073936 67 77 C64.05789422 77.85681006 61.26301623 78.35128006 58.22265625 78.7109375 C56.03041458 78.76624926 56.03041458 78.76624926 55 80 C56.6396875 80.4640625 56.6396875 80.4640625 58.3125 80.9375 C60.55407994 81.58337897 62.7869351 82.2623117 65 83 C65 83.66 65 84.32 65 85 C59.18077475 88.77172007 55.00466114 90.96616016 48 90 C46.3125 88.4375 46.3125 88.4375 45 87 C42.34533951 87.23043864 42.34533951 87.23043864 40 88 C40 88.99 40 89.98 40 91 C27.13 90.505 27.13 90.505 14 90 C14 89.01 14 88.02 14 87 C9.39257135 88.21044132 9.39257135 88.21044132 5 90 C-0.12248715 90.3866028 -2.77357901 89.85568986 -7 87 C-9.19130534 86.30420546 -9.19130534 86.30420546 -11 86 C-10 83 -10 83 -7 81 C-5.0103005 80.60986284 -3.00980131 80.26797351 -1 80 C-4.18264484 78.50813523 -6.17356929 78 -9.75 78 C-15.22467465 77.48805523 -17.94355058 73.30275734 -21.3125 69.34765625 C-23 67 -23 67 -23 65 C-21.515 64.505 -21.515 64.505 -20 64 C-20.66 63.38125 -21.32 62.7625 -22 62.125 C-24 60 -24 60 -24 58 C-21.69 58.33 -19.38 58.66 -17 59 C-17 58.34 -17 57.68 -17 57 C-17.9075 56.95875 -18.815 56.9175 -19.75 56.875 C-23 56 -23 56 -25.3125 53.5 C-27.34683172 49.28064533 -27.79413929 45.63186588 -28 41 C-27.01 40.505 -27.01 40.505 -26 40 C-26.495 38.515 -26.495 38.515 -27 37 C-25.35 37.33 -23.7 37.66 -22 38 C-21.83384296 35.80833243 -21.83384296 35.80833243 -23.4375 33.5 C-25.43968576 29.01510391 -25.72147746 24.85973806 -26 20 C-24.68 20.33 -23.36 20.66 -22 21 C-22 19.02 -22 17.04 -22 15 C-20.68 15 -19.36 15 -18 15 C-18.061875 13.948125 -18.12375 12.89625 -18.1875 11.8125 C-17.992078 7.83891936 -17.4326186 6.08755437 -15 3 C-14.34 3 -13.68 3 -13 3 C-12.34 5.64 -11.68 8.28 -11 11 C-10.62875 10.29875 -10.2575 9.5975 -9.875 8.875 C-4.08695652 0 -4.08695652 0 0 0 Z " fill="#BFA761" transform="translate(42,22)"/>
<path d="M0 0 C0.495 1.485 0.495 1.485 1 3 C1.99 3.33 2.98 3.66 4 4 C2.68 4.33 1.36 4.66 0 5 C0.495 5.78375 0.99 6.5675 1.5 7.375 C3 10 3 10 3 12 C7.95 12.495 7.95 12.495 13 13 C13.495 14.485 13.495 14.485 14 16 C12.68 15.67 11.36 15.34 10 15 C10 15.66 10 16.32 10 17 C9.34 17 8.68 17 8 17 C8.99 21.29 9.98 25.58 11 30 C11.66 30 12.32 30 13 30 C12.67 31.32 12.34 32.64 12 34 C11.34 34 10.68 34 10 34 C9.870067 39.99223644 9.870067 39.99223644 10.5 45.9375 C11.21739673 50.33155498 11.80747699 54.58480469 11 59 C9.24035573 61.18737319 7.34029995 62.36179003 5 64 C3.60180488 66.6514482 3.60180488 66.6514482 3 69 C2.01 69 1.02 69 0 69 C-0.22300781 69.60585937 -0.44601563 70.21171875 -0.67578125 70.8359375 C-2.42696808 73.69775905 -4.12473836 74.31540537 -7.1875 75.625 C-8.10917969 76.02976562 -9.03085938 76.43453125 -9.98046875 76.8515625 C-23.09275951 81.83864333 -35.34189698 81.40727521 -48.2421875 76.2890625 C-51 75 -51 75 -54 73 C-54.68232614 70.6758266 -55.00752449 68.38851242 -55.375 65.99609375 C-55.58125 65.33738281 -55.7875 64.67867188 -56 64 C-56.99 63.67 -57.98 63.34 -59 63 C-59 60.69 -59 58.38 -59 56 C-58.525625 56.495 -58.05125 56.99 -57.5625 57.5 C-56.24076302 59.11542197 -56.24076302 59.11542197 -55 59 C-54.67 55.04 -54.34 51.08 -54 47 C-53.67 47 -53.34 47 -53 47 C-52.67 53.27 -52.34 59.54 -52 66 C-49.36 66.66 -46.72 67.32 -44 68 C-44 67.34 -44 66.68 -44 66 C-42.68 66 -41.36 66 -40 66 C-39.67 65.34 -39.34 64.68 -39 64 C-36.36 64 -33.72 64 -31 64 C-30.67 63.01 -30.34 62.02 -30 61 C-28.02 61.33 -26.04 61.66 -24 62 C-24.99 62.33 -25.98 62.66 -27 63 C-26.67 63.66 -26.34 64.32 -26 65 C-23.64400765 65.46751788 -23.64400765 65.46751788 -20.9375 65.625 C-20.01839844 65.69976562 -19.09929687 65.77453125 -18.15234375 65.8515625 C-17.08693359 65.92503906 -17.08693359 65.92503906 -16 66 C-16.268125 65.05125 -16.53625 64.1025 -16.8125 63.125 C-17.65028271 57.75657658 -14.61300149 53.49363925 -12 49 C-13.98 49 -15.96 49 -18 49 C-18 48.67 -18 48.34 -18 48 C-15.525 47.505 -15.525 47.505 -13 47 C-13.33 46.34 -13.66 45.68 -14 45 C-14.039992 43.00039988 -14.04346799 40.99952758 -14 39 C-13.01 39 -12.02 39 -11 39 C-10.67 37.35 -10.34 35.7 -10 34 C-9.01 33.67 -8.02 33.34 -7 33 C-4.90774499 28.9385638 -4.04905942 24.42103614 -3 20 C-3.66 19.67 -4.32 19.34 -5 19 C-5.2734375 17.21484375 -5.2734375 17.21484375 -5.375 14.9375 C-5.80651916 9.85697251 -7.51028448 6.41723721 -10 2 C-6.7 2 -3.4 2 0 2 C0 1.34 0 0.68 0 0 Z " fill="#7ED0F2" transform="translate(97,29)"/>
<path d="M0 0 C0.99 0 1.98 0 3 0 C2.67 1.98 2.34 3.96 2 6 C2.99 6 3.98 6 5 6 C4.4794993 12.8966343 2.49965493 18.5492776 0 25 C4.29 25.33 8.58 25.66 13 26 C13 28.31 13 30.62 13 33 C11.14985947 33.96608323 9.29466527 34.9224907 7.4375 35.875 C6.40496094 36.40867188 5.37242188 36.94234375 4.30859375 37.4921875 C-6.94388954 42.62023774 -19.31736707 42.69357483 -30.875 38.625 C-34.23445756 37.29212937 -36.9900253 36.0066498 -40 34 C-40.68232614 31.6758266 -41.00752449 29.38851242 -41.375 26.99609375 C-41.58125 26.33738281 -41.7875 25.67867187 -42 25 C-42.99 24.67 -43.98 24.34 -45 24 C-45 21.69 -45 19.38 -45 17 C-44.525625 17.495 -44.05125 17.99 -43.5625 18.5 C-42.24076302 20.11542197 -42.24076302 20.11542197 -41 20 C-40.67 16.04 -40.34 12.08 -40 8 C-39.67 8 -39.34 8 -39 8 C-38.67 14.27 -38.34 20.54 -38 27 C-35.36 27.66 -32.72 28.32 -30 29 C-30 28.34 -30 27.68 -30 27 C-28.68 27 -27.36 27 -26 27 C-25.67 26.34 -25.34 25.68 -25 25 C-22.36 25 -19.72 25 -17 25 C-16.67 24.01 -16.34 23.02 -16 22 C-14.02 22.33 -12.04 22.66 -10 23 C-10.99 23.33 -11.98 23.66 -13 24 C-12.505 24.99 -12.505 24.99 -12 26 C-9.64400765 26.46751788 -9.64400765 26.46751788 -6.9375 26.625 C-6.01839844 26.69976562 -5.09929687 26.77453125 -4.15234375 26.8515625 C-3.44207031 26.90054688 -2.73179688 26.94953125 -2 27 C-2.268125 26.05125 -2.53625 25.1025 -2.8125 24.125 C-3.65028271 18.75657658 -0.61300149 14.49363925 2 10 C0.02 10 -1.96 10 -4 10 C-4 9.67 -4 9.34 -4 9 C-2.35 8.67 -0.7 8.34 1 8 C0.505 7.01 0.505 7.01 0 6 C-0.039992 4.00039988 -0.04346799 1.99952758 0 0 Z " fill="#EBF0EB" transform="translate(83,68)"/>
<path d="M0 0 C0.66 0.33 1.32 0.66 2 1 C2 3.64 2 6.28 2 9 C3.37562854 7.71034824 4.70766393 6.37310707 6 5 C6 4.34 6 3.68 6 3 C7.32 3 8.64 3 10 3 C9.65978036 6.17538332 8.97533396 7.02276865 6.5625 9.25 C4 11 4 11 2 11 C1.67 12.98 1.34 14.96 1 17 C-1.64 16.67 -4.28 16.34 -7 16 C-6.67 17.32 -6.34 18.64 -6 20 C-3.03 20 -0.06 20 3 20 C3.33 21.98 3.66 23.96 4 26 C3.34 24.68 2.68 23.36 2 22 C0.02 22.33 -1.96 22.66 -4 23 C-3.80528889 24.94999129 -3.80528889 24.94999129 -3 27 C-1.67532254 27.6837045 -0.34136367 28.34964186 1 29 C2.25 31.125 2.25 31.125 3 33 C1 33 1 33 -1.625 30.5 C-2.40875 29.675 -3.1925 28.85 -4 28 C-4.309375 28.78375 -4.61875 29.5675 -4.9375 30.375 C-6 33 -6 33 -7 35 C-5.68 35.33 -4.36 35.66 -3 36 C-2.67 38.97 -2.34 41.94 -2 45 C-1.34 45 -0.68 45 0 45 C-0.33 42.36 -0.66 39.72 -1 37 C-0.1028125 37.9590625 -0.1028125 37.9590625 0.8125 38.9375 C5.77966606 42.15154863 11.19157886 42 17 42 C17.495 45.465 17.495 45.465 18 49 C15.69 49 13.38 49 11 49 C10.505 47.02 10.505 47.02 10 45 C9.01 45 8.02 45 7 45 C6.566875 45.495 6.13375 45.99 5.6875 46.5 C3.21355555 48.69906174 1.22981691 48.12919268 -2 48 C-3.67453799 48.291224 -5.34550895 48.61070799 -7 49 C-7 49.66 -7 50.32 -7 51 C-14.875 50.125 -14.875 50.125 -16 49 C-16.08651611 47.58429877 -16.10704904 46.164405 -16.09765625 44.74609375 C-16.09443359 43.89208984 -16.09121094 43.03808594 -16.08789062 42.15820312 C-16.07951172 41.26037109 -16.07113281 40.36253906 -16.0625 39.4375 C-16.05798828 38.53580078 -16.05347656 37.63410156 -16.04882812 36.70507812 C-16.03700225 34.46998686 -16.0205222 32.23502563 -16 30 C-17.98 30.33 -19.96 30.66 -22 31 C-21.505 29.515 -21.505 29.515 -21 28 C-19.02 28 -17.04 28 -15 28 C-15.0928125 26.63875 -15.0928125 26.63875 -15.1875 25.25 C-14.98313144 21.70761168 -14.47346304 20.47346304 -12 18 C-11.34 18 -10.68 18 -10 18 C-9.67 16.02 -9.34 14.04 -9 12 C-8.34 12.66 -7.68 13.32 -7 14 C-4.69 14.33 -2.38 14.66 0 15 C0 10.05 0 5.1 0 0 Z " fill="#89C2AB" transform="translate(60,46)"/>
<path d="M0 0 C-1.15173355 2.46800047 -2.04783565 4.04783565 -4 6 C-3.01 6.33 -2.02 6.66 -1 7 C-2.34879613 12.56378406 -6.28200533 16.073936 -11 19 C-13.94210578 19.85681006 -16.73698377 20.35128006 -19.77734375 20.7109375 C-21.96958542 20.76624926 -21.96958542 20.76624926 -23 22 C-21.906875 22.309375 -20.81375 22.61875 -19.6875 22.9375 C-17.44592006 23.58337897 -15.2130649 24.2623117 -13 25 C-13 25.66 -13 26.32 -13 27 C-18.81922525 30.77172007 -22.99533886 32.96616016 -30 32 C-31.6875 30.4375 -31.6875 30.4375 -33 29 C-35.65466049 29.23043864 -35.65466049 29.23043864 -38 30 C-38 30.99 -38 31.98 -38 33 C-50.87 32.505 -50.87 32.505 -64 32 C-64.33 31.01 -64.66 30.02 -65 29 C-66.65 28.67 -68.3 28.34 -70 28 C-70 27.34 -70 26.68 -70 26 C-69.21302734 26.2165625 -69.21302734 26.2165625 -68.41015625 26.4375 C-54.4227966 29.78888068 -42.05795882 28.89483777 -29 23 C-28.22785156 22.67 -27.45570312 22.34 -26.66015625 22 C-24.69897818 21.07581052 -24.69897818 21.07581052 -24.25 18.375 C-24.1675 17.59125 -24.085 16.8075 -24 16 C-23.505 16.99 -23.505 16.99 -23 18 C-22.01 18 -21.02 18 -20 18 C-19.67 15.69 -19.34 13.38 -19 11 C-18.01 11 -17.02 11 -16 11 C-15.67 7.7 -15.34 4.4 -15 1 C-14.67 1 -14.34 1 -14 1 C-13.505 4.465 -13.505 4.465 -13 8 C-12.54625 6.865625 -12.0925 5.73125 -11.625 4.5625 C-8.95004286 -1.30182912 -5.87052841 -0.09468594 0 0 Z " fill="#847E70" transform="translate(120,80)"/>
<path d="M0 0 C3.3 0 6.6 0 10 0 C10.05449838 1.72880982 10.09301688 3.45812712 10.125 5.1875 C10.14820312 6.15042969 10.17140625 7.11335938 10.1953125 8.10546875 C9.9913544 11.12812778 9.26874632 13.26769985 8 16 C6.68 16 5.36 16 4 16 C4.33 17.32 4.66 18.64 5 20 C6.65 20.33 8.3 20.66 10 21 C10 23.31 10 25.62 10 28 C9.0925 28.144375 8.185 28.28875 7.25 28.4375 C4.78523044 28.86409473 2.41152893 29.35074221 0 30 C-0.66 28.68 -1.32 27.36 -2 26 C-1.773125 26.763125 -1.54625 27.52625 -1.3125 28.3125 C-1 31 -1 31 -2.375 32.8125 C-4 34 -4 34 -5 34 C-5.33 30.7 -5.66 27.4 -6 24 C-6.99 23.67 -7.98 23.34 -9 23 C-7.125 18.25 -7.125 18.25 -6 16 C-4.0625 16.8125 -4.0625 16.8125 -2 18 C-1.67 18.99 -1.34 19.98 -1 21 C-0.34 21 0.32 21 1 21 C-1.49825283 17.78796065 -4.0702992 14.82506863 -7 12 C-6.67 11.34 -6.34 10.68 -6 10 C-4.00045254 9.95745644 -1.99958364 9.95919217 0 10 C0.33 10.33 0.66 10.66 1 11 C1 10.01 1 9.02 1 8 C-3.455 8.495 -3.455 8.495 -8 9 C-8.33 7.35 -8.66 5.7 -9 4 C-6.36 4.33 -3.72 4.66 -1 5 C-0.67 3.35 -0.34 1.7 0 0 Z " fill="#8CC1AD" transform="translate(62,58)"/>
<path d="M0 0 C1.65 0.33 3.3 0.66 5 1 C5.66 3.31 6.32 5.62 7 8 C8.32 8 9.64 8 11 8 C12.04625409 9.29735507 13.04701223 10.63266972 14 12 C14.99 12.33 15.98 12.66 17 13 C17 16.63 17 20.26 17 24 C14.69 24 12.38 24 10 24 C10.639375 23.401875 11.27875 22.80375 11.9375 22.1875 C14.20310389 20.09189663 14.20310389 20.09189663 15 17 C13.68 17 12.36 17 11 17 C11 17.66 11 18.32 11 19 C11.66 19.33 12.32 19.66 13 20 C9.25 23 9.25 23 7 23 C6.67 20.36 6.34 17.72 6 15 C5.67 19.62 5.34 24.24 5 29 C1.7 29 -1.6 29 -5 29 C-5 28.34 -5 27.68 -5 27 C-5.66 27 -6.32 27 -7 27 C-8.31626692 23.38026598 -9 20.90432869 -9 17 C-8.2575 16.71125 -7.515 16.4225 -6.75 16.125 C-4.43260203 15.17697356 -2.22082885 14.15154089 0 13 C-0.144375 12.29875 -0.28875 11.5975 -0.4375 10.875 C-1.01478375 7.92443859 -1.51695141 4.96729849 -2 2 C-1.34 2 -0.68 2 0 2 C0 1.34 0 0.68 0 0 Z " fill="#DEE4E2" transform="translate(55,32)"/>
<path d="M0 0 C0.66 0 1.32 0 2 0 C2.38885039 1.78871178 2.76069196 3.58112874 3.125 5.375 C3.33382813 6.37273438 3.54265625 7.37046875 3.7578125 8.3984375 C3.83773438 9.25695313 3.91765625 10.11546875 4 11 C3.34 11.66 2.68 12.32 2 13 C1.01 13 0.02 13 -1 13 C-1.33 14.32 -1.66 15.64 -2 17 C-2.33 16.67 -2.66 16.34 -3 16 C-3 17.98 -3 19.96 -3 22 C-3.66 22 -4.32 22 -5 22 C-5 22.66 -5 23.32 -5 24 C-4.34 24.33 -3.68 24.66 -3 25 C-3.14308594 26.77503906 -3.14308594 26.77503906 -3.2890625 28.5859375 C-4.19560183 40.90228039 -4.19560183 40.90228039 -2 53 C-3.8359375 53.625 -3.8359375 53.625 -6 54 C-10.45644798 50.60461106 -11.91502664 47.42486682 -13 42 C-13 40.68 -13 39.36 -13 38 C-12.01 37.505 -12.01 37.505 -11 37 C-11.495 35.515 -11.495 35.515 -12 34 C-10.35 34.33 -8.7 34.66 -7 35 C-6.83384296 32.80833243 -6.83384296 32.80833243 -8.4375 30.5 C-10.43968576 26.01510391 -10.72147746 21.85973806 -11 17 C-9.68 17.33 -8.36 17.66 -7 18 C-7 16.02 -7 14.04 -7 12 C-5.68 12 -4.36 12 -3 12 C-3.061875 10.948125 -3.12375 9.89625 -3.1875 8.8125 C-2.992078 4.83891936 -2.4326186 3.08755437 0 0 Z " fill="#B19F75" transform="translate(27,25)"/>
<path d="M0 0 C0.99 0 1.98 0 3 0 C2.67 1.98 2.34 3.96 2 6 C2.99 6 3.98 6 5 6 C4.4794993 12.8966343 2.49965493 18.5492776 0 25 C4.29 25.33 8.58 25.66 13 26 C13 28.31 13 30.62 13 33 C11.14985947 33.96608323 9.29466527 34.9224907 7.4375 35.875 C6.40496094 36.40867188 5.37242188 36.94234375 4.30859375 37.4921875 C-2.13573074 40.42903431 -7.77601254 41.32302605 -14.75 41.25 C-15.50410156 41.25773437 -16.25820312 41.26546875 -17.03515625 41.2734375 C-20.87917457 41.25978202 -22.73120282 41.17919812 -26 39 C-25.34 39 -24.68 39 -24 39 C-24 38.34 -24 37.68 -24 37 C-15.42 36.67 -6.84 36.34 2 36 C1.67 34.02 1.34 32.04 1 30 C-0.98 29.67 -2.96 29.34 -5 29 C-5 28.34 -5 27.68 -5 27 C-4.01 27 -3.02 27 -2 27 C-2.268125 26.05125 -2.53625 25.1025 -2.8125 24.125 C-3.65028271 18.75657658 -0.61300149 14.49363925 2 10 C0.02 10 -1.96 10 -4 10 C-4 9.67 -4 9.34 -4 9 C-2.35 8.67 -0.7 8.34 1 8 C0.67 7.34 0.34 6.68 0 6 C-0.039992 4.00039988 -0.04346799 1.99952758 0 0 Z " fill="#F7F5F2" transform="translate(83,68)"/>
<path d="M0 0 C0.36630156 3.93774177 0.30233203 5.56539771 -2 8.875 C-2.66 9.57625 -3.32 10.2775 -4 11 C-2.68 11.66 -1.36 12.32 0 13 C-3.85623679 19.62790698 -3.85623679 19.62790698 -7.11328125 20.6875 C-9.3125 20.9375 -9.3125 20.9375 -13 21 C-13 21.33 -13 21.66 -13 22 C-12.01 22 -11.02 22 -10 22 C-9.67 23.32 -9.34 24.64 -9 26 C-10.98 27.32 -12.96 28.64 -15 30 C-15 29.34 -15 28.68 -15 28 C-15.66 27.67 -16.32 27.34 -17 27 C-17.05827558 30.5624308 -17.09368885 34.12473819 -17.125 37.6875 C-17.14175781 38.69490234 -17.15851562 39.70230469 -17.17578125 40.74023438 C-17.18222656 41.71669922 -17.18867188 42.69316406 -17.1953125 43.69921875 C-17.20578613 44.59471436 -17.21625977 45.49020996 -17.22705078 46.4128418 C-16.97703456 49.26168257 -16.18016512 51.40894543 -15 54 C-14.34 54 -13.68 54 -13 54 C-13.33 56.64 -13.66 59.28 -14 62 C-16 59 -16 59 -16 57 C-16.99 56.67 -17.98 56.34 -19 56 C-18.505 55.505 -18.505 55.505 -18 55 C-18.33 53.865625 -18.66 52.73125 -19 51.5625 C-20.42322088 45.77598351 -19.8185966 40.16895008 -19.28125 34.29711914 C-18.76710705 28.87171646 -18.76710705 28.87171646 -21 24 C-20.34 24 -19.68 24 -19 24 C-19 21.69 -19 19.38 -19 17 C-18.34 17.33 -17.68 17.66 -17 18 C-16.67 17.34 -16.34 16.68 -16 16 C-15.38125 15.773125 -14.7625 15.54625 -14.125 15.3125 C-11.42081363 13.64226724 -11.07473422 11.83651939 -9.984375 8.953125 C-8.180015 5.37304563 -4.26958896 0 0 0 Z " fill="#846D36" transform="translate(42,22)"/>
<path d="M0 0 C2.12508244 3.18762365 2.5020163 5.26512223 3 9 C3.66 9 4.32 9 5 9 C4.67 10.32 4.34 11.64 4 13 C3.34 13 2.68 13 2 13 C1.870067 18.99223644 1.870067 18.99223644 2.5 24.9375 C3.21739673 29.33155498 3.80747699 33.58480469 3 38 C1.24035573 40.18737319 -0.65970005 41.36179003 -3 43 C-4.39819512 45.6514482 -4.39819512 45.6514482 -5 48 C-5.99 48 -6.98 48 -8 48 C-8.33 46.68 -8.66 45.36 -9 44 C-13.62 44 -18.24 44 -23 44 C-22.65066406 42.97519531 -22.30132812 41.95039062 -21.94140625 40.89453125 C-21.48160964 39.53390863 -21.0219832 38.17322849 -20.5625 36.8125 C-20.33240234 36.13896484 -20.10230469 35.46542969 -19.86523438 34.77148438 C-18.66475915 31.20485509 -17.62722505 27.7128839 -17 24 C-17.99 24 -18.98 24 -20 24 C-19.67 22.02 -19.34 20.04 -19 18 C-18.34 18.99 -17.68 19.98 -17 21 C-16.01 21.66 -15.02 22.32 -14 23 C-14.66 23 -15.32 23 -16 23 C-15.938125 23.9075 -15.87625 24.815 -15.8125 25.75 C-15.77795796 31.33429576 -17.52645691 36.65840632 -19 42 C-17.741875 42.020625 -16.48375 42.04125 -15.1875 42.0625 C-14.47980469 42.07410156 -13.77210937 42.08570313 -13.04296875 42.09765625 C-10.79694539 42.08263217 -10.79694539 42.08263217 -8 41 C-6.99952743 37.77854066 -6.99952743 37.77854066 -6.375 34 C-5.07692308 27.07692308 -5.07692308 27.07692308 -4 26 C-1.74521031 17.40974146 -0.47051804 8.85871904 0 0 Z " fill="#A1D1DD" transform="translate(105,50)"/>
<path d="M0 0 C0.66 0.33 1.32 0.66 2 1 C2 3.64 2 6.28 2 9 C3.37562854 7.71034824 4.70766393 6.37310707 6 5 C6 4.34 6 3.68 6 3 C7.32 3 8.64 3 10 3 C9.65978036 6.17538332 8.97533396 7.02276865 6.5625 9.25 C4 11 4 11 2 11 C1.67 12.98 1.34 14.96 1 17 C-1.64 16.67 -4.28 16.34 -7 16 C-6.67 17.32 -6.34 18.64 -6 20 C-3.03 20 -0.06 20 3 20 C3.33 21.98 3.66 23.96 4 26 C3.34 24.68 2.68 23.36 2 22 C0.02 22.33 -1.96 22.66 -4 23 C-3.80528889 24.94999129 -3.80528889 24.94999129 -3 27 C-1.67532254 27.6837045 -0.34136367 28.34964186 1 29 C2.25 31.125 2.25 31.125 3 33 C1 33 1 33 -1.625 30.5 C-2.40875 29.675 -3.1925 28.85 -4 28 C-4.2475 28.804375 -4.495 29.60875 -4.75 30.4375 C-6 33 -6 33 -7.75 34 C-10.97263078 34 -13.13924811 32.43037594 -16 31 C-19.25100364 30.74803177 -19.25100364 30.74803177 -22 31 C-21.505 29.515 -21.505 29.515 -21 28 C-19.02 28 -17.04 28 -15 28 C-15.0928125 26.63875 -15.0928125 26.63875 -15.1875 25.25 C-14.98313144 21.70761168 -14.47346304 20.47346304 -12 18 C-11.34 18 -10.68 18 -10 18 C-9.67 16.02 -9.34 14.04 -9 12 C-8.34 12.66 -7.68 13.32 -7 14 C-4.69 14.33 -2.38 14.66 0 15 C0 10.05 0 5.1 0 0 Z " fill="#4A7464" transform="translate(60,46)"/>
<path d="M0 0 C5.52332519 6.90415649 4.36276872 14.60593482 4 23 C-0.29 23 -4.58 23 -9 23 C-9 16.73 -9 10.46 -9 4 C-2 0 -2 0 0 0 Z " fill="#87C3AC" transform="translate(83,33)"/>
<path d="M0 0 C3 0 3 0 6 1 C6.70776992 8.35575165 7.14715692 15.6094524 7 23 C6.67 23 6.34 23 6 23 C5.67 24.65 5.34 26.3 5 28 C4.01 28 3.02 28 2 28 C2 28.66 2 29.32 2 30 C2.66 30 3.32 30 4 30 C3.625 32.9375 3.625 32.9375 3 36 C2.01 36.495 2.01 36.495 1 37 C0.7834375 35.453125 0.7834375 35.453125 0.5625 33.875 C0.23776806 31.63795771 -0.1191817 29.40409151 -0.5625 27.1875 C-1.1667499 22.7851079 -1.07890476 18.43620085 -1 14 C-0.01 14.33 0.98 14.66 2 15 C2.33 13.68 2.66 12.36 3 11 C2.34 11 1.68 11 1 11 C-0.20272819 8.59454362 -0.10071472 7.05003047 -0.0625 4.375 C-0.05347656 3.55773438 -0.04445313 2.74046875 -0.03515625 1.8984375 C-0.02355469 1.27195313 -0.01195313 0.64546875 0 0 Z " fill="#A29464" transform="translate(107,48)"/>
<path d="M0 0 C3.875 1.875 3.875 1.875 5 3 C5.07179964 4.51928038 5.08392007 6.04167482 5.0625 7.5625 C5.05347656 8.38878906 5.04445313 9.21507812 5.03515625 10.06640625 C5.01775391 11.02353516 5.01775391 11.02353516 5 12 C6.32 12 7.64 12 9 12 C9 13.98 9 15.96 9 18 C10.32 17.67 11.64 17.34 13 17 C12.88487847 18.72985242 12.75744323 20.45888751 12.625 22.1875 C12.55539063 23.15042969 12.48578125 24.11335938 12.4140625 25.10546875 C11.99784147 28.01508938 11.20125904 30.32890774 10 33 C9.34 33 8.68 33 8 33 C7.67 33.66 7.34 34.32 7 35 C5.36525374 31.73050748 5.98581225 28.22843775 6.0625 24.62890625 C6.12606814 21.88888663 6.12606814 21.88888663 5 19 C4.34 19 3.68 19 3 19 C2.80664062 18.44570313 2.61328125 17.89140625 2.4140625 17.3203125 C2.15367188 16.59585938 1.89328125 15.87140625 1.625 15.125 C1.36976562 14.40570313 1.11453125 13.68640625 0.8515625 12.9453125 C0.06122217 10.81842006 0.06122217 10.81842006 -2 9 C-1.7578125 6.8359375 -1.7578125 6.8359375 -1.125 4.375 C-0.92132813 3.55773437 -0.71765625 2.74046875 -0.5078125 1.8984375 C-0.34023437 1.27195312 -0.17265625 0.64546875 0 0 Z " fill="#D6B155" transform="translate(109,25)"/>
<path d="M0 0 C1.22787058 3.68361173 0.6048575 4.48407327 -0.9375 7.9375 C-2.49057579 11.42797202 -3 13.06310645 -3 17 C-2.01 16.67 -1.02 16.34 0 16 C0.37952295 22.19887485 -0.1647887 26.4477112 -3 32 C-5.74021437 30.99525473 -6.79833776 30.40015588 -8.13427734 27.74926758 C-9.05545547 24.82389056 -9.15483988 22.74776193 -8.9765625 19.69921875 C-8.925 18.72275391 -8.8734375 17.74628906 -8.8203125 16.74023438 C-8.75585938 15.73283203 -8.69140625 14.72542969 -8.625 13.6875 C-8.56828125 12.66076172 -8.5115625 11.63402344 -8.453125 10.57617188 C-8.31213091 8.05002774 -8.16076818 5.52494999 -8 3 C-7.01 3.33 -6.02 3.66 -5 4 C-4.01 3.34 -3.02 2.68 -2 2 C-1.34 2 -0.68 2 0 2 C0 1.34 0 0.68 0 0 Z " fill="#C4AD76" transform="translate(33,46)"/>
<path d="M0 0 C0.33 0.99 0.66 1.98 1 3 C1.99 3.33 2.98 3.66 4 4 C2.68 4.33 1.36 4.66 0 5 C0.495 5.78375 0.99 6.5675 1.5 7.375 C3 10 3 10 3 12 C6.3 12.33 9.6 12.66 13 13 C13.33 13.99 13.66 14.98 14 16 C12.68 15.67 11.36 15.34 10 15 C10 15.66 10 16.32 10 17 C9.34 17 8.68 17 8 17 C7.67 17.66 7.34 18.32 7 19 C7 17.68 7 16.36 7 15 C5.68 15 4.36 15 3 15 C2.67 15.99 2.34 16.98 2 18 C1.01 18.66 0.02 19.32 -1 20 C-1.57748803 21.96361864 -1.57748803 21.96361864 -1.6875 24.125 C-1.8421875 26.043125 -1.8421875 26.043125 -2 28 C-2.66 28 -3.32 28 -4 28 C-3.67 25.36 -3.34 22.72 -3 20 C-3.66 19.67 -4.32 19.34 -5 19 C-5.2734375 17.21484375 -5.2734375 17.21484375 -5.375 14.9375 C-5.80651916 9.85697251 -7.51028448 6.41723721 -10 2 C-6.7 2 -3.4 2 0 2 C0 1.34 0 0.68 0 0 Z " fill="#84C6DE" transform="translate(97,29)"/>
<path d="M0 0 C0.7734375 0.2165625 0.7734375 0.2165625 1.5625 0.4375 C4.68509571 1.15809901 7.82550692 1.57266439 11 2 C11 3.32 11 4.64 11 6 C12.98 6 14.96 6 17 6 C16.01 5.67 15.02 5.34 14 5 C14 4.01 14 3.02 14 2 C16.64 2 19.28 2 22 2 C22 3.98 22 5.96 22 8 C12.66013591 9.20514375 3.39792784 9.09213655 -6 9 C-6.33 8.01 -6.66 7.02 -7 6 C-4.525 6.495 -4.525 6.495 -2 7 C-2 6.34 -2 5.68 -2 5 C-3.65 4.67 -5.3 4.34 -7 4 C-7 3.34 -7 2.68 -7 2 C-4.69 2 -2.38 2 0 2 C0 1.34 0 0.68 0 0 Z " fill="#CECFCE" transform="translate(63,96)"/>
<path d="M0 0 C2.64 0 5.28 0 8 0 C6.84826645 2.46800047 5.95216435 4.04783565 4 6 C4.99 6.33 5.98 6.66 7 7 C5.66073087 12.52448517 1.60429681 15.98162765 -3 19 C-6.5 19.4375 -6.5 19.4375 -9 19 C-8.505 17.515 -8.505 17.515 -8 16 C-7.34 16 -6.68 16 -6 16 C-6.103125 15.29875 -6.20625 14.5975 -6.3125 13.875 C-5.87220043 9.82424393 -3.60499267 8.04974752 -1 5 C-0.13457301 2.27886497 -0.13457301 2.27886497 0 0 Z " fill="#BDA66C" transform="translate(112,80)"/>
<path d="M0 0 C1.9921875 1.18359375 1.9921875 1.18359375 4 3 C4.3203125 5.34765625 4.3203125 5.34765625 4.125 8.0625 C3.90152809 13.6492978 4.68454329 18.58548623 6 24 C4.1640625 24.625 4.1640625 24.625 2 25 C-2.45644798 21.60461106 -3.91502664 18.42486682 -5 13 C-5 11.68 -5 10.36 -5 9 C-4.34 8.67 -3.68 8.34 -3 8 C-3.33 7.01 -3.66 6.02 -4 5 C-2.35 5.33 -0.7 5.66 1 6 C1 3.84365964 0.5534764 2.07553648 0 0 Z " fill="#B09E6A" transform="translate(19,54)"/>
<path d="M0 0 C1.32 0.66 2.64 1.32 4 2 C3.01 3.485 3.01 3.485 2 5 C2.99 4.67 3.98 4.34 5 4 C6.62298792 8.10520474 7.37979067 10.74564545 6 15 C5.01 16.485 5.01 16.485 4 18 C2.0546875 18.29296875 2.0546875 18.29296875 -0.125 18.1875 C-1.40375 18.125625 -2.6825 18.06375 -4 18 C-4 15.69 -4 13.38 -4 11 C-3.01 10.67 -2.02 10.34 -1 10 C-3.31 9.67 -5.62 9.34 -8 9 C-7.67 8.01 -7.34 7.02 -7 6 C-4.36 5.67 -1.72 5.34 1 5 C0.67 3.35 0.34 1.7 0 0 Z " fill="#95BFA2" transform="translate(78,68)"/>
<path d="M0 0 C1.2065625 0.0309375 1.2065625 0.0309375 2.4375 0.0625 C1.7775 1.3825 1.1175 2.7025 0.4375 4.0625 C1.0975 4.0625 1.7575 4.0625 2.4375 4.0625 C1.98284917 9.33644963 1.52169623 13.59573305 -1.5625 18.0625 C-3.5425 18.7225 -5.5225 19.3825 -7.5625 20.0625 C-7.2325 13.7925 -6.9025 7.5225 -6.5625 1.0625 C-5.5725 1.0625 -4.5825 1.0625 -3.5625 1.0625 C-2.5625 0.0625 -2.5625 0.0625 0 0 Z " fill="#B6A064" transform="translate(121.5625,58.9375)"/>
<path d="M0 0 C0.36630156 3.93774177 0.30233203 5.56539771 -2 8.875 C-2.66 9.57625 -3.32 10.2775 -4 11 C-2.68 11.66 -1.36 12.32 0 13 C-3.73572939 19.62790698 -3.73572939 19.62790698 -7.3359375 20.6875 C-9.57451466 20.91347624 -11.75107018 21.0342974 -14 21 C-13.67 19.68 -13.34 18.36 -13 17 C-12.01 17 -11.02 17 -10 17 C-10.0928125 16.443125 -10.185625 15.88625 -10.28125 15.3125 C-10.65635691 11.3470841 -10.67266111 8.93527538 -8.2890625 5.62109375 C-2.71824687 0 -2.71824687 0 0 0 Z " fill="#B29B60" transform="translate(42,22)"/>
<path d="M0 0 C3 1 3 1 4.1875 2.8125 C5 5 5 5 5 9 C5.66 9 6.32 9 7 9 C9.47474976 11.47474976 9.25648789 12.21393225 9.265625 15.62109375 C9.26973389 16.55211914 9.27384277 17.48314453 9.27807617 18.44238281 C9.26881104 19.43077148 9.2595459 20.41916016 9.25 21.4375 C9.24395752 22.43491211 9.23791504 23.43232422 9.23168945 24.45996094 C9.03707036 38.9018774 9.03707036 38.9018774 7 44 C6.01 44.66 5.02 45.32 4 46 C4 45.01 4 44.02 4 43 C3.34 43 2.68 43 2 43 C2 42.34 2 41.68 2 41 C2.99 41 3.98 41 5 41 C5 39.02 5 37.04 5 35 C5.33 35 5.66 35 6 35 C5.67 28.07 5.34 21.14 5 14 C4.34 13.67 3.68 13.34 3 13 C2.67 13.66 2.34 14.32 2 15 C1.67 14.67 1.34 14.34 1 14 C0.34 15.32 -0.32 16.64 -1 18 C-1.33 15.69 -1.66 13.38 -2 11 C-1.34 11 -0.68 11 0 11 C0 10.34 0 9.68 0 9 C1.32 9.33 2.64 9.66 4 10 C3.2884375 8.63875 3.2884375 8.63875 2.5625 7.25 C1.35371179 4.73572051 0.52006114 2.70431791 0 0 Z " fill="#866C31" transform="translate(107,35)"/>
<path d="M0 0 C3.16115776 1.36983503 3.9927092 1.9890638 6 5 C6.99 5.33 7.98 5.66 9 6 C9 9.63 9 13.26 9 17 C6.69 17 4.38 17 2 17 C2.9590625 16.1028125 2.9590625 16.1028125 3.9375 15.1875 C6.20310389 13.09189663 6.20310389 13.09189663 7 10 C5.68 10 4.36 10 3 10 C3 10.66 3 11.32 3 12 C3.66 12.33 4.32 12.66 5 13 C1.25 16 1.25 16 -1 16 C-1.22786458 14.01432292 -1.45572917 12.02864583 -1.68359375 10.04296875 C-1.97170735 7.80603607 -1.97170735 7.80603607 -3 5 C-1.5625 2.3125 -1.5625 2.3125 0 0 Z " fill="#8ABFAB" transform="translate(63,39)"/>
<path d="M0 0 C0.66 0.66 1.32 1.32 2 2 C5.58343976 2.16677282 5.58343976 2.16677282 9 2 C8.01 2.495 8.01 2.495 7 3 C7 3.66 7 4.32 7 5 C8.65 5 10.3 5 12 5 C12 5.33 12 5.66 12 6 C11.05125 6.309375 10.1025 6.61875 9.125 6.9375 C6.13919592 7.87394742 6.13919592 7.87394742 4 9 C-1.12248715 9.3866028 -3.77357901 8.85568986 -8 6 C-10.19130534 5.30420546 -10.19130534 5.30420546 -12 5 C-9.94192831 -1.17421506 -5.52734395 -0.35094247 0 0 Z " fill="#B2A173" transform="translate(43,103)"/>
<path d="M0 0 C8.57142857 -0.28571429 8.57142857 -0.28571429 12 2 C12 2.66 12 3.32 12 4 C6.2184518 7.74729976 1.96866322 10.08134429 -5 9 C-7 7 -7 7 -8 5 C-7.67 4.34 -7.34 3.68 -7 3 C-4.67843403 2.59270772 -2.3431213 2.25561323 0 2 C0 1.34 0 0.68 0 0 Z " fill="#BCA569" transform="translate(95,103)"/>
<path d="M0 0 C1.9375 0.8125 1.9375 0.8125 4 2 C4.33 2.99 4.66 3.98 5 5 C5.66 5 6.32 5 7 5 C7 4.34 7 3.68 7 3 C7.66 3 8.32 3 9 3 C9.33 6.63 9.66 10.26 10 14 C8.68 14 7.36 14 6 14 C5.34 12.68 4.68 11.36 4 10 C4.226875 10.763125 4.45375 11.52625 4.6875 12.3125 C5 15 5 15 3.625 16.8125 C2 18 2 18 1 18 C0.67 14.7 0.34 11.4 0 8 C-0.99 7.67 -1.98 7.34 -3 7 C-1.125 2.25 -1.125 2.25 0 0 Z " fill="#98C3B2" transform="translate(56,74)"/>
<path d="M0 0 C0.33 0.66 0.66 1.32 1 2 C1.639375 2.268125 2.27875 2.53625 2.9375 2.8125 C5.6964919 4.40101049 5.86417728 6.08945427 7 9 C9.01317219 10.80348078 9.01317219 10.80348078 11 12 C10.67 12.66 10.34 13.32 10 14 C7.07452966 14.6224405 5.81043497 14.85534977 3 14 C-0.42687309 11.00690832 -3.33522078 7.68597579 -6 4 C-6 3.34 -6 2.68 -6 2 C-4.02 1.34 -2.04 0.68 0 0 Z " fill="#CAAC58" transform="translate(25,85)"/>
<path d="M0 0 C2.875 -0.125 2.875 -0.125 6 0 C6.66 0.66 7.32 1.32 8 2 C8.33 2 8.66 2 9 2 C9.66 4.64 10.32 7.28 11 10 C12.65 10.33 14.3 10.66 16 11 C16 13.31 16 15.62 16 18 C14.35 18.33 12.7 18.66 11 19 C8.90649311 15.5980513 8.82057837 12.94727588 9 9 C8.443125 8.938125 7.88625 8.87625 7.3125 8.8125 C3.98470782 7.64327572 2.26866168 5.64677196 0 3 C0 2.01 0 1.02 0 0 Z " fill="#81AC99" transform="translate(56,68)"/>
<path d="M0 0 C0.33 0 0.66 0 1 0 C1 3.96 1 7.92 1 12 C3.97 12.33 6.94 12.66 10 13 C10.10807131 14.93627769 10.1856225 16.87427756 10.25 18.8125 C10.29640625 19.89144531 10.3428125 20.97039062 10.390625 22.08203125 C10 25 10 25 7.984375 26.88671875 C7.32953125 27.25410156 6.6746875 27.62148437 6 28 C5.566875 26.39125 5.566875 26.39125 5.125 24.75 C4.17134117 21.18205 4.17134117 21.18205 2.875 18.75 C2 17 2 17 2 14 C1.34 14 0.68 14 0 14 C-0.33 14.99 -0.66 15.98 -1 17 C-2.125 15.3125 -2.125 15.3125 -3 13 C-2.39031953 11.31165408 -1.71162443 9.64797236 -1 8 C-0.53873385 5.33655996 -0.27377624 2.69213304 0 0 Z " fill="#FBFCF6" transform="translate(33,63)"/>
<path d="M0 0 C0.33 0 0.66 0 1 0 C1.33 2.31 1.66 4.62 2 7 C2.99 4.69 3.98 2.38 5 0 C5.66 1.32 6.32 2.64 7 4 C5.7934375 5.3303125 5.7934375 5.3303125 4.5625 6.6875 C2.2960841 9.38287032 1.31582634 11.42063478 1 15 C0.34 15 -0.32 15 -1 15 C-1.33 15.99 -1.66 16.98 -2 18 C-3.99145391 19.01691264 -5.99187074 20.01642648 -8 21 C-8.66 21.99 -9.32 22.98 -10 24 C-13.625 24.6875 -13.625 24.6875 -17 25 C-17 25.66 -17 26.32 -17 27 C-18.32 27 -19.64 27 -21 27 C-21 26.34 -21 25.68 -21 25 C-20.21753906 24.69707031 -19.43507813 24.39414063 -18.62890625 24.08203125 C-17.61699219 23.66308594 -16.60507813 23.24414062 -15.5625 22.8125 C-14.55316406 22.40644531 -13.54382813 22.00039062 -12.50390625 21.58203125 C-9.75359603 20.22071325 -9.75359603 20.22071325 -9.15234375 17.32421875 C-9.10207031 16.55722656 -9.05179688 15.79023437 -9 15 C-8.67 15.66 -8.34 16.32 -8 17 C-7.01 17 -6.02 17 -5 17 C-4.67 14.69 -4.34 12.38 -4 10 C-3.01 10 -2.02 10 -1 10 C-0.67 6.7 -0.34 3.4 0 0 Z " fill="#8F7741" transform="translate(105,81)"/>
<path d="M0 0 C0.99 0 1.98 0 3 0 C2.67 1.98 2.34 3.96 2 6 C2.99 6 3.98 6 5 6 C4.4794993 12.8966343 2.49965493 18.5492776 0 25 C4.29 25.33 8.58 25.66 13 26 C13 28.31 13 30.62 13 33 C12.67 33 12.34 33 12 33 C12 31.02 12 29.04 12 27 C7.38 27 2.76 27 -2 27 C-3.75137513 20.80282648 -2.17309311 17.50720839 0.87109375 11.94140625 C1.24363281 11.30074219 1.61617188 10.66007812 2 10 C0.02 10 -1.96 10 -4 10 C-4 9.67 -4 9.34 -4 9 C-2.35 8.67 -0.7 8.34 1 8 C0.67 7.34 0.34 6.68 0 6 C-0.039992 4.00039988 -0.04346799 1.99952758 0 0 Z " fill="#D0EDEB" transform="translate(83,68)"/>
<path d="M0 0 C0.598125 0.639375 1.19625 1.27875 1.8125 1.9375 C6.77966606 5.15154863 12.19157886 5 18 5 C18.33 7.31 18.66 9.62 19 12 C16.69 12 14.38 12 12 12 C11.67 10.68 11.34 9.36 11 8 C10.01 8 9.02 8 8 8 C7.566875 8.495 7.13375 8.99 6.6875 9.5 C5 11 5 11 1.8125 11.1875 C0.884375 11.125625 -0.04375 11.06375 -1 11 C-1 10.01 -1 9.02 -1 8 C-0.34 8 0.32 8 1 8 C0.67 5.36 0.34 2.72 0 0 Z " fill="#7B9C8A" transform="translate(59,83)"/>
<path d="M0 0 C0.66 0 1.32 0 2 0 C2.12375 1.11375 2.2475 2.2275 2.375 3.375 C2.6465813 7.03103677 2.6465813 7.03103677 5 9 C4.6730244 11.61580479 4.17960932 13.64078137 3 16 C-0.3520059 15.40142752 -2.61317755 14.47206611 -5 12 C-5.51924297 8.51365432 -5.39852706 6.68836492 -3.625 3.625 C-3.08875 3.08875 -2.5525 2.5525 -2 2 C-1.34 2 -0.68 2 0 2 C0 1.34 0 0.68 0 0 Z " fill="#8CC0AC" transform="translate(50,62)"/>
<path d="M0 0 C5.61 0 11.22 0 17 0 C17 2.31 17 4.62 17 7 C13.86501708 8.85776765 11.62528568 9.20140476 8 9 C7.34 7.02 6.68 5.04 6 3 C3.03 2.505 3.03 2.505 0 2 C0 1.34 0 0.68 0 0 Z " fill="#F8F9F3" transform="translate(78,95)"/>
<path d="M0 0 C2.39824947 2.39824947 2.31436204 3.27335218 2.5625 6.5625 C2.58449303 9.58047788 2.58449303 9.58047788 4 12 C3.66000655 17.09990174 3.29223517 20.91308737 0 25 C-5.2972973 29 -5.2972973 29 -8 29 C-8.33 29.66 -8.66 30.32 -9 31 C-9.66 30.34 -10.32 29.68 -11 29 C-6.78269231 23.17019231 -6.78269231 23.17019231 -2.8203125 22.30859375 C-1.88960937 22.20675781 -0.95890625 22.10492188 0 22 C-0.08378906 21.03578125 -0.16757813 20.0715625 -0.25390625 19.078125 C-0.35574219 17.81484375 -0.45757812 16.5515625 -0.5625 15.25 C-0.66691406 13.99703125 -0.77132812 12.7440625 -0.87890625 11.453125 C-0.98125183 8.53462509 -0.80079488 6.72863442 0 4 C0 2.68 0 1.36 0 0 Z " fill="#DBF7F7" transform="translate(90,37)"/>
<path d="M0 0 C0.99 0.33 1.98 0.66 3 1 C4.55853267 1.21803307 6.12182651 1.40366356 7.6875 1.5625 C8.89986328 1.68818359 8.89986328 1.68818359 10.13671875 1.81640625 C10.75160156 1.87699219 11.36648437 1.93757813 12 2 C11.67 2.66 11.34 3.32 11 4 C10.01 4 9.02 4 8 4 C8 6.31 8 8.62 8 11 C8.763125 10.79375 9.52625 10.5875 10.3125 10.375 C13 10 13 10 16 12 C15.67 12.33 15.34 12.66 15 13 C14.95907063 15.33297433 14.95758277 17.66705225 15 20 C14.01 20 13.02 20 12 20 C11.67 17.69 11.34 15.38 11 13 C10.01 13.495 10.01 13.495 9 14 C6.87109375 13.94921875 6.87109375 13.94921875 4.4375 13.6875 C3.22900391 13.56955078 3.22900391 13.56955078 1.99609375 13.44921875 C1.33738281 13.30097656 0.67867188 13.15273437 0 13 C-0.33 12.34 -0.66 11.68 -1 11 C1.31 11 3.62 11 6 11 C6 8.69 6 6.38 6 4 C4.35 4 2.7 4 1 4 C0.67 2.68 0.34 1.36 0 0 Z " fill="#BCC7AE" transform="translate(66,75)"/>
<path d="M0 0 C0.33 0 0.66 0 1 0 C1 4.95 1 9.9 1 15 C-2.3 15 -5.6 15 -9 15 C-9 14.34 -9 13.68 -9 13 C-9.66 13 -10.32 13 -11 13 C-11.66 10.03 -12.32 7.06 -13 4 C-11 5 -11 5 -10.125 7.5 C-9.27117929 10.18259554 -9.27117929 10.18259554 -6.875 10.8125 C-6.25625 10.874375 -5.6375 10.93625 -5 11 C-4.87625 10.2575 -4.7525 9.515 -4.625 8.75 C-4.04513299 6.19858515 -3.26291261 4.2732427 -2 2 C-1.34 2 -0.68 2 0 2 C0 1.34 0 0.68 0 0 Z " fill="#ADD1C2" transform="translate(59,46)"/>
<path d="M0 0 C3.875 1.875 3.875 1.875 5 3 C5.23363881 4.84891946 5.41303635 6.70488031 5.5625 8.5625 C5.68818359 10.08037109 5.68818359 10.08037109 5.81640625 11.62890625 C5.87699219 12.41136719 5.93757813 13.19382812 6 14 C6.33 14 6.66 14 7 14 C7 16.31 7 18.62 7 21 C6.34 21.33 5.68 21.66 5 22 C5 21.01 5 20.02 5 19 C4.34 19 3.68 19 3 19 C2.80664062 18.44570313 2.61328125 17.89140625 2.4140625 17.3203125 C2.15367188 16.59585938 1.89328125 15.87140625 1.625 15.125 C1.36976562 14.40570313 1.11453125 13.68640625 0.8515625 12.9453125 C0.06122217 10.81842006 0.06122217 10.81842006 -2 9 C-1.7578125 6.8359375 -1.7578125 6.8359375 -1.125 4.375 C-0.92132813 3.55773437 -0.71765625 2.74046875 -0.5078125 1.8984375 C-0.34023437 1.27195312 -0.17265625 0.64546875 0 0 Z " fill="#B8A677" transform="translate(109,25)"/>
<path d="M0 0 C1.125 3.75 1.125 3.75 0 6 C1.32 6.66 2.64 7.32 4 8 C4 9.32 4 10.64 4 12 C3.01 12.495 3.01 12.495 2 13 C1.34786708 15.02463255 1.34786708 15.02463255 1 17 C-0.32 17.33 -1.64 17.66 -3 18 C-5.12046792 14.46588679 -5.53199289 11.05606165 -6 7 C-5.071875 6.6596875 -5.071875 6.6596875 -4.125 6.3125 C-1.38589791 4.62070165 -0.94975528 3.00755839 0 0 Z " fill="#93CBE0" transform="translate(92,57)"/>
<path d="M0 0 C0.66 0 1.32 0 2 0 C3.43053823 4.7175001 3.06094957 9.2217384 2 14 C0 16.4375 0 16.4375 -2 18 C-2.33 18.99 -2.66 19.98 -3 21 C-3.99 21 -4.98 21 -6 21 C-6.6875 19.1875 -6.6875 19.1875 -7 17 C-6.566875 16.5875 -6.13375 16.175 -5.6875 15.75 C-3.48215493 13.46297549 -3.14152672 11.11505006 -2.47265625 8.07421875 C-1.84361024 5.31369453 -0.93454522 2.67012921 0 0 Z " fill="#A0A07A" transform="translate(103,77)"/>
<path d="M0 0 C0.66 1.32 1.32 2.64 2 4 C1.01 4.495 1.01 4.495 0 5 C0 5.66 0 6.32 0 7 C-0.99 7 -1.98 7 -3 7 C-3.33 8.65 -3.66 10.3 -4 12 C-2.68 12 -1.36 12 0 12 C0.33 13.32 0.66 14.64 1 16 C-0.98 17.32 -2.96 18.64 -5 20 C-5.33 18.02 -5.66 16.04 -6 14 C-6.66 14 -7.32 14 -8 14 C-8.33 11.69 -8.66 9.38 -9 7 C-8.01 7.495 -8.01 7.495 -7 8 C-6.67 7.34 -6.34 6.68 -6 6 C-5.360625 5.71125 -4.72125 5.4225 -4.0625 5.125 C-1.57998766 3.77090236 -1.03128603 2.57821507 0 0 Z " fill="#A99563" transform="translate(32,32)"/>
<path d="M0 0 C4.29 0 8.58 0 13 0 C13 0.66 13 1.32 13 2 C12.01 2 11.02 2 10 2 C9.67 2.99 9.34 3.98 9 5 C8.34 5 7.68 5 7 5 C7 5.66 7 6.32 7 7 C4.69 7.33 2.38 7.66 0 8 C0 5.36 0 2.72 0 0 Z " fill="#8DC0AD" transform="translate(74,58)"/>
<path d="M0 0 C0.99 0 1.98 0 3 0 C4.05589069 1.63183107 5.0436126 3.30792999 6 5 C6.87746107 6.07772245 7.77397957 7.14016813 8.6875 8.1875 C11 11 11 11 11 13 C11.99 13 12.98 13 14 13 C14 13.66 14 14.32 14 15 C14.66 15 15.32 15 16 15 C16 15.66 16 16.32 16 17 C17.2065625 17.433125 17.2065625 17.433125 18.4375 17.875 C21 19 21 19 22 21 C18.1509323 20.47985572 16.64257753 19.74828063 14 17 C13.05125 16.5875 12.1025 16.175 11.125 15.75 C5.20686081 12.43584205 2.1000585 6.3001755 0 0 Z " fill="#8C7540" transform="translate(27,85)"/>
<path d="M0 0 C3.81311305 1.4980087 5.72483551 3.62648024 8 7 C8.75 9.8125 8.75 9.8125 9 12 C7.3125 12.8125 7.3125 12.8125 5 13 C1.7310521 10.49127254 0.2228241 8.81171636 -0.875 4.8125 C-1 2 -1 2 0 0 Z " fill="#C1A967" transform="translate(16,66)"/>
<path d="M0 0 C0.33 0.66 0.66 1.32 1 2 C-1.47265285 6.21805486 -4.5882146 7.20260595 -9 9 C-9.33 9.66 -9.66 10.32 -10 11 C-8.35 11.33 -6.7 11.66 -5 12 C-5.99 13.485 -5.99 13.485 -7 15 C-8.32 14.67 -9.64 14.34 -11 14 C-10.01 14 -9.02 14 -8 14 C-8 13.34 -8 12.68 -8 12 C-11.63 11.34 -15.26 10.68 -19 10 C-17 7 -17 7 -14.1015625 6.19140625 C-11.78935306 5.77313016 -9.47685332 5.35645562 -7.1640625 4.94140625 C-3.7030786 3.91165672 -2.28317725 2.73868798 0 0 Z " fill="#F2EDD8" transform="translate(115,93)"/>
<path d="M0 0 C1.32 0.66 2.64 1.32 4 2 C3.01 3.485 3.01 3.485 2 5 C2.99 4.67 3.98 4.34 5 4 C5.66 5.65 6.32 7.3 7 9 C1.65370398 10.0024305 -2.62374766 9.84888195 -8 9 C-7.67 8.01 -7.34 7.02 -7 6 C-4.36 5.67 -1.72 5.34 1 5 C0.67 3.35 0.34 1.7 0 0 Z " fill="#99C2B3" transform="translate(78,68)"/>
<path d="M0 0 C3 0 3 0 6 1 C6 5.29 6 9.58 6 14 C5.67 13.01 5.34 12.02 5 11 C3.68 11 2.36 11 1 11 C-0.20272819 8.59454362 -0.10071472 7.05003047 -0.0625 4.375 C-0.05347656 3.55773438 -0.04445313 2.74046875 -0.03515625 1.8984375 C-0.02355469 1.27195313 -0.01195313 0.64546875 0 0 Z " fill="#BDA662" transform="translate(107,48)"/>
<path d="M0 0 C3.11728368 1.36508501 5.08663738 2.86919698 7.3125 5.4375 C7.84488281 6.03433594 8.37726563 6.63117187 8.92578125 7.24609375 C9.45751953 8.11427734 9.45751953 8.11427734 10 9 C9.67 9.99 9.34 10.98 9 12 C8.38125 11.030625 7.7625 10.06125 7.125 9.0625 C5.34321154 5.97164638 5.34321154 5.97164638 3 5 C3 4.34 3 3.68 3 3 C2.34 3 1.68 3 1 3 C3.37629089 7.14670039 3.37629089 7.14670039 7 10 C7 10.99 7 11.98 7 13 C5.68 13 4.36 13 3 13 C3.66 14.65 4.32 16.3 5 18 C4.34 18 3.68 18 3 18 C0 13.61538462 0 13.61538462 0 11 C0.99 10.67 1.98 10.34 3 10 C2.34 9.67 1.68 9.34 1 9 C0.5859375 6.93359375 0.5859375 6.93359375 0.375 4.4375 C0.30023438 3.61121094 0.22546875 2.78492188 0.1484375 1.93359375 C0.09945312 1.29550781 0.05046875 0.65742188 0 0 Z " fill="#9C9869" transform="translate(97,23)"/>
<path d="M0 0 C0.125 2.875 0.125 2.875 0 6 C-2 8 -2 8 -4.5625 10 C-7.05309672 11.76637442 -7.05309672 11.76637442 -8 14 C-8.66 13.67 -9.32 13.34 -10 13 C-10.35142196 9.76351714 -10.30933949 8.41221285 -8.3203125 5.76171875 C-7.23363281 4.73498047 -7.23363281 4.73498047 -6.125 3.6875 C-5.40570313 2.99011719 -4.68640625 2.29273438 -3.9453125 1.57421875 C-2 0 -2 0 0 0 Z " fill="#C9AE67" transform="translate(42,22)"/>
<path d="M0 0 C3 1 3 1 4.1875 2.8125 C5 5 5 5 5 9 C5.66 9 6.32 9 7 9 C7.33 10.32 7.66 11.64 8 13 C6.35 13 4.7 13 3 13 C2.67 13.66 2.34 14.32 2 15 C1.67 14.67 1.34 14.34 1 14 C0.34 15.32 -0.32 16.64 -1 18 C-1.33 15.69 -1.66 13.38 -2 11 C-1.34 11 -0.68 11 0 11 C0 10.34 0 9.68 0 9 C1.32 9.33 2.64 9.66 4 10 C3.2884375 8.63875 3.2884375 8.63875 2.5625 7.25 C1.35371179 4.73572051 0.52006114 2.70431791 0 0 Z " fill="#948D63" transform="translate(107,35)"/>
<path d="M0 0 C1.45295405 8.19256018 1.45295405 8.19256018 -0.4375 11.5625 C-0.953125 12.036875 -1.46875 12.51125 -2 13 C-5.60654039 10.59563974 -5.85452932 9.05320393 -7 5 C-6.34 5 -5.68 5 -5 5 C-4.71125 4.360625 -4.4225 3.72125 -4.125 3.0625 C-3.04730781 1.08673098 -2.41677831 0 0 0 Z " fill="#BEA25C" transform="translate(31,65)"/>
<path d="M0 0 C5.66442374 0.36504064 10.00703705 1.0554321 15 4 C15 4.33 15 4.66 15 5 C13.948125 5.103125 12.89625 5.20625 11.8125 5.3125 C8.12569246 5.97733415 6.03361401 6.88566296 3 9 C2.67 6.69 2.34 4.38 2 2 C1.34 2 0.68 2 0 2 C0 1.34 0 0.68 0 0 Z " fill="#F7F5E8" transform="translate(27,98)"/>
<path d="M0 0 C0.99 0.495 0.99 0.495 2 1 C1.67 2.32 1.34 3.64 1 5 C1.66 5 2.32 5 3 5 C3 9.29 3 13.58 3 18 C4.98 18 6.96 18 9 18 C9 18.66 9 19.32 9 20 C1.125 19.125 1.125 19.125 0 18 C-0.08631874 16.65732587 -0.10706473 15.31025678 -0.09765625 13.96484375 C-0.09443359 13.15595703 -0.09121094 12.34707031 -0.08789062 11.51367188 C-0.07951172 10.66353516 -0.07113281 9.81339844 -0.0625 8.9375 C-0.05798828 8.08349609 -0.05347656 7.22949219 -0.04882812 6.34960938 C-0.03700373 4.23304337 -0.01906769 2.11651315 0 0 Z " fill="#A3CABB" transform="translate(44,77)"/>
<path d="M0 0 C0.33 0 0.66 0 1 0 C1.33 2.31 1.66 4.62 2 7 C0.3125 8.125 0.3125 8.125 -2 9 C-5.4288056 8.08007655 -7.78630246 6.79624953 -10 4 C-10 3.34 -10 2.68 -10 2 C-7.69 2.33 -5.38 2.66 -3 3 C-2.67 2.34 -2.34 1.68 -2 1 C-1.67 1.66 -1.34 2.32 -1 3 C-0.67 2.01 -0.34 1.02 0 0 Z " fill="#AC9D70" transform="translate(28,78)"/>
<path d="M0 0 C1.32 0 2.64 0 4 0 C4 1.32 4 2.64 4 4 C4.66 4 5.32 4 6 4 C6 4.66 6 5.32 6 6 C3.98177083 6.45572917 1.96354167 6.91145833 -0.0546875 7.3671875 C-2.20719964 7.90474428 -2.20719964 7.90474428 -4 10 C-4.66 10 -5.32 10 -6 10 C-6.33 9.01 -6.66 8.02 -7 7 C-5.68 7 -4.36 7 -3 7 C-2.814375 5.824375 -2.814375 5.824375 -2.625 4.625 C-2 2 -2 2 0 0 Z " fill="#E0F3EA" transform="translate(73,67)"/>
<path d="M0 0 C8.57142857 -0.28571429 8.57142857 -0.28571429 12 2 C11.67 2.99 11.34 3.98 11 5 C7.44706507 6.14947895 6.20023331 6.0868937 2.6875 4.5625 C1.800625 4.046875 0.91375 3.53125 0 3 C0 2.01 0 1.02 0 0 Z " fill="#E2B444" transform="translate(37,105)"/>
<path d="M0 0 C1.98 0 3.96 0 6 0 C6 0.66 6 1.32 6 2 C7.98 2 9.96 2 12 2 C12 2.33 12 2.66 12 3 C9.69 3 7.38 3 5 3 C5 3.99 5 4.98 5 6 C6.65 6.33 8.3 6.66 10 7 C6.71023192 8.09658936 5.28696233 7.79953138 2 7 C2 6.34 2 5.68 2 5 C1.05125 5.061875 0.1025 5.12375 -0.875 5.1875 C-1.90625 5.125625 -2.9375 5.06375 -4 5 C-4.66 4.01 -5.32 3.02 -6 2 C-4.02 1.67 -2.04 1.34 0 1 C0 0.67 0 0.34 0 0 Z " fill="#D2D7D4" transform="translate(72,95)"/>
<path d="M0 0 C0.33 0 0.66 0 1 0 C1 3.96 1 7.92 1 12 C3.97 12.495 3.97 12.495 7 13 C6.34 15.64 5.68 18.28 5 21 C2 17.375 2 17.375 2 14 C1.34 14 0.68 14 0 14 C-0.33 14.99 -0.66 15.98 -1 17 C-2.125 15.3125 -2.125 15.3125 -3 13 C-2.39031953 11.31165408 -1.71162443 9.64797236 -1 8 C-0.53873385 5.33655996 -0.27377624 2.69213304 0 0 Z " fill="#F8F1DC" transform="translate(33,63)"/>
<path d="M0 0 C1 3 1 3 0 6 C0.66 6.33 1.32 6.66 2 7 C1.67 9.31 1.34 11.62 1 14 C0.01 13.67 -0.98 13.34 -2 13 C-2 12.34 -2 11.68 -2 11 C-2.66 11 -3.32 11 -4 11 C-4 8.03 -4 5.06 -4 2 C-2.68 2 -1.36 2 0 2 C0 1.34 0 0.68 0 0 Z " fill="#CAA856" transform="translate(22,43)"/>
<path d="M0 0 C0.99 0.495 0.99 0.495 2 1 C2 3.64 2 6.28 2 9 C3.37562854 7.71034824 4.70766393 6.37310707 6 5 C6 4.34 6 3.68 6 3 C7.32 3 8.64 3 10 3 C9.65978036 6.17538332 8.97533396 7.02276865 6.5625 9.25 C4 11 4 11 2 11 C1.67 12.32 1.34 13.64 1 15 C-0.09506492 11.71480525 -0.09960608 9.26336585 -0.0625 5.8125 C-0.05347656 4.72582031 -0.04445312 3.63914063 -0.03515625 2.51953125 C-0.02355469 1.68808594 -0.01195312 0.85664062 0 0 Z " fill="#5E8B78" transform="translate(60,46)"/>
<path d="M0 0 C1.65 0 3.3 0 5 0 C5.33 1.65 5.66 3.3 6 5 C5.34 4.67 4.68 4.34 4 4 C4 5.98 4 7.96 4 10 C2.68 9.34 1.36 8.68 0 8 C-0.66 10.31 -1.32 12.62 -2 15 C-2.33 15 -2.66 15 -3 15 C-3.33 11.7 -3.66 8.4 -4 5 C-2.68 5.33 -1.36 5.66 0 6 C0 4.02 0 2.04 0 0 Z " fill="#BCAA79" transform="translate(20,37)"/>
<path d="M0 0 C1.65 0 3.3 0 5 0 C5.33 0.66 5.66 1.32 6 2 C6.99 2.33 7.98 2.66 9 3 C8.67 4.32 8.34 5.64 8 7 C5.69 5.02 3.38 3.04 1 1 C1 3.64 1 6.28 1 9 C-2.63 9.33 -6.26 9.66 -10 10 C-10 9.34 -10 8.68 -10 8 C-9.21625 7.87625 -8.4325 7.7525 -7.625 7.625 C-4.85942178 7.20882007 -4.85942178 7.20882007 -3 5 C-2.34 5.33 -1.68 5.66 -1 6 C-0.67 4.02 -0.34 2.04 0 0 Z " fill="#E3F4F3" transform="translate(96,22)"/>
<path d="M0 0 C1.23556641 0.01740234 1.23556641 0.01740234 2.49609375 0.03515625 C3.32238281 0.04417969 4.14867188 0.05320312 5 0.0625 C5.63808594 0.07410156 6.27617188 0.08570312 6.93359375 0.09765625 C6.60359375 1.41765625 6.27359375 2.73765625 5.93359375 4.09765625 C1.47859375 4.59265625 1.47859375 4.59265625 -3.06640625 5.09765625 C-3.06640625 0.14491523 -3.06640625 0.14491523 0 0 Z " fill="#DCB652" transform="translate(94.06640625,104.90234375)"/>
<path d="M0 0 C0.33 0 0.66 0 1 0 C1.33 6.6 1.66 13.2 2 20 C1.01 20 0.02 20 -1 20 C-1.33 19.01 -1.66 18.02 -2 17 C-2.99 16.67 -3.98 16.34 -5 16 C-5 13.69 -5 11.38 -5 9 C-4.525625 9.495 -4.05125 9.99 -3.5625 10.5 C-2.24076302 12.11542197 -2.24076302 12.11542197 -1 12 C-0.67 8.04 -0.34 4.08 0 0 Z " fill="#ECF4E7" transform="translate(43,76)"/>
<path d="M0 0 C0.33 0 0.66 0 1 0 C2.29901921 8.04927976 3.33853295 15.83759432 3 24 C2.34 24.33 1.68 24.66 1 25 C-0.8748591 16.40043966 -1.0421083 8.73117765 0 0 Z " fill="#DBDEC3" transform="translate(105,64)"/>
<path d="M0 0 C0 0.66 0 1.32 0 2 C-0.99 2.495 -0.99 2.495 -2 3 C-2 3.99 -2 4.98 -2 6 C-8.27 5.67 -14.54 5.34 -21 5 C-21 4.67 -21 4.34 -21 4 C-20.07316406 3.95101562 -19.14632812 3.90203125 -18.19140625 3.8515625 C-16.99386719 3.77679688 -15.79632813 3.70203125 -14.5625 3.625 C-13.36753906 3.55539063 -12.17257813 3.48578125 -10.94140625 3.4140625 C-9.97074219 3.27742188 -9.00007813 3.14078125 -8 3 C-7.67 2.34 -7.34 1.68 -7 1 C-4 0 -4 0 0 0 Z " fill="#A8A295" transform="translate(84,107)"/>
<path d="M0 0 C0.33 0 0.66 0 1 0 C1 2.64 1 5.28 1 8 C2.32 8.33 3.64 8.66 5 9 C5.33 11.31 5.66 13.62 6 16 C5.34 16 4.68 16 4 16 C4 15.34 4 14.68 4 14 C3.01 14 2.02 14 1 14 C-0.6875 11.5 -0.6875 11.5 -2 9 C-1.67 8.67 -1.34 8.34 -1 8 C-0.76924918 6.65252916 -0.58846937 5.29622435 -0.4375 3.9375 C-0.293125 2.638125 -0.14875 1.33875 0 0 Z " fill="#A49C84" transform="translate(37,84)"/>
<path d="M0 0 C3 1 3 1 4.875 3.9375 C7.12409706 7.17884577 8.28485832 7.9680162 12 9 C12.33 8.34 12.66 7.68 13 7 C14.32 7.99 15.64 8.98 17 10 C16.67 10.66 16.34 11.32 16 12 C13.07452966 12.6224405 11.81043497 12.85534977 9 12 C5.57312691 9.00690832 2.66477922 5.68597579 0 2 C0 1.34 0 0.68 0 0 Z " fill="#C3A965" transform="translate(19,87)"/>
<path d="M0 0 C-0.11512153 1.72985242 -0.24255677 3.45888751 -0.375 5.1875 C-0.44460937 6.15042969 -0.51421875 7.11335938 -0.5859375 8.10546875 C-1.00215853 11.01508938 -1.79874096 13.32890774 -3 16 C-3.66 16 -4.32 16 -5 16 C-5.33 16.66 -5.66 17.32 -6 18 C-6.33 16.68 -6.66 15.36 -7 14 C-6.01 13.67 -5.02 13.34 -4 13 C-4 12.38511719 -4 11.77023438 -4 11.13671875 C-4 7.7578125 -4 4.37890625 -4 1 C-2 0 -2 0 0 0 Z " fill="#B79F63" transform="translate(122,42)"/>
<path d="M0 0 C0.99 0 1.98 0 3 0 C3.33 2.97 3.66 5.94 4 9 C4.66 9 5.32 9 6 9 C6.33 9.99 6.66 10.98 7 12 C7.66 12.33 8.32 12.66 9 13 C9 13.66 9 14.32 9 15 C7.35 15.66 5.7 16.32 4 17 C4.33 14.69 4.66 12.38 5 10 C3.68 10 2.36 10 1 10 C0.67 6.7 0.34 3.4 0 0 Z " fill="#F7F0D8" transform="translate(113,27)"/>
<path d="M0 0 C0.33 2.31 0.66 4.62 1 7 C-1.31 7 -3.62 7 -6 7 C-6.33 5.35 -6.66 3.7 -7 2 C-2.25 0 -2.25 0 0 0 Z " fill="#9AA490" transform="translate(77,88)"/>
<path d="M0 0 C2.64 0 5.28 0 8 0 C6.6190998 3.33717549 5.1798762 5.22301036 2 7 C-0.25 6.6875 -0.25 6.6875 -2 6 C-1.34 4.02 -0.68 2.04 0 0 Z " fill="#B3A06F" transform="translate(112,80)"/>
<path d="M0 0 C0.33 0 0.66 0 1 0 C1.16435547 0.99580078 1.16435547 0.99580078 1.33203125 2.01171875 C2.2322462 7.02511098 3.24034486 10.66339907 6 15 C5.67 15.99 5.34 16.98 5 18 C4.34 17.34 3.68 16.68 3 16 C0.93125966 15.3574765 0.93125966 15.3574765 -1 15 C-1.33 15.66 -1.66 16.32 -2 17 C-2.33 15.68 -2.66 14.36 -3 13 C-2.34 12.67 -1.68 12.34 -1 12 C-0.53101037 9.1840151 -0.53101037 9.1840151 -0.375 5.9375 C-0.30023438 4.83277344 -0.22546875 3.72804687 -0.1484375 2.58984375 C-0.09945313 1.73519531 -0.05046875 0.88054688 0 0 Z " fill="#F0EBD1" transform="translate(16,44)"/>
<path d="M0 0 C2.140625 0.37890625 2.140625 0.37890625 4 1 C3.27683594 1.67095703 3.27683594 1.67095703 2.5390625 2.35546875 C-2.30796815 6.95594955 -2.30796815 6.95594955 -5 13 C-5.33 13 -5.66 13 -6 13 C-6.33 9.7 -6.66 6.4 -7 3 C-6.01 3.33 -5.02 3.66 -4 4 C-3.13375 2.9790625 -3.13375 2.9790625 -2.25 1.9375 C-1.5075 1.298125 -0.765 0.65875 0 0 Z " fill="#FAF8E8" transform="translate(36,22)"/>
<path d="M0 0 C1.32 0.33 2.64 0.66 4 1 C4 2.32 4 3.64 4 5 C3.01 5.495 3.01 5.495 2 6 C1.34786708 8.02463255 1.34786708 8.02463255 1 10 C-0.32 10.33 -1.64 10.66 -3 11 C-4.4606285 8.35261084 -5 7.10551666 -5 4 C-3.68 4.33 -2.36 4.66 -1 5 C-0.67 3.35 -0.34 1.7 0 0 Z " fill="#8AB8CC" transform="translate(92,64)"/>
<path d="M0 0 C2.12508244 3.18762365 2.5020163 5.26512223 3 9 C3.66 9 4.32 9 5 9 C4.6875 10.9375 4.6875 10.9375 4 13 C3.01 13.33 2.02 13.66 1 14 C0.67 15.98 0.34 17.96 0 20 C-0.33 20 -0.66 20 -1 20 C-0.67 13.4 -0.34 6.8 0 0 Z " fill="#96C8CE" transform="translate(105,50)"/>
<path d="M0 0 C0.66 0.33 1.32 0.66 2 1 C1.02510804 4.00591688 0.46253026 5.65990422 -2.125 7.5625 C-3.053125 8.2740625 -3.053125 8.2740625 -4 9 C-4 10.32 -4 11.64 -4 13 C-4.66 13 -5.32 13 -6 13 C-6 12.01 -6 11.02 -6 10 C-6.66 10 -7.32 10 -8 10 C-8 9.34 -8 8.68 -8 8 C-9.65 8.33 -11.3 8.66 -13 9 C-11.9375 7.5625 -11.9375 7.5625 -10 6 C-8.845 5.87625 -7.69 5.7525 -6.5 5.625 C-2.83029549 5.37853982 -2.83029549 5.37853982 -1.0625 2.4375 C-0.711875 1.633125 -0.36125 0.82875 0 0 Z " fill="#F4ECD7" transform="translate(40,36)"/>
<path d="M0 0 C2.64 0 5.28 0 8 0 C8 1.98 8 3.96 8 6 C5.36 6 2.72 6 0 6 C0 5.34 0 4.68 0 4 C0.99 4 1.98 4 3 4 C2.01 3.67 1.02 3.34 0 3 C0 2.01 0 1.02 0 0 Z " fill="#575858" transform="translate(77,98)"/>
<path d="M0 0 C0.66 0.99 1.32 1.98 2 3 C1.67 3.99 1.34 4.98 1 6 C0.65179959 7.66362417 0.31595508 9.32995171 0 11 C-0.99 11 -1.98 11 -3 11 C-4.4783226 8.04335481 -4.06032783 5.25770263 -4 2 C-2.68 1.34 -1.36 0.68 0 0 Z " fill="#C8AB66" transform="translate(112,65)"/>
<path d="M0 0 C0.33 0.99 0.66 1.98 1 3 C4.465 2.505 4.465 2.505 8 2 C8.33 2.66 8.66 3.32 9 4 C10.65 3.34 12.3 2.68 14 2 C14 2.99 14 3.98 14 5 C13.01 5 12.02 5 11 5 C10.67 6.65 10.34 8.3 10 10 C9.34 10 8.68 10 8 10 C8 8.68 8 7.36 8 6 C7.34 5.67 6.68 5.34 6 5 C5.67 5.99 5.34 6.98 5 8 C5 6.68 5 5.36 5 4 C3.35 4.33 1.7 4.66 0 5 C0 3.35 0 1.7 0 0 Z " fill="#C3D9D4" transform="translate(72,63)"/>
<path d="M0 0 C2.16879956 3.44408619 2.07683964 5.55362226 1.3125 9.5 C1.05919922 10.90765625 1.05919922 10.90765625 0.80078125 12.34375 C-0.03734356 15.12387132 -1.12452261 16.80935974 -3 19 C-3.09765625 12.84765625 -3.09765625 12.84765625 -3 11 C-2.67 10.67 -2.34 10.34 -2 10 C-1.6068352 8.32115762 -1.25914548 6.63149955 -0.9375 4.9375 C-0.76089844 4.01839844 -0.58429688 3.09929687 -0.40234375 2.15234375 C-0.26957031 1.44207031 -0.13679688 0.73179688 0 0 Z " fill="#94CDDB" transform="translate(103,66)"/>
<path d="M0 0 C0.33 0.99 0.66 1.98 1 3 C1.99 3.33 2.98 3.66 4 4 C2.08802961 4.70045456 0.17019565 5.384919 -1.75 6.0625 C-2.81734375 6.44535156 -3.8846875 6.82820313 -4.984375 7.22265625 C-7.92280042 7.98010011 -9.22348948 8.07151741 -12 7 C-11.01 7 -10.02 7 -9 7 C-8.67 5.68 -8.34 4.36 -8 3 C-5.36 3 -2.72 3 0 3 C0 2.01 0 1.02 0 0 Z " fill="#E1DFDB" transform="translate(85,101)"/>
<path d="M0 0 C0.99 0.33 1.98 0.66 3 1 C4.55853267 1.21803307 6.12182651 1.40366356 7.6875 1.5625 C8.89986328 1.68818359 8.89986328 1.68818359 10.13671875 1.81640625 C10.75160156 1.87699219 11.36648437 1.93757813 12 2 C11.67 2.66 11.34 3.32 11 4 C10.01 4 9.02 4 8 4 C8 6.31 8 8.62 8 11 C7.34 11 6.68 11 6 11 C6 8.69 6 6.38 6 4 C4.35 4 2.7 4 1 4 C0.67 2.68 0.34 1.36 0 0 Z " fill="#B0DAC9" transform="translate(66,75)"/>
<path d="M0 0 C0.66 0 1.32 0 2 0 C2.33663062 3.70293685 2.47736015 5.39534381 0.125 8.375 C-2 10 -2 10 -4 10 C-4.4025937 6.47730515 -4.13372795 5.20059192 -2.125 2.1875 C-1.42375 1.465625 -0.7225 0.74375 0 0 Z " fill="#D8B34F" transform="translate(119,67)"/>
<path d="M0 0 C2 1 2 1 2.62109375 2.734375 C3.04706889 5.28144284 3.09646629 7.66856169 3.0625 10.25 C3.05347656 11.14203125 3.04445313 12.0340625 3.03515625 12.953125 C3.02355469 13.62859375 3.01195313 14.3040625 3 15 C2.01 15 1.02 15 0 15 C0 10.05 0 5.1 0 0 Z " fill="#AED1C2" transform="translate(87,41)"/>
<path d="M0 0 C1.32 0.33 2.64 0.66 4 1 C3 3 3 3 1 5 C1.3185177 7.10820797 1.3185177 7.10820797 2 9 C2.66 9 3.32 9 4 9 C4 7.35 4 5.7 4 4 C4.33 4 4.66 4 5 4 C5 6.31 5 8.62 5 11 C3.1875 10.8125 3.1875 10.8125 1 10 C-1.14197494 7.09303401 -2 5.64478912 -2 2 C-1.34 2 -0.68 2 0 2 C0 1.34 0 0.68 0 0 Z " fill="#959697" transform="translate(55,32)"/>
<path d="M0 0 C0.99 0.33 1.98 0.66 3 1 C2.01 1.495 2.01 1.495 1 2 C1.33 5.63 1.66 9.26 2 13 C2.66 13 3.32 13 4 13 C3.625 15.9375 3.625 15.9375 3 19 C2.34 19.33 1.68 19.66 1 20 C-0.23839599 13.34362157 -0.09139136 6.7528064 0 0 Z " fill="#B7A368" transform="translate(107,65)"/>
<path d="M0 0 C0.66 0.99 1.32 1.98 2 3 C1.28002518 6.45587915 0.59411182 8.44302017 -2 10.875 C-4 12 -4 12 -6 12 C-6.33 12.66 -6.66 13.32 -7 14 C-7 12.68 -7 11.36 -7 10 C-5.68 9.67 -4.36 9.34 -3 9 C-2.67 7.35 -2.34 5.7 -2 4 C-1.34 4 -0.68 4 0 4 C0 2.68 0 1.36 0 0 Z " fill="#87CDE8" transform="translate(96,65)"/>
<path d="M0 0 C2.86724686 0.57344937 3.8614515 0.8614515 6 3 C10.94576735 3.32431261 14.49016424 3.25491788 19 1 C18.25 2.9375 18.25 2.9375 17 5 C13.81029193 6.19614053 11.09329077 5.95841601 7.75 5.5625 C6.85796875 5.46066406 5.9659375 5.35882813 5.046875 5.25390625 C4.37140625 5.17011719 3.6959375 5.08632812 3 5 C2.87625 4.360625 2.7525 3.72125 2.625 3.0625 C2.315625 2.0415625 2.315625 2.0415625 2 1 C1.34 0.67 0.68 0.34 0 0 Z " fill="#F6F1DE" transform="translate(84,108)"/>
<path d="M0 0 C1.98 0.495 1.98 0.495 4 1 C3.34 5.62 2.68 10.24 2 15 C1.34 15 0.68 15 0 15 C0.33 12.36 0.66 9.72 1 7 C0.34 6.67 -0.32 6.34 -1 6 C-0.67 4.02 -0.34 2.04 0 0 Z " fill="#76A3B2" transform="translate(93,42)"/>
<path d="M0 0 C2.39824947 2.39824947 2.31436204 3.27335218 2.5625 6.5625 C2.58449303 9.58047788 2.58449303 9.58047788 4 12 C4.04063832 13.66617115 4.042721 15.33388095 4 17 C3.67 15.68 3.34 14.36 3 13 C2.34 13 1.68 13 1 13 C1 14.98 1 16.96 1 19 C0.67 19 0.34 19 0 19 C-0.19601608 17.25093341 -0.38147403 15.50068154 -0.5625 13.75 C-0.66691406 12.77546875 -0.77132812 11.8009375 -0.87890625 10.796875 C-0.99166429 8.19252793 -0.69003873 6.47391662 0 4 C0 2.68 0 1.36 0 0 Z " fill="#D2EAEC" transform="translate(90,37)"/>
<path d="M0 0 C2.97 0.495 2.97 0.495 6 1 C5.01 1.33 4.02 1.66 3 2 C3.33 2.99 3.66 3.98 4 5 C-0.62 5 -5.24 5 -10 5 C-9.67 4.34 -9.34 3.68 -9 3 C-6.36 3 -3.72 3 -1 3 C-0.67 2.01 -0.34 1.02 0 0 Z " fill="#C5D8D2" transform="translate(67,90)"/>
<path d="M0 0 C0.66 0 1.32 0 2 0 C2 5.28 2 10.56 2 16 C1.67 16 1.34 16 1 16 C0.67 13.36 0.34 10.72 0 8 C-0.99 7.67 -1.98 7.34 -3 7 C-1.125 2.25 -1.125 2.25 0 0 Z " fill="#ACD8C8" transform="translate(56,74)"/>
<path d="M0 0 C1.65 0 3.3 0 5 0 C5 2.31 5 4.62 5 7 C3.35 7.33 1.7 7.66 0 8 C0 5.36 0 2.72 0 0 Z " fill="#90BEA6" transform="translate(67,79)"/>
<path d="M0 0 C0.66 0.99 1.32 1.98 2 3 C2.99 3.66 3.98 4.32 5 5 C4.34 5 3.68 5 3 5 C3.061875 5.969375 3.12375 6.93875 3.1875 7.9375 C3.21625881 12.61559946 1.64771207 16.67475582 0 21 C-0.66 21 -1.32 21 -2 21 C-1.79503906 20.33613281 -1.59007813 19.67226562 -1.37890625 18.98828125 C-1.10949219 18.10527344 -0.84007813 17.22226563 -0.5625 16.3125 C-0.29566406 15.44238281 -0.02882813 14.57226562 0.24609375 13.67578125 C0.96344529 11.12974079 1.517541 8.5996577 2 6 C1.01 6 0.02 6 -1 6 C-0.67 4.02 -0.34 2.04 0 0 Z " fill="#AED3DF" transform="translate(86,68)"/>
<path d="M0 0 C0.99 0.495 0.99 0.495 2 1 C2.226875 1.804375 2.45375 2.60875 2.6875 3.4375 C3.84174011 6.40853714 3.84174011 6.40853714 7.625 7.3125 C8.73875 7.539375 9.8525 7.76625 11 8 C11 8.66 11 9.32 11 10 C8.69 10.33 6.38 10.66 4 11 C4 10.34 4 9.68 4 9 C3.34 9 2.68 9 2 9 C1.34 6.03 0.68 3.06 0 0 Z " fill="#9BA9A4" transform="translate(46,50)"/>
<path d="M0 0 C1.5 1.375 1.5 1.375 3 3 C3 3.66 3 4.32 3 5 C6.3 5.33 9.6 5.66 13 6 C13.33 6.99 13.66 7.98 14 9 C12.68 8.67 11.36 8.34 10 8 C10 8.66 10 9.32 10 10 C9.34 10 8.68 10 8 10 C7.67 10.66 7.34 11.32 7 12 C6.87625 11.071875 6.87625 11.071875 6.75 10.125 C6.18741541 7.81562433 6.18741541 7.81562433 3.9375 6.75 C3.298125 6.5025 2.65875 6.255 2 6 C2 5.34 2 4.68 2 4 C1.34 4 0.68 4 0 4 C0 2.68 0 1.36 0 0 Z " fill="#AAC9C0" transform="translate(97,36)"/>
<path d="M0 0 C3.73487777 0.4979837 5.81237635 0.87491756 9 3 C11.28648848 3.24107326 11.28648848 3.24107326 13.6875 3.125 C14.49574219 3.10695313 15.30398437 3.08890625 16.13671875 3.0703125 C16.75160156 3.04710938 17.36648437 3.02390625 18 3 C18 3.66 18 4.32 18 5 C11.14543405 7.5253664 11.14543405 7.5253664 8.015625 6.08984375 C6.25899041 4.80239575 4.63340273 3.43904848 3 2 C2.01 1.34 1.02 0.68 0 0 Z " fill="#F9F3DD" transform="translate(31,108)"/>
<path d="M0 0 C0.99 0.33 1.98 0.66 3 1 C0.11593757 4.40843742 -1.3708265 5.86591384 -5.8125 6.8125 C-7.3903125 6.9053125 -7.3903125 6.9053125 -9 7 C-9 7.66 -9 8.32 -9 9 C-10.32 9 -11.64 9 -13 9 C-13 8.34 -13 7.68 -13 7 C-12.14535156 6.57847656 -11.29070312 6.15695313 -10.41015625 5.72265625 C-9.30542969 5.17480469 -8.20070313 4.62695312 -7.0625 4.0625 C-5.96035156 3.51722656 -4.85820313 2.97195312 -3.72265625 2.41015625 C-1.15205586 1.25295022 -1.15205586 1.25295022 0 0 Z " fill="#7E7053" transform="translate(97,99)"/>
<path d="M0 0 C2.83444974 2.83444974 2.79638309 5.06340644 3 9 C1.5625 11.4375 1.5625 11.4375 0 13 C-0.33 12.01 -0.66 11.02 -1 10 C-0.34 10 0.32 10 1 10 C0.67 9.34 0.34 8.68 0 8 C-0.66 8 -1.32 8 -2 8 C-2.66 6.35 -3.32 4.7 -4 3 C-3.34 3 -2.68 3 -2 3 C-1.67 2.34 -1.34 1.68 -1 1 C-0.67 0.67 -0.34 0.34 0 0 Z " fill="#DAE1DF" transform="translate(59,33)"/>
<path d="M0 0 C0.33 0.66 0.66 1.32 1 2 C-0.26171459 4.36571485 -1.31429984 5.75286223 -3.875 6.67578125 C-5.26508356 7.01052564 -6.66116494 7.32148608 -8.0625 7.60546875 C-10.20381541 8.00095297 -10.20381541 8.00095297 -13 9 C-15.1875 8.0625 -15.1875 8.0625 -17 7 C-16.10796875 6.82984375 -15.2159375 6.6596875 -14.296875 6.484375 C-13.12640625 6.24203125 -11.9559375 5.9996875 -10.75 5.75 C-9.58984375 5.51796875 -8.4296875 5.2859375 -7.234375 5.046875 C-3.78137529 3.92923741 -2.29729343 2.75220302 0 0 Z " fill="#ECE5CE" transform="translate(115,93)"/>
<path d="M0 0 C-1.38801071 3.35435922 -2.88629 5.11290303 -6 7 C-6.99 7 -7.98 7 -9 7 C-7.53563715 2.36285097 -7.53563715 2.36285097 -5.0625 0.6875 C-3 0 -3 0 0 0 Z " fill="#DAB553" transform="translate(114,91)"/>
<path d="M0 0 C2.5 2.25 2.5 2.25 5 5 C5 6.32 5 7.64 5 9 C3.125 8.6875 3.125 8.6875 1 8 C-1 5 -1 5 -0.625 2.3125 C-0.41875 1.549375 -0.2125 0.78625 0 0 Z " fill="#DCB550" transform="translate(18,67)"/>
<path d="M0 0 C1.32 0 2.64 0 4 0 C4 2.64 4 5.28 4 8 C3.01 8.495 3.01 8.495 2 9 C-1.07692308 4.56923077 -1.07692308 4.56923077 -0.6875 1.6875 C-0.460625 1.130625 -0.23375 0.57375 0 0 Z " fill="#83CFEE" transform="translate(92,32)"/>
<path d="M0 0 C0.66 0.99 1.32 1.98 2 3 C1.67 3.66 1.34 4.32 1 5 C0.77532169 6.53668865 0.59203195 8.07968054 0.4375 9.625 C0.35371094 10.44226562 0.26992188 11.25953125 0.18359375 12.1015625 C0.12300781 12.72804688 0.06242187 13.35453125 0 14 C-0.66 14 -1.32 14 -2 14 C-1.95875 12.7625 -1.9175 11.525 -1.875 10.25 C-1.86341709 6.98362038 -2.1431298 4.7853053 -4 2 C-3.01 2 -2.02 2 -1 2 C-0.67 1.34 -0.34 0.68 0 0 Z " fill="#806327" transform="translate(25,44)"/>
<path d="M0 0 C2.31 0 4.62 0 7 0 C6.67 0.66 6.34 1.32 6 2 C6.66 2.33 7.32 2.66 8 3 C8 3.99 8 4.98 8 6 C5.36 6 2.72 6 0 6 C0 5.34 0 4.68 0 4 C2.475 4.495 2.475 4.495 5 5 C5 4.34 5 3.68 5 3 C3.35 2.67 1.7 2.34 0 2 C0 1.34 0 0.68 0 0 Z " fill="#565757" transform="translate(56,98)"/>
<path d="M0 0 C5.61 0 11.22 0 17 0 C17 0.33 17 0.66 17 1 C13.97265625 1.24414062 13.97265625 1.24414062 10.9453125 1.48828125 C8.60480784 1.87393036 8.60480784 1.87393036 7 5 C6.67 4.34 6.34 3.68 6 3 C2.97065509 2.34227572 2.97065509 2.34227572 0 2 C0 1.34 0 0.68 0 0 Z " fill="#EDFBFA" transform="translate(78,95)"/>
<path d="M0 0 C2.64 0 5.28 0 8 0 C8 0.99 8 1.98 8 3 C6.02 3 4.04 3 2 3 C2 3.66 2 4.32 2 5 C3.98 5 5.96 5 8 5 C8 5.33 8 5.66 8 6 C5.36 6 2.72 6 0 6 C0 4.02 0 2.04 0 0 Z " fill="#5A5A5A" transform="translate(66,98)"/>
<path d="M0 0 C1.51953125 1.20703125 1.51953125 1.20703125 3 3 C3.07421875 5.26171875 3.07421875 5.26171875 2.6875 7.6875 C2.50767578 8.89986328 2.50767578 8.89986328 2.32421875 10.13671875 C2.21722656 10.75160156 2.11023437 11.36648437 2 12 C1.34 11.67 0.68 11.34 0 11 C-0.44921875 8.75 -0.44921875 8.75 -0.6875 6 C-0.77386719 5.0925 -0.86023438 4.185 -0.94921875 3.25 C-0.96597656 2.5075 -0.98273437 1.765 -1 1 C-0.67 0.67 -0.34 0.34 0 0 Z " fill="#C9B685" transform="translate(30,77)"/>
<path d="M0 0 C0 2.97 0 5.94 0 9 C-0.99 9.495 -0.99 9.495 -2 10 C-2.33 8.02 -2.66 6.04 -3 4 C-4.32 4.33 -5.64 4.66 -7 5 C-6 2 -6 2 -4.0625 0.8125 C-2 0 -2 0 0 0 Z " fill="#B2A173" transform="translate(33,62)"/>
<path d="M0 0 C0.66 0 1.32 0 2 0 C2.66 2.64 3.32 5.28 4 8 C2.68 8.33 1.36 8.66 0 9 C-1.125 3.375 -1.125 3.375 0 0 Z " fill="#CCAB5F" transform="translate(26,29)"/>
<path d="M0 0 C1.5625 1.75 1.5625 1.75 3 4 C2.6875 6.25 2.6875 6.25 2 8 C-0.31 8.33 -2.62 8.66 -5 9 C-4.67 7.68 -4.34 6.36 -4 5 C-4 5.66 -4 6.32 -4 7 C-3.01 7 -2.02 7 -1 7 C-0.67 4.69 -0.34 2.38 0 0 Z " fill="#8C7E5C" transform="translate(101,91)"/>
<path d="M0 0 C1.2065625 0.0309375 1.2065625 0.0309375 2.4375 0.0625 C0.4575 2.3725 -1.5225 4.6825 -3.5625 7.0625 C-4.5525 6.7325 -5.5425 6.4025 -6.5625 6.0625 C-6.5625 4.4125 -6.5625 2.7625 -6.5625 1.0625 C-5.5725 1.0625 -4.5825 1.0625 -3.5625 1.0625 C-2.5625 0.0625 -2.5625 0.0625 0 0 Z " fill="#B6A371" transform="translate(121.5625,58.9375)"/>
<path d="M0 0 C0.66 0 1.32 0 2 0 C2.33 2.64 2.66 5.28 3 8 C1.68 8 0.36 8 -1 8 C-1.625 5.6875 -1.625 5.6875 -2 3 C-1.34 2.01 -0.68 1.02 0 0 Z " fill="#94BEA3" transform="translate(63,80)"/>
<path d="M0 0 C0.99 0.33 1.98 0.66 3 1 C3 1.66 3 2.32 3 3 C2.34 3 1.68 3 1 3 C1.33 4.65 1.66 6.3 2 8 C0.68 8 -0.64 8 -2 8 C-2 6.02 -2 4.04 -2 2 C-1.34 2 -0.68 2 0 2 C0 1.34 0 0.68 0 0 Z " fill="#D4B664" transform="translate(110,48)"/>
<path d="M0 0 C2 1 2 1 3 2 C3.04092937 4.33297433 3.04241723 6.66705225 3 9 C2.01 9.495 2.01 9.495 1 10 C1 9.01 1 8.02 1 7 C0.34 7 -0.32 7 -1 7 C-0.67 4.69 -0.34 2.38 0 0 Z " fill="#CAB47D" transform="translate(113,37)"/>
<path d="M0 0 C0.99 0 1.98 0 3 0 C3.125 5.75 3.125 5.75 2 8 C1.34 8 0.68 8 0 8 C-0.38063221 5.6739143 -0.71269945 3.33944736 -1 1 C-0.67 0.67 -0.34 0.34 0 0 Z " fill="#D1B15D" transform="translate(110,30)"/>
<path d="M0 0 C0.33 0.99 0.66 1.98 1 3 C1.99 3.33 2.98 3.66 4 4 C4 4.33 4 4.66 4 5 C2.35 5 0.7 5 -1 5 C-1 4.34 -1 3.68 -1 3 C-2.98 3 -4.96 3 -7 3 C-7.33 3.99 -7.66 4.98 -8 6 C-8.66 4.68 -9.32 3.36 -10 2 C-6.7 2 -3.4 2 0 2 C0 1.34 0 0.68 0 0 Z " fill="#A2CACE" transform="translate(97,29)"/>
<path d="M0 0 C0.66 0 1.32 0 2 0 C2.29296875 6.0546875 2.29296875 6.0546875 2 8 C1.01 8.66 0.02 9.32 -1 10 C-1.02689216 8.52093108 -1.04634621 7.04172517 -1.0625 5.5625 C-1.07410156 4.73878906 -1.08570312 3.91507812 -1.09765625 3.06640625 C-1 1 -1 1 0 0 Z " fill="#D2B65D" transform="translate(103,83)"/>
<path d="M0 0 C0.33 1.32 0.66 2.64 1 4 C0.21625 3.95875 -0.5675 3.9175 -1.375 3.875 C-4.16116119 3.71271266 -4.16116119 3.71271266 -6 6 C-6.99 6 -7.98 6 -9 6 C-8 3 -8 3 -5.0625 1.3125 C-2 0 -2 0 0 0 Z " fill="#A0C5B6" transform="translate(83,33)"/>
<path d="M0 0 C0.125 2.875 0.125 2.875 0 6 C-0.66 6.66 -1.32 7.32 -2 8 C-2.33 7.01 -2.66 6.02 -3 5 C-3.99 4.67 -4.98 4.34 -6 4 C-2.25 0 -2.25 0 0 0 Z " fill="#BAAE84" transform="translate(42,22)"/>
<path d="M0 0 C0.66 0 1.32 0 2 0 C1.67 3.3 1.34 6.6 1 10 C-0.32 10 -1.64 10 -3 10 C-3 9.34 -3 8.68 -3 8 C-2.34 8 -1.68 8 -1 8 C-1.020625 7.05125 -1.04125 6.1025 -1.0625 5.125 C-1 2 -1 2 0 0 Z " fill="#F8F2DE" transform="translate(23,27)"/>
<path d="M0 0 C0.33 0 0.66 0 1 0 C0.67 2.97 0.34 5.94 0 9 C-0.99 9 -1.98 9 -3 9 C-3.25873987 5.89512156 -3.23307327 4.37494396 -1.5625 1.6875 C-1.046875 1.130625 -0.53125 0.57375 0 0 Z " fill="#DBB653" transform="translate(30,65)"/>
<path d="M0 0 C0.66 0 1.32 0 2 0 C2 3.3 2 6.6 2 10 C1.01 10 0.02 10 -1 10 C-0.67 6.7 -0.34 3.4 0 0 Z " fill="#7F6C43" transform="translate(23,58)"/>
<path d="M0 0 C0.99 0.33 1.98 0.66 3 1 C3.18451025 11.55808656 3.18451025 11.55808656 2 16 C1.67 16 1.34 16 1 16 C0.67 10.72 0.34 5.44 0 0 Z " fill="#806B3E" transform="translate(113,57)"/>
<path d="M0 0 C1.98 0 3.96 0 6 0 C5.67 1.65 5.34 3.3 5 5 C4.01 5 3.02 5 2 5 C1.34 3.35 0.68 1.7 0 0 Z " fill="#9AC3B2" transform="translate(79,78)"/>
<path d="M0 0 C2.475 0.495 2.475 0.495 5 1 C4.34 3.64 3.68 6.28 3 9 C0.90250005 6.64031256 0.03094296 5.45383006 -0.1875 2.25 C-0.125625 1.5075 -0.06375 0.765 0 0 Z " fill="#EFEBE1" transform="translate(35,75)"/>
<path d="M0 0 C0.66 1.32 1.32 2.64 2 4 C1.01 4.495 1.01 4.495 0 5 C0 5.66 0 6.32 0 7 C-0.99 7 -1.98 7 -3 7 C-3.66 8.32 -4.32 9.64 -5 11 C-4.46884894 6.48521602 -2.63379708 3.65333143 0 0 Z " fill="#816C38" transform="translate(32,32)"/>
<path d="M0 0 C1.65 0 3.3 0 5 0 C5.33 0.66 5.66 1.32 6 2 C6.99 2.33 7.98 2.66 9 3 C8.67 4.32 8.34 5.64 8 7 C5.69 5.02 3.38 3.04 1 1 C0.67 2.32 0.34 3.64 0 5 C0 3.35 0 1.7 0 0 Z " fill="#EBE4D0" transform="translate(96,22)"/>
<path d="M0 0 C1.32 0.33 2.64 0.66 4 1 C3.67 1.99 3.34 2.98 3 4 C0.08517222 4.80967438 -1.46113217 5.21845993 -4.3125 4.0625 C-4.869375 3.711875 -5.42625 3.36125 -6 3 C-3.3333581 1.66667905 -1.83319697 2.32897967 1 3 C0.67 2.01 0.34 1.02 0 0 Z " fill="#D5B257" transform="translate(45,106)"/>
<path d="M0 0 C4.04052022 1.34684007 4.77159201 3.44847477 7 7 C7.98866506 8.34175973 8.9838154 9.67896002 10 11 C6.8510285 9.63088196 4.9521513 8.1247864 2.75 5.5 C2.22921875 4.8915625 1.7084375 4.283125 1.171875 3.65625 C0 2 0 2 0 0 Z " fill="#AE9C6B" transform="translate(19,87)"/>
<path d="M0 0 C2.97 0 5.94 0 9 0 C9.33 0.99 9.66 1.98 10 3 C8.5199159 2.88637738 7.04089926 2.75877092 5.5625 2.625 C4.73878906 2.55539063 3.91507812 2.48578125 3.06640625 2.4140625 C2.38449219 2.27742188 1.70257813 2.14078125 1 2 C0.67 1.34 0.34 0.68 0 0 Z " fill="#CDD3AB" transform="translate(65,86)"/>
<path d="M0 0 C0.99 0 1.98 0 3 0 C2.67 1.98 2.34 3.96 2 6 C2.66 6 3.32 6 4 6 C3.67 7.32 3.34 8.64 3 10 C3 9.01 3 8.02 3 7 C2.01 6.67 1.02 6.34 0 6 C0 4.02 0 2.04 0 0 Z " fill="#E7F8F6" transform="translate(83,68)"/>
<path d="M0 0 C0.99 0 1.98 0 3 0 C3.33 0.99 3.66 1.98 4 3 C4.66 3.33 5.32 3.66 6 4 C6 4.66 6 5.32 6 6 C4.35 6.66 2.7 7.32 1 8 C1.33 5.69 1.66 3.38 2 1 C1.34 0.67 0.68 0.34 0 0 Z " fill="#EFE8D5" transform="translate(116,36)"/>
<path d="M0 0 C0 2 0 2 -1.1875 3.6875 C-3 5 -3 5 -5.6875 4.6875 C-6.450625 4.460625 -7.21375 4.23375 -8 4 C-7.34 3.67 -6.68 3.34 -6 3 C-6 2.34 -6 1.68 -6 1 C-4 0 -4 0 0 0 Z " fill="#D6B558" transform="translate(38,36)"/>
<path d="M0 0 C0.99 0.33 1.98 0.66 3 1 C3 2.32 3 3.64 3 5 C5.31 5 7.62 5 10 5 C10 5.33 10 5.66 10 6 C4.62694301 6.35233161 4.62694301 6.35233161 2 6 C0 4 0 4 -1 2 C-0.67 1.34 -0.34 0.68 0 0 Z " fill="#BAA776" transform="translate(88,106)"/>
<path d="M0 0 C4.87664009 -0.34833144 7.77050005 0.58314288 12 3 C12 3.33 12 3.66 12 4 C10.02 4 8.04 4 6 4 C5.67 3.01 5.34 2.02 5 1 C3.35 1 1.7 1 0 1 C0 0.67 0 0.34 0 0 Z " fill="#EEE6CE" transform="translate(30,99)"/>
<path d="M0 0 C1.32 0.33 2.64 0.66 4 1 C4 1.66 4 2.32 4 3 C5.2065625 3.433125 5.2065625 3.433125 6.4375 3.875 C9 5 9 5 10 7 C7.29068581 6.84518205 5.53415961 6.51827919 3.5546875 4.59765625 C2.32320358 3.10228292 1.1570163 1.5537076 0 0 Z " fill="#7E6F49" transform="translate(39,99)"/>
<path d="M0 0 C0.33 0 0.66 0 1 0 C1.33 4.29 1.66 8.58 2 13 C0.68 11.68 -0.64 10.36 -2 9 C-1.67 8.67 -1.34 8.34 -1 8 C-0.76924918 6.65252916 -0.58846937 5.29622435 -0.4375 3.9375 C-0.293125 2.638125 -0.14875 1.33875 0 0 Z " fill="#BCAC81" transform="translate(37,84)"/>
<path d="M0 0 C1.32 0.66 2.64 1.32 4 2 C3.01 3.485 3.01 3.485 2 5 C2.99 4.67 3.98 4.34 5 4 C5 4.66 5 5.32 5 6 C2.03 6 -0.94 6 -4 6 C-4 5.67 -4 5.34 -4 5 C-2.35 5 -0.7 5 1 5 C0.67 3.35 0.34 1.7 0 0 Z " fill="#98AA9F" transform="translate(78,68)"/>
<path d="M0 0 C2.31 0 4.62 0 7 0 C7 0.66 7 1.32 7 2 C6.01 2 5.02 2 4 2 C3.67 2.99 3.34 3.98 3 5 C2.34 5 1.68 5 1 5 C0.67 3.35 0.34 1.7 0 0 Z " fill="#9BC2B4" transform="translate(80,58)"/>
<path d="M0 0 C2.29633824 3.44450737 2.54016485 5.93812283 3 10 C2.01 9.67 1.02 9.34 0 9 C0 6.03 0 3.06 0 0 Z " fill="#B89957" transform="translate(25,52)"/>
<path d="M0 0 C-0.33 3.63 -0.66 7.26 -1 11 C-1.33 11 -1.66 11 -2 11 C-2 8.69 -2 6.38 -2 4 C-2.99 3.67 -3.98 3.34 -5 3 C-2.25 0 -2.25 0 0 0 Z " fill="#BCAC84" transform="translate(122,42)"/>
<path d="M0 0 C0.33 0.99 0.66 1.98 1 3 C4.00847418 4.22520264 4.00847418 4.22520264 7 5 C7 5.66 7 6.32 7 7 C2.68607774 6.5206753 0.83430453 5.2542015 -2 2 C-1.34 1.34 -0.68 0.68 0 0 Z " fill="#C4AB6E" transform="translate(36,105)"/>
<path d="M0 0 C2.89932357 2.39509338 3.50168276 4.31245243 4 8 C3.01 8 2.02 8 1 8 C0.67 5.36 0.34 2.72 0 0 Z " fill="#81A189" transform="translate(78,78)"/>
<path d="M0 0 C3.375 -0.125 3.375 -0.125 7 0 C7.66 0.66 8.32 1.32 9 2 C5.61981469 3.04005702 2.5219721 3.08004482 -1 3 C-0.67 2.01 -0.34 1.02 0 0 Z " fill="#73847E" transform="translate(39,74)"/>
<path d="M0 0 C1.42944945 2.35438733 2.08661261 3.48032433 1.625 6.25 C1.41875 6.8275 1.2125 7.405 1 8 C-3 3.25 -3 3.25 -3 1 C-2.01 0.67 -1.02 0.34 0 0 Z " fill="#B09553" transform="translate(21,64)"/>
<path d="M0 0 C1.32 0.66 2.64 1.32 4 2 C2.61410019 5.09162264 1.50816459 6.49183541 -1 9 C-0.67 6.03 -0.34 3.06 0 0 Z " fill="#AD9351" transform="translate(116,63)"/>
<path d="M0 0 C0.66 0.33 1.32 0.66 2 1 C1.67 3.31 1.34 5.62 1 8 C0.01 8 -0.98 8 -2 8 C-2.33 5.69 -2.66 3.38 -3 1 C-2.01 1.495 -2.01 1.495 -1 2 C-0.67 1.34 -0.34 0.68 0 0 Z " fill="#9E8D5D" transform="translate(26,38)"/>
<path d="M0 0 C0.66 0 1.32 0 2 0 C2 0.66 2 1.32 2 2 C2.639375 2.268125 3.27875 2.53625 3.9375 2.8125 C6 4 6 4 7 7 C4.20171644 6.61402985 3.1794116 6.19863427 1.25 4.0625 C0 2 0 2 0 0 Z " fill="#CFB767" transform="translate(98,26)"/>
<path d="M0 0 C0.99 0.33 1.98 0.66 3 1 C3 1.66 3 2.32 3 3 C3.99 3.33 4.98 3.66 6 4 C5.67 4.66 5.34 5.32 5 6 C2.525 5.01 2.525 5.01 0 4 C0 2.66666667 0 1.33333333 0 0 Z " fill="#877E64" transform="translate(35,95)"/>
<path d="M0 0 C2.64752004 2.57784846 4.94432065 4.91648098 7 8 C5.68 8 4.36 8 3 8 C0 2.25 0 2.25 0 0 Z " fill="#F4EDD4" transform="translate(20,90)"/>
<path d="M0 0 C0.33 0.66 0.66 1.32 1 2 C3.01669827 3.13350534 3.01669827 3.13350534 5 4 C1.79937313 5.60031344 -0.72271806 4.03173691 -4 3 C-2.68 2.01 -1.36 1.02 0 0 Z " fill="#CFBC89" transform="translate(25,85)"/>
<path d="M0 0 C1.32 0.66 2.64 1.32 4 2 C4 2.99 4 3.98 4 5 C1.03 4.505 1.03 4.505 -2 4 C-1.34 2.68 -0.68 1.36 0 0 Z " fill="#A1C4B8" transform="translate(63,39)"/>
<path d="M0 0 C3 1 3 1 4.25 2.8125 C5.11637742 5.33943414 4.88492145 6.52221994 4 9 C0 3.375 0 3.375 0 0 Z " fill="#735F30" transform="translate(107,35)"/>
<path d="M0 0 C0.99 1.485 0.99 1.485 2 3 C2.99 3.33 3.98 3.66 5 4 C4.01 5.98 3.02 7.96 2 10 C1.67 10 1.34 10 1 10 C0.67 6.7 0.34 3.4 0 0 Z " fill="#F8EED3" transform="translate(29,25)"/>
<path d="M0 0 C4 0 4 0 6 1 C4.875 2.5 4.875 2.5 3 4 C-0.1875 4.1875 -0.1875 4.1875 -3 4 C-2.01 3.67 -1.02 3.34 0 3 C0 2.01 0 1.02 0 0 Z " fill="#96AEA2" transform="translate(61,90)"/>
<path d="M0 0 C2.64 0.66 5.28 1.32 8 2 C8 2.33 8 2.66 8 3 C6.02 3 4.04 3 2 3 C1.67 3.66 1.34 4.32 1 5 C0.67 3.35 0.34 1.7 0 0 Z " fill="#6C6C53" transform="translate(63,87)"/>
<path d="M0 0 C0.33 0 0.66 0 1 0 C1.33 2.31 1.66 4.62 2 7 C0.02 7.99 0.02 7.99 -2 9 C-2.6875 7.3125 -2.6875 7.3125 -3 5 C-1.625 2.25 -1.625 2.25 0 0 Z " fill="#A58E5B" transform="translate(28,78)"/>
<path d="M0 0 C0.625 1.8125 0.625 1.8125 1 4 C0.01 5.485 0.01 5.485 -1 7 C-2.32 6.67 -3.64 6.34 -5 6 C-3.35 4.02 -1.7 2.04 0 0 Z " fill="#F2EDDB" transform="translate(120,80)"/>
<path d="M0 0 C0.99 0.495 0.99 0.495 2 1 C2 1.66 2 2.32 2 3 C2.66 3 3.32 3 4 3 C3.67 4.32 3.34 5.64 3 7 C2.01 6.67 1.02 6.34 0 6 C0 4.02 0 2.04 0 0 Z " fill="#DAEADB" transform="translate(106,56)"/>
<path d="M0 0 C0.99 0 1.98 0 3 0 C3.05399736 1.45792884 3.09279177 2.91642712 3.125 4.375 C3.14820312 5.18710937 3.17140625 5.99921875 3.1953125 6.8359375 C3 9 3 9 1 11 C0 3.375 0 3.375 0 0 Z " fill="#9F8B57" transform="translate(115,37)"/>
<path d="M0 0 C1.65 0 3.3 0 5 0 C5 0.99 5 1.98 5 3 C3.02 3 1.04 3 -1 3 C-0.67 2.01 -0.34 1.02 0 0 Z " fill="#E4B63B" transform="translate(93,106)"/>
<path d="M0 0 C2.64 0 5.28 0 8 0 C8 0.99 8 1.98 8 3 C2.25 2.25 2.25 2.25 0 0 Z " fill="#858887" transform="translate(77,98)"/>
<path d="M0 0 C1 3 1 3 0 6 C-0.99 6 -1.98 6 -3 6 C-3.33 4.68 -3.66 3.36 -4 2 C-2.68 1.34 -1.36 0.68 0 0 Z " fill="#C5BCA2" transform="translate(100,92)"/>
<path d="M0 0 C1.98 0.495 1.98 0.495 4 1 C4 1.99 4 2.98 4 4 C2.35 3.67 0.7 3.34 -1 3 C-0.67 2.01 -0.34 1.02 0 0 Z " fill="#DDB549" transform="translate(27,92)"/>
<path d="M0 0 C0.33 1.32 0.66 2.64 1 4 C-2.13498292 5.85776765 -4.37471432 6.20140476 -8 6 C-7.4225 5.7525 -6.845 5.505 -6.25 5.25 C-3.6997003 3.83316683 -1.98214299 2.12372463 0 0 Z " fill="#8BCCE6" transform="translate(97,87)"/>
<path d="M0 0 C0.625 1.875 0.625 1.875 1 4 C0.34 4.66 -0.32 5.32 -1 6 C-2.32 4.68 -3.64 3.36 -5 2 C-4.01 1.67 -3.02 1.34 -2 1 C-1.34 1.33 -0.68 1.66 0 2 C0 1.34 0 0.68 0 0 Z " fill="#C0AA75" transform="translate(25,79)"/>
<path d="M0 0 C0.99 0.33 1.98 0.66 3 1 C3 2.65 3 4.3 3 6 C2.01 6 1.02 6 0 6 C0 4.02 0 2.04 0 0 Z " fill="#DCB552" transform="translate(108,67)"/>
<path d="M0 0 C0.33 0 0.66 0 1 0 C1 2.31 1 4.62 1 7 C0.01 6.67 -0.98 6.34 -2 6 C-1.125 1.125 -1.125 1.125 0 0 Z " fill="#AFCEC4" transform="translate(56,51)"/>
<path d="M0 0 C0.93065133 2.60582371 1.14917407 3.64198224 0.0625 6.25 C-0.4634375 7.11625 -0.4634375 7.11625 -1 8 C-1.66 6.35 -2.32 4.7 -3 3 C-2.01 2.01 -1.02 1.02 0 0 Z " fill="#D7B45B" transform="translate(30,49)"/>
<path d="M0 0 C1.65 0 3.3 0 5 0 C5.33 1.65 5.66 3.3 6 5 C5.34 4.34 4.68 3.68 4 3 C3.01 3.495 3.01 3.495 2 4 C2 3.34 2 2.68 2 2 C1.34 2 0.68 2 0 2 C0 1.34 0 0.68 0 0 Z " fill="#C3B68C" transform="translate(20,37)"/>
</svg>
