<?xml version="1.0" encoding="UTF-8"?>
<svg version="1.1" xmlns="http://www.w3.org/2000/svg" width="137" height="146">
<path d="M0 0 C45.21 0 90.42 0 137 0 C137 48.18 137 96.36 137 146 C91.79 146 46.58 146 0 146 C0 97.82 0 49.64 0 0 Z " fill="#F7FAF7" transform="translate(0,0)"/>
<path d="M0 0 C2.86532302 0.02930836 5.72882495 0.02048441 8.59423828 0.00756836 C10.44711172 0.01379861 12.29997945 0.02218394 14.15283203 0.03295898 C15.41401855 0.02855553 15.41401855 0.02855553 16.70068359 0.02406311 C21.81713516 0.10464748 26.02743647 0.93721004 30.81542969 2.75840759 C33.79912894 3.80186144 36.70483051 4.13298874 39.84033203 4.46655273 C39.84033203 5.12655273 39.84033203 5.78655273 39.84033203 6.46655273 C33.08741565 10.32536209 26.45274779 9.7516224 18.84033203 9.46655273 C20.16033203 11.77655273 21.48033203 14.08655273 22.84033203 16.46655273 C24.49033203 16.13655273 26.14033203 15.80655273 27.84033203 15.46655273 C27.84033203 16.12655273 27.84033203 16.78655273 27.84033203 17.46655273 C28.50033203 17.46655273 29.16033203 17.46655273 29.84033203 17.46655273 C30.17033203 16.80655273 30.50033203 16.14655273 30.84033203 15.46655273 C34.13198032 15.43760048 37.42359603 15.41977044 40.71533203 15.40405273 C41.65248047 15.39567383 42.58962891 15.38729492 43.55517578 15.37866211 C44.89902344 15.37382813 44.89902344 15.37382813 46.27001953 15.36889648 C47.51114502 15.36104126 47.51114502 15.36104126 48.77734375 15.35302734 C50.84033203 15.46655273 50.84033203 15.46655273 52.84033203 16.46655273 C52.84033203 18.11655273 52.84033203 19.76655273 52.84033203 21.46655273 C43.60033203 21.79655273 34.36033203 22.12655273 24.84033203 22.46655273 C24.51033203 23.12655273 24.18033203 23.78655273 23.84033203 24.46655273 C24.83033203 24.46655273 25.82033203 24.46655273 26.84033203 24.46655273 C27.33533203 27.43655273 27.33533203 27.43655273 27.84033203 30.46655273 C27.15455078 30.39436523 26.46876953 30.32217773 25.76220703 30.24780273 C12.48275029 29.07031396 -0.84091633 29.37654246 -14.15966797 29.46655273 C-14.65466797 26.99155273 -14.65466797 26.99155273 -15.15966797 24.46655273 C-13.17966797 24.46655273 -11.19966797 24.46655273 -9.15966797 24.46655273 C-8.82966797 23.80655273 -8.49966797 23.14655273 -8.15966797 22.46655273 C-9.14966797 22.46655273 -10.13966797 22.46655273 -11.15966797 22.46655273 C-11.48966797 21.80655273 -11.81966797 21.14655273 -12.15966797 20.46655273 C-14.79966797 20.46655273 -17.43966797 20.46655273 -20.15966797 20.46655273 C-20.15966797 18.81655273 -20.15966797 17.16655273 -20.15966797 15.46655273 C-18.83966797 15.13655273 -17.51966797 14.80655273 -16.15966797 14.46655273 C-16.48966797 12.81655273 -16.81966797 11.16655273 -17.15966797 9.46655273 C-17.71783203 9.62897461 -18.27599609 9.79139648 -18.85107422 9.95874023 C-24.40467073 11.18034353 -30.6765996 10.9287043 -36.15966797 9.46655273 C-36.15966797 7.81655273 -36.15966797 6.16655273 -36.15966797 4.46655273 C-24.00759664 0.91984823 -12.63732693 -0.14114417 0 0 Z " fill="#E6E7E5" transform="translate(64.15966796875,110.533447265625)"/>
<path d="M0 0 C-0.75 4.75 -0.75 4.75 -3 7 C-2.67 7.99 -2.34 8.98 -2 10 C-2.33 10.66 -2.66 11.32 -3 12 C-3.66 12 -4.32 12 -5 12 C-5.309375 12.639375 -5.61875 13.27875 -5.9375 13.9375 C-7 16 -7 16 -8 17 C-10.58370104 26.62529042 -13.21635152 36.57521425 -9 46 C-8.54355755 48.66341692 -8.27367263 51.30888582 -8 54 C-7.01 54 -6.02 54 -5 54 C-4.46375 55.11375 -3.9275 56.2275 -3.375 57.375 C-1.66057564 60.4351553 -1.25784024 60.89888618 2.1875 62.25 C3.115625 62.4975 4.04375 62.745 5 63 C5.495 64.485 5.495 64.485 6 66 C6.66 66 7.32 66 8 66 C8 66.66 8 67.32 8 68 C8.66 68 9.32 68 10 68 C12.14285714 75.42857143 12.14285714 75.42857143 13 79 C8.167986 81.80931046 3.44763572 81.61563295 -2 81 C-5.47822809 79.93759301 -8.7310635 78.58837696 -12 77 C-12.33 74.69 -12.66 72.38 -13 70 C-13.86625 69.9071875 -13.86625 69.9071875 -14.75 69.8125 C-18.16857582 68.57801429 -19.12151513 67.13080812 -21 64 C-21.65934134 61.18131579 -22.12270622 58.39208629 -22.5078125 55.5234375 C-22.87735247 52.76672124 -22.87735247 52.76672124 -25 50 C-26.58638381 42.38144071 -27.26785279 34.76773098 -27 27 C-25.68 26.67 -24.36 26.34 -23 26 C-23.03480469 25.32453125 -23.06960937 24.6490625 -23.10546875 23.953125 C-23.13253906 23.06109375 -23.15960938 22.1690625 -23.1875 21.25 C-23.23970703 19.92742188 -23.23970703 19.92742188 -23.29296875 18.578125 C-22.94589665 15.52389051 -22.11745198 14.19435701 -20 12 C-19.34 12 -18.68 12 -18 12 C-17.34 16.29 -16.68 20.58 -16 25 C-15.34 24.01 -14.68 23.02 -14 22 C-14.66 21.67 -15.32 21.34 -16 21 C-16.08160748 19.10489301 -16.13946459 17.20875496 -16.1875 15.3125 C-16.22230469 14.25675781 -16.25710937 13.20101562 -16.29296875 12.11328125 C-15.9614422 8.59025914 -15.1527715 6.78505404 -13 4 C-12.01 3.67 -11.02 3.34 -10 3 C-10 3.99 -10 4.98 -10 6 C-9.05125 5.195625 -8.1025 4.39125 -7.125 3.5625 C-2.92307692 0 -2.92307692 0 0 0 Z " fill="#B1F3A2" transform="translate(28,31)"/>
<path d="M0 0 C0.66 0 1.32 0 2 0 C1.67 2.31 1.34 4.62 1 7 C1.99 7.33 2.98 7.66 4 8 C5.70533217 11.32091002 6 13.18492784 6 17 C6.69867188 16.4225 7.39734375 15.845 8.1171875 15.25 C9.02726562 14.5075 9.93734375 13.765 10.875 13 C11.77992187 12.2575 12.68484375 11.515 13.6171875 10.75 C16 9 16 9 18 9 C18 10.65 18 12.3 18 14 C16.865625 14.433125 15.73125 14.86625 14.5625 15.3125 C13.386875 15.869375 12.21125 16.42625 11 17 C10.505 18.485 10.505 18.485 10 20 C10.680625 19.505 11.36125 19.01 12.0625 18.5 C15.59465009 16.69634889 18.08636991 16.76978647 22 17 C21.21625 17.61875 20.4325 18.2375 19.625 18.875 C17.03162353 20.89858661 17.03162353 20.89858661 15 23 C18.86724404 22.46288277 20.96561775 21.40657902 24 19 C24.66 19 25.32 19 26 19 C26 20.65 26 22.3 26 24 C29.3 24 32.6 24 36 24 C36.99 25.98 36.99 25.98 38 28 C29.09 28 20.18 28 11 28 C11.67368591 37.10318417 11.67368591 37.10318417 13 46 C8.65183204 42.0299336 8.59759807 37.41110952 7.9375 31.8125 C7.84662109 31.06291016 7.75574219 30.31332031 7.66210938 29.54101562 C7.4386269 27.69434465 7.21894487 25.84721446 7 24 C5.35 24.33 3.7 24.66 2 25 C2 25.66 2 26.32 2 27 C2 27.99 2 28.98 2 30 C0.72125 30.12375 -0.5575 30.2475 -1.875 30.375 C-5.34790936 30.69042399 -5.34790936 30.69042399 -8 33 C-11.125 33.125 -11.125 33.125 -14 33 C-14.33 32.34 -14.66 31.68 -15 31 C-14.34 31 -13.68 31 -13 31 C-13.33 30.34 -13.66 29.68 -14 29 C-20.6 28.67 -27.2 28.34 -34 28 C-33.34 26.35 -32.68 24.7 -32 23 C-31.34 23 -30.68 23 -30 23 C-29.59007812 22.12408203 -29.59007812 22.12408203 -29.171875 21.23046875 C-26.74096521 16.60363711 -23.95156235 12.62449995 -18.875 11 C-16 11 -16 11 -14.140625 11.80859375 C-11.73326109 12.27776593 -11.73326109 12.27776593 -9.4921875 9.91015625 C-8.62851562 8.97042969 -7.76484375 8.03070313 -6.875 7.0625 C-5.2822618 5.3445168 -3.66377534 3.64928253 -2 2 C-1.34 2 -0.68 2 0 2 C0 1.34 0 0.68 0 0 Z " fill="#ACABA0" transform="translate(64,41)"/>
<path d="M0 0 C-0.75 4.75 -0.75 4.75 -3 7 C-2.67 7.99 -2.34 8.98 -2 10 C-2.33 10.66 -2.66 11.32 -3 12 C-3.66 12 -4.32 12 -5 12 C-5.309375 12.639375 -5.61875 13.27875 -5.9375 13.9375 C-7 16 -7 16 -8 17 C-10.10394121 24.83799859 -11.92333944 32.8497538 -11 41 C-10.67 41.33 -10.34 41.66 -10 42 C-9.91348389 43.41570123 -9.89295096 44.835595 -9.90234375 46.25390625 C-9.90556641 47.10791016 -9.90878906 47.96191406 -9.91210938 48.84179688 C-9.92048828 49.73962891 -9.92886719 50.63746094 -9.9375 51.5625 C-9.94201172 52.46419922 -9.94652344 53.36589844 -9.95117188 54.29492188 C-9.96299775 56.53001314 -9.9794778 58.76497437 -10 61 C-13.41417583 59.79020686 -15.78988915 58.60734971 -18.3125 56 C-18.82425781 55.484375 -19.33601563 54.96875 -19.86328125 54.4375 C-21 53 -21 53 -21 51 C-21.66 51 -22.32 51 -23 51 C-23.33 48.69 -23.66 46.38 -24 44 C-23.52949219 44.42152344 -23.05898438 44.84304687 -22.57421875 45.27734375 C-21.64029297 46.09912109 -21.64029297 46.09912109 -20.6875 46.9375 C-19.76517578 47.75541016 -19.76517578 47.75541016 -18.82421875 48.58984375 C-16.94758042 50.20081559 -16.94758042 50.20081559 -14 51 C-14 49.02 -14 47.04 -14 45 C-16.475 45.495 -16.475 45.495 -19 46 C-19.81642254 44.73168307 -20.62799105 43.46024069 -21.4375 42.1875 C-21.88996094 41.47980469 -22.34242187 40.77210937 -22.80859375 40.04296875 C-25.1706778 35.99257545 -25.08672621 32.59648901 -25 28 C-24.34 28.33 -23.68 28.66 -23 29 C-22.86722656 28.02417969 -22.73445313 27.04835938 -22.59765625 26.04296875 C-22.42105469 24.77066406 -22.24445312 23.49835937 -22.0625 22.1875 C-21.88847656 20.92292969 -21.71445312 19.65835938 -21.53515625 18.35546875 C-21 15 -21 15 -20 12 C-19.34 12 -18.68 12 -18 12 C-17.34 16.29 -16.68 20.58 -16 25 C-15.34 24.01 -14.68 23.02 -14 22 C-14.66 21.67 -15.32 21.34 -16 21 C-16.08160748 19.10489301 -16.13946459 17.20875496 -16.1875 15.3125 C-16.22230469 14.25675781 -16.25710937 13.20101562 -16.29296875 12.11328125 C-15.9614422 8.59025914 -15.1527715 6.78505404 -13 4 C-12.01 3.67 -11.02 3.34 -10 3 C-10 3.99 -10 4.98 -10 6 C-9.05125 5.195625 -8.1025 4.39125 -7.125 3.5625 C-2.92307692 0 -2.92307692 0 0 0 Z " fill="#8BE677" transform="translate(28,31)"/>
<path d="M0 0 C2.86532302 0.02930836 5.72882495 0.02048441 8.59423828 0.00756836 C10.44711172 0.01379861 12.29997945 0.02218394 14.15283203 0.03295898 C15.41401855 0.02855553 15.41401855 0.02855553 16.70068359 0.02406311 C21.81713516 0.10464748 26.02743647 0.93721004 30.81542969 2.75840759 C33.79912894 3.80186144 36.70483051 4.13298874 39.84033203 4.46655273 C39.84033203 5.12655273 39.84033203 5.78655273 39.84033203 6.46655273 C32.62830287 9.81881073 24.16959538 9.54499465 16.71533203 6.96655273 C15.69052734 6.54889648 15.69052734 6.54889648 14.64501953 6.12280273 C12.69048571 5.2956812 12.69048571 5.2956812 9.84033203 5.46655273 C10.41783203 5.80428711 10.99533203 6.14202148 11.59033203 6.48999023 C12.70408203 7.15901367 12.70408203 7.15901367 13.84033203 7.84155273 C14.58283203 8.28241211 15.32533203 8.72327148 16.09033203 9.17749023 C16.66783203 9.60288086 17.24533203 10.02827148 17.84033203 10.46655273 C17.84033203 11.12655273 17.84033203 11.78655273 17.84033203 12.46655273 C14.302952 11.8322639 11.9832031 10.34282763 9.02783203 8.34155273 C5.74592063 6.35513268 4.16179631 5.48911163 0.27783203 5.21655273 C-3.67860664 6.6552577 -6.75155649 8.62428984 -10.14404297 11.09155273 C-12.15966797 12.46655273 -12.15966797 12.46655273 -15.15966797 13.46655273 C-14.34716797 11.52905273 -14.34716797 11.52905273 -13.15966797 9.46655273 C-12.16966797 9.13655273 -11.17966797 8.80655273 -10.15966797 8.46655273 C-10.15966797 7.80655273 -10.15966797 7.14655273 -10.15966797 6.46655273 C-10.76552734 6.61092773 -11.37138672 6.75530273 -11.99560547 6.90405273 C-20.25944476 8.73481098 -28.15154229 9.83839513 -36.15966797 6.46655273 C-36.15966797 5.80655273 -36.15966797 5.14655273 -36.15966797 4.46655273 C-24.00759664 0.91984823 -12.63732693 -0.14114417 0 0 Z " fill="#5CDE45" transform="translate(64.15966796875,110.533447265625)"/>
<path d="M0 0 C4.43458973 1.3937282 6.87378374 3.60582235 10 7 C10.66 5.68 11.32 4.36 12 3 C13.5 4.25 13.5 4.25 15 6 C15 7.32 15 8.64 15 10 C17.97 10.495 17.97 10.495 21 11 C21.92055082 14.908688 22.13429682 18.55092235 22.125 22.5625 C22.12886719 24.23505859 22.12886719 24.23505859 22.1328125 25.94140625 C22.02206147 28.49193728 21.7467862 30.57590829 21 33 C17.21388773 32.45912682 15.44599233 30.88277668 13 28 C13 27.34 13 26.68 13 26 C11.68 26 10.36 26 9 26 C7.64560332 23.29120665 7.93498549 20.99066732 8 18 C7.01 17.67 6.02 17.34 5 17 C1.13314299 12.97846871 0.07328774 8.01541284 -0.125 2.5625 C-0.08375 1.716875 -0.0425 0.87125 0 0 Z " fill="#A6E2EC" transform="translate(103,31)"/>
<path d="M0 0 C0.12117188 1.09699219 0.24234375 2.19398437 0.3671875 3.32421875 C0.53609363 4.77868823 0.70538481 6.23311304 0.875 7.6875 C0.95363281 8.40873047 1.03226563 9.12996094 1.11328125 9.87304688 C1.5896051 13.88515932 2.26300142 17.29975512 4 21 C4.66 20.67 5.32 20.34 6 20 C6 20.99 6 21.98 6 23 C0.25 26 0.25 26 -2 26 C-3.20577428 21.05632546 -2.6290678 17.79137588 -1 13 C-1.66 12.67 -2.32 12.34 -3 12 C-5.60931266 12.89363605 -5.60931266 12.89363605 -8 14 C-8 16.97 -8 19.94 -8 23 C-8.99 23.33 -9.98 23.66 -11 24 C-11 24.66 -11 25.32 -11 26 C-12.32 25.34 -13.64 24.68 -15 24 C-15 20.7 -15 17.4 -15 14 C-16.588125 14.04125 -18.17625 14.0825 -19.8125 14.125 C-23.6553979 14.22481553 -24.68629 14.20914 -28 12 C-28.1875 9.375 -28.1875 9.375 -28 7 C-27.195625 6.87625 -26.39125 6.7525 -25.5625 6.625 C-24.716875 6.41875 -23.87125 6.2125 -23 6 C-22.67 5.34 -22.34 4.68 -22 4 C-22 5.32 -22 6.64 -22 8 C-19.08347826 8.16681109 -19.08347826 8.16681109 -16 8 C-15.34 7.34 -14.68 6.68 -14 6 C-11.31160615 5.73008094 -8.70858064 5.91262643 -6 6 C-6.7763932 2.9254644 -6.7763932 2.9254644 -9 1 C-5.59856649 -1.14164332 -3.83209959 -0.9087732 0 0 Z " fill="#EBEADE" transform="translate(72,65)"/>
<path d="M0 0 C0.66 0 1.32 0 2 0 C1.67 2.31 1.34 4.62 1 7 C1.99 7.33 2.98 7.66 4 8 C5.70533217 11.32091002 6 13.18492784 6 17 C6.69867188 16.4225 7.39734375 15.845 8.1171875 15.25 C9.02726562 14.5075 9.93734375 13.765 10.875 13 C11.77992187 12.2575 12.68484375 11.515 13.6171875 10.75 C16 9 16 9 18 9 C18 10.65 18 12.3 18 14 C17.45730469 14.24234375 16.91460937 14.4846875 16.35546875 14.734375 C15.64003906 15.06953125 14.92460938 15.4046875 14.1875 15.75 C13.12595703 16.23726562 13.12595703 16.23726562 12.04296875 16.734375 C9.85093694 17.87021239 9.85093694 17.87021239 8.76171875 20.13671875 C7 22 7 22 3.1640625 22.34765625 C1.64982017 22.2746007 0.1365457 22.17867454 -1.375 22.0625 C-2.13039063 22.03865234 -2.88578125 22.01480469 -3.6640625 21.99023438 C-7.89107024 21.72050399 -9.63061461 21.29674276 -13.0390625 18.55859375 C-15 16 -15 16 -15 14 C-13.68 14 -12.36 14 -11 14 C-10.87431641 13.14148438 -10.87431641 13.14148438 -10.74609375 12.265625 C-9.77926007 9.32969027 -8.26458377 7.90031688 -6.0625 5.75 C-4.99708984 4.69039062 -4.99708984 4.69039062 -3.91015625 3.609375 C-2 2 -2 2 0 2 C0 1.34 0 0.68 0 0 Z " fill="#354363" transform="translate(64,41)"/>
<path d="M0 0 C1 2 1 2 0.0625 5 C-1.37070309 9.5901234 -1.39295399 14.22972134 -1 19 C-0.67 19.33 -0.34 19.66 0 20 C0.08651611 21.41570123 0.10704904 22.835595 0.09765625 24.25390625 C0.09443359 25.10791016 0.09121094 25.96191406 0.08789062 26.84179688 C0.07951172 27.73962891 0.07113281 28.63746094 0.0625 29.5625 C0.05798828 30.46419922 0.05347656 31.36589844 0.04882812 32.29492188 C0.03700225 34.53001314 0.0205222 36.76497437 0 39 C-3.41417583 37.79020686 -5.78988915 36.60734971 -8.3125 34 C-8.82425781 33.484375 -9.33601562 32.96875 -9.86328125 32.4375 C-11 31 -11 31 -11 29 C-11.66 29 -12.32 29 -13 29 C-13.33 26.69 -13.66 24.38 -14 22 C-13.52949219 22.42152344 -13.05898437 22.84304687 -12.57421875 23.27734375 C-11.64029297 24.09912109 -11.64029297 24.09912109 -10.6875 24.9375 C-9.76517578 25.75541016 -9.76517578 25.75541016 -8.82421875 26.58984375 C-6.94758042 28.20081559 -6.94758042 28.20081559 -4 29 C-4 27.02 -4 25.04 -4 23 C-5.65 23.33 -7.3 23.66 -9 24 C-9.81642254 22.73168307 -10.62799105 21.46024069 -11.4375 20.1875 C-11.88996094 19.47980469 -12.34242187 18.77210937 -12.80859375 18.04296875 C-15.1706778 13.99257545 -15.08672621 10.59648901 -15 6 C-14.01 6.495 -14.01 6.495 -13 7 C-12.34 6.01 -11.68 5.02 -11 4 C-10.67 6.31 -10.34 8.62 -10 11 C-4.76482597 8.60677759 -2.70111357 4.83901623 0 0 Z " fill="#B6F5A7" transform="translate(18,53)"/>
<path d="M0 0 C1.9375 0.3125 1.9375 0.3125 4 1 C4.33 1.99 4.66 2.98 5 4 C7.50447516 5.21869929 7.50447516 5.21869929 10 6 C9 13.42857143 9 13.42857143 8 17 C6.02 17 4.04 17 2 17 C2 17.66 2 18.32 2 19 C2.58523437 19.268125 3.17046875 19.53625 3.7734375 19.8125 C6.0186552 21.00994944 7.72009636 22.3216708 9.625 24 C10.21539062 24.515625 10.80578125 25.03125 11.4140625 25.5625 C12.64090196 26.67451212 13.82916568 27.82916568 15 29 C13.71372289 30.17260611 12.42080217 31.3379283 11.125 32.5 C10.40570313 33.1496875 9.68640625 33.799375 8.9453125 34.46875 C7 36 7 36 5 36 C4.80664062 35.36191406 4.61328125 34.72382812 4.4140625 34.06640625 C4.15367188 33.24011719 3.89328125 32.41382813 3.625 31.5625 C3.36976562 30.73878906 3.11453125 29.91507813 2.8515625 29.06640625 C2.19117773 26.82201984 2.19117773 26.82201984 0 26 C0.33 23.69 0.66 21.38 1 19 C0.34 19 -0.32 19 -1 19 C-1 18.34 -1 17.68 -1 17 C-2.32 17 -3.64 17 -5 17 C-5.33 13.37 -5.66 9.74 -6 6 C-4.35 6 -2.7 6 -1 6 C-0.67 4.02 -0.34 2.04 0 0 Z " fill="#D4E3F2" transform="translate(65,22)"/>
<path d="M0 0 C0 0.33 0 0.66 0 1 C-0.99 1.226875 -1.98 1.45375 -3 1.6875 C-8.66416544 3.30253699 -13.71416609 6.07124914 -17 11 C-16.15179688 10.81566406 -15.30359375 10.63132812 -14.4296875 10.44140625 C-10.71846352 9.96376581 -7.80209553 10.29963649 -4.125 10.9375 C-2.97257812 11.13214844 -1.82015625 11.32679687 -0.6328125 11.52734375 C0.23601562 11.68332031 1.10484375 11.83929688 2 12 C2 11.34 2 10.68 2 10 C2.66 10 3.32 10 4 10 C4 11.65 4 13.3 4 15 C0.52125243 15.19590444 -2.95800904 15.38031592 -6.4375 15.5625 C-7.92733398 15.64661133 -7.92733398 15.64661133 -9.44726562 15.73242188 C-10.39150391 15.78076172 -11.33574219 15.82910156 -12.30859375 15.87890625 C-13.18314209 15.9260376 -14.05769043 15.97316895 -14.95874023 16.02172852 C-17 16 -17 16 -18 15 C-20.67058851 14.85884839 -23.32432238 14.95752893 -26 15 C-26 13.35 -26 11.7 -26 10 C-24.68 9.67 -23.36 9.34 -22 9 C-22.33 7.35 -22.66 5.7 -23 4 C-23.55816406 4.16242188 -24.11632812 4.32484375 -24.69140625 4.4921875 C-30.24500276 5.71379079 -36.51693163 5.46215157 -42 4 C-42 3.01 -42 2.02 -42 1 C-41.21625 1.165 -40.4325 1.33 -39.625 1.5 C-34.08169409 2.26459392 -28.3577804 2.7859268 -23 1 C-20.66700175 0.96045766 -18.33291811 0.95598268 -16 1 C-16 3 -16 3 -18.5 5.625 C-19.325 6.40875 -20.15 7.1925 -21 8 C-20.32453125 7.51789063 -19.6490625 7.03578125 -18.953125 6.5390625 C-18.06109375 5.90742187 -17.1690625 5.27578125 -16.25 4.625 C-15.36828125 3.99851562 -14.4865625 3.37203125 -13.578125 2.7265625 C-8.44322139 -0.71226689 -6.22891875 -1.19786899 0 0 Z " fill="#D3F0E9" transform="translate(70,116)"/>
<path d="M0 0 C2.96175123 0.61277612 4.38058783 1.25372522 7 3 C7 3.66 7 4.32 7 5 C7.99 5 8.98 5 10 5 C10.33 5.99 10.66 6.98 11 8 C12.86210243 9.8490419 12.86210243 9.8490419 15.0625 11.625 C16.39068823 12.73143449 17.70765519 13.85190325 19 15 C19 15.33 19 15.66 19 16 C15.7 16 12.4 16 9 16 C9 14.35 9 12.7 9 11 C8.01 11.825 7.02 12.65 6 13.5 C1.86904411 16.49895571 -1.00280202 16.4383507 -6 16 C-5.4225 15.7525 -4.845 15.505 -4.25 15.25 C-1.6997003 13.83316683 0.01785701 12.12372463 2 10 C-1.12290635 10.48578543 -3.99580359 10.9986012 -7 12 C-6.67 10.68 -6.34 9.36 -6 8 C-3.69 7.34 -1.38 6.68 1 6 C0.67 4.02 0.34 2.04 0 0 Z " fill="#A9B5BC" transform="translate(81,49)"/>
<path d="M0 0 C2.45703125 1.3046875 2.45703125 1.3046875 4.8125 2.875 C5.60269531 3.38804688 6.39289063 3.90109375 7.20703125 4.4296875 C7.79871094 4.94789062 8.39039062 5.46609375 9 6 C9 6.99 9 7.98 9 9 C8.01 9.33 7.02 9.66 6 10 C6 9.34 6 8.68 6 8 C5.01 8 4.02 8 3 8 C3 8.66 3 9.32 3 10 C-3.27 9.67 -9.54 9.34 -16 9 C-14.02886217 5.05772433 -13.16729392 4.04440243 -9.6875 1.6875 C-8.92824219 1.15511719 -8.16898438 0.62273437 -7.38671875 0.07421875 C-4.36862975 -1.28416828 -3.10872894 -1.05076975 0 0 Z " fill="#F4F8F5" transform="translate(69,118)"/>
<path d="M0 0 C3.12749407 1.38463944 5.2404985 2.99522423 7.625 5.4375 C8.21539062 6.03433594 8.80578125 6.63117188 9.4140625 7.24609375 C11 9 11 9 13 12 C12.8125 14.125 12.8125 14.125 12 16 C6.28479068 17.90506977 0.12215895 17.7958096 -5.5 15.6875 C-7.63846569 14.24403566 -9.4122532 13.02878758 -11 11 C-11 10.34 -11 9.68 -11 9 C-10.01 9.309375 -9.02 9.61875 -8 9.9375 C-4.02268878 11.08433207 -0.11232621 11.56712356 4 12 C3.71125 11.30132812 3.4225 10.60265625 3.125 9.8828125 C2.75375 8.97273438 2.3825 8.06265625 2 7.125 C1.62875 6.22007813 1.2575 5.31515625 0.875 4.3828125 C0 2 0 2 0 0 Z " fill="#63E04B" transform="translate(28,95)"/>
<path d="M0 0 C0.99 0.66 1.98 1.32 3 2 C2.67 3.65 2.34 5.3 2 7 C-0.97 7.66 -3.94 8.32 -7 9 C-7 12.63 -7 16.26 -7 20 C-7.66 20 -8.32 20 -9 20 C-9 17.03 -9 14.06 -9 11 C-10.03060547 11.03480469 -10.03060547 11.03480469 -11.08203125 11.0703125 C-12.43361328 11.09738281 -12.43361328 11.09738281 -13.8125 11.125 C-14.70582031 11.14820312 -15.59914063 11.17140625 -16.51953125 11.1953125 C-19 11 -19 11 -22 9 C-22.1875 6.375 -22.1875 6.375 -22 4 C-21.195625 3.87625 -20.39125 3.7525 -19.5625 3.625 C-18.716875 3.41875 -17.87125 3.2125 -17 3 C-16.67 2.34 -16.34 1.68 -16 1 C-16 2.32 -16 3.64 -16 5 C-13.08347826 5.16681109 -13.08347826 5.16681109 -10 5 C-9.34 4.34 -8.68 3.68 -8 3 C-5.31160615 2.73008094 -2.70858064 2.91262643 0 3 C0 2.01 0 1.02 0 0 Z " fill="#E5D5A9" transform="translate(66,68)"/>
<path d="M0 0 C3.02289984 1.04853352 5.94292097 1.39668707 9.1171875 1.734375 C9.1171875 2.394375 9.1171875 3.054375 9.1171875 3.734375 C0.09721319 7.88721768 -9.36780101 6.07005596 -18.421875 2.90234375 C-20.80394989 1.77180344 -22.18502795 0.72271999 -23.8828125 -1.265625 C-15.47245788 -2.72829537 -8.07547939 -3.04626625 0 0 Z " fill="#438FA8" transform="translate(94.8828125,113.265625)"/>
<path d="M0 0 C-0.51525603 5.28137429 -2.25477117 8.57221156 -5 13 C-4.19175781 12.79503906 -3.38351563 12.59007813 -2.55078125 12.37890625 C-1.48214844 12.10949219 -0.41351563 11.84007813 0.6875 11.5625 C1.74324219 11.29566406 2.79898438 11.02882813 3.88671875 10.75390625 C6.5828317 10.10102068 9.2757576 9.52058807 12 9 C10.26143179 13.13779234 8.33532437 14.40086996 4.35546875 16.2421875 C-0.83061493 17.91067877 -5.98129835 17.64598453 -11.125 16 C-11.74375 15.67 -12.3625 15.34 -13 15 C-11.58581617 10.73439116 -9.51748869 7.9940014 -6.5 4.6875 C-5.7059375 3.80449219 -4.911875 2.92148438 -4.09375 2.01171875 C-2 0 -2 0 0 0 Z " fill="#3889A4" transform="translate(103,95)"/>
<path d="M0 0 C0.66 0 1.32 0 2 0 C2.33 3.63 2.66 7.26 3 11 C3.69867188 10.57847656 4.39734375 10.15695313 5.1171875 9.72265625 C6.02726562 9.17480469 6.93734375 8.62695312 7.875 8.0625 C8.77992187 7.51722656 9.68484375 6.97195312 10.6171875 6.41015625 C12.05201636 5.56101983 13.50875448 4.74562276 15 4 C14.50912107 8.25428405 12.11571799 11.24378793 9 14 C4.34006056 16.887956 0.54192295 19 -5 19 C-4.5464821 11.97047248 -2.87940913 6.4150557 0 0 Z " fill="#2E809F" transform="translate(109,85)"/>
<path d="M0 0 C0.66 0 1.32 0 2 0 C2.33 2.31 2.66 4.62 3 7 C3.78375 6.938125 4.5675 6.87625 5.375 6.8125 C6.674375 6.9053125 6.674375 6.9053125 8 7 C10 10 10 10 10 14 C3.4 14 -3.2 14 -10 14 C-9.67 12.68 -9.34 11.36 -9 10 C-8.34 10 -7.68 10 -7 10 C-6.773125 9.46375 -6.54625 8.9275 -6.3125 8.375 C-4.54429911 5.17539839 -2.46329797 2.70962777 0 0 Z " fill="#0E508D" transform="translate(41,54)"/>
<path d="M0 0 C1.45880109 0.14107747 2.91703551 0.28802415 4.375 0.4375 C5.59316406 0.55931641 5.59316406 0.55931641 6.8359375 0.68359375 C9 1 9 1 11 2 C11 1.34 11 0.68 11 0 C13.06242617 -0.02717692 15.12495703 -0.0464758 17.1875 -0.0625 C18.33605469 -0.07410156 19.48460938 -0.08570313 20.66796875 -0.09765625 C23.59300586 -0.01192832 26.16316291 0.32150977 29 1 C29 1.66 29 2.32 29 3 C29.66 3 30.32 3 31 3 C31 2.34 31 1.68 31 1 C31.66 1 32.32 1 33 1 C33.495 1.99 33.495 1.99 34 3 C34.33 2.34 34.66 1.68 35 1 C36.98 1 38.96 1 41 1 C41 2.32 41 3.64 41 5 C27.8 5 14.6 5 1 5 C0.67 3.35 0.34 1.7 0 0 Z " fill="#959593" transform="translate(49,135)"/>
<path d="M0 0 C0.65671425 7.55221382 -1.80508032 13.92711245 -6.1875 20.0625 C-8.59632978 23.96646551 -8.79943179 27.48721525 -9 32 C-9.66 32 -10.32 32 -11 32 C-11 34.64 -11 37.28 -11 40 C-10.34 40 -9.68 40 -9 40 C-8.34 44.62 -7.68 49.24 -7 54 C-6.01 54 -5.02 54 -4 54 C-4 54.99 -4 55.98 -4 57 C-3.34 57 -2.68 57 -2 57 C-2 58.65 -2 60.3 -2 62 C-4.50037734 59.82575883 -5.43628586 58.26954202 -6 55 C-6.99 55 -7.98 55 -9 55 C-9.20496094 54.14535156 -9.40992188 53.29070312 -9.62109375 52.41015625 C-9.89050781 51.30542969 -10.15992188 50.20070312 -10.4375 49.0625 C-10.70433594 47.96035156 -10.97117187 46.85820313 -11.24609375 45.72265625 C-11.72995725 43.10578746 -11.72995725 43.10578746 -13 42 C-13.98058397 33.34446071 -12.95820979 22.34996598 -8.015625 15.08203125 C-7.01789062 14.05142578 -7.01789062 14.05142578 -6 13 C-5.34 13 -4.68 13 -4 13 C-3.67 11.68 -3.34 10.36 -3 9 C-3.66 8.67 -4.32 8.34 -5 8 C-4.525625 7.401875 -4.05125 6.80375 -3.5625 6.1875 C-1.83534256 3.99617076 -1.83534256 3.99617076 -1 1 C-2.65 1.66 -4.3 2.32 -6 3 C-6 2.34 -6 1.68 -6 1 C-4 0 -4 0 0 0 Z " fill="#E6FEE0" transform="translate(29,30)"/>
<path d="M0 0 C3 1 3 1 3.94921875 2.8203125 C5.53004835 7.75517738 6.33070393 11.81897177 6 17 C0.73811115 17.31571333 -2.55464669 16.89914347 -7 14 C-8.97813117 12.09474735 -10.39215123 10.26990414 -12 8 C-12 7.01 -12 6.02 -12 5 C-7.96479403 6.58962659 -3.98188718 8.28232318 0 10 C0 6.7 0 3.4 0 0 Z " fill="#69DC51" transform="translate(21,86)"/>
<path d="M0 0 C2.66666667 0 5.33333333 0 8 0 C8 0.66 8 1.32 8 2 C8.66 2 9.32 2 10 2 C10.33 1.34 10.66 0.68 11 0 C14.29164829 -0.02895225 17.58326399 -0.0467823 20.875 -0.0625 C21.81214844 -0.07087891 22.74929687 -0.07925781 23.71484375 -0.08789062 C25.05869141 -0.09272461 25.05869141 -0.09272461 26.4296875 -0.09765625 C27.67081299 -0.10551147 27.67081299 -0.10551147 28.93701172 -0.11352539 C31 0 31 0 33 1 C33 2.32 33 3.64 33 5 C21.78 5 10.56 5 -1 5 C-0.67 3.35 -0.34 1.7 0 0 Z " fill="#4B4D49" transform="translate(84,126)"/>
<path d="M0 0 C1.39664108 0.11562606 2.79231199 0.242992 4.1875 0.375 C4.96480469 0.44460937 5.74210937 0.51421875 6.54296875 0.5859375 C9 1 9 1 11.4375 2 C14.30078933 3.1173812 16.7540529 3.40390744 19.8125 3.625 C21.27623047 3.73714844 21.27623047 3.73714844 22.76953125 3.8515625 C23.50558594 3.90054688 24.24164063 3.94953125 25 4 C25 4.33 25 4.66 25 5 C20.38 5 15.76 5 11 5 C11.99 6.98 12.98 8.96 14 11 C13.525625 11.45375 13.05125 11.9075 12.5625 12.375 C10.90972192 13.93258204 10.90972192 13.93258204 10 16 C8.02 16 6.04 16 4 16 C4 14.68 4 13.36 4 12 C4.66 12 5.32 12 6 12 C4.77946141 8.33838422 3.63217696 7.83729526 0.4375 5.8125 C-0.38878906 5.28269531 -1.21507813 4.75289063 -2.06640625 4.20703125 C-2.70449219 3.80871094 -3.34257813 3.41039063 -4 3 C-2.22265625 2.3515625 -2.22265625 2.3515625 0 2 C1.81640625 2.9609375 1.81640625 2.9609375 3.5625 4.375 C5.84380847 6.19394974 7.16052648 7.05350883 10 8 C10 7.34 10 6.68 10 6 C9.46375 5.731875 8.9275 5.46375 8.375 5.1875 C5.58333333 3.79166667 2.79166667 2.39583333 0 1 C0 0.67 0 0.34 0 0 Z " fill="#DFFCD6" transform="translate(72,115)"/>
<path d="M0 0 C2.64 0 5.28 0 8 0 C8 0.66 8 1.32 8 2 C8.886875 1.62875 9.77375 1.2575 10.6875 0.875 C16.40370561 -0.82568927 22.28927854 0.88361836 28 2 C28 1.34 28 0.68 28 0 C28.66 0 29.32 0 30 0 C30 1.65 30 3.3 30 5 C26.52125243 5.19590444 23.04199096 5.38031592 19.5625 5.5625 C18.07266602 5.64661133 18.07266602 5.64661133 16.55273438 5.73242188 C15.60849609 5.78076172 14.66425781 5.82910156 13.69140625 5.87890625 C12.81685791 5.9260376 11.94230957 5.97316895 11.04125977 6.02172852 C9 6 9 6 8 5 C5.32941149 4.85884839 2.67567762 4.95752893 0 5 C0 3.35 0 1.7 0 0 Z " fill="#393B39" transform="translate(44,126)"/>
<path d="M0 0 C2.56616632 3.84924948 2.55097676 6.4349304 3 11 C4.1446875 9.8553125 4.1446875 9.8553125 5.3125 8.6875 C7.20833333 6.79166667 9.10416667 4.89583333 11 3 C11.66 3.33 12.32 3.66 13 4 C9.82823294 10.81929917 6.55165776 15.15446175 0 19 C-0.66 19 -1.32 19 -2 19 C-2.05411124 16.58303128 -2.09372278 14.16728213 -2.125 11.75 C-2.14175781 11.06808594 -2.15851563 10.38617188 -2.17578125 9.68359375 C-2.21213482 5.9391765 -2.07944349 3.17647273 0 0 Z " fill="#3F89A3" transform="translate(115,73)"/>
<path d="M0 0 C0.66 0 1.32 0 2 0 C1.67 2.31 1.34 4.62 1 7 C1.99 7.33 2.98 7.66 4 8 C4.33 9.65 4.66 11.3 5 13 C4.34 12.67 3.68 12.34 3 12 C3 11.01 3 10.02 3 9 C2.34 9 1.68 9 1 9 C1.020625 10.11375 1.04125 11.2275 1.0625 12.375 C1 16 1 16 0 18 C-0.99 17.67 -1.98 17.34 -3 17 C-3.33 14.69 -3.66 12.38 -4 10 C-4.66 10 -5.32 10 -6 10 C-6.33 11.32 -6.66 12.64 -7 14 C-7.99 14 -8.98 14 -10 14 C-10.33 13.01 -10.66 12.02 -11 11 C-9.54782324 9.49403892 -8.08807139 7.99537896 -6.625 6.5 C-5.40683594 5.24703125 -5.40683594 5.24703125 -4.1640625 3.96875 C-2 2 -2 2 0 2 C0 1.34 0 0.68 0 0 Z " fill="#4A6491" transform="translate(64,41)"/>
<path d="M0 0 C0.66 0 1.32 0 2 0 C2.66 4.29 3.32 8.58 4 13 C5.32 12.34 6.64 11.68 8 11 C8 10.34 8 9.68 8 9 C8.66 9 9.32 9 10 9 C8.6389689 14.19666421 6.69612549 17.2137251 3 21 C2.01 21 1.02 21 0 21 C-2.4579123 13.47264358 -2.4579123 7.52735642 0 0 Z " fill="#5FE045" transform="translate(8,43)"/>
<path d="M0 0 C1.875 0.1875 1.875 0.1875 4 1 C5.1328125 3.55078125 5.1328125 3.55078125 6 6 C7.04800781 5.98839844 8.09601562 5.97679688 9.17578125 5.96484375 C10.55468572 5.95546345 11.93359211 5.9463635 13.3125 5.9375 C14.00279297 5.92912109 14.69308594 5.92074219 15.40429688 5.91210938 C18.5483025 5.89692094 20.99420019 5.99806673 24 7 C24 7.66 24 8.32 24 9 C22.90042969 8.96519531 21.80085938 8.93039063 20.66796875 8.89453125 C12.76463828 8.7226224 5.84991982 8.86437436 -1.75 11.33203125 C-4.54966025 12.16318039 -7.0988994 12.23522437 -10 12 C-10.33 12.66 -10.66 13.32 -11 14 C-11 12.68 -11 11.36 -11 10 C-12.175625 9.7834375 -12.175625 9.7834375 -13.375 9.5625 C-16 9 -16 9 -18 8 C-17.67 7.34 -17.34 6.68 -17 6 C-16.29101562 6.32613281 -15.58203125 6.65226562 -14.8515625 6.98828125 C-11.81763908 8.06470065 -9.57876896 8.23604195 -6.375 8.1875 C-4.96347656 8.17783203 -4.96347656 8.17783203 -3.5234375 8.16796875 C-0.87399088 8.09828658 -0.87399088 8.09828658 2 7 C1.42415568 4.61435923 0.77772405 2.33317216 0 0 Z " fill="#BCFAAD" transform="translate(38,103)"/>
<path d="M0 0 C0.68835938 0.59748047 0.68835938 0.59748047 1.390625 1.20703125 C4.52271585 3.91142062 7.63877459 6.57991771 11 9 C11 6.36 11 3.72 11 1 C11.66 0.67 12.32 0.34 13 0 C14.53266582 3.06533164 14.10276471 6.26754272 14.0625 9.625 C14.05798828 10.33140625 14.05347656 11.0378125 14.04882812 11.765625 C14.03703875 13.51045275 14.01910324 15.255237 14 17 C10.58582417 15.79020686 8.21011085 14.60734971 5.6875 12 C5.17574219 11.484375 4.66398438 10.96875 4.13671875 10.4375 C3 9 3 9 3 7 C2.34 7 1.68 7 1 7 C0.67 4.69 0.34 2.38 0 0 Z " fill="#62DF48" transform="translate(4,75)"/>
<path d="M0 0 C0.66 0.33 1.32 0.66 2 1 C3.1151293 4.3453879 3.13299072 6.91758812 3.125 10.4375 C3.12757812 11.57058594 3.13015625 12.70367187 3.1328125 13.87109375 C3.02325193 16.45221183 2.75864877 18.54944405 2 21 C-1.33655152 20.75284804 -2.22536589 19.76926825 -4.625 17.3125 C-6.90441407 14.41589074 -8.06175532 11.58238876 -9 8 C-5.90837736 9.38589981 -4.50816459 10.49183541 -2 13 C-1.34 8.71 -0.68 4.42 0 0 Z " fill="#468FA7" transform="translate(122,43)"/>
<path d="M0 0 C0.66 0 1.32 0 2 0 C2.33 2.31 2.66 4.62 3 7 C4.65 7 6.3 7 8 7 C7.67 7.66 7.34 8.32 7 9 C6.34 9 5.68 9 5 9 C5.33 11.31 5.66 13.62 6 16 C4.906875 15.814375 3.81375 15.62875 2.6875 15.4375 C-0.93624133 14.7421932 -0.93624133 14.7421932 -4 16 C-3.67 13.69 -3.34 11.38 -3 9 C-3.99 8.67 -4.98 8.34 -6 8 C-6 7.34 -6 6.68 -6 6 C-4.35 6 -2.7 6 -1 6 C-0.67 4.02 -0.34 2.04 0 0 Z " fill="#B53C38" transform="translate(65,22)"/>
<path d="M0 0 C0.33 0 0.66 0 1 0 C1.95971191 7.19783936 -1.33800119 11.97296029 -5 18 C-5.99 18 -6.98 18 -8 18 C-11.76275654 13.65835783 -11.6911976 8.48390467 -12 3 C-7.125 7.75 -7.125 7.75 -6 10 C-4.68 7.69 -3.36 5.38 -2 3 C-1.34 3 -0.68 3 0 3 C0 2.01 0 1.02 0 0 Z " fill="#3485A1" transform="translate(128,59)"/>
<path d="M0 0 C3.25929912 0.15194868 6.49608171 0.40228516 9.74609375 0.68359375 C14.35954089 1.03452387 18.4414821 0.81359375 23 0 C23 1.65 23 3.3 23 5 C15.41 5 7.82 5 0 5 C-0.33 3.68 -0.66 2.36 -1 1 C-0.67 0.67 -0.34 0.34 0 0 Z " fill="#737674" transform="translate(19,126)"/>
<path d="M0 0 C1.35262486 2.02893729 2.6855288 4.07113875 4 6.125 C5.69074133 9.04489239 5.69074133 9.04489239 8 10 C8.28875 9.21625 8.5775 8.4325 8.875 7.625 C10 5 10 5 12 3 C12.35050464 8.841744 12.16727335 12.8531808 9 18 C7.171875 17.7890625 7.171875 17.7890625 5 17 C1.16900845 11.7374274 -0.7010377 6.44954686 0 0 Z " fill="#64DC4D" transform="translate(3,59)"/>
<path d="M0 0 C0.66 0 1.32 0 2 0 C3.2380014 3.57644848 2.74926071 6.33694766 2 10 C8.18876596 7.92973665 13.77100018 5.95708095 19 2 C18.75 3.875 18.75 3.875 18 6 C15.9375 7.25 15.9375 7.25 14 8 C14 8.66 14 9.32 14 10 C11.94037148 10.67548578 9.87715678 11.34004312 7.8125 12 C6.66394531 12.37125 5.51539062 12.7425 4.33203125 13.125 C1.35679188 13.90630553 -0.95283896 14.18363306 -4 14 C-2.2278481 8.43037975 -2.2278481 8.43037975 -0.875 5.875 C0.28192364 3.74073093 0.28192364 3.74073093 0 0 Z " fill="#BDECF3" transform="translate(102,94)"/>
<path d="M0 0 C0 1.65 0 3.3 0 5 C3.3 5 6.6 5 10 5 C10.33 5.99 10.66 6.98 11 8 C2.09 8 -6.82 8 -16 8 C-15 6 -15 6 -13.07421875 5.25390625 C-12.28660156 5.02574219 -11.49898438 4.79757813 -10.6875 4.5625 C-7.06945222 3.43688514 -3.49030632 0 0 0 Z " fill="#2E5372" transform="translate(90,60)"/>
<path d="M0 0 C0 0.33 0 0.66 0 1 C-1.65 1.33 -3.3 1.66 -5 2 C-3.81677089 5.54968734 -3.08247613 5.79310426 0.0625 7.5625 C2.28515625 8.81640625 2.28515625 8.81640625 4 10 C4 10.66 4 11.32 4 12 C0.46261997 11.36571117 -1.85712893 9.8762749 -4.8125 7.875 C-8.0944114 5.88857994 -9.67853572 5.0225589 -13.5625 4.75 C-17.51893867 6.18870497 -20.59188852 8.15773711 -23.984375 10.625 C-26 12 -26 12 -29 13 C-26.80750777 6.9673244 -20.38654359 4.75219795 -15 2 C-10.04599271 -0.14455136 -5.31969441 -0.18665594 0 0 Z " fill="#519989" transform="translate(78,111)"/>
<path d="M0 0 C0.33 0 0.66 0 1 0 C1.33 2.64 1.66 5.28 2 8 C2.99 8.33 3.98 8.66 5 9 C4.34 9 3.68 9 3 9 C3 12.3 3 15.6 3 19 C-1.75481646 18.42365861 -4.97048212 16.44931479 -9 14 C-9.33 14.66 -9.66 15.32 -10 16 C-11.125 9.25 -11.125 9.25 -10 7 C-9.44570312 7.49371094 -8.89140625 7.98742187 -8.3203125 8.49609375 C-7.59585937 9.13675781 -6.87140625 9.77742188 -6.125 10.4375 C-5.40570312 11.07558594 -4.68640625 11.71367188 -3.9453125 12.37109375 C-2.09249509 14.05014465 -2.09249509 14.05014465 0 15 C0 10.05 0 5.1 0 0 Z " fill="#B5F4A5" transform="translate(18,77)"/>
<path d="M0 0 C3.80538922 2.45508982 3.80538922 2.45508982 4.625 4.75 C5.07520007 7.45120041 5.0950896 10.01247319 5.0625 12.75 C5.05347656 13.73484375 5.04445313 14.7196875 5.03515625 15.734375 C5.02355469 16.48203125 5.01195313 17.2296875 5 18 C-0.6626826 15.1686587 -4.15619099 12.01243959 -8 7 C-7.34 6.67 -6.68 6.34 -6 6 C-4.0546875 6.99609375 -4.0546875 6.99609375 -1.875 8.4375 C-1.15054688 8.91058594 -0.42609375 9.38367187 0.3203125 9.87109375 C0.87460938 10.24363281 1.42890625 10.61617187 2 11 C1.505 9.948125 1.505 9.948125 1 8.875 C-0.09044562 5.73996884 -0.15322643 3.29436818 0 0 Z " fill="#2B7FA0" transform="translate(114,34)"/>
<path d="M0 0 C0.66 0 1.32 0 2 0 C1.67 5.94 1.34 11.88 1 18 C2.423125 17.071875 3.84625 16.14375 5.3125 15.1875 C6.11300781 14.66542969 6.91351563 14.14335938 7.73828125 13.60546875 C9.7237402 12.19610151 11.3491852 10.77903343 13 9 C13 11.64 13 14.28 13 17 C12.01 17 11.02 17 10 17 C8.0723973 17.9373003 6.17887735 18.94604573 4.3125 20 C3.31863281 20.556875 2.32476562 21.11375 1.30078125 21.6875 C0.54152344 22.120625 -0.21773438 22.55375 -1 23 C-1 19.04 -1 15.08 -1 11 C-1.66 10.67 -2.32 10.34 -3 10 C-2.34 9.67 -1.68 9.34 -1 9 C-0.53348793 6.87423218 -0.53348793 6.87423218 -0.375 4.4375 C-0.30023438 3.61121094 -0.22546875 2.78492187 -0.1484375 1.93359375 C-0.09945312 1.29550781 -0.05046875 0.65742187 0 0 Z " fill="#D0F9FC" transform="translate(112,74)"/>
<path d="M0 0 C0.66 0 1.32 0 2 0 C2.33 0.99 2.66 1.98 3 3 C5.50447516 4.21869929 5.50447516 4.21869929 8 5 C7.49800802 8.72908331 6.95792977 12.36147686 6 16 C4.58456585 16.19658808 3.16755969 16.38187546 1.75 16.5625 C0.96109375 16.66691406 0.1721875 16.77132812 -0.640625 16.87890625 C-3 17 -3 17 -7 16 C-7.33 13.03 -7.66 10.06 -8 7 C-7.01 7.33 -6.02 7.66 -5 8 C-5.33 10.31 -5.66 12.62 -6 15 C-5.01 14.34 -4.02 13.68 -3 13 C0.1875 13.375 0.1875 13.375 3 14 C3 12.02 3 10.04 3 8 C3.66 7.67 4.32 7.34 5 7 C3.68 6.67 2.36 6.34 1 6 C0.67 4.02 0.34 2.04 0 0 Z " fill="#F1CBC8" transform="translate(67,23)"/>
<path d="M0 0 C0.66 0 1.32 0 2 0 C2 2.31 2 4.62 2 7 C2.99 7 3.98 7 5 7 C5 9.31 5 11.62 5 14 C3.68 13.34 2.36 12.68 1 12 C0.731875 12.763125 0.46375 13.52625 0.1875 14.3125 C-0.94424112 16.87380884 -1.91223401 18.19692938 -4 20 C-5.32 17.69 -6.64 15.38 -8 13 C-8.99 13.495 -8.99 13.495 -10 14 C-10 11.69 -10 9.38 -10 7 C-8.88625 8.175625 -8.88625 8.175625 -7.75 9.375 C-5.02757055 12.23128627 -5.02757055 12.23128627 -1 14 C-0.67 9.38 -0.34 4.76 0 0 Z " fill="#AEE4EF" transform="translate(125,50)"/>
<path d="M0 0 C4.52974686 1.46550634 7.6354571 3.6354571 11 7 C12.0339362 9.3618827 12.4991988 11.44591389 13 14 C10.5 13 10.5 13 8 12 C6.700625 11.566875 6.700625 11.566875 5.375 11.125 C2.53276181 9.77867665 1.46671031 8.77903007 0 6 C-0.1875 2.75 -0.1875 2.75 0 0 Z " fill="#A8DFEB" transform="translate(103,31)"/>
<path d="M0 0 C0.33 0.66 0.66 1.32 1 2 C1.69222656 1.9278125 2.38445312 1.855625 3.09765625 1.78125 C13.7547085 0.77030433 24.3990017 0.28972371 35 2 C35 2.33 35 2.66 35 3 C25.76 3.33 16.52 3.66 7 4 C6.67 4.66 6.34 5.32 6 6 C6.99 6 7.98 6 9 6 C9.33 7.98 9.66 9.96 10 12 C8.68 11.67 7.36 11.34 6 11 C6.66 11 7.32 11 8 11 C8 9.68 8 8.36 8 7 C7.34 7 6.68 7 6 7 C5.67 7.66 5.34 8.32 5 9 C5 8.34 5 7.68 5 7 C3.68 6.67 2.36 6.34 1 6 C0.67 4.02 0.34 2.04 0 0 Z " fill="#E3E5E2" transform="translate(82,129)"/>
<path d="M0 0 C0.33 0 0.66 0 1 0 C1.16435547 1.03060547 1.16435547 1.03060547 1.33203125 2.08203125 C1.49058594 2.98308594 1.64914063 3.88414063 1.8125 4.8125 C1.96332031 5.70582031 2.11414063 6.59914063 2.26953125 7.51953125 C3.05395393 10.18321256 3.88627799 11.25690322 6 13 C7.32 11.35 8.64 9.7 10 8 C10.99 8.33 11.98 8.66 13 9 C12.75 10.875 12.75 10.875 12 13 C10.125 14.0625 10.125 14.0625 8 15 C7.195625 15.804375 7.195625 15.804375 6.375 16.625 C5.92125 17.07875 5.4675 17.5325 5 18 C4.34 18 3.68 18 3 18 C2.67 18.99 2.34 19.98 2 21 C1.67 21 1.34 21 1 21 C0.95101562 20.39671875 0.90203125 19.7934375 0.8515625 19.171875 C0.77679688 18.37265625 0.70203125 17.5734375 0.625 16.75 C0.55539063 15.96109375 0.48578125 15.1721875 0.4140625 14.359375 C-0.01507113 11.914123 -0.78600638 10.15163097 -2 8 C-1.34 8 -0.68 8 0 8 C0 5.36 0 2.72 0 0 Z " fill="#B6EBF4" transform="translate(116,64)"/>
<path d="M0 0 C0 0.66 0 1.32 0 2 C-11.24015748 2.53149606 -11.24015748 2.53149606 -16 -1 C-16.99 -0.505 -16.99 -0.505 -18 0 C-20.3494053 -0.60760482 -22.68529088 -1.27129528 -25 -2 C-25 -2.33 -25 -2.66 -25 -3 C-15.34518576 -4.60913571 -8.95204689 -4.10913628 0 0 Z " fill="#137CA6" transform="translate(96,115)"/>
<path d="M0 0 C1.09570312 0.00902344 2.19140625 0.01804688 3.3203125 0.02734375 C4.16335937 0.03894531 5.00640625 0.05054688 5.875 0.0625 C5.35199306 3.38221774 5.1043187 4.8053851 2.8125 7.375 C-1.1458469 9.64894396 -3.61222494 9.36845085 -8.125 9.0625 C-7.5475 8.815 -6.97 8.5675 -6.375 8.3125 C-3.8247003 6.89566683 -2.10714299 5.18622463 -0.125 3.0625 C-3.24790635 3.54828543 -6.12080359 4.0611012 -9.125 5.0625 C-8.75 3.125 -8.75 3.125 -8.125 1.0625 C-5.36047967 -0.31976016 -3.0788637 -0.03275387 0 0 Z " fill="#CFCFC8" transform="translate(83.125,55.9375)"/>
<path d="M0 0 C2.60334924 2.71182212 2.99456691 3.89133813 3.1875 7.75 C3.125625 8.8225 3.06375 9.895 3 11 C4.32 11.66 5.64 12.32 7 13 C7.09765625 19.15234375 7.09765625 19.15234375 7 21 C6.67 21.33 6.34 21.66 6 22 C5.76807135 23.51469448 5.58784762 25.03754562 5.4375 26.5625 C5.31181641 27.80193359 5.31181641 27.80193359 5.18359375 29.06640625 C5.12300781 29.70449219 5.06242188 30.34257813 5 31 C4.67 30.34 4.34 29.68 4 29 C3.01 29.33 2.02 29.66 1 30 C1.44828218 27.38502059 1.96776444 25.07655944 3 22.625 C4.21187449 19.44382947 4.60344027 16.37075774 5 13 C4.01 13 3.02 13 2 13 C2 10.69 2 8.38 2 6 C1.34 6 0.68 6 0 6 C-0.38218767 4.34385343 -0.71395102 2.67542976 -1 1 C-0.67 0.67 -0.34 0.34 0 0 Z " fill="#E6FAFB" transform="translate(125,44)"/>
<path d="M0 0 C0 0.33 0 0.66 0 1 C-0.59167969 1.19335938 -1.18335937 1.38671875 -1.79296875 1.5859375 C-2.58316406 1.84632812 -3.37335938 2.10671875 -4.1875 2.375 C-5.0125 2.64570312 -5.8375 2.91640625 -6.6875 3.1953125 C-9.09653786 3.99024737 -9.09653786 3.99024737 -11.6875 5.25 C-14.72696719 6.23577314 -16.92947565 5.71407543 -20 5 C-19.67 4.34 -19.34 3.68 -19 3 C-16.4375 2.375 -16.4375 2.375 -14 2 C-14 1.67 -14 1.34 -14 1 C-17.96 1 -21.92 1 -26 1 C-19.15663812 -3.56224125 -7.90920192 -0.99980882 0 0 Z " fill="#74DC66" transform="translate(68,112)"/>
<path d="M0 0 C-0.5163577 4.44067619 -1.6288515 7.24568155 -4 11 C-4.69579454 13.19130534 -4.69579454 13.19130534 -5 15 C-6.32 14.67 -7.64 14.34 -9 14 C-9.73828125 11.80078125 -9.73828125 11.80078125 -10 9 C-8.41796875 6.54296875 -8.41796875 6.54296875 -6.1875 4.1875 C-5.45917969 3.39730469 -4.73085937 2.60710937 -3.98046875 1.79296875 C-2 0 -2 0 0 0 Z " fill="#217FA6" transform="translate(103,95)"/>
<path d="M0 0 C2.97 0 5.94 0 9 0 C8.34 1.32 7.68 2.64 7 4 C6.34 4 5.68 4 5 4 C5 3.01 5 2.02 5 1 C1.62911733 3.27415287 1.62911733 3.27415287 0 7 C-0.22325814 9.05893621 -0.40705759 11.12233653 -0.5625 13.1875 C-0.64628906 14.27417969 -0.73007813 15.36085938 -0.81640625 16.48046875 C-0.87699219 17.31191406 -0.93757812 18.14335938 -1 19 C-0.01 19.33 0.98 19.66 2 20 C0.68 21.32 -0.64 22.64 -2 24 C-2.04898437 23.00097656 -2.09796875 22.00195312 -2.1484375 20.97265625 C-2.22320312 19.68230469 -2.29796875 18.39195313 -2.375 17.0625 C-2.44460938 15.77472656 -2.51421875 14.48695312 -2.5859375 13.16015625 C-2.72257813 12.11730469 -2.85921875 11.07445312 -3 10 C-3.66 9.67 -4.32 9.34 -5 9 C-4.360625 8.071875 -3.72125 7.14375 -3.0625 6.1875 C-0.91377907 3.15780057 -0.91377907 3.15780057 0 0 Z " fill="#DDFDD4" transform="translate(13,33)"/>
<path d="M0 0 C0.99 0.33 1.98 0.66 3 1 C4.1577506 4.47325181 4.06866652 7.36067448 4 11 C-2.75 11.125 -2.75 11.125 -5 10 C-4.67 8.68 -4.34 7.36 -4 6 C-3.01 6 -2.02 6 -1 6 C-1.020625 5.195625 -1.04125 4.39125 -1.0625 3.5625 C-1 1 -1 1 0 0 Z " fill="#60E047" transform="translate(23,92)"/>
<path d="M0 0 C2.66666667 0 5.33333333 0 8 0 C8 0.66 8 1.32 8 2 C8.66 2 9.32 2 10 2 C10.33 1.34 10.66 0.68 11 0 C13.64 0 16.28 0 19 0 C19 0.66 19 1.32 19 2 C18.05125 2.12375 17.1025 2.2475 16.125 2.375 C12.91332809 2.71687177 12.91332809 2.71687177 11 5 C8.1796875 5.1953125 8.1796875 5.1953125 4.875 5.125 C3.77929688 5.10695312 2.68359375 5.08890625 1.5546875 5.0703125 C0.71164063 5.04710937 -0.13140625 5.02390625 -1 5 C-0.67 3.35 -0.34 1.7 0 0 Z " fill="#585956" transform="translate(84,126)"/>
<path d="M0 0 C2 3 2 3 2.3125 5.875 C3.18754218 9.85246447 5.0605324 11.28664529 8 14 C8 14.66 8 15.32 8 16 C9.98 16.66 11.96 17.32 14 18 C14 18.66 14 19.32 14 20 C13.01 20 12.02 20 11 20 C11.99 21.65 12.98 23.3 14 25 C12.68 24.67 11.36 24.34 10 24 C9.67 21.69 9.34 19.38 9 17 C8.13375 16.9071875 8.13375 16.9071875 7.25 16.8125 C4.06646522 15.66289022 2.89414079 13.74323838 1 11 C-0.28317892 7.15046324 -0.06643637 4.05261865 0 0 Z " fill="#D5FBCD" transform="translate(6,84)"/>
<path d="M0 0 C0.59171284 6.80469763 -1.08866093 13.30515609 -5.37890625 18.75 C-6.75 20.125 -6.75 20.125 -9 22 C-9.75 20.3125 -9.75 20.3125 -10 18 C-8.1875 15.25 -8.1875 15.25 -6 13 C-5.34 13 -4.68 13 -4 13 C-3.67 11.68 -3.34 10.36 -3 9 C-3.66 8.67 -4.32 8.34 -5 8 C-4.525625 7.401875 -4.05125 6.80375 -3.5625 6.1875 C-1.83534256 3.99617076 -1.83534256 3.99617076 -1 1 C-2.65 1.66 -4.3 2.32 -6 3 C-6 2.34 -6 1.68 -6 1 C-4 0 -4 0 0 0 Z " fill="#CCF7C2" transform="translate(29,30)"/>
<path d="M0 0 C1.0528418 0.15662109 1.0528418 0.15662109 2.12695312 0.31640625 C3.85708829 0.57533804 5.58504118 0.84877657 7.3125 1.125 C7.3125 0.465 7.3125 -0.195 7.3125 -0.875 C7.9725 -0.875 8.6325 -0.875 9.3125 -0.875 C9.3125 0.775 9.3125 2.425 9.3125 4.125 C3.7025 4.125 -1.9075 4.125 -7.6875 4.125 C-7.6875 3.795 -7.6875 3.465 -7.6875 3.125 C-5.7075 3.125 -3.7275 3.125 -1.6875 3.125 C-1.6875 2.465 -1.6875 1.805 -1.6875 1.125 C-4.6575 1.125 -7.6275 1.125 -10.6875 1.125 C-6.83513991 -1.44324006 -4.32308834 -0.70235049 0 0 Z " fill="#686B69" transform="translate(64.6875,126.875)"/>
<path d="M0 0 C0.99 0.33 1.98 0.66 3 1 C2.34 2.65 1.68 4.3 1 6 C2.01320313 6.18175781 2.01320313 6.18175781 3.046875 6.3671875 C3.93890625 6.53476563 4.8309375 6.70234375 5.75 6.875 C6.63171875 7.03742188 7.5134375 7.19984375 8.421875 7.3671875 C10.86947744 7.96796264 12.80599857 8.77997117 15 10 C15 10.99 15 11.98 15 13 C14.67 12.34 14.34 11.68 14 11 C13.030625 11.061875 12.06125 11.12375 11.0625 11.1875 C7.9944655 11.19977214 5.67758537 10.63952114 2.8125 9.5625 C-2.6770811 7.54902043 -8.19931222 7.28463612 -14 7 C-14 6.67 -14 6.34 -14 6 C-10.04 6 -6.08 6 -2 6 C-2 5.01 -2 4.02 -2 3 C-1.34 3 -0.68 3 0 3 C0 2.01 0 1.02 0 0 Z " fill="#B5E8F1" transform="translate(90,104)"/>
<path d="M0 0 C1.32 0.33 2.64 0.66 4 1 C5.25 3.5625 5.25 3.5625 6 6 C7.04800781 5.98839844 8.09601562 5.97679688 9.17578125 5.96484375 C10.55468572 5.95546345 11.93359211 5.9463635 13.3125 5.9375 C14.00279297 5.92912109 14.69308594 5.92074219 15.40429688 5.91210938 C18.5483025 5.89692094 20.99420019 5.99806673 24 7 C24 7.66 24 8.32 24 9 C17.4 8.67 10.8 8.34 4 8 C2.68 5.36 1.36 2.72 0 0 Z " fill="#D5FDCE" transform="translate(38,103)"/>
<path d="M0 0 C0.33 0.33 0.66 0.66 1 1 C3.33297433 1.04092937 5.66705225 1.04241723 8 1 C7.67 2.65 7.34 4.3 7 6 C6.01 5.34 5.02 4.68 4 4 C3.34 5.32 2.68 6.64 2 8 C1.773125 7.38125 1.54625 6.7625 1.3125 6.125 C-0.39873685 3.35442606 -1.97107345 3.0342676 -5 2 C-5.99 1.34 -6.98 0.68 -8 0 C-8.33 0.66 -8.66 1.32 -9 2 C-9 1.01 -9 0.02 -9 -1 C-5.21801096 -2.26066301 -3.63636792 -1.42292658 0 0 Z " fill="#D1EEF2" transform="translate(111,31)"/>
<path d="M0 0 C1.56902561 3.13805122 0.56136446 6.26618588 0.0625 9.625 C-0.08735352 10.68460938 -0.08735352 10.68460938 -0.24023438 11.765625 C-0.48791959 13.51121607 -0.74323871 15.25572084 -1 17 C-1.66 16.67 -2.32 16.34 -3 16 C-2.97679687 16.81984375 -2.95359375 17.6396875 -2.9296875 18.484375 C-2.91164063 19.56203125 -2.89359375 20.6396875 -2.875 21.75 C-2.85179687 22.81734375 -2.82859375 23.8846875 -2.8046875 24.984375 C-2.99512313 27.92470106 -3.47329896 29.52361878 -5 32 C-5.77040851 25.93303301 -6.09706112 20.11485027 -6 14 C-4.68 13.67 -3.36 13.34 -2 13 C-2.02320313 12.31292969 -2.04640625 11.62585937 -2.0703125 10.91796875 C-2.08835937 10.01691406 -2.10640625 9.11585937 -2.125 8.1875 C-2.14820313 7.29417969 -2.17140625 6.40085937 -2.1953125 5.48046875 C-2 3 -2 3 0 0 Z " fill="#CBF5C0" transform="translate(7,44)"/>
<path d="M0 0 C0.66 0 1.32 0 2 0 C2 1.98 2 3.96 2 6 C3.65 6 5.3 6 7 6 C6.8125 7.8125 6.8125 7.8125 6 10 C1.82142857 13 1.82142857 13 -1 13 C-1.07654536 8.48382401 -1.10228696 4.40914783 0 0 Z " fill="#5DDD43" transform="translate(14,38)"/>
<path d="M0 0 C0.33 0.99 0.66 1.98 1 3 C0.67 3.66 0.34 4.32 0 5 C-2.95820059 5.90591398 -5.96010437 6.40058396 -9 7 C-9 10.63 -9 14.26 -9 18 C-9.66 18 -10.32 18 -11 18 C-11 15.03 -11 12.06 -11 9 C-12.65 9 -14.3 9 -16 9 C-15.34 8.67 -14.68 8.34 -14 8 C-14 7.01 -14 6.02 -14 5 C-9.59085217 3.89771304 -5.51617599 3.92345464 -1 4 C-0.67 2.68 -0.34 1.36 0 0 Z " fill="#DDD8C0" transform="translate(68,70)"/>
<path d="M0 0 C0.66 0 1.32 0 2 0 C2.96070434 2.88211302 3.10581883 4.69850044 3.0625 7.6875 C3.05347656 8.49574219 3.04445313 9.30398437 3.03515625 10.13671875 C3.02355469 10.75160156 3.01195312 11.36648437 3 12 C2.34 12 1.68 12 1 12 C0.67 14.31 0.34 16.62 0 19 C-0.33 19 -0.66 19 -1 19 C-2.64774582 12.20304851 -2.13729958 6.54547997 0 0 Z " fill="#6DD857" transform="translate(8,43)"/>
<path d="M0 0 C1.93166016 0.01740234 1.93166016 0.01740234 3.90234375 0.03515625 C5.19269531 0.04417969 6.48304687 0.05320313 7.8125 0.0625 C8.81152344 0.07410156 9.81054688 0.08570313 10.83984375 0.09765625 C11.16984375 1.08765625 11.49984375 2.07765625 11.83984375 3.09765625 C7.18446982 3.93562356 3.469059 4.11382545 -1.16015625 3.09765625 C-0.83015625 4.08765625 -0.50015625 5.07765625 -0.16015625 6.09765625 C-1.15015625 6.59265625 -1.15015625 6.59265625 -2.16015625 7.09765625 C-2.82015625 5.11765625 -3.48015625 3.13765625 -4.16015625 1.09765625 C-3.16015625 0.09765625 -3.16015625 0.09765625 0 0 Z " fill="#F3F3F1" transform="translate(61.16015625,131.90234375)"/>
<path d="M0 0 C0 1.65 0 3.3 0 5 C-1.76755526 5.84026396 -3.53917263 6.67198722 -5.3125 7.5 C-6.79169922 8.19609375 -6.79169922 8.19609375 -8.30078125 8.90625 C-11 10 -11 10 -14 10 C-13.67 8.02 -13.34 6.04 -13 4 C-12.67 5.32 -12.34 6.64 -12 8 C-11.30132812 7.4225 -10.60265625 6.845 -9.8828125 6.25 C-8.51769531 5.13625 -8.51769531 5.13625 -7.125 4 C-6.22007813 3.2575 -5.31515625 2.515 -4.3828125 1.75 C-2 0 -2 0 0 0 Z " fill="#627187" transform="translate(82,50)"/>
<path d="M0 0 C0.33 0.99 0.66 1.98 1 3 C0.28344238 3.02505615 -0.43311523 3.0501123 -1.17138672 3.07592773 C-4.40611514 3.19169751 -7.64053841 3.31450969 -10.875 3.4375 C-12.00292969 3.47681641 -13.13085938 3.51613281 -14.29296875 3.55664062 C-15.36933594 3.59853516 -16.44570312 3.64042969 -17.5546875 3.68359375 C-19.04718018 3.73858032 -19.04718018 3.73858032 -20.56982422 3.79467773 C-23.00779501 3.84959532 -23.00779501 3.84959532 -25 5 C-25.46651207 7.12576782 -25.46651207 7.12576782 -25.625 9.5625 C-25.69976562 10.38878906 -25.77453125 11.21507813 -25.8515625 12.06640625 C-25.90054688 12.70449219 -25.94953125 13.34257813 -26 14 C-26.33 14 -26.66 14 -27 14 C-27 10.04 -27 6.08 -27 2 C-18.09 2 -9.18 2 0 2 C0 1.34 0 0.68 0 0 Z " fill="#E7F5F6" transform="translate(102,67)"/>
<path d="M0 0 C0.66 0.99 1.32 1.98 2 3 C1.525625 3.45375 1.05125 3.9075 0.5625 4.375 C-1.09027808 5.93258204 -1.09027808 5.93258204 -2 8 C-3.98 8 -5.96 8 -8 8 C-8 6.68 -8 5.36 -8 4 C-7.34 4 -6.68 4 -6 4 C-6 3.01 -6 2.02 -6 1 C-4.02 0.67 -2.04 0.34 0 0 Z " fill="#E3EAE1" transform="translate(84,123)"/>
<path d="M0 0 C0 0.66 0 1.32 0 2 C-1.65 2.33 -3.3 2.66 -5 3 C-5 4.65 -5 6.3 -5 8 C-6.32 8 -7.64 8 -9 8 C-9.66 5.36 -10.32 2.72 -11 0 C-6.94952424 -1.35015859 -4.2079832 -0.62084998 0 0 Z " fill="#92A0AD" transform="translate(53,53)"/>
<path d="M0 0 C0.78375 0.165 1.5675 0.33 2.375 0.5 C9.33049504 1.45937863 16.09647953 1.20061226 23 0 C17.40410938 4.59662444 11.9918141 4.29367878 5 4 C1.875 3.5 1.875 3.5 0 3 C0 2.01 0 1.02 0 0 Z " fill="#D1FCC9" transform="translate(28,117)"/>
<path d="M0 0 C0.66 0.33 1.32 0.66 2 1 C-0.0214155 5.57478244 -2.31993178 8.61831569 -6 12 C-6 11.34 -6 10.68 -6 10 C-6.99 9.67 -7.98 9.34 -9 9 C-6 6 -3 3 0 0 Z " fill="#3A7F95" transform="translate(126,76)"/>
<path d="M0 0 C2.0625 0.4375 2.0625 0.4375 4 1 C4.33 2.98 4.66 4.96 5 7 C-0.61 7 -6.22 7 -12 7 C-12 6.34 -12 5.68 -12 5 C-7.71 5 -3.42 5 1 5 C0.34 3.68 -0.32 2.36 -1 1 C-0.67 0.67 -0.34 0.34 0 0 Z " fill="#1F4C6C" transform="translate(46,61)"/>
<path d="M0 0 C-0.78375 0.61875 -1.5675 1.2375 -2.375 1.875 C-4.96837647 3.89858661 -4.96837647 3.89858661 -7 6 C-10 6.25 -10 6.25 -13 6 C-13.66 5.34 -14.32 4.68 -15 4 C-14.01 3.01 -13.02 2.02 -12 1 C-12 1.66 -12 2.32 -12 3 C-11.319375 2.505 -10.63875 2.01 -9.9375 1.5 C-6.40534991 -0.30365111 -3.91363009 -0.23021353 0 0 Z " fill="#B9BCB4" transform="translate(86,58)"/>
<path d="M0 0 C0.33 0.66 0.66 1.32 1 2 C1.99 2 2.98 2 4 2 C4 3.65 4 5.3 4 7 C6.31 7.33 8.62 7.66 11 8 C10.67 8.66 10.34 9.32 10 10 C5.05186827 9.88141732 1.9074357 9.72224474 -2.0625 6.5625 C-4 4 -4 4 -4 2 C-2.68 2 -1.36 2 0 2 C0 1.34 0 0.68 0 0 Z " fill="#555962" transform="translate(53,53)"/>
<path d="M0 0 C0.66 0 1.32 0 2 0 C2 4.95 2 9.9 2 15 C0.68 14.67 -0.64 14.34 -2 14 C-2.33 12.35 -2.66 10.7 -3 9 C-2.01 9 -1.02 9 0 9 C0 6.03 0 3.06 0 0 Z " fill="#267E9C" transform="translate(122,49)"/>
<path d="M0 0 C0.66 0 1.32 0 2 0 C2 0.66 2 1.32 2 2 C2.66 2 3.32 2 4 2 C4 1.34 4 0.68 4 0 C4.66 0 5.32 0 6 0 C6.33 0.66 6.66 1.32 7 2 C7.33 1.34 7.66 0.68 8 0 C9.98 0 11.96 0 14 0 C14 1.32 14 2.64 14 4 C9.38 4 4.76 4 0 4 C0 2.68 0 1.36 0 0 Z " fill="#7B7C7A" transform="translate(76,136)"/>
<path d="M0 0 C0.66 0 1.32 0 2 0 C2.33 4.29 2.66 8.58 3 13 C2.01 13.33 1.02 13.66 0 14 C0 12.02 0 10.04 0 8 C-0.66 8 -1.32 8 -2 8 C-2.33 8.66 -2.66 9.32 -3 10 C-2.49287967 6.28111761 -1.88391785 3.26545761 0 0 Z " fill="#46879D" transform="translate(109,85)"/>
<path d="M0 0 C0.33 0 0.66 0 1 0 C1 2.64 1 5.28 1 8 C0.01 8 -0.98 8 -2 8 C-4.02323613 8.95211112 -6.02699884 9.94773272 -8 11 C-8.66 10.34 -9.32 9.68 -10 9 C-9.44570312 8.60167969 -8.89140625 8.20335938 -8.3203125 7.79296875 C-7.59585938 7.26316406 -6.87140625 6.73335938 -6.125 6.1875 C-5.40570313 5.66542969 -4.68640625 5.14335938 -3.9453125 4.60546875 C-1.76971345 2.96727223 -1.76971345 2.96727223 0 0 Z " fill="#B9E8EF" transform="translate(124,83)"/>
<path d="M0 0 C2 2 2 2 2.1953125 5.4765625 C2.18201493 6.85950968 2.15816232 8.24238654 2.125 9.625 C2.11597656 10.33140625 2.10695313 11.0378125 2.09765625 11.765625 C2.07407603 13.51056098 2.03820461 15.25532295 2 17 C-1.65316671 15.75023244 -2.78065836 15.32901247 -5 12 C-2.03 12.495 -2.03 12.495 1 13 C0.67 11.02 0.34 9.04 0 7 C-0.33 7 -0.66 7 -1 7 C-1.04254356 5.00045254 -1.04080783 2.99958364 -1 1 C-0.67 0.67 -0.34 0.34 0 0 Z " fill="#6FD45A" transform="translate(16,75)"/>
<path d="M0 0 C3.80538922 2.45508982 3.80538922 2.45508982 4.625 4.75 C5.07520007 7.45120041 5.0950896 10.01247319 5.0625 12.75 C5.05347656 13.73484375 5.04445313 14.7196875 5.03515625 15.734375 C5.02355469 16.48203125 5.01195313 17.2296875 5 18 C4.01 17.34 3.02 16.68 2 16 C2.66 16 3.32 16 4 16 C4 14.02 4 12.04 4 10 C3.01 9.67 2.02 9.34 1 9 C0.67 6.03 0.34 3.06 0 0 Z " fill="#42859C" transform="translate(114,34)"/>
<path d="M0 0 C0.66 0 1.32 0 2 0 C2.33 0.66 2.66 1.32 3 2 C6.63 2 10.26 2 14 2 C14 2.66 14 3.32 14 4 C9.32798795 5.20568053 4.78503708 5.09382426 0 5 C-0.5625 3.0625 -0.5625 3.0625 -1 1 C-0.67 0.67 -0.34 0.34 0 0 Z " fill="#545552" transform="translate(19,126)"/>
<path d="M0 0 C2 0 2 0 3.54296875 1.35546875 C8.02759952 6.35141134 8.02759952 6.35141134 7.875 9.9375 C7.58625 10.618125 7.2975 11.29875 7 12 C7.66 12 8.32 12 9 12 C9.33 13.32 9.66 14.64 10 16 C9.01 16 8.02 16 7 16 C5.64560332 13.29120665 5.93498549 10.99066732 6 8 C5.01 7.67 4.02 7.34 3 7 C0.67734388 4.41927097 0 3.54823932 0 0 Z " fill="#C6EAF2" transform="translate(105,41)"/>
<path d="M0 0 C0.99 0.309375 1.98 0.61875 3 0.9375 C6.97731122 2.08433207 10.88767379 2.56712356 15 3 C15.33 2.01 15.66 1.02 16 0 C16.33 1.32 16.66 2.64 17 4 C12.545 4.495 12.545 4.495 8 5 C8 5.66 8 6.32 8 7 C4.66272214 5.82744291 2.22562513 4.81131596 0 2 C0 1.34 0 0.68 0 0 Z " fill="#7FDB6C" transform="translate(17,104)"/>
<path d="M0 0 C3.98175544 2.10148204 6.35039045 4.36905358 9 8 C6.03 7.67 3.06 7.34 0 7 C0 4.69 0 2.38 0 0 Z " fill="#BCD2DC" transform="translate(91,57)"/>
<path d="M0 0 C0.66 0 1.32 0 2 0 C2 2.31 2 4.62 2 7 C2.99 7 3.98 7 5 7 C5 9.31 5 11.62 5 14 C4.34 13.34 3.68 12.68 3 12 C2.01 12.33 1.02 12.66 0 13 C0 8.71 0 4.42 0 0 Z " fill="#BDE3E8" transform="translate(125,50)"/>
<path d="M0 0 C-0.125 2.25 -0.125 2.25 -1 5 C-4.0625 7.3125 -4.0625 7.3125 -7 9 C-7.75 7.25 -7.75 7.25 -8 5 C-5.70168959 2.22617709 -3.75465084 0 0 0 Z " fill="#7AD66A" transform="translate(28,31)"/>
<path d="M0 0 C1.39664108 0.11562606 2.79231199 0.242992 4.1875 0.375 C4.96480469 0.44460937 5.74210937 0.51421875 6.54296875 0.5859375 C9 1 9 1 11.4375 2 C14.30078933 3.1173812 16.7540529 3.40390744 19.8125 3.625 C21.27623047 3.73714844 21.27623047 3.73714844 22.76953125 3.8515625 C23.50558594 3.90054688 24.24164063 3.94953125 25 4 C25 4.33 25 4.66 25 5 C9.08961835 5.61106729 9.08961835 5.61106729 2 2 C1.34 1.34 0.68 0.68 0 0 Z " fill="#BEF2EC" transform="translate(72,115)"/>
<path d="M0 0 C4.04255525 0.12250167 5.84964011 1.59782662 8.5625 4.375 C9.15289062 5.00277344 9.74328125 5.63054688 10.3515625 6.27734375 C12.090721 8.09480559 13.92041053 9.58587916 16 11 C15.01 11.33 14.02 11.66 13 12 C10.03 9.36 7.06 6.72 4 4 C3.01 4.495 3.01 4.495 2 5 C2 3.68 2 2.36 2 1 C1.34 0.67 0.68 0.34 0 0 Z " fill="#C8D2DC" transform="translate(64,40)"/>
<path d="M0 0 C0.66 0 1.32 0 2 0 C1.67 2.31 1.34 4.62 1 7 C1.66 7.33 2.32 7.66 3 8 C2.278125 7.814375 1.55625 7.62875 0.8125 7.4375 C-2.12826973 6.98004693 -4.14103058 7.26483643 -7 8 C-5.38405168 5.95880212 -3.7143618 3.95927063 -2 2 C-1.34 2 -0.68 2 0 2 C0 1.34 0 0.68 0 0 Z " fill="#7184A4" transform="translate(64,41)"/>
<path d="M0 0 C0.66 0 1.32 0 2 0 C2 0.99 2 1.98 2 3 C2.66 3 3.32 3 4 3 C4.33 3.66 4.66 4.32 5 5 C5.99 4.67 6.98 4.34 8 4 C8.66 4.33 9.32 4.66 10 5 C9.34 6.32 8.68 7.64 8 9 C8 8.34 8 7.68 8 7 C7.401875 7.33 6.80375 7.66 6.1875 8 C4 9 4 9 1 9 C0.67 6.03 0.34 3.06 0 0 Z " fill="#ADF49E" transform="translate(16,34)"/>
<path d="M0 0 C0.99 0.33 1.98 0.66 3 1 C2.67 3.31 2.34 5.62 2 8 C2.99 7.34 3.98 6.68 5 6 C8.1875 6.375 8.1875 6.375 11 7 C11 7.66 11 8.32 11 9 C7.05523353 9.80688405 5.00001715 10.00000429 1 9 C0.67 6.03 0.34 3.06 0 0 Z " fill="#F8D9D7" transform="translate(59,30)"/>
<path d="M0 0 C-1.10815825 3.21365891 -1.98529554 3.9914224 -5 5.75 C-8 7 -8 7 -10 7 C-10 6.01 -10 5.02 -10 4 C-10.66 3.67 -11.32 3.34 -12 3 C-10.37604003 2.49663233 -8.75079459 1.99741024 -7.125 1.5 C-6.22007813 1.2215625 -5.31515625 0.943125 -4.3828125 0.65625 C-2 0 -2 0 0 0 Z " fill="#4B8A9B" transform="translate(115,104)"/>
<path d="M0 0 C0.66 0 1.32 0 2 0 C1.125 4.75 1.125 4.75 0 7 C-0.66 7 -1.32 7 -2 7 C-1.67 9.64 -1.34 12.28 -1 15 C-1.99 15.33 -2.98 15.66 -4 16 C-3.67 13.69 -3.34 11.38 -3 9 C-3.99 8.67 -4.98 8.34 -6 8 C-6 7.34 -6 6.68 -6 6 C-4.35 6 -2.7 6 -1 6 C-0.67 4.02 -0.34 2.04 0 0 Z " fill="#AF5D5B" transform="translate(65,22)"/>
<path d="M0 0 C1.65 0 3.3 0 5 0 C5 0.66 5 1.32 5 2 C6.79526111 3.28949167 6.79526111 3.28949167 9 4.5 C11.25 5.78125 11.25 5.78125 13 7 C13 7.66 13 8.32 13 9 C9.42959697 8.34097701 6.82267745 6.83770842 3.75 4.9375 C2.85796875 4.38964844 1.9659375 3.84179688 1.046875 3.27734375 C0.37140625 2.85582031 -0.3040625 2.43429688 -1 2 C-0.67 1.34 -0.34 0.68 0 0 Z " fill="#8CCB96" transform="translate(69,114)"/>
<path d="M0 0 C2 3 2 3 3 5 C3.66 4.67 4.32 4.34 5 4 C5 4.99 5 5.98 5 7 C-0.75 10 -0.75 10 -3 10 C-2.67 7.69 -2.34 5.38 -2 3 C-1.34 3 -0.68 3 0 3 C0 2.01 0 1.02 0 0 Z " fill="#E5E2CD" transform="translate(73,81)"/>
<path d="M0 0 C3.9126984 1.3042328 6.37310241 2.78934739 9 6 C9 6.99 9 7.98 9 9 C4.5937814 7.65365543 2.56922298 5.80625626 0 2 C0 1.34 0 0.68 0 0 Z " fill="#47879B" transform="translate(103,31)"/>
<path d="M0 0 C-0.99 0 -1.98 0 -3 0 C-2.67 0.66 -2.34 1.32 -2 2 C-0.10466658 2.46523063 -0.10466658 2.46523063 2.0625 2.625 C3.361875 2.74875 4.66125 2.8725 6 3 C6 3.33 6 3.66 6 4 C0.26157749 4.20413361 -4.60539047 4.27141454 -10 2 C-10 1.34 -10 0.68 -10 0 C-6.33694766 -0.74926071 -3.57644848 -1.2380014 0 0 Z " fill="#82D870" transform="translate(38,115)"/>
<path d="M0 0 C1.32 0.66 2.64 1.32 4 2 C4 2.99 4 3.98 4 5 C-3.75 5.125 -3.75 5.125 -6 4 C-6 3.34 -6 2.68 -6 2 C-4.02 2 -2.04 2 0 2 C0 1.34 0 0.68 0 0 Z " fill="#C3FEB3" transform="translate(28,102)"/>
<path d="M0 0 C1.14926266 0.95421808 2.29430541 1.91352045 3.4375 2.875 C4.07558594 3.40867187 4.71367187 3.94234375 5.37109375 4.4921875 C7 6 7 6 8 8 C7.01 8 6.02 8 5 8 C4.67 8.66 4.34 9.32 4 10 C3.67 9.01 3.34 8.02 3 7 C2.34 7 1.68 7 1 7 C0.67 4.69 0.34 2.38 0 0 Z " fill="#76D661" transform="translate(4,75)"/>
<path d="M0 0 C0.66 0 1.32 0 2 0 C2 2.64 2 5.28 2 8 C0.35 8 -1.3 8 -3 8 C-3 6.35 -3 4.7 -3 3 C-2.34 3 -1.68 3 -1 3 C-0.67 2.01 -0.34 1.02 0 0 Z " fill="#CF1717" transform="translate(66,26)"/>
<path d="M0 0 C1.65 0 3.3 0 5 0 C5.66 1.32 6.32 2.64 7 4 C7.66 4 8.32 4 9 4 C9 4.66 9 5.32 9 6 C9.66 6 10.32 6 11 6 C10.67 7.32 10.34 8.64 10 10 C8.82737096 8.88121617 7.66204862 7.75476949 6.5 6.625 C5.8503125 5.99851562 5.200625 5.37203125 4.53125 4.7265625 C3 3 3 3 3 1 C2.01 0.67 1.02 0.34 0 0 Z " fill="#CFFAC5" transform="translate(27,93)"/>
<path d="M0 0 C0.33 0.66 0.66 1.32 1 2 C-1.64 2 -4.28 2 -7 2 C-7.33 2.66 -7.66 3.32 -8 4 C-10.31 3.34 -12.62 2.68 -15 2 C-15 1.67 -15 1.34 -15 1 C-9.91913204 0.15318867 -5.15171623 -0.09038099 0 0 Z " fill="#217A94" transform="translate(86,111)"/>
<path d="M0 0 C0.99 0.33 1.98 0.66 3 1 C3.33 2.98 3.66 4.96 4 7 C3.34 7 2.68 7 2 7 C1.67 8.65 1.34 10.3 1 12 C0.01 11.67 -0.98 11.34 -2 11 C-1.34 10.67 -0.68 10.34 0 10 C0 6.7 0 3.4 0 0 Z " fill="#84DC70" transform="translate(21,86)"/>
<path d="M0 0 C2.64 0 5.28 0 8 0 C7.67 0.66 7.34 1.32 7 2 C6.01 2 5.02 2 4 2 C4 2.66 4 3.32 4 4 C1.5 5.625 1.5 5.625 -1 7 C-0.67 4.69 -0.34 2.38 0 0 Z " fill="#E0AF7B" transform="translate(55,62)"/>
<path d="M0 0 C2.64 0 5.28 0 8 0 C8 0.66 8 1.32 8 2 C7.01 2 6.02 2 5 2 C5.33 2.99 5.66 3.98 6 5 C4.02 5 2.04 5 0 5 C0 3.35 0 1.7 0 0 Z " fill="#696867" transform="translate(44,126)"/>
<path d="M0 0 C0.33 0.99 0.66 1.98 1 3 C-0.40445835 5.2636564 -2.1967913 7.0208685 -4 9 C-4.33 8.01 -4.66 7.02 -5 6 C-6.32 6.33 -7.64 6.66 -9 7 C-6.3765992 4.08511023 -3.28183606 2.11496102 0 0 Z " fill="#5490A4" transform="translate(123,89)"/>
<path d="M0 0 C5.77807024 -0.2358396 10.51324804 0.13216954 16 2 C16 2.33 16 2.66 16 3 C13.69 3 11.38 3 9 3 C8.67 3.99 8.34 4.98 8 6 C7.67 4.68 7.34 3.36 7 2 C4.36 2.33 1.72 2.66 -1 3 C-0.67 2.01 -0.34 1.02 0 0 Z " fill="#BFC0B8" transform="translate(64,63)"/>
<path d="M0 0 C1.1446875 0.0928125 1.1446875 0.0928125 2.3125 0.1875 C1.3125 3.1875 1.3125 3.1875 -1.6875 5.1875 C-3.73046875 5.3828125 -3.73046875 5.3828125 -5.875 5.3125 C-7.7621875 5.250625 -7.7621875 5.250625 -9.6875 5.1875 C-9.089375 4.919375 -8.49125 4.65125 -7.875 4.375 C-5.64457307 3.32569956 -5.64457307 3.32569956 -4.25 1.5625 C-2.6875 0.1875 -2.6875 0.1875 0 0 Z " fill="#D9E4EB" transform="translate(84.6875,59.8125)"/>
<path d="M0 0 C3 1.6875 3 1.6875 6 4 C6.375 6.75 6.375 6.75 6 9 C5.01 9 4.02 9 3 9 C0 3.375 0 3.375 0 0 Z " fill="#C3C9C7" transform="translate(47,55)"/>
<path d="M0 0 C0.33 0.66 0.66 1.32 1 2 C1.99 2 2.98 2 4 2 C3.67 3.32 3.34 4.64 3 6 C2.67 5.67 2.34 5.34 2 5 C1.67 7.64 1.34 10.28 1 13 C0.01 12.67 -0.98 12.34 -2 12 C-1.34 11.67 -0.68 11.34 0 11 C0 9.02 0 7.04 0 5 C-0.66 4.67 -1.32 4.34 -2 4 C-1.34 2.68 -0.68 1.36 0 0 Z " fill="#A1EE8E" transform="translate(14,71)"/>
<path d="M0 0 C1.32 0.66 2.64 1.32 4 2 C3.11054687 2.38285156 3.11054687 2.38285156 2.203125 2.7734375 C-0.21224538 4.11816498 -1.51211706 5.49214367 -3.25 7.625 C-3.77078125 8.25664063 -4.2915625 8.88828125 -4.828125 9.5390625 C-5.21484375 10.02117188 -5.6015625 10.50328125 -6 11 C-6.33 10.01 -6.66 9.02 -7 8 C-6.67 7.34 -6.34 6.68 -6 6 C-5.34 6 -4.68 6 -4 6 C-3.34 4.68 -2.68 3.36 -2 2 C-1.34 2 -0.68 2 0 2 C0 1.34 0 0.68 0 0 Z " fill="#DEECF4" transform="translate(41,51)"/>
<path d="M0 0 C1.32 0 2.64 0 4 0 C4 3.3 4 6.6 4 10 C4.99 10.33 5.98 10.66 7 11 C5.68 12.32 4.36 13.64 3 15 C2.95101563 14.00097656 2.90203125 13.00195312 2.8515625 11.97265625 C2.77679688 10.68230469 2.70203125 9.39195313 2.625 8.0625 C2.55539062 6.77472656 2.48578125 5.48695312 2.4140625 4.16015625 C2.27742187 3.11730469 2.14078125 2.07445312 2 1 C1.34 0.67 0.68 0.34 0 0 Z " fill="#AEFB9B" transform="translate(8,42)"/>
<path d="M0 0 C0.66 0 1.32 0 2 0 C2 1.98 2 3.96 2 6 C2.99 6 3.98 6 5 6 C5 6.66 5 7.32 5 8 C3.02 8 1.04 8 -1 8 C-1.125 2.25 -1.125 2.25 0 0 Z " fill="#1B7BA1" transform="translate(107,93)"/>
<path d="M0 0 C0.66 0 1.32 0 2 0 C1.625 2.9375 1.625 2.9375 1 6 C0.01 6.495 0.01 6.495 -1 7 C-1.99 6.67 -2.98 6.34 -4 6 C-4 6.66 -4 7.32 -4 8 C-4.66 7.67 -5.32 7.34 -6 7 C-5.04882866 5.8274869 -4.08882991 4.66212985 -3.125 3.5 C-2.59132813 2.8503125 -2.05765625 2.200625 -1.5078125 1.53125 C-0.76144531 0.77328125 -0.76144531 0.77328125 0 0 Z " fill="#4D8EA4" transform="translate(101,95)"/>
<path d="M0 0 C0.66 0 1.32 0 2 0 C1.54965877 1.62723299 1.08944646 3.25173664 0.625 4.875 C0.36976562 5.77992187 0.11453125 6.68484375 -0.1484375 7.6171875 C-1 10 -1 10 -3 12 C-3 11.01 -3 10.02 -3 9 C-3.66 9 -4.32 9 -5 9 C-5 8.34 -5 7.68 -5 7 C-4.34 7 -3.68 7 -3 7 C-2.690625 6.030625 -2.38125 5.06125 -2.0625 4.0625 C-1 1 -1 1 0 0 Z " fill="#D9F6F9" transform="translate(107,85)"/>
<path d="M0 0 C0.33 0 0.66 0 1 0 C1.33 2.64 1.66 5.28 2 8 C2.99 8.33 3.98 8.66 5 9 C4.34 9 3.68 9 3 9 C3 10.65 3 12.3 3 14 C2.01 13.67 1.02 13.34 0 13 C0 8.71 0 4.42 0 0 Z " fill="#B1F4A2" transform="translate(18,77)"/>
<path d="M0 0 C-1.65 1.98 -3.3 3.96 -5 6 C-5.66 5.67 -6.32 5.34 -7 5 C-7 4.34 -7 3.68 -7 3 C-8.32 2.34 -9.64 1.68 -11 1 C-7.26562152 0.12132271 -3.83225427 -0.08912219 0 0 Z " fill="#F5F3DF" transform="translate(68,75)"/>
<path d="M0 0 C1.32 0.33 2.64 0.66 4 1 C3.75 2.875 3.75 2.875 3 5 C1.0625 6.1875 1.0625 6.1875 -1 7 C-1.99 7.495 -1.99 7.495 -3 8 C-3.66 7.67 -4.32 7.34 -5 7 C-3.68221547 4.36443095 -1.85780102 2.27730447 0 0 Z " fill="#A4D5E0" transform="translate(125,72)"/>
<path d="M0 0 C0.33 0 0.66 0 1 0 C1.05399736 1.45792884 1.09279177 2.91642712 1.125 4.375 C1.14820313 5.18710938 1.17140625 5.99921875 1.1953125 6.8359375 C1 9 1 9 -1 11 C-1 10.01 -1 9.02 -1 8 C-2.32 7.67 -3.64 7.34 -5 7 C-4.34 7 -3.68 7 -3 7 C-2.690625 6.21625 -2.38125 5.4325 -2.0625 4.625 C-1 2 -1 2 0 0 Z " fill="#75D962" transform="translate(14,62)"/>
<path d="M0 0 C0.66 0 1.32 0 2 0 C2 2.64 2 5.28 2 8 C2.8971875 7.505 2.8971875 7.505 3.8125 7 C6 6 6 6 9 6 C8.34 7.65 7.68 9.3 7 11 C6.67 10.34 6.34 9.68 6 9 C4.35 9 2.7 9 1 9 C0.67 6.03 0.34 3.06 0 0 Z " fill="#77D865" transform="translate(15,35)"/>
<path d="M0 0 C0 1.32 0 2.64 0 4 C-2.31 4 -4.62 4 -7 4 C-6.34 3.67 -5.68 3.34 -5 3 C-5 2.34 -5 1.68 -5 1 C-5.99 0.67 -6.98 0.34 -8 0 C-4.94736336 -0.98120464 -3.05263664 -0.98120464 0 0 Z " fill="#6D6E6B" transform="translate(117,127)"/>
<path d="M0 0 C2.97 0 5.94 0 9 0 C9 0.33 9 0.66 9 1 C8.40832031 1.19335938 7.81664063 1.38671875 7.20703125 1.5859375 C3.0853355 2.94414719 -0.9950524 4.32050585 -5 6 C-5.66 5.34 -6.32 4.68 -7 4 C-4.69 3.01 -2.38 2.02 0 1 C0 0.67 0 0.34 0 0 Z " fill="#91DFA6" transform="translate(59,112)"/>
<path d="M0 0 C0.33 0 0.66 0 1 0 C1 1.98 1 3.96 1 6 C2.98 6 4.96 6 7 6 C3.93882432 8.62386487 3.26826873 9 -1 9 C-0.67 6.03 -0.34 3.06 0 0 Z " fill="#4690A8" transform="translate(105,95)"/>
<path d="M0 0 C3.76687864 1.88343932 4.79421646 2.69132469 7 6 C6.01 6.33 5.02 6.66 4 7 C3.67 7.66 3.34 8.32 3 9 C2.01 6.03 1.02 3.06 0 0 Z " fill="#74D763" transform="translate(28,95)"/>
<path d="M0 0 C1.98 0.66 3.96 1.32 6 2 C6.33 3.65 6.66 5.3 7 7 C6.34 6.67 5.68 6.34 5 6 C5 5.01 5 4.02 5 3 C4.34 3 3.68 3 3 3 C2.67 3.99 2.34 4.98 2 6 C1.01 6 0.02 6 -1 6 C-1.625 4.125 -1.625 4.125 -2 2 C-1.34 1.34 -0.68 0.68 0 0 Z " fill="#5A709B" transform="translate(62,47)"/>
<path d="M0 0 C3.3 0 6.6 0 10 0 C10.33 0.99 10.66 1.98 11 3 C8.69 3.33 6.38 3.66 4 4 C4 3.01 4 2.02 4 1 C3.01 1.33 2.02 1.66 1 2 C0.67 1.34 0.34 0.68 0 0 Z " fill="#F9F9F7" transform="translate(62,132)"/>
<path d="M0 0 C0.33 0.66 0.66 1.32 1 2 C2.98 1.67 4.96 1.34 7 1 C7 1.66 7 2.32 7 3 C8.98 3 10.96 3 13 3 C13 3.33 13 3.66 13 4 C8.71 4 4.42 4 0 4 C0 2.68 0 1.36 0 0 Z " fill="#535551" transform="translate(96,127)"/>
<path d="M0 0 C0 0.66 0 1.32 0 2 C-0.66 2 -1.32 2 -2 2 C-2 2.66 -2 3.32 -2 4 C-3.62324086 4.22162329 -5.248721 4.42689803 -6.875 4.625 C-8.23238281 4.79902344 -8.23238281 4.79902344 -9.6171875 4.9765625 C-10.40351562 4.98429687 -11.18984375 4.99203125 -12 5 C-12.66 4.34 -13.32 3.68 -14 3 C-13.30132812 2.86722656 -12.60265625 2.73445313 -11.8828125 2.59765625 C-10.51769531 2.33275391 -10.51769531 2.33275391 -9.125 2.0625 C-8.22007813 1.88847656 -7.31515625 1.71445313 -6.3828125 1.53515625 C-4.0328149 1.0073699 -2.39804152 0 0 0 Z " fill="#DDF7FA" transform="translate(103,117)"/>
<path d="M0 0 C0.33 0 0.66 0 1 0 C1.185625 1.7015625 1.185625 1.7015625 1.375 3.4375 C1.684375 5.2009375 1.684375 5.2009375 2 7 C2.66 7.33 3.32 7.66 4 8 C3.67 8.66 3.34 9.32 3 10 C3.66 10 4.32 10 5 10 C5 10.66 5 11.32 5 12 C0.90636491 10.63545497 -0.04178728 8.77137264 -2 5 C-1.25 2.125 -1.25 2.125 0 0 Z " fill="#A2F78F" transform="translate(6,57)"/>
<path d="M0 0 C1 4 1 4 0 6 C1.65 5.67 3.3 5.34 5 5 C4.34 6.32 3.68 7.64 3 9 C1.35 9 -0.3 9 -2 9 C-1.34 6.03 -0.68 3.06 0 0 Z " fill="#3C4D5E" transform="translate(68,54)"/>
<path d="M0 0 C2.875 -0.125 2.875 -0.125 6 0 C6.66 0.66 7.32 1.32 8 2 C7.01 3.485 7.01 3.485 6 5 C4.68 5 3.36 5 2 5 C2.33 3.68 2.66 2.36 3 1 C2.01 1.33 1.02 1.66 0 2 C0 1.34 0 0.68 0 0 Z " fill="#AFAFAD" transform="translate(60,135)"/>
<path d="M0 0 C1.32 0.33 2.64 0.66 4 1 C2.02 3.31 0.04 5.62 -2 8 C-2.66 6.68 -3.32 5.36 -4 4 C-2.25 1.9375 -2.25 1.9375 0 0 Z " fill="#D7F5F9" transform="translate(96,96)"/>
<path d="M0 0 C0.66 0.33 1.32 0.66 2 1 C1.67 2.65 1.34 4.3 1 6 C-0.98 6 -2.96 6 -5 6 C-5 5.01 -5 4.02 -5 3 C-3.35 2.67 -1.7 2.34 0 2 C0 1.34 0 0.68 0 0 Z " fill="#D1C5A4" transform="translate(49,69)"/>
<path d="M0 0 C0 0.99 0 1.98 0 3 C-6.625 5 -6.625 5 -10 5 C-5.16129032 0 -5.16129032 0 0 0 Z " fill="#B49C70" transform="translate(64,68)"/>
<path d="M0 0 C0.66 0 1.32 0 2 0 C2.12375 1.134375 2.2475 2.26875 2.375 3.4375 C2.684375 5.2009375 2.684375 5.2009375 3 7 C3.66 7.33 4.32 7.66 5 8 C4.01 8 3.02 8 2 8 C2 7.34 2 6.68 2 6 C0.35 5.67 -1.3 5.34 -3 5 C-1.625 2.5 -1.625 2.5 0 0 Z " fill="#476A93" transform="translate(41,54)"/>
<path d="M0 0 C0.33 0.99 0.66 1.98 1 3 C1.99 3 2.98 3 4 3 C3.67 3.99 3.34 4.98 3 6 C0.525 5.01 0.525 5.01 -2 4 C-2 3.34 -2 2.68 -2 2 C-3.98 2 -5.96 2 -8 2 C-8 1.67 -8 1.34 -8 1 C-5.36 0.67 -2.72 0.34 0 0 Z " fill="#EAEBE8" transform="translate(52,130)"/>
<path d="M0 0 C0.33 0.66 0.66 1.32 1 2 C1.66 2.33 2.32 2.66 3 3 C2.38125 3.061875 1.7625 3.12375 1.125 3.1875 C-1.27761141 3.828919 -1.27761141 3.828919 -2.25 6.5625 C-2.4975 7.366875 -2.745 8.17125 -3 9 C-3.99 9 -4.98 9 -6 9 C-5.67 7.68 -5.34 6.36 -5 5 C-4.34 5 -3.68 5 -3 5 C-2.5359375 4.0409375 -2.5359375 4.0409375 -2.0625 3.0625 C-1 1 -1 1 0 0 Z " fill="#456D92" transform="translate(37,59)"/>
<path d="M0 0 C0.66 0 1.32 0 2 0 C0.90931332 3.77545388 0.0916909 6.47043472 -3 9 C-3.33 7.35 -3.66 5.7 -4 4 C-2.68 3.34 -1.36 2.68 0 2 C0 1.34 0 0.68 0 0 Z " fill="#6DD859" transform="translate(16,52)"/>
<path d="M0 0 C1.98 0 3.96 0 6 0 C6.33 0.66 6.66 1.32 7 2 C6.01 2 5.02 2 4 2 C4 2.99 4 3.98 4 5 C3.01 5 2.02 5 1 5 C0.67 3.35 0.34 1.7 0 0 Z " fill="#A4A4A2" transform="translate(49,135)"/>
<path d="M0 0 C2.64 0 5.28 0 8 0 C8 0.66 8 1.32 8 2 C7.05125 2.12375 6.1025 2.2475 5.125 2.375 C1.91332809 2.71687177 1.91332809 2.71687177 0 5 C-0.99 4.67 -1.98 4.34 -3 4 C-3 3.34 -3 2.68 -3 2 C-2.34 2 -1.68 2 -1 2 C-0.67 1.34 -0.34 0.68 0 0 Z " fill="#90928E" transform="translate(95,126)"/>
<path d="M0 0 C0 0.66 0 1.32 0 2 C-0.66 2 -1.32 2 -2 2 C-2 2.99 -2 3.98 -2 5 C-3.32 5 -4.64 5 -6 5 C-6 3.68 -6 2.36 -6 1 C-4 0 -4 0 0 0 Z " fill="#60625D" transform="translate(82,126)"/>
<path d="M0 0 C0.66 0.66 1.32 1.32 2 2 C0.71283353 3.00578589 -0.57988658 4.00446798 -1.875 5 C-2.95394531 5.8353125 -2.95394531 5.8353125 -4.0546875 6.6875 C-6 8 -6 8 -8 8 C-6.49776416 3.79373966 -3.71449966 2.26099979 0 0 Z " fill="#608D8E" transform="translate(57,116)"/>
<path d="M0 0 C0 0.66 0 1.32 0 2 C-3.47325181 3.1577506 -6.36067448 3.06866652 -10 3 C-10 2.34 -10 1.68 -10 1 C-6.59437148 0.22157062 -3.49234244 -0.09978121 0 0 Z " fill="#4EE533" transform="translate(52,113)"/>
<path d="M0 0 C2.97 0 5.94 0 9 0 C9 0.66 9 1.32 9 2 C6.69 2.33 4.38 2.66 2 3 C1.34 2.01 0.68 1.02 0 0 Z " fill="#C6C1B1" transform="translate(45,76)"/>
<path d="M0 0 C4.11320755 6.16981132 4.11320755 6.16981132 3.625 9.75 C3.41875 10.4925 3.2125 11.235 3 12 C0.13700494 9.13700494 0.00578775 7.34147716 -0.0625 3.3125 C-0.041875 2.219375 -0.02125 1.12625 0 0 Z " fill="#72D25D" transform="translate(3,59)"/>
<path d="M0 0 C2.80541099 4.20811648 1.85569482 6.09920241 1 11 C0.67 11.66 0.34 12.32 0 13 C-0.66 13 -1.32 13 -2 13 C-1.34 8.71 -0.68 4.42 0 0 Z " fill="#243249" transform="translate(66,50)"/>
<path d="M0 0 C1.32 0.33 2.64 0.66 4 1 C3.625 2.9375 3.625 2.9375 3 5 C2.01 5.495 2.01 5.495 1 6 C1 5.34 1 4.68 1 4 C0.01 3.67 -0.98 3.34 -2 3 C-1.34 2.01 -0.68 1.02 0 0 Z " fill="#3387A3" transform="translate(119,82)"/>
<path d="M0 0 C-3.18762365 2.12508244 -5.26512223 2.5020163 -9 3 C-9 3.66 -9 4.32 -9 5 C-9.66 5 -10.32 5 -11 5 C-8.45499142 -0.63537615 -5.97208347 -0.11059414 0 0 Z " fill="#7A7768" transform="translate(86,58)"/>
<path d="M0 0 C2.125 0.9375 2.125 0.9375 4 2 C4 2.99 4 3.98 4 5 C2.68 5 1.36 5 0 5 C-0.66 3.68 -1.32 2.36 -2 1 C-1.34 0.67 -0.68 0.34 0 0 Z " fill="#66DE4F" transform="translate(34,101)"/>
<path d="M0 0 C1.32 0.33 2.64 0.66 4 1 C4 1.66 4 2.32 4 3 C3.01 3 2.02 3 1 3 C1.99 4.65 2.98 6.3 4 8 C2.68 7.67 1.36 7.34 0 7 C0 4.69 0 2.38 0 0 Z " fill="#C4F6B6" transform="translate(16,101)"/>
<path d="M0 0 C0.66 0.33 1.32 0.66 2 1 C1.67 2.65 1.34 4.3 1 6 C-1.31 5.67 -3.62 5.34 -6 5 C-2.25 3 -2.25 3 0 3 C0 2.01 0 1.02 0 0 Z " fill="#E4DDB8" transform="translate(66,68)"/>
<path d="M0 0 C0.33 0 0.66 0 1 0 C1.25 6.625 1.25 6.625 -1 10 C-1 9.01 -1 8.02 -1 7 C-1.66 7 -2.32 7 -3 7 C-2.67 5.68 -2.34 4.36 -2 3 C-1.34 3 -0.68 3 0 3 C0 2.01 0 1.02 0 0 Z " fill="#518D9F" transform="translate(128,59)"/>
<path d="M0 0 C2.0625 0.4375 2.0625 0.4375 4 1 C3.67 2.65 3.34 4.3 3 6 C1.68 5.67 0.36 5.34 -1 5 C-0.34 5 0.32 5 1 5 C0.34 3.68 -0.32 2.36 -1 1 C-0.67 0.67 -0.34 0.34 0 0 Z " fill="#225680" transform="translate(46,61)"/>
<path d="M0 0 C0.66 0 1.32 0 2 0 C2.96070434 2.88211302 3.10581883 4.69850044 3.0625 7.6875 C3.05347656 8.49574219 3.04445313 9.30398437 3.03515625 10.13671875 C3.02355469 10.75160156 3.01195312 11.36648437 3 12 C2.67 12 2.34 12 2 12 C1.67 9.69 1.34 7.38 1 5 C0.34 5 -0.32 5 -1 5 C-0.67 3.35 -0.34 1.7 0 0 Z " fill="#8AE078" transform="translate(8,43)"/>
<path d="M0 0 C2.475 0.495 2.475 0.495 5 1 C5 2.65 5 4.3 5 6 C3.35 6 1.7 6 0 6 C0.33 5.34 0.66 4.68 1 4 C1.99 4.33 2.98 4.66 4 5 C4 4.34 4 3.68 4 3 C2.68 2.34 1.36 1.68 0 1 C0 0.67 0 0.34 0 0 Z " fill="#C8F3CC" transform="translate(78,118)"/>
<path d="M0 0 C2.91517292 1.07401108 4.77810176 1.77810176 7 4 C6.01 4 5.02 4 4 4 C3.67 4.66 3.34 5.32 3 6 C1.5 4.6875 1.5 4.6875 0 3 C0 2.01 0 1.02 0 0 Z " fill="#77D464" transform="translate(9,91)"/>
<path d="M0 0 C0.66 0 1.32 0 2 0 C2.33 4.29 2.66 8.58 3 13 C2.01 13.33 1.02 13.66 0 14 C0 9.38 0 4.76 0 0 Z " fill="#7BBACB" transform="translate(109,85)"/>
<path d="M0 0 C0.33 0 0.66 0 1 0 C1 1.98 1 3.96 1 6 C0.34 6 -0.32 6 -1 6 C-1.33 7.32 -1.66 8.64 -2 10 C-3.39195915 5.82412255 -1.82323219 3.86525224 0 0 Z " fill="#EAE8DC" transform="translate(72,78)"/>
<path d="M0 0 C1.65 0 3.3 0 5 0 C4.34 1.32 3.68 2.64 3 4 C1.35 3.67 -0.3 3.34 -2 3 C-1.34 2.67 -0.68 2.34 0 2 C0 1.34 0 0.68 0 0 Z " fill="#EECE8C" transform="translate(51,70)"/>
<path d="M0 0 C0.66 0.99 1.32 1.98 2 3 C-1 5 -1 5 -3.6875 4.625 C-4.450625 4.41875 -5.21375 4.2125 -6 4 C-4.03617993 2.49440461 -2.21736634 1.10868317 0 0 Z " fill="#CFEDF2" transform="translate(113,107)"/>
<path d="M0 0 C0.66 0.33 1.32 0.66 2 1 C2 1.66 2 2.32 2 3 C1.34 3 0.68 3 0 3 C0 4.32 0 5.64 0 7 C-0.99 7 -1.98 7 -3 7 C-3 7.66 -3 8.32 -3 9 C-3.66 9 -4.32 9 -5 9 C-4.67 8.01 -4.34 7.02 -4 6 C-3.01 6 -2.02 6 -1 6 C-1.020625 5.195625 -1.04125 4.39125 -1.0625 3.5625 C-1 1 -1 1 0 0 Z " fill="#5EDE40" transform="translate(23,92)"/>
<path d="M0 0 C1.65 0 3.3 0 5 0 C4.67 1.32 4.34 2.64 4 4 C2.68 3.67 1.36 3.34 0 3 C0 2.01 0 1.02 0 0 Z " fill="#4FE43A" transform="translate(8,70)"/>
<path d="M0 0 C1.9375 0.75 1.9375 0.75 4 2 C4.75 4.125 4.75 4.125 5 6 C4.01 6 3.02 6 2 6 C1.34 4.02 0.68 2.04 0 0 Z " fill="#428498" transform="translate(113,51)"/>
<path d="M0 0 C0.99 0.495 0.99 0.495 2 1 C2.99 0.67 3.98 0.34 5 0 C5.66 0.33 6.32 0.66 7 1 C6.34 2.32 5.68 3.64 5 5 C5 4.34 5 3.68 5 3 C3.68 3.33 2.36 3.66 1 4 C0.67 2.68 0.34 1.36 0 0 Z " fill="#95E886" transform="translate(19,38)"/>
<path d="M0 0 C0.66 0 1.32 0 2 0 C1.125 4.75 1.125 4.75 0 7 C-1.98 7 -3.96 7 -6 7 C-6 6.67 -6 6.34 -6 6 C-4.35 6 -2.7 6 -1 6 C-0.67 4.02 -0.34 2.04 0 0 Z " fill="#C37574" transform="translate(65,22)"/>
<path d="M0 0 C1.98 0 3.96 0 6 0 C5.67 1.32 5.34 2.64 5 4 C2.525 3.01 2.525 3.01 0 2 C0 1.34 0 0.68 0 0 Z " fill="#4E4F4B" transform="translate(49,128)"/>
<path d="M0 0 C2.64 0 5.28 0 8 0 C7.01 1.485 7.01 1.485 6 3 C3.375 3.1875 3.375 3.1875 1 3 C0.67 2.01 0.34 1.02 0 0 Z " fill="#5FD849" transform="translate(24,108)"/>
<path d="M0 0 C0.33 0.66 0.66 1.32 1 2 C3.64 2 6.28 2 9 2 C9 2.33 9 2.66 9 3 C5.7 3.33 2.4 3.66 -1 4 C-0.67 2.68 -0.34 1.36 0 0 Z " fill="#96D9E9" transform="translate(99,104)"/>
<path d="M0 0 C0.99 0.33 1.98 0.66 3 1 C3 2.65 3 4.3 3 6 C1.68 5.34 0.36 4.68 -1 4 C-0.67 2.68 -0.34 1.36 0 0 Z " fill="#CBFEBD" transform="translate(18,90)"/>
<path d="M0 0 C0.33 1.32 0.66 2.64 1 4 C-1.97 3.505 -1.97 3.505 -5 3 C-5 2.34 -5 1.68 -5 1 C-3.35 0.67 -1.7 0.34 0 0 Z " fill="#54DF37" transform="translate(16,84)"/>
<path d="M0 0 C0.66 0 1.32 0 2 0 C2 1.98 2 3.96 2 6 C1.01 6 0.02 6 -1 6 C-1.042721 4.33388095 -1.04063832 2.66617115 -1 1 C-0.67 0.67 -0.34 0.34 0 0 Z " fill="#C8FEB9" transform="translate(12,76)"/>
<path d="M0 0 C1.65 1.32 3.3 2.64 5 4 C4.67 5.32 4.34 6.64 4 8 C0 3.375 0 3.375 0 0 Z " fill="#A4F791" transform="translate(6,73)"/>
<path d="M0 0 C0.77321882 2.98241547 1.41196203 5.97580475 2 9 C1.67 8.34 1.34 7.68 1 7 C0.01 7.33 -0.98 7.66 -2 8 C-1.47731534 5.23723823 -0.89130413 2.6739124 0 0 Z " fill="#C5EAF1" transform="translate(128,66)"/>
<path d="M0 0 C0.33 0 0.66 0 1 0 C1.22162329 1.62324086 1.42689803 3.248721 1.625 4.875 C1.74101563 5.77992187 1.85703125 6.68484375 1.9765625 7.6171875 C1.98429687 8.40351562 1.99203125 9.18984375 2 10 C1.34 10.66 0.68 11.32 0 12 C-0.66 10.68 -1.32 9.36 -2 8 C-1.34 8 -0.68 8 0 8 C0 5.36 0 2.72 0 0 Z " fill="#ACD8E1" transform="translate(116,64)"/>
<path d="M0 0 C1.125 1.625 1.125 1.625 2 4 C1.125 7.25 1.125 7.25 0 10 C-0.99 9.67 -1.98 9.34 -3 9 C-2.34 9 -1.68 9 -1 9 C-1.020625 7.88625 -1.04125 6.7725 -1.0625 5.625 C-1 2 -1 2 0 0 Z " fill="#CBB491" transform="translate(53,60)"/>
<path d="M0 0 C0.99 0.495 0.99 0.495 2 1 C1.67 1.99 1.34 2.98 1 4 C1.66 4 2.32 4 3 4 C3.33 5.32 3.66 6.64 4 8 C3.01 8 2.02 8 1 8 C-0.35439668 5.29120665 -0.06501451 2.99066732 0 0 Z " fill="#D1F0F6" transform="translate(111,49)"/>
</svg>
