<?xml version="1.0" encoding="UTF-8"?>
<svg version="1.1" xmlns="http://www.w3.org/2000/svg" width="134" height="146">
<path d="M0 0 C44.22 0 88.44 0 134 0 C134 48.18 134 96.36 134 146 C89.78 146 45.56 146 0 146 C0 97.82 0 49.64 0 0 Z " fill="#FBFCFC" transform="translate(0,0)"/>
<path d="M0 0 C0 1.65 0 3.3 0 5 C0.66 5 1.32 5 2 5 C2 3.35 2 1.7 2 0 C6.02992782 0.55312735 10.02022924 1.1558062 14 2 C13.67 3.32 13.34 4.64 13 6 C13.66 6.33 14.32 6.66 15 7 C15 5.68 15 4.36 15 3 C16.32 3.33 17.64 3.66 19 4 C19 5.98 19 7.96 19 10 C19.99 8.68 20.98 7.36 22 6 C23.32 6.33 24.64 6.66 26 7 C26 7.66 26 8.32 26 9 C24.68 8.67 23.36 8.34 22 8 C22 8.66 22 9.32 22 10 C22.99 10.33 23.98 10.66 25 11 C25.99 10.34 26.98 9.68 28 9 C28.495 9.99 28.495 9.99 29 11 C30.98 11 32.96 11 35 11 C35.28875 11.804375 35.5775 12.60875 35.875 13.4375 C36.73262568 16.1326468 36.73262568 16.1326468 39 17 C40.1875 18.875 40.1875 18.875 41 21 C40 24 40 24 37 26 C38.98 26 40.96 26 43 26 C42.67 27.32 42.34 28.64 42 30 C43.485 30.495 43.485 30.495 45 31 C45 31.33 45 31.66 45 32 C45.66 32 46.32 32 47 32 C47 32.99 47 33.98 47 35 C47.66 35.33 48.32 35.66 49 36 C49.4140625 38.72265625 49.4140625 38.72265625 49.625 42.0625 C49.73714844 43.71958984 49.73714844 43.71958984 49.8515625 45.41015625 C49.90054688 46.26480469 49.94953125 47.11945312 50 48 C48.68 48.33 47.36 48.66 46 49 C47.65 49.33 49.3 49.66 51 50 C51 51.98 51 53.96 51 56 C49.02 56 47.04 56 45 56 C45 56.66 45 57.32 45 58 C46.98 58 48.96 58 51 58 C51 58.33 51 58.66 51 59 C49.39125 59.061875 49.39125 59.061875 47.75 59.125 C43.88305985 59.65783649 43.88305985 59.65783649 41.6875 62.5 C39.95082552 66.10199152 39.17511127 69.21863563 38.58984375 73.14453125 C38.39519531 73.75683594 38.20054688 74.36914062 38 75 C36.515 75.495 36.515 75.495 35 76 C35 77.98 35 79.96 35 82 C33.35 82.33 31.7 82.66 30 83 C28.10786631 80.61426621 26.97608217 78.92824652 26 76 C24.515 76.495 24.515 76.495 23 77 C23 77.66 23 78.32 23 79 C11.40632202 82.68366506 -1.154013 86.24145604 -12.75 80.6875 C-15.01264461 79.40610433 -16.76248052 78.24640425 -18.56640625 76.375 C-20.7449536 74.28549409 -23.08358164 74.32404648 -26 74 C-26 73.01 -26 72.02 -26 71 C-26.94875 71.639375 -27.8975 72.27875 -28.875 72.9375 C-32 75 -32 75 -34 76 C-34 75.34 -34 74.68 -34 74 C-34.61875 73.95875 -35.2375 73.9175 -35.875 73.875 C-36.57625 73.58625 -37.2775 73.2975 -38 73 C-39.25 69.9375 -39.25 69.9375 -40 67 C-39.34 67 -38.68 67 -38 67 C-38.33 65.68 -38.66 64.36 -39 63 C-39.99 63 -40.98 63 -42 63 C-42 62.34 -42 61.68 -42 61 C-42.66 61 -43.32 61 -44 61 C-44 60.34 -44 59.68 -44 59 C-45.65 58.67 -47.3 58.34 -49 58 C-49 57.34 -49 56.68 -49 56 C-47.515 55.505 -47.515 55.505 -46 55 C-46.99 54.67 -47.98 54.34 -49 54 C-49 51.03 -49 48.06 -49 45 C-48.01 44.505 -48.01 44.505 -47 44 C-47.20625 43.38125 -47.4125 42.7625 -47.625 42.125 C-47.74875 41.42375 -47.8725 40.7225 -48 40 C-47.34 39.34 -46.68 38.68 -46 38 C-45.59952556 35.67724823 -45.2602896 33.34260643 -45 31 C-44.01 31 -43.02 31 -42 31 C-42.2475 30.46375 -42.495 29.9275 -42.75 29.375 C-43.14074789 25.66289506 -41.24232943 23.81892843 -39 21 C-38.34 21 -37.68 21 -37 21 C-36.87625 20.360625 -36.7525 19.72125 -36.625 19.0625 C-36.41875 18.381875 -36.2125 17.70125 -36 17 C-35.34 16.67 -34.68 16.34 -34 16 C-34 15.34 -34 14.68 -34 14 C-33.34 14 -32.68 14 -32 14 C-32 13.34 -32 12.68 -32 12 C-30.02 12.66 -28.04 13.32 -26 14 C-26.33 12.35 -26.66 10.7 -27 9 C-25.68 8.67 -24.36 8.34 -23 8 C-23 7.34 -23 6.68 -23 6 C-17.375 3 -17.375 3 -14 3 C-14 3.66 -14 4.32 -14 5 C-11.525 5.495 -11.525 5.495 -9 6 C-9 4.35 -9 2.7 -9 1 C-5.8035914 -0.06546953 -3.34252724 -0.07427838 0 0 Z " fill="#EBF7F8" transform="translate(65,13)"/>
<path d="M0 0 C2.28935092 1.74643686 4.45794855 3.56709575 6.60546875 5.484375 C7.53359375 6.28875 8.46171875 7.093125 9.41796875 7.921875 C15.48385029 15.02762195 16.30256455 21.53474375 15.91796875 30.70703125 C15.54255546 35.24483937 14.95174497 38.59091663 12.60546875 42.484375 C12.1878125 43.21914062 11.77015625 43.95390625 11.33984375 44.7109375 C6.63278689 51.81906881 -0.29483639 56.11478342 -8.39453125 58.484375 C-16.57285518 59.75710613 -24.00342351 59.33277385 -31.2421875 55.1171875 C-34.87753218 52.35933981 -37.58564882 49.0457697 -40.39453125 45.484375 C-40.91789062 44.99066406 -41.44125 44.49695313 -41.98046875 43.98828125 C-46.64461854 39.02779046 -46.99383198 31.05673479 -46.8046875 24.609375 C-45.60580288 15.47501597 -41.5477305 8.19733279 -34.39453125 2.484375 C-33.44578125 1.72125 -32.49703125 0.958125 -31.51953125 0.171875 C-22.39924778 -4.75307807 -9.00140343 -5.69746253 0 0 Z " fill="#4F5E82" transform="translate(81.39453125,37.515625)"/>
<path d="M0 0 C2.31 0 4.62 0 7 0 C7.495 0.99 7.495 0.99 8 2 C8.99 2.495 8.99 2.495 10 3 C9.34 3.99 8.68 4.98 8 6 C9.65 6.99 11.3 7.98 13 9 C13.33 8.67 13.66 8.34 14 8 C16.18639453 7.92741054 18.37500389 7.91626217 20.5625 7.9375 C22.35880859 7.95103516 22.35880859 7.95103516 24.19140625 7.96484375 C25.11824219 7.97644531 26.04507813 7.98804687 27 8 C27 8.99 27 9.98 27 11 C27.66 11 28.32 11 29 11 C29 10.34 29 9.68 29 9 C29.66 9 30.32 9 31 9 C31 11.97 31 14.94 31 18 C29.515 18.495 29.515 18.495 28 19 C29.92244005 20.92244005 33.66027442 20.14036035 36.3125 20.1875 C36.98990234 20.18041016 37.66730469 20.17332031 38.36523438 20.16601562 C40.36328125 20.23046875 40.36328125 20.23046875 44 21 C47.05545384 24.42463427 48.54980831 27.14141717 48.375 31.75 C48.36210938 32.50796875 48.34921875 33.2659375 48.3359375 34.046875 C48 36 48 36 46 38 C52.93 38.33 59.86 38.66 67 39 C67 39.33 67 39.66 67 40 C22.78 40 -21.44 40 -67 40 C-67 39.67 -67 39.34 -67 39 C-56.605 38.505 -56.605 38.505 -46 38 C-43.69 33.05 -41.38 28.1 -39 23 C-36.03 23 -33.06 23 -30 23 C-29.60167969 23.90492188 -29.60167969 23.90492188 -29.1953125 24.828125 C-28.84210937 25.62734375 -28.48890625 26.4265625 -28.125 27.25 C-27.77695312 28.03890625 -27.42890625 28.8278125 -27.0703125 29.640625 C-26.38421211 31.15305067 -25.65294319 32.64624372 -24.8671875 34.109375 C-24 36 -24 36 -24 39 C-22.35 39 -20.7 39 -19 39 C-18.67 38.01 -18.34 37.02 -18 36 C-15.03 36 -12.06 36 -9 36 C-8.505 31.05 -8.505 31.05 -8 26 C-11.3 26 -14.6 26 -18 26 C-18 23.66666667 -18 21.33333333 -18 19 C-19.98 18.67 -21.96 18.34 -24 18 C-24 17.01 -24 16.02 -24 15 C-24.99 15 -25.98 15 -27 15 C-27 15.66 -27 16.32 -27 17 C-27.66 17 -28.32 17 -29 17 C-28.125 11.25 -28.125 11.25 -27 9 C-26.01 9 -25.02 9 -24 9 C-24 9.66 -24 10.32 -24 11 C-23.34 11 -22.68 11 -22 11 C-22 10.01 -22 9.02 -22 8 C-20.68 8 -19.36 8 -18 8 C-18 9.98 -18 11.96 -18 14 C-17.01 14 -16.02 14 -15 14 C-15 12.02 -15 10.04 -15 8 C-14.01 8 -13.02 8 -12 8 C-12 9.65 -12 11.3 -12 13 C-10.68 13 -9.36 13 -8 13 C-8.495 10.525 -8.495 10.525 -9 8 C-4.545 7.505 -4.545 7.505 0 7 C0 4.69 0 2.38 0 0 Z " fill="#ECEFF5" transform="translate(67,106)"/>
<path d="M0 0 C2.28935092 1.74643686 4.45794855 3.56709575 6.60546875 5.484375 C7.53359375 6.28875 8.46171875 7.093125 9.41796875 7.921875 C15.48043496 15.02362113 16.29632882 21.52466254 15.92578125 30.69140625 C15.30450955 38.0481723 13.19168731 42.65305084 7.60546875 47.484375 C7.60546875 46.494375 7.60546875 45.504375 7.60546875 44.484375 C3.97546875 44.484375 0.34546875 44.484375 -3.39453125 44.484375 C-2.8606367 39.45051208 -2.28927231 34.46936093 -1.39453125 29.484375 C-5.35453125 29.484375 -9.31453125 29.484375 -13.39453125 29.484375 C-13.39453125 33.444375 -13.39453125 37.404375 -13.39453125 41.484375 C-13.72453125 41.484375 -14.05453125 41.484375 -14.39453125 41.484375 C-14.72453125 37.524375 -15.05453125 33.564375 -15.39453125 29.484375 C-18.69453125 29.154375 -21.99453125 28.824375 -25.39453125 28.484375 C-25.39453125 28.154375 -25.39453125 27.824375 -25.39453125 27.484375 C-22.09453125 27.484375 -18.79453125 27.484375 -15.39453125 27.484375 C-15.39453125 22.534375 -15.39453125 17.584375 -15.39453125 12.484375 C-18.36453125 12.484375 -21.33453125 12.484375 -24.39453125 12.484375 C-24.66265625 13.928125 -24.93078125 15.371875 -25.20703125 16.859375 C-25.6640625 19.3203125 -25.6640625 19.3203125 -26.39453125 21.484375 C-27.38453125 22.144375 -28.37453125 22.804375 -29.39453125 23.484375 C-28.51953125 15.859375 -28.51953125 15.859375 -27.39453125 12.484375 C-29.35323555 12.62513815 -31.31149218 12.7721426 -33.26953125 12.921875 C-34.90535156 13.04369141 -34.90535156 13.04369141 -36.57421875 13.16796875 C-39.34182096 13.31439203 -39.34182096 13.31439203 -41.39453125 14.484375 C-41.83203125 12.421875 -41.83203125 12.421875 -41.39453125 9.484375 C-32.11007978 -2.57195619 -13.72208065 -8.68542788 0 0 Z " fill="#4F5F82" transform="translate(81.39453125,37.515625)"/>
<path d="M0 0 C0.495 0.33 0.99 0.66 1.5 1 C1.5 1.66 1.5 2.32 1.5 3 C-2.24284846 3.88067023 -5.66666864 4 -9.5 4 C-10.99743119 5.49743119 -10.83202693 6.98824239 -11.0625 9.0625 C-11.206875 10.361875 -11.35125 11.66125 -11.5 13 C-7.54 13 -3.58 13 0.5 13 C0.995 14.485 0.995 14.485 1.5 16 C3.15 16 4.8 16 6.5 16 C6.5 10.72 6.5 5.44 6.5 0 C19.625 -0.53571429 19.625 -0.53571429 23.3125 1.4375 C26.11955939 4.72576957 26.07387716 6.77191449 25.90625 10.9765625 C25.5 13 25.5 13 23.5 15 C30.43 15.33 37.36 15.66 44.5 16 C44.5 16.33 44.5 16.66 44.5 17 C0.28 17 -43.94 17 -89.5 17 C-89.5 16.67 -89.5 16.34 -89.5 16 C-79.105 15.505 -79.105 15.505 -68.5 15 C-65.035 7.575 -65.035 7.575 -61.5 0 C-58.53 0 -55.56 0 -52.5 0 C-52.10167969 0.90492188 -52.10167969 0.90492188 -51.6953125 1.828125 C-51.34210937 2.62734375 -50.98890625 3.4265625 -50.625 4.25 C-50.27695312 5.03890625 -49.92890625 5.8278125 -49.5703125 6.640625 C-48.88421211 8.15305067 -48.15294319 9.64624372 -47.3671875 11.109375 C-46.5 13 -46.5 13 -46.5 16 C-44.85 16 -43.2 16 -41.5 16 C-41.005 14.515 -41.005 14.515 -40.5 13 C-37.53 13 -34.56 13 -31.5 13 C-31.17 9.7 -30.84 6.4 -30.5 3 C-33.8 3 -37.1 3 -40.5 3 C-40.5 2.01 -40.5 1.02 -40.5 0 C-35.22 0 -29.94 0 -24.5 0 C-24.40234375 10.83984375 -24.40234375 10.83984375 -24.5 14 C-24.83 14.33 -25.16 14.66 -25.5 15 C-22.2 15.33 -18.9 15.66 -15.5 16 C-16.49 15.01 -17.48 14.02 -18.5 13 C-18.89919236 9.90625918 -19.12913952 7.96099607 -18.5 5 C-13.76154994 -1.01911224 -7.18893078 -2.87557231 0 0 Z " fill="#131A2E" transform="translate(89.5,129)"/>
<path d="M0 0 C0.33 1.32 0.66 2.64 1 4 C4.465 3.505 4.465 3.505 8 3 C8 3.99 8 4.98 8 6 C9.918125 5.690625 9.918125 5.690625 11.875 5.375 C14.0546875 5.0234375 14.0546875 5.0234375 16 5 C18.68092691 7.68092691 18.38670257 9.39167363 18.625 13.125 C18.69976562 14.22070312 18.77453125 15.31640625 18.8515625 16.4453125 C18.90054688 17.28835937 18.94953125 18.13140625 19 19 C17.68 19.33 16.36 19.66 15 20 C16.65 20.33 18.3 20.66 20 21 C20 22.98 20 24.96 20 27 C18.02 27 16.04 27 14 27 C14 27.66 14 28.32 14 29 C15.98 29 17.96 29 20 29 C20 29.33 20 29.66 20 30 C18.9275 30.04125 17.855 30.0825 16.75 30.125 C12.88305985 30.65783649 12.88305985 30.65783649 10.6875 33.5 C8.95082552 37.10199152 8.17511127 40.21863563 7.58984375 44.14453125 C7.39519531 44.75683594 7.20054688 45.36914062 7 46 C5.515 46.495 5.515 46.495 4 47 C4 48.98 4 50.96 4 53 C1.525 53.495 1.525 53.495 -1 54 C-2.89213369 51.61426621 -4.02391783 49.92824652 -5 47 C-6.485 47.495 -6.485 47.495 -8 48 C-8 48.66 -8 49.32 -8 50 C-11.83887763 51.48320272 -14.06204091 52.22419163 -18 51 C-17.34773438 50.6596875 -16.69546875 50.319375 -16.0234375 49.96875 C-8.69443606 45.90428903 -3.68671941 41.80021859 -0.859375 33.75390625 C0.0742353 29.67572669 0.29717943 26.03465313 0.25 21.875 C0.25773437 21.18535156 0.26546875 20.49570312 0.2734375 19.78515625 C0.25771017 15.67245981 -0.48379813 12.76502229 -2 9 C-1.7578125 6.54296875 -1.7578125 6.54296875 -1.125 4.1875 C-0.92132813 3.39730469 -0.71765625 2.60710938 -0.5078125 1.79296875 C-0.34023437 1.20128906 -0.17265625 0.60960937 0 0 Z " fill="#E4F2F4" transform="translate(96,42)"/>
<path d="M0 0 C3.96 0 7.92 0 12 0 C10.68 0.33 9.36 0.66 8 1 C7.67 1.66 7.34 2.32 7 3 C6.34 2.67 5.68 2.34 5 2 C5 5.3 5 8.6 5 12 C7.31 12 9.62 12 12 12 C12.33 10.68 12.66 9.36 13 8 C14 12.875 14 12.875 14 14 C11.36 14 8.72 14 6 14 C6 18.62 6 23.24 6 28 C9.63 28 13.26 28 17 28 C17 25.03 17 22.06 17 19 C17.99 19.99 18.98 20.98 20 22 C20 23.98 20 25.96 20 28 C23.96 28 27.92 28 32 28 C31.505 23.545 31.505 23.545 31 19 C34.24115131 22.24115131 34.18254929 25.29758303 34.25 29.6875 C34.17595001 36.50009945 33.25489578 41.95931794 28.3125 47 C27.549375 47.66 26.78625 48.32 26 49 C26 48.01 26 47.02 26 46 C22.37 46 18.74 46 15 46 C15.53389455 40.96613708 16.10525894 35.98498593 17 31 C13.04 31 9.08 31 5 31 C5 34.96 5 38.92 5 43 C4.67 43 4.34 43 4 43 C3.67 39.04 3.34 35.08 3 31 C-0.3 30.67 -3.6 30.34 -7 30 C-7 29.67 -7 29.34 -7 29 C-3.7 29 -0.4 29 3 29 C3 24.05 3 19.1 3 14 C0.03 14 -2.94 14 -6 14 C-6.268125 15.44375 -6.53625 16.8875 -6.8125 18.375 C-7.26953125 20.8359375 -7.26953125 20.8359375 -8 23 C-8.99 23.66 -9.98 24.32 -11 25 C-10.125 17.375 -10.125 17.375 -9 14 C-10.9587043 14.14076315 -12.91696093 14.2877676 -14.875 14.4375 C-16.51082031 14.55931641 -16.51082031 14.55931641 -18.1796875 14.68359375 C-20.94728971 14.83001703 -20.94728971 14.83001703 -23 16 C-22.625 14.0625 -22.625 14.0625 -22 12 C-21.34 11.67 -20.68 11.34 -20 11 C-20 11.66 -20 12.32 -20 13 C-19.02160156 12.84402344 -18.04320312 12.68804687 -17.03515625 12.52734375 C-9.82580834 11.43660684 -3.25211822 10.72769856 4 12 C4 8.7 4 5.4 4 2 C2.68 2.33 1.36 2.66 0 3 C0 2.01 0 1.02 0 0 Z " fill="#556385" transform="translate(63,36)"/>
<path d="M0 0 C13.125 -0.53571429 13.125 -0.53571429 16.8125 1.4375 C19.59731033 4.69970638 19.60950469 6.70424804 19.50390625 10.87890625 C18.84891179 13.63597597 18.42699325 14.48432832 16 16 C13.17074044 16.21853189 10.62668821 16.28262512 7.8125 16.1875 C5.234375 16.125625 2.65625 16.06375 0 16 C0 10.72 0 5.44 0 0 Z " fill="#405382" transform="translate(96,129)"/>
<path d="M0 0 C1.32 0 2.64 0 4 0 C4 1.98 4 3.96 4 6 C4.99 6 5.98 6 7 6 C7 4.02 7 2.04 7 0 C7.99 0 8.98 0 10 0 C10 1.65 10 3.3 10 5 C11.32 5 12.64 5 14 5 C14.33 3.68 14.66 2.36 15 1 C16.32 1 17.64 1 19 1 C19.33820166 2.5823006 19.67035939 4.16589375 20 5.75 C20.185625 6.63171875 20.37125 7.5134375 20.5625 8.421875 C21 11 21 11 21 15 C15.39 15 9.78 15 4 15 C4 13.68 4 12.36 4 11 C1.03 10.505 1.03 10.505 -2 10 C-2 9.01 -2 8.02 -2 7 C-2.99 7 -3.98 7 -5 7 C-5 7.66 -5 8.32 -5 9 C-5.66 9 -6.32 9 -7 9 C-6.125 3.25 -6.125 3.25 -5 1 C-4.01 1 -3.02 1 -2 1 C-2 1.66 -2 2.32 -2 3 C-1.34 3 -0.68 3 0 3 C0 2.01 0 1.02 0 0 Z " fill="#DEE0E3" transform="translate(45,114)"/>
<path d="M0 0 C2.0625 0.4375 2.0625 0.4375 4 1 C4 1.66 4 2.32 4 3 C2.68 2.67 1.36 2.34 0 2 C0 2.66 0 3.32 0 4 C0.99 4.33 1.98 4.66 3 5 C3.99 4.34 4.98 3.68 6 3 C6.33 3.66 6.66 4.32 7 5 C8.98 5 10.96 5 13 5 C13.28875 5.804375 13.5775 6.60875 13.875 7.4375 C14.73262568 10.1326468 14.73262568 10.1326468 17 11 C18.1875 12.875 18.1875 12.875 19 15 C18 18 18 18 15 20 C16.98 20 18.96 20 21 20 C20.67 21.32 20.34 22.64 20 24 C20.99 24.33 21.98 24.66 23 25 C23 25.33 23 25.66 23 26 C23.66 26 24.32 26 25 26 C25 26.66 25 27.32 25 28 C21.04 28.495 21.04 28.495 17 29 C17 28.01 17 27.02 17 26 C14.69 26.33 12.38 26.66 10 27 C10.33 25.35 10.66 23.7 11 22 C11.66 22 12.32 22 13 22 C12.67 20.35 12.34 18.7 12 17 C11.01 17 10.02 17 9 17 C9 17.66 9 18.32 9 19 C7.02 18.67 5.04 18.34 3 18 C3 17.01 3 16.02 3 15 C3.66 15 4.32 15 5 15 C4.67 12.69 4.34 10.38 4 8 C3.01 8.495 3.01 8.495 2 9 C2 8.34 2 7.68 2 7 C0.68 7 -0.64 7 -2 7 C-1.125 1.125 -1.125 1.125 0 0 Z " fill="#D7E4E4" transform="translate(87,19)"/>
<path d="M0 0 C0.33 0.66 0.66 1.32 1 2 C2.64363134 2.72159424 4.31050386 3.39351421 6 4 C5.34 5.32 4.68 6.64 4 8 C3.34 8 2.68 8 2 8 C1.67 10.64 1.34 13.28 1 16 C0.34 16 -0.32 16 -1 16 C-1 18.97 -1 21.94 -1 25 C0.98 25 2.96 25 5 25 C5 26.65 5 28.3 5 30 C3.02 30 1.04 30 -1 30 C-2.12516085 31.83284443 -2.12516085 31.83284443 -3 34 C-2.67 34.99 -2.34 35.98 -2 37 C-4.31 36.34 -6.62 35.68 -9 35 C-9 34.34 -9 33.68 -9 33 C-7.515 32.505 -7.515 32.505 -6 32 C-6.99 31.67 -7.98 31.34 -9 31 C-9 28.03 -9 25.06 -9 22 C-8.34 21.67 -7.68 21.34 -7 21 C-7.20625 20.38125 -7.4125 19.7625 -7.625 19.125 C-7.810625 18.073125 -7.810625 18.073125 -8 17 C-7.34 16.34 -6.68 15.68 -6 15 C-5.59952556 12.67724823 -5.2602896 10.34260643 -5 8 C-4.01 8 -3.02 8 -2 8 C-2.3403125 7.13375 -2.3403125 7.13375 -2.6875 6.25 C-3 4 -3 4 -1.5625 1.75 C-1.046875 1.1725 -0.53125 0.595 0 0 Z " fill="#9A9A9A" transform="translate(25,36)"/>
<path d="M0 0 C0.33 2.64 0.66 5.28 1 8 C-0.98 8.99 -0.98 8.99 -3 10 C-2.67 11.65 -2.34 13.3 -2 15 C-5.12290635 14.51421457 -7.99580359 14.0013988 -11 13 C-10.67 13.5775 -10.34 14.155 -10 14.75 C-9 17 -9 17 -9 21 C-10.8125 21.625 -10.8125 21.625 -13 22 C-13.99 21.34 -14.98 20.68 -16 20 C-19.11785113 20.64644661 -19.11785113 20.64644661 -20 23 C-22.5 21.625 -22.5 21.625 -25 20 C-25 19.34 -25 18.68 -25 18 C-24.34 18 -23.68 18 -23 18 C-22.87625 17.360625 -22.7525 16.72125 -22.625 16.0625 C-22.41875 15.381875 -22.2125 14.70125 -22 14 C-21.34 13.67 -20.68 13.34 -20 13 C-20 12.34 -20 11.68 -20 11 C-19.34 11 -18.68 11 -18 11 C-18 10.34 -18 9.68 -18 9 C-16.02 9.66 -14.04 10.32 -12 11 C-12.33 9.35 -12.66 7.7 -13 6 C-11.68 5.67 -10.36 5.34 -9 5 C-9 4.34 -9 3.68 -9 3 C-3.375 0 -3.375 0 0 0 Z " fill="#AFC8C7" transform="translate(51,16)"/>
<path d="M0 0 C1.65 0 3.3 0 5 0 C5.33 0.66 5.66 1.32 6 2 C6.66 2.33 7.32 2.66 8 3 C7.01 4.485 7.01 4.485 6 6 C7.65 6.99 9.3 7.98 11 9 C11.33 8.67 11.66 8.34 12 8 C14.18639453 7.92741054 16.37500389 7.91626217 18.5625 7.9375 C20.35880859 7.95103516 20.35880859 7.95103516 22.19140625 7.96484375 C23.11824219 7.97644531 24.04507813 7.98804687 25 8 C25 8.99 25 9.98 25 11 C25.66 11 26.32 11 27 11 C27 10.34 27 9.68 27 9 C27.66 9 28.32 9 29 9 C29 11.64 29 14.28 29 17 C28.34 17 27.68 17 27 17 C27 15.68 27 14.36 27 13 C26.01 13 25.02 13 24 13 C23.67 13.99 23.34 14.98 23 16 C23 13.69 23 11.38 23 9 C22.34 9 21.68 9 21 9 C21 11.64 21 14.28 21 17 C14.73 17 8.46 17 2 17 C2 16.34 2 15.68 2 15 C0.35 15.66 -1.3 16.32 -3 17 C-2.8125 13.6875 -2.8125 13.6875 -2 10 C0.5 8.1875 0.5 8.1875 3 7 C3.33 6.34 3.66 5.68 4 5 C2.68 5 1.36 5 0 5 C0 3.35 0 1.7 0 0 Z " fill="#B1B2B1" transform="translate(69,106)"/>
<path d="M0 0 C0 1.65 0 3.3 0 5 C0.66 5 1.32 5 2 5 C2 3.35 2 1.7 2 0 C6.02992782 0.55312735 10.02022924 1.1558062 14 2 C13.67 3.32 13.34 4.64 13 6 C13.66 6.33 14.32 6.66 15 7 C15 5.68 15 4.36 15 3 C16.32 3.33 17.64 3.66 19 4 C18.34 5.98 17.68 7.96 17 10 C12.71 9.34 8.42 8.68 4 8 C4 9.65 4 11.3 4 13 C-2.75 13.125 -2.75 13.125 -5 12 C-5.33 12.66 -5.66 13.32 -6 14 C-7.65 14 -9.3 14 -11 14 C-11 12.68 -11 11.36 -11 10 C-9.68 10 -8.36 10 -7 10 C-7 9.34 -7 8.68 -7 8 C-7.99 8 -8.98 8 -10 8 C-9.67 5.69 -9.34 3.38 -9 1 C-5.8035914 -0.06546953 -3.34252724 -0.07427838 0 0 Z " fill="#B6CACA" transform="translate(65,13)"/>
<path d="M0 0 C2.97 0 5.94 0 9 0 C9.26554687 0.60328125 9.53109375 1.2065625 9.8046875 1.828125 C10.15789063 2.62734375 10.51109375 3.4265625 10.875 4.25 C11.22304688 5.03890625 11.57109375 5.8278125 11.9296875 6.640625 C12.61578789 8.15305067 13.34705681 9.64624372 14.1328125 11.109375 C15 13 15 13 15 16 C7.74 16 0.48 16 -7 16 C-2.5 4.75 -2.5 4.75 0 0 Z " fill="#2D437B" transform="translate(28,129)"/>
<path d="M0 0 C3.96 0 7.92 0 12 0 C10.68 0.33 9.36 0.66 8 1 C7.67 1.66 7.34 2.32 7 3 C6.34 2.67 5.68 2.34 5 2 C5 5.3 5 8.6 5 12 C7.31 12 9.62 12 12 12 C12.33 10.68 12.66 9.36 13 8 C14 12.875 14 12.875 14 14 C11.36 14 8.72 14 6 14 C6 18.95 6 23.9 6 29 C9.63 29 13.26 29 17 29 C17 29.33 17 29.66 17 30 C13.37 30.33 9.74 30.66 6 31 C5.67 34.96 5.34 38.92 5 43 C4.67 43 4.34 43 4 43 C3.67 39.04 3.34 35.08 3 31 C-0.3 30.67 -3.6 30.34 -7 30 C-7 29.67 -7 29.34 -7 29 C-3.7 29 -0.4 29 3 29 C3 24.05 3 19.1 3 14 C0.03 14 -2.94 14 -6 14 C-6.268125 15.44375 -6.53625 16.8875 -6.8125 18.375 C-7.26953125 20.8359375 -7.26953125 20.8359375 -8 23 C-8.99 23.66 -9.98 24.32 -11 25 C-10.125 17.375 -10.125 17.375 -9 14 C-10.9587043 14.14076315 -12.91696093 14.2877676 -14.875 14.4375 C-16.51082031 14.55931641 -16.51082031 14.55931641 -18.1796875 14.68359375 C-20.94728971 14.83001703 -20.94728971 14.83001703 -23 16 C-22.625 14.0625 -22.625 14.0625 -22 12 C-21.34 11.67 -20.68 11.34 -20 11 C-20 11.66 -20 12.32 -20 13 C-19.02160156 12.84402344 -18.04320312 12.68804687 -17.03515625 12.52734375 C-9.82580834 11.43660684 -3.25211822 10.72769856 4 12 C4 8.7 4 5.4 4 2 C2.68 2.33 1.36 2.66 0 3 C0 2.01 0 1.02 0 0 Z " fill="#435378" transform="translate(63,36)"/>
<path d="M0 0 C4.02590716 -0.41820365 7.94387531 -0.12945079 12 0 C11.34 4.62 10.68 9.24 10 14 C5.38 14 0.76 14 -4 14 C-2.25 3.375 -2.25 3.375 0 0 Z " fill="#ECF2F7" transform="translate(42,50)"/>
<path d="M0 0 C0.66 0 1.32 0 2 0 C2 5.28 2 10.56 2 16 C0.68 16 -0.64 16 -2 16 C-2.33 15.34 -2.66 14.68 -3 14 C-3.69867188 14.01160156 -4.39734375 14.02320313 -5.1171875 14.03515625 C-6.02726562 14.04417969 -6.93734375 14.05320313 -7.875 14.0625 C-9.23238281 14.07990234 -9.23238281 14.07990234 -10.6171875 14.09765625 C-13 14 -13 14 -15 13 C-15.1953125 6.9453125 -15.1953125 6.9453125 -15 5 C-13 3 -13 3 -10.1875 2.8125 C-7.35111242 2.97934633 -4.76062551 3.35044106 -2 4 C-1.34 2.68 -0.68 1.36 0 0 Z " fill="#F1F6FB" transform="translate(93,129)"/>
<path d="M0 0 C1.65 0 3.3 0 5 0 C5.33 0.99 5.66 1.98 6 3 C7.32 2.67 8.64 2.34 10 2 C13 8.75 13 8.75 13 11 C13.99 11.33 14.98 11.66 16 12 C17.1875 14.0625 17.1875 14.0625 18 16 C16.35 16 14.7 16 13 16 C13 15.01 13 14.02 13 13 C12.05125 13.639375 11.1025 14.27875 10.125 14.9375 C7 17 7 17 5 18 C5 17.34 5 16.68 5 16 C4.38125 15.95875 3.7625 15.9175 3.125 15.875 C2.073125 15.441875 2.073125 15.441875 1 15 C-0.25 11.9375 -0.25 11.9375 -1 9 C-0.34 9 0.32 9 1 9 C0.67 8.34 0.34 7.68 0 7 C-0.04022391 4.6670134 -0.04320247 2.33293334 0 0 Z " fill="#D6E9EB" transform="translate(26,71)"/>
<path d="M0 0 C4.62 0 9.24 0 14 0 C16 8.5 16 8.5 16 13 C12.04 13 8.08 13 4 13 C0 5.625 0 5.625 0 0 Z " fill="#EBF1F6" transform="translate(38,67)"/>
<path d="M0 0 C0.495 0.33 0.99 0.66 1.5 1 C1.5 1.66 1.5 2.32 1.5 3 C-2.24284846 3.88067023 -5.66666864 4 -9.5 4 C-10.99743119 5.49743119 -10.83202693 6.98824239 -11.0625 9.0625 C-11.206875 10.361875 -11.35125 11.66125 -11.5 13 C-7.54 13 -3.58 13 0.5 13 C0.83 13.99 1.16 14.98 1.5 16 C-1.27141717 16.08089542 -4.04047819 16.14044062 -6.8125 16.1875 C-7.59818359 16.21263672 -8.38386719 16.23777344 -9.19335938 16.26367188 C-9.95068359 16.27333984 -10.70800781 16.28300781 -11.48828125 16.29296875 C-12.18477783 16.3086792 -12.88127441 16.32438965 -13.59887695 16.34057617 C-16.13101356 15.88695725 -16.97835786 15.04848716 -18.5 13 C-18.89919236 9.90625918 -19.12913952 7.96099607 -18.5 5 C-13.76154994 -1.01911224 -7.18893078 -2.87557231 0 0 Z " fill="#425486" transform="translate(89.5,129)"/>
<path d="M0 0 C0.99 0 1.98 0 3 0 C3 1.98 3 3.96 3 6 C1.68 6.33 0.36 6.66 -1 7 C0.65 7.33 2.3 7.66 4 8 C4 9.98 4 11.96 4 14 C2.02 14 0.04 14 -2 14 C-2 14.66 -2 15.32 -2 16 C-0.02 16 1.96 16 4 16 C4 16.33 4 16.66 4 17 C2.329375 17.12375 2.329375 17.12375 0.625 17.25 C-3.05753944 17.57873787 -3.05753944 17.57873787 -4.4375 20.0625 C-4.623125 20.701875 -4.80875 21.34125 -5 22 C-6.65 22 -8.3 22 -10 22 C-10 20.02 -10 18.04 -10 16 C-9.01 15.67 -8.02 15.34 -7 15 C-7 14.01 -7 13.02 -7 12 C-7.99 12 -8.98 12 -10 12 C-10 10.02 -10 8.04 -10 6 C-8.35 6 -6.7 6 -5 6 C-4.67 6.66 -4.34 7.32 -4 8 C-4 6.02 -4 4.04 -4 2 C-2.68 2 -1.36 2 0 2 C0 1.34 0 0.68 0 0 Z " fill="#A7C0BE" transform="translate(112,55)"/>
<path d="M0 0 C0 0.66 0 1.32 0 2 C1.32 1.67 2.64 1.34 4 1 C4 4.3 4 7.6 4 11 C-3.09209896 11.09092435 -9.95957136 10.85523645 -17 10 C-15.614012 6.64933828 -14.2243823 5.16628149 -11.125 3.3125 C-10.44695313 2.89613281 -9.76890625 2.47976562 -9.0703125 2.05078125 C-5.93967412 0.4618346 -3.50886502 0 0 0 Z " fill="#55668A" transform="translate(63,37)"/>
<path d="M0 0 C0.66 0 1.32 0 2 0 C2.33 1.32 2.66 2.64 3 4 C3.99 4 4.98 4 6 4 C6 5.32 6 6.64 6 8 C6.66 8.33 7.32 8.66 8 9 C7.01 9.33 6.02 9.66 5 10 C7.12618004 12.12618004 12.5337578 11.29991306 15.54101562 11.34179688 C17.55859375 11.42578125 17.55859375 11.42578125 21 12 C22.47265625 14.04296875 22.47265625 14.04296875 23 16 C22.21882813 15.76990234 22.21882813 15.76990234 21.421875 15.53515625 C18.36721485 14.86017489 15.36984029 14.65588882 12.25 14.4375 C10.1875 14.293125 8.125 14.14875 6 14 C6 19.28 6 24.56 6 30 C5.67 30 5.34 30 5 30 C5 24.72 5 19.44 5 14 C4.34 14 3.68 14 3 14 C2.67 15.65 2.34 17.3 2 19 C0.35 19 -1.3 19 -3 19 C-1.68 18.34 -0.36 17.68 1 17 C1 16.34 1 15.68 1 15 C-0.98 14.34 -2.96 13.68 -5 13 C-4.67 12.01 -4.34 11.02 -4 10 C-5.32 9.34 -6.64 8.68 -8 8 C-5.36 8 -2.72 8 0 8 C0 7.34 0 6.68 0 6 C-1.32 5.67 -2.64 5.34 -4 5 C-2.68 5 -1.36 5 0 5 C0 4.34 0 3.68 0 3 C-0.99 2.67 -1.98 2.34 -3 2 C-2.01 2 -1.02 2 0 2 C0 1.34 0 0.68 0 0 Z " fill="#E3E7EE" transform="translate(90,115)"/>
<path d="M0 0 C1.98 0 3.96 0 6 0 C6.33 0.99 6.66 1.98 7 3 C7.66 3 8.32 3 9 3 C9 2.34 9 1.68 9 1 C12.3 1 15.6 1 19 1 C16.13463296 5.07763771 13.56958375 7.02677065 9 9 C9 9.99 9 10.98 9 12 C4.71505361 14.08456852 1.10983057 14.26867783 -3.625 14.25 C-5.59339844 14.25773437 -5.59339844 14.25773437 -7.6015625 14.265625 C-11 14 -11 14 -14 12 C-8.72 12 -3.44 12 2 12 C1.34 11.01 0.68 10.02 0 9 C-0.1953125 6.73828125 -0.1953125 6.73828125 -0.125 4.3125 C-0.10695313 3.50425781 -0.08890625 2.69601563 -0.0703125 1.86328125 C-0.04710938 1.24839844 -0.02390625 0.63351563 0 0 Z " fill="#58678A" transform="translate(69,82)"/>
<path d="M0 0 C3.63 0 7.26 0 11 0 C15 8.375 15 8.375 15 14 C11.04 14 7.08 14 3 14 C2.01 9.38 1.02 4.76 0 0 Z " fill="#E5ECF4" transform="translate(80,50)"/>
<path d="M0 0 C2.97 0 5.94 0 9 0 C9 4.62 9 9.24 9 14 C5.04 14 1.08 14 -3 14 C-2.48594831 9.03083364 -1.76615118 4.70973649 0 0 Z " fill="#E6EDF4" transform="translate(57,50)"/>
<path d="M0 0 C3.63 0 7.26 0 11 0 C11.31563182 5.26053037 10.66590937 8.44573816 8 13 C4.37 13 0.74 13 -3 13 C-2.343621 8.51474352 -1.29925791 4.33085971 0 0 Z " fill="#ECF2F9" transform="translate(83,67)"/>
<path d="M0 0 C1.27875 -0.061875 2.5575 -0.12375 3.875 -0.1875 C4.95394531 -0.23970703 4.95394531 -0.23970703 6.0546875 -0.29296875 C6.69664063 -0.19628906 7.33859375 -0.09960938 8 0 C10.98945595 4.48418393 10.62259378 8.65341189 11 14 C7.37 14 3.74 14 0 14 C0 9.38 0 4.76 0 0 Z " fill="#E7EEF5" transform="translate(69,50)"/>
<path d="M0 0 C3.63 0 7.26 0 11 0 C10.19642857 9.10714286 10.19642857 9.10714286 8 13 C5.36 13 2.72 13 0 13 C0 8.71 0 4.42 0 0 Z " fill="#EBF1F8" transform="translate(69,67)"/>
<path d="M0 0 C3.63 0 7.26 0 11 0 C11 4.29 11 8.58 11 13 C8.36 13 5.72 13 3 13 C0.99308198 8.06632653 0 5.44479395 0 0 Z " fill="#F0F5FB" transform="translate(55,67)"/>
<path d="M0 0 C2.33241003 1.51227398 4.01367847 3.01367847 6 5 C6 5.66 6 6.32 6 7 C3.36 7 0.72 7 -2 7 C-2 6.34 -2 5.68 -2 5 C-2.66 5 -3.32 5 -4 5 C-4.33 5.99 -4.66 6.98 -5 8 C-7.31 8 -9.62 8 -12 8 C-12 4.7 -12 1.4 -12 -2 C-7.50397656 -3.49867448 -4.2231951 -1.88894611 0 0 Z " fill="#5D6C90" transform="translate(80,40)"/>
<path d="M0 0 C2.97 0 5.94 0 9 0 C11.25861997 4.93387858 13.40109514 9.80355921 15 15 C13.68 15 12.36 15 11 15 C11 14.01 11 13.02 11 12 C10.34 11.67 9.68 11.34 9 11 C9.33 10.01 9.66 9.02 10 8 C9.34 8 8.68 8 8 8 C8 7.34 8 6.68 8 6 C5.525 5.01 5.525 5.01 3 4 C2.67 6.31 2.34 8.62 2 11 C0.68 10.01 -0.64 9.02 -2 8 C-2.66 10.64 -3.32 13.28 -4 16 C-4.99 15.67 -5.98 15.34 -7 15 C-3.535 7.575 -3.535 7.575 0 0 Z " fill="#455888" transform="translate(28,129)"/>
<path d="M0 0 C1.65 0.33 3.3 0.66 5 1 C5.93065133 3.60582371 6.14917407 4.64198224 5.0625 7.25 C4.711875 7.8275 4.36125 8.405 4 9 C2.35 9 0.7 9 -1 9 C-1 9.66 -1 10.32 -1 11 C-2.98 11.33 -4.96 11.66 -7 12 C-10 7.25 -10 7.25 -10 5 C-8.906875 4.9175 -7.81375 4.835 -6.6875 4.75 C-2.96723336 4.36310791 -2.96723336 4.36310791 -1.0625 1.9375 C-0.711875 1.298125 -0.36125 0.65875 0 0 Z " fill="#E4F7F6" transform="translate(86,96)"/>
<path d="M0 0 C1.65 0 3.3 0 5 0 C5.33 0.66 5.66 1.32 6 2 C6.66 2.33 7.32 2.66 8 3 C7.01 4.485 7.01 4.485 6 6 C7.32 6.99 8.64 7.98 10 9 C8.35 9 6.7 9 5 9 C5 11.31 5 13.62 5 16 C6.98 16 8.96 16 11 16 C11 16.33 11 16.66 11 17 C8.03 17 5.06 17 2 17 C2 16.34 2 15.68 2 15 C0.35 15.66 -1.3 16.32 -3 17 C-2.8125 13.6875 -2.8125 13.6875 -2 10 C0.5 8.1875 0.5 8.1875 3 7 C3.33 6.34 3.66 5.68 4 5 C2.68 5 1.36 5 0 5 C0 3.35 0 1.7 0 0 Z " fill="#CED1D0" transform="translate(69,106)"/>
<path d="M0 0 C4.29 0 8.58 0 13 0 C9 2 9 2 6 3 C5.91913853 4.79093191 5.86087298 6.58289628 5.8125 8.375 C5.77769531 9.37273437 5.74289063 10.37046875 5.70703125 11.3984375 C5.85205078 12.68621094 5.85205078 12.68621094 6 14 C6.99 14.66 7.98 15.32 9 16 C6.03 16 3.06 16 0 16 C0 10.72 0 5.44 0 0 Z " fill="#31457D" transform="translate(96,129)"/>
<path d="M0 0 C-1 3 -1 3 -4 5 C-2.02 5 -0.04 5 2 5 C1.67 6.32 1.34 7.64 1 9 C1.99 9.33 2.98 9.66 4 10 C4 10.33 4 10.66 4 11 C4.66 11 5.32 11 6 11 C6 11.66 6 12.32 6 13 C3.36 13.33 0.72 13.66 -2 14 C-2 13.01 -2 12.02 -2 11 C-4.31 11.33 -6.62 11.66 -9 12 C-8.67 10.35 -8.34 8.7 -8 7 C-7.34 7 -6.68 7 -6 7 C-6.33 5.35 -6.66 3.7 -7 2 C-4 0 -4 0 0 0 Z " fill="#848686" transform="translate(106,34)"/>
<path d="M0 0 C0.33 0 0.66 0 1 0 C1 2.31 1 4.62 1 7 C4.96 7 8.92 7 13 7 C13 7.99 13 8.98 13 10 C9.37 10 5.74 10 2 10 C2 13.3 2 16.6 2 20 C1.01 19.01 0.02 18.02 -1 17 C-1 14.69 -1 12.38 -1 10 C-5.62 10 -10.24 10 -15 10 C-15 9.01 -15 8.02 -15 7 C-10.38 7 -5.76 7 -1 7 C-0.67 4.69 -0.34 2.38 0 0 Z " fill="#516081" transform="translate(53,57)"/>
<path d="M0 0 C4.09792563 -0.47057519 7.92241642 -0.71052822 12 0 C14.56111609 2.29400583 15.88351983 4.76740045 17 8 C17 8.66 17 9.32 17 10 C9.57426312 9.15772892 5.0575342 6.4985181 0 1 C0 0.67 0 0.34 0 0 Z " fill="#DDE7F2" transform="translate(45,83)"/>
<path d="M0 0 C0.33 0.66 0.66 1.32 1 2 C3.64 2 6.28 2 9 2 C9.33 1.34 9.66 0.68 10 0 C10.66 0.99 11.32 1.98 12 3 C12.66 2.01 13.32 1.02 14 0 C17.52913975 5.01372252 19.61471495 8.83543922 20 15 C19.34 14.01 18.68 13.02 18 12 C17.01 12.495 17.01 12.495 16 13 C15.34 10.36 14.68 7.72 14 5 C10.37 5 6.74 5 3 5 C3.66 6.98 4.32 8.96 5 11 C4.01 11.66 3.02 12.32 2 13 C1.46845258 11.39935157 0.95011647 9.79431126 0.4375 8.1875 C0.14746094 7.29417969 -0.14257812 6.40085937 -0.44140625 5.48046875 C-1 3 -1 3 0 0 Z " fill="#59688B" transform="translate(77,45)"/>
<path d="M0 0 C3.24115131 3.24115131 3.18254929 6.29758303 3.25 10.6875 C3.17595001 17.50009945 2.25489578 22.95931794 -2.6875 28 C-3.8321875 28.99 -3.8321875 28.99 -5 30 C-5 29.01 -5 28.02 -5 27 C-8.63 27 -12.26 27 -16 27 C-15.67 25.68 -15.34 24.36 -15 23 C-15 23.99 -15 24.98 -15 26 C-11.04 26 -7.08 26 -3 26 C-2.67 24.35 -2.34 22.7 -2 21 C-1.05567201 17.64836957 -0.02105699 14.32953366 1 11 C-2.3 11 -5.6 11 -9 11 C-9 10.67 -9 10.34 -9 10 C-5.7 10 -2.4 10 1 10 C0.505 5.05 0.505 5.05 0 0 Z " fill="#495675" transform="translate(94,55)"/>
<path d="M0 0 C2.62187494 1.04874998 3.79371361 1.64931313 5.25 4.125 C5.4975 4.74375 5.745 5.3625 6 6 C5.34 6 4.68 6 4 6 C4 6.66 4 7.32 4 8 C3.34 8 2.68 8 2 8 C1.67 9.32 1.34 10.64 1 12 C0.34 12 -0.32 12 -1 12 C-1.33 12.66 -1.66 13.32 -2 14 C-4.5 12.625 -4.5 12.625 -7 11 C-7 10.34 -7 9.68 -7 9 C-6.34 9 -5.68 9 -5 9 C-4.87625 8.360625 -4.7525 7.72125 -4.625 7.0625 C-4.41875 6.381875 -4.2125 5.70125 -4 5 C-3.34 4.67 -2.68 4.34 -2 4 C-2 3.34 -2 2.68 -2 2 C-1.34 2 -0.68 2 0 2 C0 1.34 0 0.68 0 0 Z " fill="#A1A4A5" transform="translate(33,25)"/>
<path d="M0 0 C0.33 2.64 0.66 5.28 1 8 C-0.11375 8.103125 -1.2275 8.20625 -2.375 8.3125 C-3.57125 8.539375 -4.7675 8.76625 -6 9 C-6.99 10.485 -6.99 10.485 -8 12 C-8.66 11.67 -9.32 11.34 -10 11 C-10 10.01 -10 9.02 -10 8 C-10.99 8 -11.98 8 -13 8 C-12.67 7.01 -12.34 6.02 -12 5 C-11.01 5 -10.02 5 -9 5 C-9 4.34 -9 3.68 -9 3 C-3.375 0 -3.375 0 0 0 Z " fill="#BCBFBE" transform="translate(51,16)"/>
<path d="M0 0 C-0.62469505 1.35350594 -1.30570621 2.6808418 -2 4 C-2.495 5.0725 -2.99 6.145 -3.5 7.25 C-6 10 -6 10 -8.484375 10.3828125 C-11.01528132 10.37566305 -13.48316131 10.25936887 -16 10 C-14.614012 6.64933828 -13.2243823 5.16628149 -10.125 3.3125 C-9.44695313 2.89613281 -8.76890625 2.47976562 -8.0703125 2.05078125 C-5.37240519 0.68146603 -3.02521248 0 0 0 Z " fill="#DAE6F1" transform="translate(62,37)"/>
<path d="M0 0 C3.49234244 -0.09978121 6.59437148 0.22157062 10 1 C9.67 2.32 9.34 3.64 9 5 C9.66 5.33 10.32 5.66 11 6 C11 4.68 11 3.36 11 2 C12.32 2.33 13.64 2.66 15 3 C14.34 4.98 13.68 6.96 13 9 C11.20767663 8.69128878 9.41615679 8.37790936 7.625 8.0625 C6.62726563 7.88847656 5.62953125 7.71445312 4.6015625 7.53515625 C2 7 2 7 0 6 C0 4.02 0 2.04 0 0 Z " fill="#696C6C" transform="translate(69,14)"/>
<path d="M0 0 C0.33 0.66 0.66 1.32 1 2 C2.65 2 4.3 2 6 2 C6 2.66 6 3.32 6 4 C4.35 4.66 2.7 5.32 1 6 C1.33 7.98 1.66 9.96 2 12 C0.35 12.33 -1.3 12.66 -3 13 C-3 12.34 -3 11.68 -3 11 C-3.66 11 -4.32 11 -5 11 C-5.33 10.01 -5.66 9.02 -6 8 C-5.34 7.01 -4.68 6.02 -4 5 C-6.475 4.01 -6.475 4.01 -9 3 C-9 2.34 -9 1.68 -9 1 C-8.2575 1.391875 -7.515 1.78375 -6.75 2.1875 C-5.8425 2.455625 -4.935 2.72375 -4 3 C-1.67488528 1.73647948 -1.67488528 1.73647948 0 0 Z " fill="#D8E9E7" transform="translate(35,35)"/>
<path d="M0 0 C2.0625 0.4375 2.0625 0.4375 4 1 C4 1.66 4 2.32 4 3 C2.68 2.67 1.36 2.34 0 2 C0 2.66 0 3.32 0 4 C0.99 4.33 1.98 4.66 3 5 C3.99 4.34 4.98 3.68 6 3 C6.33 3.66 6.66 4.32 7 5 C7.66 5 8.32 5 9 5 C9 5.99 9 6.98 9 8 C9.99 7.67 10.98 7.34 12 7 C11.34 9.31 10.68 11.62 10 14 C9.34 14 8.68 14 8 14 C8 13.34 8 12.68 8 12 C6.68 11.67 5.36 11.34 4 11 C4 10.01 4 9.02 4 8 C3.01 8.495 3.01 8.495 2 9 C2 8.34 2 7.68 2 7 C0.68 7 -0.64 7 -2 7 C-1.125 1.125 -1.125 1.125 0 0 Z " fill="#777A7A" transform="translate(87,19)"/>
<path d="M0 0 C2.53090632 0.00714945 4.99878631 0.12344363 7.515625 0.3828125 C4.22927125 5.3837856 -0.0793748 8.04363194 -5.484375 10.3828125 C-6.474375 10.3828125 -7.464375 10.3828125 -8.484375 10.3828125 C-7.85967995 9.02930656 -7.17866879 7.7019707 -6.484375 6.3828125 C-5.989375 5.3103125 -5.494375 4.2378125 -4.984375 3.1328125 C-2.484375 0.3828125 -2.484375 0.3828125 0 0 Z " fill="#DAE5F4" transform="translate(80.484375,82.6171875)"/>
<path d="M0 0 C1.65 0 3.3 0 5 0 C7 2 7 2 7.25 5 C7 8 7 8 5 10 C3.35 10 1.7 10 0 10 C0 6.7 0 3.4 0 0 Z " fill="#E5EFFB" transform="translate(102,133)"/>
<path d="M0 0 C0.66 0.33 1.32 0.66 2 1 C2 4.3 2 7.6 2 11 C2.66 11 3.32 11 4 11 C4.33 9.68 4.66 8.36 5 7 C5.625 8.875 5.625 8.875 6 11 C4 13 4 13 0.5234375 13.1953125 C-0.85950968 13.18201493 -2.24238654 13.15816232 -3.625 13.125 C-4.33140625 13.11597656 -5.0378125 13.10695312 -5.765625 13.09765625 C-7.51056098 13.07407603 -9.25532295 13.03820461 -11 13 C-10.67 12.01 -10.34 11.02 -10 10 C-7.03 10 -4.06 10 -1 10 C-0.67 6.7 -0.34 3.4 0 0 Z " fill="#3B4E7B" transform="translate(59,132)"/>
<path d="M0 0 C6.44317619 1.61079405 11.36169946 5.36169946 16 10 C15.625 12.125 15.625 12.125 15 14 C12.69 14 10.38 14 8 14 C8 13.67 8 13.34 8 13 C9.98 13 11.96 13 14 13 C10.32461669 8.99049093 6.90173757 6.40630753 2 4 C0.68 4 -0.64 4 -2 4 C-2 2 -2 2 0 0 Z " fill="#556581" transform="translate(74,35)"/>
<path d="M0 0 C0.33 0 0.66 0 1 0 C1 1.65 1 3.3 1 5 C1.66 5 2.32 5 3 5 C3 3.35 3 1.7 3 0 C4.32 0.33 5.64 0.66 7 1 C6.34 1 5.68 1 5 1 C5.66 1.99 6.32 2.98 7 4 C7 5.32 7 6.64 7 8 C6.34 8 5.68 8 5 8 C5 9.65 5 11.3 5 13 C3.35 13 1.7 13 0 13 C0 8.71 0 4.42 0 0 Z " fill="#8BA1A0" transform="translate(64,13)"/>
<path d="M0 0 C2.97 0 5.94 0 9 0 C9 2.64 9 5.28 9 8 C6.03 7.67 3.06 7.34 0 7 C0 4.69 0 2.38 0 0 Z " fill="#515150" transform="translate(74,115)"/>
<path d="M0 0 C0.66 0 1.32 0 2 0 C2 1.65 2 3.3 2 5 C3.32 5 4.64 5 6 5 C5.1875 6.9375 5.1875 6.9375 4 9 C3.01 9.33 2.02 9.66 1 10 C-0.20882096 12.00016466 -0.20882096 12.00016466 -1 14 C-3.475 13.01 -3.475 13.01 -6 12 C-5.01 11.67 -4.02 11.34 -3 11 C-3 10.34 -3 9.68 -3 9 C-4.65 9.33 -6.3 9.66 -8 10 C-8.33 9.34 -8.66 8.68 -9 8 C-4.545 7.505 -4.545 7.505 0 7 C0 4.69 0 2.38 0 0 Z " fill="#DDE6E4" transform="translate(67,106)"/>
<path d="M0 0 C4.52671196 0.53255435 7.4200555 2.21559872 11 5 C12.375 7.25 12.375 7.25 13 9 C7.76536682 9.52346332 7.76536682 9.52346332 5 9 C2.45175192 6.05971376 1.22394754 3.67184262 0 0 Z " fill="#E7F0F9" transform="translate(73,38)"/>
<path d="M0 0 C-0.33 1.65 -0.66 3.3 -1 5 C-6.94 5.495 -6.94 5.495 -13 6 C-13 4.35 -13 2.7 -13 1 C-11.88625 1.020625 -10.7725 1.04125 -9.625 1.0625 C-5.88377953 0.9979962 -3.79326366 0 0 0 Z " fill="#8DB5B4" transform="translate(113,50)"/>
<path d="M0 0 C0.33 0 0.66 0 1 0 C1.33 4.29 1.66 8.58 2 13 C7.445 13.495 7.445 13.495 13 14 C13 14.33 13 14.66 13 15 C9.37 15.33 5.74 15.66 2 16 C1.67 19.96 1.34 23.92 1 28 C0.67 28 0.34 28 0 28 C-0.33 24.04 -0.66 20.08 -1 16 C-4.3 15.67 -7.6 15.34 -11 15 C-11 14.67 -11 14.34 -11 14 C-7.7 13.67 -4.4 13.34 -1 13 C-0.67 8.71 -0.34 4.42 0 0 Z " fill="#314065" transform="translate(67,51)"/>
<path d="M0 0 C0.495 0.33 0.99 0.66 1.5 1 C1.5 1.66 1.5 2.32 1.5 3 C-2.24451341 3.88106198 -5.66512499 4 -9.5 4 C-10.49 4.495 -10.49 4.495 -11.5 5 C-11.83 4.01 -12.16 3.02 -12.5 2 C-13.16 1.67 -13.82 1.34 -14.5 1 C-10.13338636 -1.91107576 -4.77017978 -1.90807191 0 0 Z " fill="#536085" transform="translate(89.5,129)"/>
<path d="M0 0 C0.99 0 1.98 0 3 0 C3 1.98 3 3.96 3 6 C1.68 6.33 0.36 6.66 -1 7 C0.65 7.33 2.3 7.66 4 8 C4 8.66 4 9.32 4 10 C1.69 10.66 -0.62 11.32 -3 12 C-3.33 8.7 -3.66 5.4 -4 2 C-2.68 2 -1.36 2 0 2 C0 1.34 0 0.68 0 0 Z " fill="#757576" transform="translate(112,55)"/>
<path d="M0 0 C3.73654172 0.80465131 7.19422782 2.17574885 10.75 3.5625 C12.50570312 4.24505859 12.50570312 4.24505859 14.296875 4.94140625 C15.18890625 5.29074219 16.0809375 5.64007813 17 6 C17.33 5.34 17.66 4.68 18 4 C20 4 22 4 24 4 C24 4.66 24 5.32 24 6 C19.3415834 8.3292083 13.1018755 7.23482593 8.1875 6.1875 C5.15644495 5.05828341 2.61593354 3.90249712 0 2 C0 1.34 0 0.68 0 0 Z " fill="#3F4D74" transform="translate(47,88)"/>
<path d="M0 0 C1.875 1.5 1.875 1.5 3 3 C0 5 0 5 -2.26171875 4.7578125 C-4.5078125 4.171875 -6.75390625 3.5859375 -9 3 C-9 6.3 -9 9.6 -9 13 C-9.33 13 -9.66 13 -10 13 C-10 9.37 -10 5.74 -10 2 C-5.99186716 -0.00406642 -4.33794733 -0.46148376 0 0 Z " fill="#576994" transform="translate(111,130)"/>
<path d="M0 0 C0.0825 0.61875 0.165 1.2375 0.25 1.875 C0.81258459 4.18437567 0.81258459 4.18437567 3.0625 5.25 C3.701875 5.4975 4.34125 5.745 5 6 C5 7.65 5 9.3 5 11 C2.36 11.33 -0.28 11.66 -3 12 C-3 10.35 -3 8.7 -3 7 C-2.34 7 -1.68 7 -1 7 C-0.67 4.69 -0.34 2.38 0 0 Z " fill="#AACBC9" transform="translate(27,45)"/>
<path d="M0 0 C0.33 0.66 0.66 1.32 1 2 C2.64363134 2.72159424 4.31050386 3.39351421 6 4 C5.34 5.32 4.68 6.64 4 8 C3.34 8 2.68 8 2 8 C1.67 8.66 1.34 9.32 1 10 C0.67 9.01 0.34 8.02 0 7 C-0.99 7 -1.98 7 -3 7 C-2.25 2.25 -2.25 2.25 0 0 Z " fill="#87898A" transform="translate(25,36)"/>
<path d="M0 0 C3.3 0.33 6.6 0.66 10 1 C9.67 2.65 9.34 4.3 9 6 C7.02 6 5.04 6 3 6 C3 5.34 3 4.68 3 4 C2.01 4.33 1.02 4.66 0 5 C0 3.35 0 1.7 0 0 Z " fill="#B3D6D3" transform="translate(69,21)"/>
<path d="M0 0 C2.97 0 5.94 0 9 0 C11.25861997 4.93387858 13.40109514 9.80355921 15 15 C13.68 15 12.36 15 11 15 C11 14.01 11 13.02 11 12 C10.34 11.67 9.68 11.34 9 11 C9.33 10.01 9.66 9.02 10 8 C9.34 7.67 8.68 7.34 8 7 C8 5.02 8 3.04 8 1 C5.36 1.33 2.72 1.66 0 2 C0 1.34 0 0.68 0 0 Z " fill="#475888" transform="translate(28,129)"/>
<path d="M0 0 C2.33333333 0 4.66666667 0 7 0 C7 3 7 6 7 9 C4.69 8.34 2.38 7.68 0 7 C0 6.34 0 5.68 0 5 C0.99 4.67 1.98 4.34 3 4 C2.01 3.67 1.02 3.34 0 3 C0 2.01 0 1.02 0 0 Z " fill="#6C6D6C" transform="translate(16,64)"/>
<path d="M0 0 C0.66 0.33 1.32 0.66 2 1 C1.01 2.98 0.02 4.96 -1 7 C2.3 7 5.6 7 9 7 C9 7.33 9 7.66 9 8 C6.89594609 8.16808419 4.79175242 8.33441948 2.6875 8.5 C1.51574219 8.5928125 0.34398437 8.685625 -0.86328125 8.78125 C-2.905194 8.92364989 -4.9531279 9 -7 9 C-5.44499019 5.18315774 -2.96404505 2.80804268 0 0 Z " fill="#627192" transform="translate(47,40)"/>
<path d="M0 0 C1.125 2.25 1.125 2.25 2 5 C1.125 7.3125 1.125 7.3125 0 9 C-2.4375 8.1875 -2.4375 8.1875 -5 7 C-6 4 -6 4 -5 1 C-2 0 -2 0 0 0 Z " fill="#A3A3A2" transform="translate(25,43)"/>
<path d="M0 0 C0.66 0.33 1.32 0.66 2 1 C2 2.32 2 3.64 2 5 C2.66 5 3.32 5 4 5 C4 5.66 4 6.32 4 7 C3.01 7 2.02 7 1 7 C0.01 8.485 0.01 8.485 -1 10 C-1.66 9.67 -2.32 9.34 -3 9 C-3 8.01 -3 7.02 -3 6 C-3.99 6 -4.98 6 -6 6 C-5.67 5.01 -5.34 4.02 -5 3 C-4.01 3 -3.02 3 -2 3 C-2 2.34 -2 1.68 -2 1 C-1.34 0.67 -0.68 0.34 0 0 Z " fill="#676969" transform="translate(44,18)"/>
<path d="M0 0 C0.33 1.32 0.66 2.64 1 4 C2.98 4 4.96 4 7 4 C7 5.65 7 7.3 7 9 C4.69 9 2.38 9 0 9 C-1.125 2.25 -1.125 2.25 0 0 Z " fill="#9CBFBD" transform="translate(23,57)"/>
<path d="M0 0 C-1 3 -1 3 -4 5 C-2.02 5 -0.04 5 2 5 C0.25 8.875 0.25 8.875 -2 10 C-4.5 7.6875 -4.5 7.6875 -7 5 C-7 4.01 -7 3.02 -7 2 C-4 0 -4 0 0 0 Z " fill="#606363" transform="translate(106,34)"/>
<path d="M0 0 C0.66 0 1.32 0 2 0 C2 1.98 2 3.96 2 6 C3.32 6 4.64 6 6 6 C6 4.02 6 2.04 6 0 C6.66 0 7.32 0 8 0 C8 2.64 8 5.28 8 8 C5.66705225 8.04241723 3.33297433 8.04092937 1 8 C0 7 0 7 -0.0625 3.4375 C-0.041875 2.303125 -0.02125 1.16875 0 0 Z " fill="#595A59" transform="translate(46,115)"/>
<path d="M0 0 C0.33 0.99 0.66 1.98 1 3 C2.27875 2.79375 3.5575 2.5875 4.875 2.375 C7.0546875 2.0234375 7.0546875 2.0234375 9 2 C11 4 11 4 11.125 7.125 C11.08375 8.07375 11.0425 9.0225 11 10 C10.34 9.67 9.68 9.34 9 9 C9.33 7.68 9.66 6.36 10 5 C9.44570312 5.15597656 8.89140625 5.31195313 8.3203125 5.47265625 C7.59585938 5.66730469 6.87140625 5.86195312 6.125 6.0625 C5.04605469 6.35833984 5.04605469 6.35833984 3.9453125 6.66015625 C2 7 2 7 0 6 C0 4.02 0 2.04 0 0 Z " fill="#DADFDF" transform="translate(103,45)"/>
<path d="M0 0 C1.61648437 0.04060547 1.61648437 0.04060547 3.265625 0.08203125 C4.08546875 0.11683594 4.9053125 0.15164062 5.75 0.1875 C6.08 1.1775 6.41 2.1675 6.75 3.1875 C1.14 3.1875 -4.47 3.1875 -10.25 3.1875 C-5.93072606 -0.05195545 -5.09798489 -0.16623864 0 0 Z " fill="#455678" transform="translate(84.25,141.8125)"/>
<path d="M0 0 C0.99 0 1.98 0 3 0 C4.42944945 2.35438733 5.08661261 3.48032433 4.625 6.25 C4.41875 6.8275 4.2125 7.405 4 8 C2.68 7.34 1.36 6.68 0 6 C0 6.66 0 7.32 0 8 C-0.66 8 -1.32 8 -2 8 C-1.125 2.25 -1.125 2.25 0 0 Z " fill="#525252" transform="translate(40,115)"/>
<path d="M0 0 C0.99 0.33 1.98 0.66 3 1 C3 1.99 3 2.98 3 4 C4.32 4 5.64 4 7 4 C6.34 5.65 5.68 7.3 5 9 C3.68 9 2.36 9 1 9 C0.814375 7.576875 0.814375 7.576875 0.625 6.125 C0.28312823 2.91332809 0.28312823 2.91332809 -2 1 C-1.34 0.67 -0.68 0.34 0 0 Z " fill="#A1C2C1" transform="translate(82,22)"/>
<path d="M0 0 C-1.04494564 3.25094199 -2.59135491 4.56873286 -5.4375 6.25 C-9 8 -9 8 -12 8 C-10.8433323 4.52999689 -10.14273284 4.15298541 -7.125 2.3125 C-6.42632812 1.87550781 -5.72765625 1.43851562 -5.0078125 0.98828125 C-3 0 -3 0 0 0 Z " fill="#4F5B79" transform="translate(89,85)"/>
<path d="M0 0 C2.8203125 -0.29296875 2.8203125 -0.29296875 6.125 -0.1875 C7.76855469 -0.14689453 7.76855469 -0.14689453 9.4453125 -0.10546875 C10.28835937 -0.07066406 11.13140625 -0.03585938 12 0 C11.67 0.99 11.34 1.98 11 3 C11 2.34 11 1.68 11 1 C6.545 1.495 6.545 1.495 2 2 C1.67 3.32 1.34 4.64 1 6 C0.01 6.495 0.01 6.495 -1 7 C-1.66 7.99 -2.32 8.98 -3 10 C-2.25 3.375 -2.25 3.375 0 0 Z " fill="#CAD5E5" transform="translate(42,50)"/>
<path d="M0 0 C0.33 0 0.66 0 1 0 C1 2.97 1 5.94 1 9 C-0.98 9 -2.96 9 -5 9 C-4.42680151 5.13091017 -2.56186024 2.88209277 0 0 Z " fill="#D3E1F3" transform="translate(65,38)"/>
<path d="M0 0 C2.42581871 2.42581871 2.96355664 4.07433869 3.09765625 7.48046875 C3.08605469 8.37378906 3.07445313 9.26710938 3.0625 10.1875 C3.05347656 11.08855469 3.04445313 11.98960938 3.03515625 12.91796875 C3.02355469 13.60503906 3.01195313 14.29210937 3 15 C2.34 14.01 1.68 13.02 1 12 C-1.42521494 11.41810734 -1.42521494 11.41810734 -4.125 11.3125 C-5.03507812 11.24675781 -5.94515625 11.18101563 -6.8828125 11.11328125 C-7.93082031 11.05720703 -7.93082031 11.05720703 -9 11 C-9 10.67 -9 10.34 -9 10 C-5.7 10 -2.4 10 1 10 C0.67 6.7 0.34 3.4 0 0 Z " fill="#334266" transform="translate(94,55)"/>
<path d="M0 0 C1.65 0.99 3.3 1.98 5 3 C5.33 2.34 5.66 1.68 6 1 C5.67 3.64 5.34 6.28 5 9 C4.34 8.67 3.68 8.34 3 8 C3.33 7.34 3.66 6.68 4 6 C2.68 6 1.36 6 0 6 C0.33 6.99 0.66 7.98 1 9 C0.01 8.67 -0.98 8.34 -2 8 C-1.33333333 5.33333333 -0.66666667 2.66666667 0 0 Z " fill="#6E6F6F" transform="translate(19,48)"/>
<path d="M0 0 C1.65 0 3.3 0 5 0 C5.33 0.66 5.66 1.32 6 2 C4.68 1.67 3.36 1.34 2 1 C2.33 1.66 2.66 2.32 3 3 C3.99 3.33 4.98 3.66 6 4 C6 4.66 6 5.32 6 6 C5.34 6 4.68 6 4 6 C3.67 6.66 3.34 7.32 3 8 C0.5 6.625 0.5 6.625 -2 5 C-2 4.34 -2 3.68 -2 3 C-1.34 3 -0.68 3 0 3 C0 2.01 0 1.02 0 0 Z " fill="#767578" transform="translate(28,31)"/>
<path d="M0 0 C1.65 0 3.3 0 5 0 C5 2.64 5 5.28 5 8 C3.35 8 1.7 8 0 8 C0 5.36 0 2.72 0 0 Z " fill="#4F5050" transform="translate(85,115)"/>
<path d="M0 0 C1.98 0 3.96 0 6 0 C6 2.97 6 5.94 6 9 C2.91910327 6.22719294 1.31224548 3.93673644 0 0 Z " fill="#D4E1F4" transform="translate(60,83)"/>
<path d="M0 0 C0.33 0 0.66 0 1 0 C2.0070238 5.03511899 1.97387813 8.23947038 0 13 C3.63 13 7.26 13 11 13 C11 13.33 11 13.66 11 14 C7.04 14 3.08 14 -1 14 C-1.87807504 9.60962482 -2.08226278 8.20656508 -1.0625 4.1875 C-0.86785156 3.39730469 -0.67320313 2.60710937 -0.47265625 1.79296875 C-0.31667969 1.20128906 -0.16070312 0.60960938 0 0 Z " fill="#4E5D7E" transform="translate(80,67)"/>
<path d="M0 0 C0.99 0 1.98 0 3 0 C3.33 2.31 3.66 4.62 4 7 C2.02 7.33 0.04 7.66 -2 8 C-1.125 1.125 -1.125 1.125 0 0 Z " fill="#4C4C4B" transform="translate(68,115)"/>
<path d="M0 0 C1.98 0 3.96 0 6 0 C6.1875 2.375 6.1875 2.375 6 5 C5.01 5.66 4.02 6.32 3 7 C3 6.34 3 5.68 3 5 C2.01 4.67 1.02 4.34 0 4 C0 2.68 0 1.36 0 0 Z " fill="#99C4C1" transform="translate(28,82)"/>
<path d="M0 0 C1.65 0 3.3 0 5 0 C6.125 4.75 6.125 4.75 5 7 C3.35 6.67 1.7 6.34 0 6 C0 4.02 0 2.04 0 0 Z " fill="#727475" transform="translate(69,14)"/>
<path d="M0 0 C1.32 0 2.64 0 4 0 C4.33 2.31 4.66 4.62 5 7 C3.35 7.33 1.7 7.66 0 8 C-0.33 7.01 -0.66 6.02 -1 5 C0.32 5.33 1.64 5.66 3 6 C3 5.34 3 4.68 3 4 C1.68 3.67 0.36 3.34 -1 3 C-0.67 2.01 -0.34 1.02 0 0 Z " fill="#4B4A4A" transform="translate(60,115)"/>
<path d="M0 0 C1.32 0.33 2.64 0.66 4 1 C4.33 2.32 4.66 3.64 5 5 C1.91190305 6.76462683 0.76687864 7 -3 7 C-2.690625 6.401875 -2.38125 5.80375 -2.0625 5.1875 C-0.89790296 2.91043228 -0.89790296 2.91043228 0 0 Z " fill="#9D9E9F" transform="translate(100,29)"/>
<path d="M0 0 C2.475 0.99 2.475 0.99 5 2 C4.67 3.65 4.34 5.3 4 7 C2.35 7 0.7 7 -1 7 C-0.67 4.69 -0.34 2.38 0 0 Z " fill="#A2B1D2" transform="translate(31,133)"/>
<path d="M0 0 C0.66 0 1.32 0 2 0 C2.103125 0.639375 2.20625 1.27875 2.3125 1.9375 C2.539375 2.618125 2.76625 3.29875 3 4 C3.99 4.33 4.98 4.66 6 5 C5.34 5 4.68 5 4 5 C4 5.99 4 6.98 4 8 C2.68 8 1.36 8 0 8 C0 7.34 0 6.68 0 6 C-1.32 5.67 -2.64 5.34 -4 5 C-2.68 5 -1.36 5 0 5 C0 4.34 0 3.68 0 3 C-0.99 2.67 -1.98 2.34 -3 2 C-2.01 2 -1.02 2 0 2 C0 1.34 0 0.68 0 0 Z " fill="#BABBBB" transform="translate(90,115)"/>
<path d="M0 0 C0.99 0 1.98 0 3 0 C3 0.66 3 1.32 3 2 C3.99 2 4.98 2 6 2 C6 2.66 6 3.32 6 4 C4.68 4 3.36 4 2 4 C2 5.32 2 6.64 2 8 C3.32 8 4.64 8 6 8 C6.33 7.34 6.66 6.68 7 6 C7 6.99 7 7.98 7 9 C5.02 9 3.04 9 1 9 C0.67 6.03 0.34 3.06 0 0 Z " fill="#C3DBDA" transform="translate(52,19)"/>
<path d="M0 0 C1.32 0 2.64 0 4 0 C4 0.66 4 1.32 4 2 C4.66 2.33 5.32 2.66 6 3 C5.67 3.66 5.34 4.32 5 5 C5.66 5.33 6.32 5.66 7 6 C4.36 6.33 1.72 6.66 -1 7 C-0.67 4.69 -0.34 2.38 0 0 Z " fill="#686A68" transform="translate(56,14)"/>
<path d="M0 0 C0 1.98 0 3.96 0 6 C-0.99 6 -1.98 6 -3 6 C-3.33 6.99 -3.66 7.98 -4 9 C-4.66 6.69 -5.32 4.38 -6 2 C-1.125 0 -1.125 0 0 0 Z " fill="#EAFCF9" transform="translate(103,45)"/>
<path d="M0 0 C0.99 0.33 1.98 0.66 3 1 C2.67 2.65 2.34 4.3 2 6 C0.35 6 -1.3 6 -3 6 C-2.625 3.5625 -2.625 3.5625 -2 1 C-1.34 0.67 -0.68 0.34 0 0 Z " fill="#92BBBA" transform="translate(100,40)"/>
<path d="M0 0 C2.5 2.3125 2.5 2.3125 5 5 C5 5.99 5 6.98 5 8 C3.35 8 1.7 8 0 8 C0 5.36 0 2.72 0 0 Z " fill="#D7E5F4" transform="translate(69,39)"/>
<path d="M0 0 C1.32 0.66 2.64 1.32 4 2 C4 3.98 4 5.96 4 8 C2.68 8 1.36 8 0 8 C-1.125 2.25 -1.125 2.25 0 0 Z " fill="#F5FAFC" transform="translate(104,134)"/>
<path d="M0 0 C1.32 0 2.64 0 4 0 C4.33 1.65 4.66 3.3 5 5 C3.35 5.33 1.7 5.66 0 6 C-0.38218767 4.34385343 -0.71395102 2.67542976 -1 1 C-0.67 0.67 -0.34 0.34 0 0 Z " fill="#98C3BF" transform="translate(32,42)"/>
<path d="M0 0 C-0.33 1.65 -0.66 3.3 -1 5 C-2.65 5 -4.3 5 -6 5 C-6 3.68 -6 2.36 -6 1 C-4 0 -4 0 0 0 Z " fill="#7C7D7D" transform="translate(113,50)"/>
<path d="M0 0 C2.64 0 5.28 0 8 0 C8.33 0.99 8.66 1.98 9 3 C6.03 3 3.06 3 0 3 C0 2.01 0 1.02 0 0 Z " fill="#CFD9EB" transform="translate(28,142)"/>
<path d="M0 0 C0.33 0.99 0.66 1.98 1 3 C1.99 3 2.98 3 4 3 C4 2.01 4 1.02 4 0 C4.66 0 5.32 0 6 0 C6 2.64 6 5.28 6 8 C5.34 8 4.68 8 4 8 C4 6.68 4 5.36 4 4 C3.01 4 2.02 4 1 4 C0.67 4.99 0.34 5.98 0 7 C0 4.69 0 2.38 0 0 Z " fill="#3A3A3A" transform="translate(92,115)"/>
<path d="M0 0 C1.65 0 3.3 0 5 0 C3.8141763 3.37503669 2.72426311 5.64722731 0 8 C0 5.36 0 2.72 0 0 Z " fill="#DBE7F9" transform="translate(69,83)"/>
<path d="M0 0 C0.33 0.99 0.66 1.98 1 3 C5.62 2.67 10.24 2.34 15 2 C13 6 13 6 11 7 C11 6.01 11 5.02 11 4 C7.37 4 3.74 4 0 4 C0 2.68 0 1.36 0 0 Z " fill="#32446B" transform="translate(78,78)"/>
<path d="M0 0 C1.98 0.99 3.96 1.98 6 3 C6 3.66 6 4.32 6 5 C0.46153846 5.36923077 0.46153846 5.36923077 -1.875 3.5 C-2.24625 3.005 -2.6175 2.51 -3 2 C-2.01 1.34 -1.02 0.68 0 0 Z " fill="#F8F9FA" transform="translate(80,122)"/>
<path d="M0 0 C1.65 0 3.3 0 5 0 C5 1.65 5 3.3 5 5 C3.35 5 1.7 5 0 5 C0 3.35 0 1.7 0 0 Z " fill="#7FB1AD" transform="translate(69,106)"/>
<path d="M0 0 C1.65 0 3.3 0 5 0 C5 1.65 5 3.3 5 5 C3.35 5 1.7 5 0 5 C0 3.35 0 1.7 0 0 Z " fill="#7DB0AA" transform="translate(59,106)"/>
<path d="M0 0 C0.66 0.33 1.32 0.66 2 1 C1.01 2.485 1.01 2.485 0 4 C-4.95 3.67 -9.9 3.34 -15 3 C-15 2.67 -15 2.34 -15 2 C-14.16855469 1.93941406 -13.33710937 1.87882812 -12.48046875 1.81640625 C-10.85044922 1.69072266 -10.85044922 1.69072266 -9.1875 1.5625 C-8.10855469 1.48128906 -7.02960938 1.40007812 -5.91796875 1.31640625 C-2.94010095 1.09787539 -2.94010095 1.09787539 0 0 Z " fill="#D3DDED" transform="translate(76,94)"/>
<path d="M0 0 C0.33 0.66 0.66 1.32 1 2 C4.3 1.67 7.6 1.34 11 1 C11.33 1.66 11.66 2.32 12 3 C10.73542969 3.09087891 10.73542969 3.09087891 9.4453125 3.18359375 C8.34960938 3.26738281 7.25390625 3.35117187 6.125 3.4375 C5.03445312 3.51871094 3.94390625 3.59992187 2.8203125 3.68359375 C0.05271029 3.83001703 0.05271029 3.83001703 -2 5 C-1.125 1.125 -1.125 1.125 0 0 Z " fill="#3A496E" transform="translate(42,47)"/>
<path d="M0 0 C3.96 0 7.92 0 12 0 C10.68 0.33 9.36 0.66 8 1 C7.67 1.66 7.34 2.32 7 3 C4.69 3 2.38 3 0 3 C0 2.01 0 1.02 0 0 Z " fill="#2B3F77" transform="translate(63,36)"/>
<path d="M0 0 C1.9375 0.8125 1.9375 0.8125 4 2 C4.33 2.99 4.66 3.98 5 5 C3.1875 5.625 3.1875 5.625 1 6 C0.01 5.34 -0.98 4.68 -2 4 C-2 3.34 -2 2.68 -2 2 C-1.34 2 -0.68 2 0 2 C0 1.34 0 0.68 0 0 Z " fill="#79797A" transform="translate(33,25)"/>
<path d="M0 0 C0.33 0.99 0.66 1.98 1 3 C0.21882813 2.76990234 0.21882813 2.76990234 -0.578125 2.53515625 C-3.63278515 1.86017489 -6.63015971 1.65588882 -9.75 1.4375 C-10.92046875 1.35371094 -12.0909375 1.26992187 -13.296875 1.18359375 C-14.18890625 1.12300781 -15.0809375 1.06242188 -16 1 C-16 0.67 -16 0.34 -16 0 C-13.89651926 -0.19504458 -11.79217415 -0.38078496 -9.6875 -0.5625 C-8.51574219 -0.66691406 -7.34398438 -0.77132812 -6.13671875 -0.87890625 C-3 -1 -3 -1 0 0 Z " fill="#BFCADD" transform="translate(112,128)"/>
<path d="M0 0 C1.65 0.33 3.3 0.66 5 1 C4.34 2.32 3.68 3.64 3 5 C1.68 4.67 0.36 4.34 -1 4 C-0.67 2.68 -0.34 1.36 0 0 Z " fill="#80AFAE" transform="translate(41,98)"/>
<path d="M0 0 C1.32 0.66 2.64 1.32 4 2 C3.34 3.32 2.68 4.64 2 6 C1.01 6 0.02 6 -1 6 C-1.042721 4.33388095 -1.04063832 2.66617115 -1 1 C-0.67 0.67 -0.34 0.34 0 0 Z " fill="#82B0AD" transform="translate(35,90)"/>
<path d="M0 0 C-0.99 0.495 -0.99 0.495 -2 1 C-2 1.66 -2 2.32 -2 3 C-8.28571429 5.42857143 -8.28571429 5.42857143 -12 4 C-4.71428571 -0.57142857 -4.71428571 -0.57142857 0 0 Z " fill="#CAD4E1" transform="translate(90,89)"/>
<path d="M0 0 C0.99 0 1.98 0 3 0 C2.67 1.65 2.34 3.3 2 5 C0.02 5 -1.96 5 -4 5 C-4.33 3.68 -4.66 2.36 -5 1 C-4.67 1.66 -4.34 2.32 -4 3 C-3.34 3 -2.68 3 -2 3 C-1.67 2.34 -1.34 1.68 -1 1 C-0.67 0.67 -0.34 0.34 0 0 Z " fill="#E1E1E2" transform="translate(115,58)"/>
<path d="M0 0 C0.66 0 1.32 0 2 0 C2.125 5.75 2.125 5.75 1 8 C0.34 8 -0.32 8 -1 8 C-1.625 5.125 -1.625 5.125 -2 2 C-1.34 1.34 -0.68 0.68 0 0 Z " fill="#294081" transform="translate(112,133)"/>
<path d="M0 0 C2.31 0 4.62 0 7 0 C7.33 1.98 7.66 3.96 8 6 C4.125 4.25 4.125 4.25 3 2 C1.68 2.33 0.36 2.66 -1 3 C-0.67 2.01 -0.34 1.02 0 0 Z " fill="#2D4077" transform="translate(29,130)"/>
<path d="M0 0 C1.98 0.495 1.98 0.495 4 1 C3.67 2.32 3.34 3.64 3 5 C1.68 5 0.36 5 -1 5 C-0.67 3.35 -0.34 1.7 0 0 Z " fill="#7DAEAC" transform="translate(50,103)"/>
<path d="M0 0 C-1.28524261 0.86380259 -2.57842419 1.71580369 -3.875 2.5625 C-4.59429687 3.03816406 -5.31359375 3.51382813 -6.0546875 4.00390625 C-6.69664063 4.33261719 -7.33859375 4.66132812 -8 5 C-8.66 4.67 -9.32 4.34 -10 4 C-7.56830601 0.23087432 -7.56830601 0.23087432 -5 -0.8125 C-3 -1 -3 -1 0 0 Z " fill="#44536E" transform="translate(57,38)"/>
<path d="M0 0 C1.32 0 2.64 0 4 0 C4 1.32 4 2.64 4 4 C2.68 4.33 1.36 4.66 0 5 C-0.5625 3.0625 -0.5625 3.0625 -1 1 C-0.67 0.67 -0.34 0.34 0 0 Z " fill="#7BABA8" transform="translate(79,103)"/>
<path d="M0 0 C0.99 0.495 0.99 0.495 2 1 C4.0374763 1.22858114 6.08040303 1.41024278 8.125 1.5625 C9.76855469 1.68818359 9.76855469 1.68818359 11.4453125 1.81640625 C12.28835937 1.87699219 13.13140625 1.93757813 14 2 C14 2.33 14 2.66 14 3 C12.39602723 3.16852247 10.7918131 3.33474886 9.1875 3.5 C8.29417969 3.5928125 7.40085937 3.685625 6.48046875 3.78125 C4 4 4 4 1 4 C0.67 2.68 0.34 1.36 0 0 Z " fill="#354569" transform="translate(40,79)"/>
<path d="M0 0 C1.125 1.5 1.125 1.5 2 4 C1.57598348 6.7773082 0.81108065 9.29639783 0 12 C-0.33 12 -0.66 12 -1 12 C-2.42857143 3.42857143 -2.42857143 3.42857143 0 0 Z " fill="#586380" transform="translate(39,49)"/>
<path d="M0 0 C1.9375 0.75 1.9375 0.75 4 2 C4.8125 4.0625 4.8125 4.0625 5 6 C4 7 4 7 0.4375 7.0625 C-0.696875 7.041875 -1.83125 7.02125 -3 7 C-3 6.67 -3 6.34 -3 6 C-1.02 6 0.96 6 3 6 C1.515 3.03 1.515 3.03 0 0 Z " fill="#37466C" transform="translate(85,42)"/>
<path d="M0 0 C0.99 0.99 1.98 1.98 3 3 C2.67 3.99 2.34 4.98 2 6 C2 5.34 2 4.68 2 4 C0.02 4.33 -1.96 4.66 -4 5 C-4 4.01 -4 3.02 -4 2 C-3.34 2.33 -2.68 2.66 -2 3 C-1.67 2.34 -1.34 1.68 -1 1 C-0.67 0.67 -0.34 0.34 0 0 Z " fill="#D7D8D8" transform="translate(106,35)"/>
<path d="M0 0 C0.66 0.99 1.32 1.98 2 3 C3.32 3 4.64 3 6 3 C6 3.66 6 4.32 6 5 C0.25 5.125 0.25 5.125 -2 4 C-2.33 4.66 -2.66 5.32 -3 6 C-3 4.68 -3 3.36 -3 2 C-2.34 2 -1.68 2 -1 2 C-0.67 1.34 -0.34 0.68 0 0 Z " fill="#DDF5F4" transform="translate(77,104)"/>
<path d="M0 0 C1.32 0.66 2.64 1.32 4 2 C3.67 2.99 3.34 3.98 3 5 C1.68 5 0.36 5 -1 5 C-0.67 3.35 -0.34 1.7 0 0 Z " fill="#78A8A6" transform="translate(95,90)"/>
<path d="M0 0 C1.98 0.495 1.98 0.495 4 1 C3.34 2.32 2.68 3.64 2 5 C1.01 4.67 0.02 4.34 -1 4 C-0.67 2.68 -0.34 1.36 0 0 Z " fill="#76A7A4" transform="translate(88,98)"/>
<path d="M0 0 C1.32 0.33 2.64 0.66 4 1 C4 2.32 4 3.64 4 5 C2.68 5 1.36 5 0 5 C0 3.35 0 1.7 0 0 Z " fill="#77A9A5" transform="translate(99,81)"/>
<path d="M0 0 C0.99 0.33 1.98 0.66 3 1 C2.67 2.32 2.34 3.64 2 5 C0.68 4.67 -0.64 4.34 -2 4 C-2 3.01 -2 2.02 -2 1 C-1.34 0.67 -0.68 0.34 0 0 Z " fill="#75A7A4" transform="translate(92,33)"/>
<path d="M0 0 C0.33 0.66 0.66 1.32 1 2 C0.0625 4.625 0.0625 4.625 -1 7 C-1.66 7 -2.32 7 -3 7 C-3.33 5.35 -3.66 3.7 -4 2 C-2.68 1.34 -1.36 0.68 0 0 Z " fill="#595C5C" transform="translate(98,26)"/>
<path d="M0 0 C0.66 0 1.32 0 2 0 C2 2.64 2 5.28 2 8 C1.01 7.67 0.02 7.34 -1 7 C-0.67 4.69 -0.34 2.38 0 0 Z " fill="#747374" transform="translate(81,115)"/>
<path d="M0 0 C1.98 0 3.96 0 6 0 C6 0.66 6 1.32 6 2 C3.69 2.66 1.38 3.32 -1 4 C-0.67 2.68 -0.34 1.36 0 0 Z " fill="#656766" transform="translate(110,63)"/>
<path d="M0 0 C4.75 0.75 4.75 0.75 7 3 C5.02 3.99 5.02 3.99 3 5 C1.5 3.625 1.5 3.625 0 2 C0 1.34 0 0.68 0 0 Z " fill="#CAD5EA" transform="translate(73,38)"/>
<path d="M0 0 C1.65 0.33 3.3 0.66 5 1 C5 1.99 5 2.98 5 4 C4.01 3.67 3.02 3.34 2 3 C-0.14255793 3.38932856 -0.14255793 3.38932856 -2 4 C-1.34 2.68 -0.68 1.36 0 0 Z " fill="#D2D2D3" transform="translate(96,24)"/>
<path d="M0 0 C2.0625 0.4375 2.0625 0.4375 4 1 C4 1.66 4 2.32 4 3 C2.68 2.67 1.36 2.34 0 2 C-0.33 3.32 -0.66 4.64 -1 6 C-0.34 6.33 0.32 6.66 1 7 C0.01 7 -0.98 7 -2 7 C-1.125 1.125 -1.125 1.125 0 0 Z " fill="#6F7272" transform="translate(87,19)"/>
<path d="M0 0 C0.99 0 1.98 0 3 0 C3.33 2.31 3.66 4.62 4 7 C3.01 6.67 2.02 6.34 1 6 C1.66 6 2.32 6 3 6 C3 5.34 3 4.68 3 4 C1.68 3.67 0.36 3.34 -1 3 C-0.67 2.01 -0.34 1.02 0 0 Z " fill="#585959" transform="translate(48,16)"/>
<path d="M0 0 C-3.63423209 2.32590854 -6.77088331 2.16265833 -11 2 C-7.374967 -1.625033 -4.81746234 -1.01907857 0 0 Z " fill="#485B88" transform="translate(85,143)"/>
<path d="M0 0 C0.66 0.33 1.32 0.66 2 1 C1.34 2.65 0.68 4.3 0 6 C-0.66 6 -1.32 6 -2 6 C-2.33 4.68 -2.66 3.36 -3 2 C-2.01 1.34 -1.02 0.68 0 0 Z " fill="#293D74" transform="translate(77,130)"/>
<path d="M0 0 C0.66 0.33 1.32 0.66 2 1 C1.67 4.63 1.34 8.26 1 12 C0.67 12 0.34 12 0 12 C-0.06058594 11.37351563 -0.12117188 10.74703125 -0.18359375 10.1015625 C-0.26738281 9.28429687 -0.35117188 8.46703125 -0.4375 7.625 C-0.51871094 6.81289062 -0.59992188 6.00078125 -0.68359375 5.1640625 C-0.89090114 2.95727195 -0.89090114 2.95727195 -2 1 C-1.34 0.67 -0.68 0.34 0 0 Z " fill="#C4D0DF" transform="translate(115,130)"/>
<path d="M0 0 C3.3 0 6.6 0 10 0 C10 0.33 10 0.66 10 1 C8.906875 1.103125 7.81375 1.20625 6.6875 1.3125 C3.14440371 1.97307727 2.06756277 2.2027092 0 5 C0 3.35 0 1.7 0 0 Z " fill="#EAF3FE" transform="translate(55,67)"/>
<path d="M0 0 C1.32 0.66 2.64 1.32 4 2 C4 2.66 4 3.32 4 4 C2.68 4.33 1.36 4.66 0 5 C-0.33 4.01 -0.66 3.02 -1 2 C-0.67 1.34 -0.34 0.68 0 0 Z " fill="#6EA3A1" transform="translate(38,33)"/>
<path d="M0 0 C0.99 1.32 1.98 2.64 3 4 C2.67 4.66 2.34 5.32 2 6 C0.68 5.34 -0.64 4.68 -2 4 C-2 3.01 -2 2.02 -2 1 C-1.34 0.67 -0.68 0.34 0 0 Z " fill="#E2E2E3" transform="translate(37,22)"/>
</svg>
